<?xml version="1.0" encoding="utf-8"?>
<!-- Generator: Adobe Illustrator 26.0.0, SVG Export Plug-In . SVG Version: 6.00 Build 0)  -->
<svg version="1.1" xmlns="http://www.w3.org/2000/svg" xmlns:xlink="http://www.w3.org/1999/xlink" x="0px" y="0px"
	 viewBox="0 0 1200 350" style="enable-background:new 0 0 1200 350;" xml:space="preserve">
<style type="text/css">
	.st0{fill:#157766;}
</style>
<g id="Capa_1">
</g>
<g id="Capa_2">
	<g>
		<g>
			<path class="st0" d="M418.1,112.9h34.1l36.1,88h1.5l36.1-88H560v130.9h-26.8v-85.2h-1.1l-33.9,84.6h-18.3l-33.9-84.9H445v85.5
				h-26.8V112.9z"/>
			<path class="st0" d="M703.1,178.3c0,14.3-2.7,26.4-8.1,36.4c-5.4,10-12.7,17.7-22,22.9c-9.3,5.3-19.7,7.9-31.2,7.9
				c-11.6,0-22.1-2.6-31.3-7.9c-9.2-5.3-16.6-12.9-21.9-22.9c-5.4-10-8.1-22.1-8.1-36.4c0-14.3,2.7-26.4,8.1-36.4
				c5.4-10,12.7-17.7,21.9-22.9c9.2-5.3,19.7-7.9,31.3-7.9c11.5,0,22,2.6,31.2,7.9c9.3,5.3,16.6,12.9,22,22.9
				C700.4,151.9,703.1,164,703.1,178.3z M675,178.3c0-9.2-1.4-17-4.1-23.4c-2.7-6.3-6.6-11.2-11.6-14.4c-5-3.3-10.8-4.9-17.5-4.9
				s-12.5,1.6-17.5,4.9c-5,3.3-8.9,8.1-11.6,14.4c-2.7,6.4-4.1,14.1-4.1,23.4c0,9.2,1.4,17,4.1,23.4c2.7,6.3,6.6,11.2,11.6,14.4
				c5,3.3,10.8,4.9,17.5,4.9s12.5-1.6,17.5-4.9s8.9-8.1,11.6-14.4S675,187.6,675,178.3z"/>
			<path class="st0" d="M839,158.7h-28c-0.5-3.6-1.6-6.8-3.1-9.7c-1.6-2.8-3.6-5.3-6.1-7.3c-2.5-2-5.3-3.5-8.5-4.6
				c-3.2-1.1-6.7-1.6-10.5-1.6c-6.8,0-12.7,1.7-17.7,5c-5,3.3-8.9,8.2-11.7,14.6c-2.8,6.4-4.2,14.1-4.2,23.2
				c0,9.3,1.4,17.2,4.2,23.5s6.7,11.1,11.7,14.4c5,3.2,10.8,4.9,17.5,4.9c3.7,0,7.1-0.5,10.3-1.5c3.2-1,6-2.4,8.5-4.3
				c2.5-1.9,4.5-4.2,6.2-6.9c1.6-2.7,2.8-5.8,3.4-9.3l28,0.1c-0.7,6-2.5,11.8-5.4,17.4c-2.9,5.6-6.7,10.5-11.6,14.9
				c-4.8,4.4-10.6,7.8-17.3,10.4s-14.2,3.8-22.6,3.8c-11.7,0-22.1-2.6-31.3-7.9c-9.2-5.3-16.4-12.9-21.7-22.9c-5.3-10-8-22.1-8-36.4
				c0-14.3,2.7-26.4,8.1-36.4c5.4-10,12.7-17.7,21.9-22.9c9.2-5.3,19.6-7.9,31.1-7.9c7.6,0,14.6,1.1,21.1,3.2
				c6.5,2.1,12.3,5.2,17.3,9.3s9.1,9,12.3,14.9C836.1,144.4,838.1,151.1,839,158.7z"/>
			<path class="st0" d="M879,243.8h-29.7l45.2-130.9h35.7l45.1,130.9h-29.7l-32.8-101h-1L879,243.8z M877.2,192.3h70.1v21.6h-70.1
				V192.3z"/>
		</g>
		<g>
			<path class="st0" d="M190.5,217.7c1,13.1,2,26.2,3.2,39.3c0.8,8.7-1.6,11.5-10.3,11.2c-10.2-0.5-16.6-6.3-20.1-15.3
				c-13-32.6-9.7-63.5,10.9-91.9c8.4-11.5,7.5-12.4-0.2-22.1c-16.7-21-16.1-51.9,0.5-72.3c17.6-21.7,46.5-28.8,71.1-17.3
				c25.2,11.7,39.3,38.2,33.6,64.8c-2,9.2,1.9,12.5,9.3,16.3c36.8,18.8,57.3,48.5,55.3,90.6c-2,40.1-24.1,67-60.2,82.8
				c-13.1,5.7-25.5,1.1-30.1-10.3c-5-12.4,0.4-24.7,14.2-29c26.9-8.3,35.2-28,36-53.6c0.7-25.4-1-24.5-21.1-20.1
				c-17.3,3.8-31.6,3.9-36.6-17.3c-0.5-2.2-2.4-4.1-4.1-5.8c-4.6-4.8-8.7-4.1-10.5,2.3c-1.4,4.8-1.4,10-2.1,15.1
				c-0.5,4,1.7,9.6-3.7,10.7c-5.8,1.3-6.5-5-8.6-8.7c-1.9-3.4-3.5-6.9-5.5-10.3c-2.2-3.6-4.3-7.8-9.5-6.9c-5,0.8-6,5.4-7.2,9.4
				C191.1,191.9,190.7,204.7,190.5,217.7z M200,132.3c8.4-0.1,16.1-7,16.4-14.5c0.1-3-0.6-5.4-3.7-6.3c-2.8-0.9-4.8,0.8-5.6,3.2
				c-3.2,9.4-7.9,10.4-14.8,3.3c-1.8-1.9-4.2-2.1-6.4-0.1c-2.5,2.3-2.1,4.8-0.3,7.1C189.2,129.7,193.8,132.6,200,132.3z
				 M244.7,122.4c8.1-0.2,16.2-7.3,16.6-14.6c0.2-3-0.7-5.3-3.7-6.3c-2.8-0.9-4.8,0.5-5.6,3c-3.2,9-7.7,10.9-14.5,3.3
				c-1.8-2.1-4.1-2.2-6.3-0.3c-2.5,2.1-2.4,4.6-0.6,7.1C233.9,119.5,238.4,122.4,244.7,122.4z"/>
			<path class="st0" d="M313.9,46.2c5.1-0.5,8.8,2.7,11.3,6.9c2.3,4.2,4.3,5.3,8.8,2.6c6-3.7,12.2-3.2,17,2.3
				c4.9,5.4,6,11.7,2.1,18.1c-7.5,12.4-19.9,18.4-32.4,24.3c-2.2,1-4.2-0.1-5.5-1.9c-7.8-10.6-15.9-21.1-16.7-35
				C297.9,53.7,304.6,46.2,313.9,46.2z"/>
			<path class="st0" d="M215.4,230.6c-4.4-0.1-7.9-1.4-10.9-4.1c-2.7-2.6-5.1-5.5-2.2-9.2c2.7-3.4,5.5-2,8.4,0.4
				c3.8,3.2,6.4,1.8,7.9-2.6c1.3-3.8,3.5-6.6,7.9-4.3c4.1,2.1,3.7,5.9,2.4,9.4C226.6,226.4,221.8,230,215.4,230.6z"/>
			<path class="st0" d="M264.1,208c-0.9,5.7-4.7,10.5-11.3,12.3c-6.9,1.9-12.1-1.4-16-6.9c-1.7-2.3-1.2-4.4,0.7-6.3
				c1.9-1.9,4.1-2.7,6.3-0.8c5,4.5,8.7,5.3,10.4-2.8c0.6-2.8,2.7-4.9,6-3.7C263.4,200.8,264.4,203.5,264.1,208z"/>
			<path class="st0" d="M287.5,210.9c-5,0.2-9.3-1.9-9.5-7.7c-0.2-6.5,4.4-8.4,10.2-8.4c5.6,0,10.5,1.2,10.4,8
				C298.4,209.4,293.6,211,287.5,210.9z"/>
		</g>
	</g>
</g>
</svg>
