<svg id="Capa_1" data-name="Capa 1" xmlns="http://www.w3.org/2000/svg" viewBox="0 0 2032 2032"><defs><style>.cls-1{fill:#11aa50;}.cls-2{fill:#13914f;}.cls-3{fill:#25343e;}.cls-4{fill:#24343d;}.cls-5{fill:#26343e;}.cls-6{fill:#26353f;}.cls-7{fill:#b6c4c1;}.cls-8{fill:#f0f3f4;}.cls-9{fill:#434d53;}.cls-10{fill:#7cc9a1;}.cls-11{fill:#fcfdfd;}.cls-12{fill:#fafbfb;}.cls-13{fill:#fbfcfc;}.cls-14{fill:#fbfbfb;}</style></defs><path class="cls-1" d="M993.11,1108.36c-72.63-56.94-119.89-129.44-134.22-221.52-6.74-43.31-2.18-86.39,6.91-129,17.39-81.5,56.71-150.31,120.05-204.88,10.69-9.2,17.6-19.88,18-35.29a22.15,22.15,0,0,1,4.78,8.86c-1.22,2.09-2.15,4.19-1.6,6.75,3.3,15.31,1.42,31,3,46.42,1.55,15,.45,30.17,1.25,45.31,1.62,30.87.14,61.83,1.33,92.78,1.87,48.46-.6,97,1.3,145.52,1,25.15.26,50.41-.56,75.65-.94,29-3.16,58-3.41,87-3.3,7.87-3.13,16.19-3.09,24.5l-.49,6.44a2.76,2.76,0,0,0-.33,4c0,.73-.09,1.46-.14,2.19-1.19,2.26-2.45,4.5-1.26,7.17-.3,2.15-.59,4.3-.89,6.45a17.7,17.7,0,0,0-1.84,9.38c-.4,2.46-.81,4.93-1.21,7.4-1.22,1.26-2.24,2.58-1.53,4.5l-.61,2.42c-.08.43-.17.87-.25,1.3-.31.91-.63,1.82-.94,2.74a2.1,2.1,0,0,0-1.05,2.73l-1.72,1.65Z"/><path class="cls-2" d="M1009.92,1026c.26-29,2.48-58,3.42-87,.82-25.24,1.55-50.5.56-75.65-1.9-48.52.57-97.06-1.3-145.52-1.19-30.95.29-61.91-1.33-92.78-.8-15.14.3-30.32-1.25-45.31-1.59-15.47.29-31.11-3-46.42-.55-2.56.38-4.66,1.6-6.75,11.29,28.87,33.32,49.6,53.72,71.74,43.12,46.81,70,102.56,85.11,163.76,27.17,109.81,5.43,209.34-66.11,297.41a220,220,0,0,1-48.38,44.46,27.21,27.21,0,0,1-10.14-10c-7.71-13.5-9.76-28.64-12.48-43.58C1012.33,1042.16,1009.05,1034.11,1009.92,1026Z"/><path class="cls-3" d="M1237.24,1304.2c16.68,0,33.44-1.78,50,1.13,39.3,6.91,62.52,40.23,57.79,80.4-5,42.31-38.2,65.57-76.58,68.17-23.48,1.6-47,.09-70.53,0-1.69,0-4.6.84-4.23-2.46.33-3,.79-6.34,4.33-7.47,2.07-.65,4.34-.61,6.47-1.11,4.78-1.13,7.72-3.9,7.92-9.12.24-6.37.87-12.72.89-19.08.1-26.82,0-53.63,0-80.45,0-15.48-1.81-17.43-17.2-20-2.21-.37-6.94,1.52-6.07-3.21.64-3.47,2-7.59,7.65-7.28C1210.87,1304.51,1224.05,1305.22,1237.24,1304.2Zm.12,70c0,16.69,0,33.39,0,50.09,0,7.18,2.47,13.17,9.92,15.36,19.16,5.63,37.48,5,53.17-9.15s19.5-32.86,19.06-52.76c-.69-31.94-17.42-53.9-45.67-60.57-9.47-2.24-19.12-2.46-28.83-2-5.44.27-7.8,2.62-7.73,8.23C1237.49,1340.39,1237.37,1357.31,1237.36,1374.23Z"/><path class="cls-4" d="M1452.06,1369.61c3.89,1.49,6.71,2.54,9.52,3.65,32.09,12.75,28.37,48.74,10.56,64.07-15.56,13.39-34.09,17.74-53.86,17.84-18.45.09-36.9-.57-55.35-1.06-1.84,0-5.11,1.63-5.32-1.71-.18-2.93.76-6.14,3.89-7.78a7.42,7.42,0,0,1,1.93-.35c15.33-3.17,15.63-3.17,15.77-18.59.29-32.74.29-65.49.29-98.24,0-8.34-2.4-10.78-10.79-12a27.84,27.84,0,0,1-5.83-1c-1.86-.69-6,1.12-5-3,.78-3.28,1.46-7.5,6.93-7.13,21.74,1.49,43.5.15,65.25.23a63.89,63.89,0,0,1,22,3.51c12.58,4.63,20.58,13.14,22,27,1.32,13.45-4.49,23.33-15.39,30.63C1456.75,1366.92,1454.82,1368,1452.06,1369.61Zm-36.64,9.39c-2.85,0-5.7,0-8.55,0s-4.37,1.37-4.34,4.46c.14,15.35-.53,30.73.91,46,.57,6.08,3.76,10.91,10.17,12.32a55,55,0,0,0,20.26,1.13c15.57-2.38,24.55-11.64,26.09-26.8,1.6-15.79-5.6-27.79-20-33.29C1432.07,1379.83,1423.78,1379.17,1415.42,1379Zm-12.18-37.07h-.69c0,7,.09,14,0,21,0,3.11.68,5.09,4.27,5.1,8.32,0,16.67.9,25-.52,10.1-1.72,16-7.67,17.78-17.6,2.92-16.35-5-28.68-21.11-32.61a69.56,69.56,0,0,0-19-1.55c-4.42.16-6.37,1.92-6.25,6.4C1403.37,1328.77,1403.24,1335.35,1403.24,1341.93Z"/><path class="cls-5" d="M527.93,1410.19c0,7.9.24,15.82-.07,23.71-.27,7,2.5,10.74,9.67,11.27,2.91.21,6.3.32,5.6,5.17-.42,3-1.25,4.27-4.45,4.08a380.27,380.27,0,0,0-42.17,0c-2.45.13-4.47-.08-4.46-3.22,0-2.4-.39-5,3.19-5.37,1.73-.19,3.42-.81,5.15-1.09,4.76-.76,7.53-3.42,7.82-8.29,1.1-18.88.59-37.78.48-56.67,0-5.9-5.74-6.45-9.57-8.69-2.83-1.65-8.54-.76-8.09-5.06.47-4.54,6-3.32,9.43-4.07,7.73-1.68,15.49-3.29,22.88-6.12,4.6-1.76,5.26-.14,5.1,4-.12,3.07-2.58,7.31.73,9,2.5,1.26,5-2.66,7.58-4.22,5.44-3.34,11-6.45,17.1-8.37,12.89-4,23.49-1,31.43,9.85,3,4.11,4.93,4.16,8.77,1.25a82.47,82.47,0,0,1,14.13-8.36c23.4-11.29,44.35.38,47.12,26.23,1.66,15.56,0,31.18.34,46.77.2,9.89,1,11,10.73,13.14,2.55.58,6.51-.48,5.89,4.82-.58,4.9-3.45,4.43-6.93,4.39-12.74-.18-25.49-.08-38.23-.13-2.16,0-5,1.27-5.23-2.82-.16-3.16.2-5.17,4-6.14,9.7-2.49,9.78-2.72,9.88-13,.12-13.18.14-26.36-.05-39.53-.14-9.82-4.1-17.53-13.68-21.28-8.25-3.23-23.47.27-29.08,6.23a5,5,0,0,0-1.3,4.19c1.31,17.13.07,34.27.42,51.4.18,9,.75,9.62,9.78,11.81,2.74.67,6.54.28,5.8,5.16-.42,2.71-1,4.27-4.42,4.22-14.06-.18-28.12,0-42.18,0-2.49,0-4.4-.28-4.36-3.4,0-2.48-.17-5,3.32-5.32,2-.22,3.88-.72,5.82-1.12,3.87-.8,6.25-2.88,6.49-7.09,1-16,1.87-32,0-48-1.89-16.21-13.65-23.59-29.28-18.74-13.45,4.18-15.36,6.7-15.36,20.34q0,9.56,0,19.12Z"/><path class="cls-6" d="M966.48,1456.22c-5.35-3.13-10.55-5.6-13.29-11.07-2.06-4.13-2.33-7.56,2.59-9.72a3.74,3.74,0,0,0,.58-.33c4-2.72,10.82-4.17,11.43-8.09.76-4.85-6.75-4.88-10.23-7.73-17.27-14.13-15-44.11,4.77-56.06,15-9.07,31.11-11.61,48-5.21,4.73,1.79,9.46,3.45,14.6,3.76,6.56.4,12.74-.3,17.93-4.86,4.37,9.84-1.53,18.6-12.13,17.56-4.84-.47-5.81,0-5,5.21,3.6,23-9.86,40.72-33.8,45.29-3.23.61-6.53.89-9.8,1.27-3.67.43-6.51,2.27-6.89,5.94-.4,3.89,2.57,6.1,6,6.77a121.13,121.13,0,0,0,14.37,1.69c8.33.6,16.66,1.09,24.89,2.62,17.73,3.31,26.25,17.47,20.52,34.79-5.48,16.59-18.27,25.87-33.8,31.83a62.14,62.14,0,0,1-43.23,1.08c-8.89-3-15.71-8.66-19.66-17.39-4.13-9.14-2.85-16.53,4.65-23.18C954.46,1465.47,960.44,1461.07,966.48,1456.22Zm25.3,2.67c-5.1-.46-9-.66-12.95.1-15.65,3.06-23.25,19.91-14.18,31.4,11.14,14.12,41.75,15.55,54.33,2.55,10.74-11.1,7-26.36-7.63-31.13C1004.61,1459.62,997.63,1459.09,991.78,1458.89Zm-26.26-72.57c.33,7.79,1.65,15.3,6.57,21.67,5.37,7,12.64,9.33,21,7.66,8-1.59,11.23-7.78,13-15a39.61,39.61,0,0,0-.23-18.93c-3-12.37-12.72-19.13-24.8-17.52C971.74,1365.49,965.64,1374.13,965.52,1386.32Z"/><path class="cls-6" d="M846.62,1370.44c7.1-5.37,13.06-9.79,19.91-12.83,20.92-9.28,40.4.91,44.69,23.42,2.21,11.55,1.09,23.23,1.35,34.85.12,5.27,0,10.55.19,15.82.28,10.77.61,11.5,11.18,13.15,5,.79,5.3,3.29,4.76,7.24-.38,2.82-1.75,3.61-4.42,3.48a422,422,0,0,0-42.83,0c-3.07.16-4.54-.93-4.48-4,0-2.56-.6-5,3.13-6.15,11.53-3.42,11.51-3.58,11.47-15.93,0-11.65-.05-23.29-.24-34.94-.14-9.29-2.58-17.63-12-21.63-10-4.24-19.34-1.83-28.07,4-3.56,2.36-4.23,6-4.19,9.82.18,16,.7,32.07.49,48.1-.09,7.13,2.91,10.16,9.57,10.3,4.64.1,6.86,1.83,5.78,6.85-.56,2.56-1.36,3.83-4.24,3.67a439.29,439.29,0,0,0-44.15,0c-2.39.11-3.93-.46-3.74-3.14.18-2.43-1.33-5.52,2.17-6.8a20,20,0,0,1,4.53-.82c5.38-.65,8.14-3.35,8.25-9.07.34-17.79.75-35.57.49-53.37-.11-6.92-5.28-7.72-9.59-10-3-1.61-8.74-.71-8.12-5.91.57-4.81,5.85-3.73,9.26-4.44,8-1.66,16-3.17,23.49-6.23,5.9-2.41,6.42.18,6,4.82C847,1363.44,846.9,1366.28,846.62,1370.44Z"/><path class="cls-6" d="M1162.14,1403.9c-.13,30.87-22.13,52.77-52.91,52.68-29.67-.09-48.91-20.73-48.54-52.09.34-29,24-50.7,54.88-50.19C1143.48,1354.76,1162.27,1374.76,1162.14,1403.9Zm-79.75-5c.17,3.07.1,6.17.55,9.19,2.18,14.35,6.84,27.41,20.69,34.71,15.3,8.06,30.54,1.23,34.94-15.36a60.3,60.3,0,0,0,2-20.22c-1-12.93-3.86-25.23-13.89-34.52-16.16-15-38.08-8.28-43.08,13.11A63.19,63.19,0,0,0,1082.39,1398.93Z"/><path class="cls-5" d="M791.78,1405.44c-2.08,32.5-25.24,53.2-57.14,51.06-28.61-1.92-46-24.21-44-56.19,2.12-32.92,32.3-46.83,56-45.74C775.06,1355.88,793.58,1377.37,791.78,1405.44Zm-21.74,6.9c0-16.51-3.72-28.79-11.61-37.36-7.73-8.4-17.38-12.12-28.54-9.11-10.24,2.77-14.82,10.87-16.84,20.77a66.05,66.05,0,0,0,.25,26.13c2,10.38,6.18,19.65,14.48,26.62,15.64,13.15,36.21,6.46,40.82-13.29A49.47,49.47,0,0,0,770,1412.34Z"/><path class="cls-7" d="M1010.33,1050.29c2.72,14.94,4.77,30.08,12.48,43.58a27.21,27.21,0,0,0,10.14,10c-3.36,18-6.85,36.07-10,54.15a245,245,0,0,0-3.43,26c-.52,7.81-5.79,5.83-10.33,6.28-5.38.53-5.21-2.74-5.47-6.54-1.73-24.43-4.92-48.69-8.37-72.92-.05-.38-.48-.71-.74-1.06a4.33,4.33,0,0,1,0-1l1.71-1.65c1.44-.49,2.58-1.1,1.06-2.73.31-.92.63-1.83.94-2.74.19-.1.54-.21.53-.28a6.17,6.17,0,0,0-.28-1c.2-.81.4-1.62.61-2.42,2.12-1,2-2.67,1.53-4.5.4-2.47.81-4.94,1.21-7.4,2.22-2.82,3.47-5.82,1.84-9.38.3-2.15.59-4.3.89-6.45,2.69-2,1.54-4.65,1.26-7.17,0-.73.1-1.46.14-2.19,1.8-1.19,1.88-2.53.33-4,.17-2.15.33-4.29.49-6.44Z"/><path class="cls-8" d="M1524.86,1454.2c-2.07,1.87-3.92,1.83-5.5-.62-.94-2.11-3.19-2.06-4.87-2.93a17,17,0,0,1-9-18.75,17.34,17.34,0,0,1,16.76-13.3,16.69,16.69,0,0,1,15.93,12.45,16.87,16.87,0,0,1-8.53,19.52C1527.92,1451.51,1524.82,1450.91,1524.86,1454.2Zm-10-18.58h0c0,3.07,0,6.13,0,9.19,0,1.08,0,2.49,1.3,2.65,1.86.23,1.67-1.4,2-2.66.55-2.53-1.82-6.75,1.7-7.28s3.41,4.35,5,6.75c.92,1.36,1.31,4,3.43,3.08s-.14-2.81-.34-4.28c-.33-2.45-4.16-4.47-.67-7.44,3.15-2.68,3.28-6.33,1.11-9.48-2.87-4.14-7.7-3.08-11.53-2.39s-1.42,4.76-2,7.28A22.56,22.56,0,0,0,1514.85,1435.62Z"/><path class="cls-9" d="M1524.86,1454.2c0-3.29,3.06-2.69,4.75-3.63a16.87,16.87,0,0,0,8.53-19.52,16.69,16.69,0,0,0-15.93-12.45,17.34,17.34,0,0,0-16.76,13.3,17,17,0,0,0,9,18.75c1.68.87,3.93.82,4.87,2.93-5.88,1-9.33-2.75-12.71-6.53-4.09-4.57-5.36-17.64-1.45-22.23,6-7,15.69-10.13,23.7-7.11s12.82,10.91,12,19.88C1540.13,1446.15,1534.12,1452.37,1524.86,1454.2Z"/><path class="cls-10" d="M994.58,1108.85a4.33,4.33,0,0,0,0,1l-1.49-1.44Z"/><path class="cls-10" d="M1010.33,1050.29l-3.49.2c0-8.31-.21-16.63,3.09-24.5C1009.05,1034.11,1012.33,1042.16,1010.33,1050.29Z"/><path class="cls-10" d="M1003.73,1076.73c1.63,3.56.38,6.56-1.84,9.38A17.7,17.7,0,0,1,1003.73,1076.73Z"/><path class="cls-10" d="M1005.88,1063.11c.28,2.52,1.43,5.18-1.26,7.17C1003.43,1067.61,1004.69,1065.37,1005.88,1063.11Z"/><path class="cls-10" d="M1006.35,1056.93c1.55,1.46,1.47,2.8-.33,4A2.76,2.76,0,0,1,1006.35,1056.93Z"/><path class="cls-10" d="M1000.68,1093.51c.46,1.83.59,3.55-1.53,4.5C998.44,1096.09,999.46,1094.77,1000.68,1093.51Z"/><path class="cls-10" d="M997.35,1104.47c1.52,1.63.38,2.24-1.06,2.73A2.12,2.12,0,0,1,997.35,1104.47Z"/><path class="cls-10" d="M998.54,1100.43a6.17,6.17,0,0,1,.28,1c0,.07-.34.18-.53.28C998.37,1101.3,998.46,1100.86,998.54,1100.43Z"/><path class="cls-11" d="M1237.36,1374.23c0-16.92.13-33.84-.06-50.76-.07-5.61,2.29-8,7.73-8.23,9.71-.5,19.36-.28,28.83,2,28.25,6.67,45,28.63,45.67,60.57.44,19.9-3.37,38.67-19.06,52.76s-34,14.78-53.17,9.15c-7.45-2.19-9.9-8.18-9.92-15.36C1237.32,1407.62,1237.36,1390.92,1237.36,1374.23Z"/><path class="cls-12" d="M1415.42,1379c8.36.17,16.65.83,24.56,3.86,14.38,5.5,21.58,17.5,20,33.29-1.54,15.16-10.52,24.42-26.09,26.8a55,55,0,0,1-20.26-1.13c-6.41-1.41-9.6-6.24-10.17-12.32-1.44-15.31-.77-30.69-.91-46,0-3.09,1.41-4.43,4.34-4.46S1412.57,1379,1415.42,1379Z"/><path class="cls-12" d="M1403.24,1341.93c0-6.58.13-13.16,0-19.74-.12-4.48,1.83-6.24,6.25-6.4a69.56,69.56,0,0,1,19,1.55c16.13,3.93,24,16.26,21.11,32.61-1.78,9.93-7.68,15.88-17.78,17.6-8.28,1.42-16.63.55-25,.52-3.59,0-4.32-2-4.27-5.1.13-7,0-14,0-21Z"/><path class="cls-12" d="M991.78,1458.89c5.85.2,12.83.73,19.57,2.92,14.63,4.77,18.37,20,7.63,31.13-12.58,13-43.19,11.57-54.33-2.55-9.07-11.49-1.47-28.34,14.18-31.4C982.75,1458.23,986.68,1458.43,991.78,1458.89Z"/><path class="cls-12" d="M965.53,1386.32c.11-12.19,6.21-20.83,15.58-22.08,12.08-1.61,21.8,5.15,24.8,17.52a39.61,39.61,0,0,1,.23,18.93c-1.77,7.18-5,13.37-13,15-8.41,1.67-15.68-.71-21-7.66C967.17,1401.62,965.85,1394.11,965.53,1386.32Z"/><path class="cls-13" d="M1082.39,1398.93a63.19,63.19,0,0,1,1.16-13.09c5-21.39,26.92-28.1,43.08-13.11,10,9.29,12.87,21.59,13.89,34.52a60.3,60.3,0,0,1-2,20.22c-4.4,16.59-19.64,23.42-34.94,15.36-13.85-7.3-18.51-20.36-20.69-34.71C1082.49,1405.1,1082.56,1402,1082.39,1398.93Z"/><path class="cls-14" d="M770,1412.34a49.47,49.47,0,0,1-1.44,13.76c-4.61,19.75-25.18,26.44-40.82,13.29-8.3-7-12.44-16.24-14.48-26.62a66.05,66.05,0,0,1-.25-26.13c2-9.9,6.6-18,16.84-20.77,11.16-3,20.81.71,28.54,9.11C766.32,1383.55,770.06,1395.83,770,1412.34Z"/><path class="cls-9" d="M1514.85,1435.62a22.56,22.56,0,0,1,.05-4.58c.54-2.52-2-6.57,2-7.28s8.66-1.75,11.53,2.39c2.17,3.15,2,6.8-1.11,9.48-3.49,3,.34,5,.67,7.44.2,1.47,2.56,3.26.34,4.28s-2.51-1.72-3.43-3.08c-1.62-2.4-1.44-7.28-5-6.75s-1.15,4.75-1.7,7.28c-.28,1.26-.09,2.89-2,2.66-1.31-.16-1.29-1.57-1.3-2.65,0-3.06,0-6.12,0-9.19Zm5.65-9.32c-3-.4-2.23,2.28-2.42,4.34-.26,2.78.72,4,3.69,3.7,2.76-.29,4.68-1.13,4.51-4.3C1526.1,1426.69,1523.58,1426.55,1520.5,1426.3Z"/><path class="cls-8" d="M1520.5,1426.3c3.08.25,5.6.39,5.78,3.74.17,3.17-1.75,4-4.51,4.3-3,.3-4-.92-3.69-3.7C1518.27,1428.58,1517.45,1425.9,1520.5,1426.3Z"/></svg>