<svg id="Capa_1" data-name="Capa 1" xmlns="http://www.w3.org/2000/svg" viewBox="0 0 2032 2032"><defs><style>.cls-1{fill:#563d7c;}.cls-2{fill:#fefefe;}.cls-3{fill:#573e7d;}</style></defs><path class="cls-1" d="M491,1015.61q0-172.41,0-344.82c0-34.93,7.78-67.81,27-97.2,34.49-52.75,83.4-81.28,146.62-82.19,69.26-1,138.55-.25,207.83-.26q244.44,0,488.88-.09c30,0,58.56,5.42,84.92,19.78,53.34,29.05,84.76,73.66,93.41,134a154,154,0,0,1,1.31,22q0,349.14,0,698.28c0,50.08-18.42,92.73-54.48,127.3-30,28.79-66.12,44.84-107.82,47.87-8.38.61-16.76.8-25.16.8q-340.09,0-680.18,0c-26.83,0-52.95-3.69-77.37-15.18q-88.66-41.71-103.38-138.82c-1.4-9.31-1.55-18.81-1.55-28.28Q491.08,1187.23,491,1015.61Zm677.51-13.84c5-2.53,9.47-4.64,13.79-7,36-19.45,60.86-47.91,69.83-88.47a172.22,172.22,0,0,0-4.51-90.91c-7.92-24.72-22.62-44.75-43.68-60.08a172.2,172.2,0,0,0-49.73-24.87c-27.56-8.76-55.9-11.24-84.65-11.2q-141.72.18-283.44.07c-10.7,0-9.56-1.45-9.56,9.7q0,296.43,0,592.85c0,1.58.1,3.16,0,4.73-.24,3.54,1,5.54,4.89,5.16,1.3-.13,2.62,0,3.93,0q135,0,270.06,0c24.42,0,48.78-1.42,72.86-5.85,31.25-5.76,60.87-15.89,87.68-33.26,30.79-19.95,51.36-47.5,60.86-83.08,9.65-36.13,8.83-72.29-1.52-108-14.89-51.44-48.51-84-100.73-97C1172.82,1004.13,1171,1004,1168.54,1001.77Z"/><path class="cls-2" d="M1168.54,1001.77c2.42,2.2,4.28,2.36,6,2.8,52.22,12.95,85.84,45.52,100.73,97,10.35,35.72,11.17,71.88,1.52,108-9.5,35.58-30.07,63.13-60.86,83.08-26.81,17.37-56.43,27.5-87.68,33.26-24.08,4.43-48.44,5.82-72.86,5.85q-135,.15-270.06,0c-1.31,0-2.63-.12-3.93,0-3.9.38-5.13-1.62-4.89-5.16.11-1.57,0-3.15,0-4.73q0-296.43,0-592.85c0-11.15-1.14-9.7,9.56-9.7q141.72-.06,283.44-.07c28.75,0,57.09,2.44,84.65,11.2A172.2,172.2,0,0,1,1204,755.34c21.06,15.33,35.76,35.36,43.68,60.08a172.22,172.22,0,0,1,4.51,90.91c-9,40.56-33.85,69-69.83,88.47C1178,997.13,1173.57,999.24,1168.54,1001.77Zm-181.3,242.29c29.11,0,58.23,0,87.35,0a134.78,134.78,0,0,0,32-3.45c35.62-8.6,58.57-30.19,66.86-66.33,3.2-13.94,3.27-28.14,1.92-42.29-3.52-37.09-26-63.81-61.75-74.16-14.53-4.21-29.4-5.09-44.38-5.09H892.17c-9.25,0-8.32-.62-8.32,8.64q0,87,0,173.92c0,1.84.06,3.67,0,5.51,0,2.31,1.19,3.26,3.41,3.22,1.83,0,3.67,0,5.5,0Zm-8.4-437.64q-43.7,0-87.37,0c-7.58,0-7.63.05-7.63,7.8q0,77.14,0,154.28c0,7.23.07,7.3,7.38,7.3q83.43,0,166.87,0c11.05,0,22.06-1.1,32.62-4.51,29.37-9.47,49.49-28,56-59.08,3.29-15.87,2.57-31.83-.19-47.73-5-29.12-22.65-46.32-50.76-53.59a147.27,147.27,0,0,0-36.61-4.41C1032.36,806.37,1005.6,806.43,978.84,806.42Z"/><path class="cls-1" d="M987.24,1244.06H892.8c-1.83,0-3.67-.06-5.5,0-2.22,0-3.43-.91-3.41-3.22,0-1.84,0-3.67,0-5.51q0-87,0-173.92c0-9.26-.93-8.63,8.32-8.64h177.06c15,0,29.85.88,44.38,5.09,35.77,10.35,58.23,37.07,61.75,74.16,1.35,14.15,1.28,28.35-1.92,42.29-8.29,36.14-31.24,57.73-66.86,66.33a134.78,134.78,0,0,1-32,3.45C1045.47,1244,1016.35,1244.06,987.24,1244.06Z"/><path class="cls-3" d="M978.84,806.43c26.76,0,53.52-.06,80.29,0a147.27,147.27,0,0,1,36.61,4.41c28.11,7.27,45.72,24.47,50.76,53.59,2.76,15.9,3.48,31.86.19,47.73-6.48,31.12-26.6,49.61-56,59.08-10.56,3.41-21.57,4.49-32.62,4.51q-83.43.11-166.87,0c-7.31,0-7.38-.07-7.38-7.3q0-77.14,0-154.28c0-7.75,0-7.8,7.63-7.8Q935.15,806.4,978.84,806.43Z"/></svg>