<svg id="Capa_1" data-name="Capa 1" xmlns="http://www.w3.org/2000/svg" viewBox="0 0 2032 2032"><defs><style>.cls-1{fill:#2c3e4e;}.cls-2{fill:#3999d7;}.cls-3{fill:#f19c12;}.cls-4{fill:#e74b3b;}.cls-5{fill:#18bb9c;}.cls-6{fill:#58ae6d;}</style></defs><path class="cls-1" d="M886.77,609.14q.06-30.58.13-61.19c.07-15.68,7.81-23.35,23.47-23.35h172.45c13.87,0,22,8.13,22,22q0,159,0,317.91c0,6.19,0,6.07,5.84,4.27,107.49-33,207.77-18.12,298.49,48.54,69,50.71,111.62,119.61,126.29,204.2,17.58,101.34-7,192.38-73.26,271-50.55,60-115.52,96.3-192.78,110-43.56,7.72-87,6.16-130.16-3.85-4.3-1-8.65-1.75-13-2.61-3.87-2.51-8.44-3.17-12.71-4.52-31.56-10-60.52-25.1-87.77-43.7l-.92-.11,0,0c0-.66-.4-.84-.93-.92h.09a4.82,4.82,0,0,0-.8-1c-28.56-20.36-52.75-45.13-73.81-73.07a.91.91,0,0,0-.3-.42l-1.43-1.83-.76-1-.2-.34a2.48,2.48,0,0,0-1.77-2.08l0,.05a86.51,86.51,0,0,0-10.42-16l-1.1-1.32a.57.57,0,0,0-.41-.41,30.42,30.42,0,0,0-3.42-7.63,307.72,307.72,0,0,1-20.14-42.29c-3.82-10.19-7.16-20.57-10.72-30.86a6.3,6.3,0,0,0-1.62-4.74.39.39,0,0,0,0-.44c-.31-1.88-.51-3.79-1-5.64a372.51,372.51,0,0,1-8.73-55.36c-1.41-15.74-.68-31.52-.69-47.26q-.32-265.28-.13-530.55C886.72,619.48,886.75,614.31,886.77,609.14Zm436.08,570.54c-.31-60.83-48.83-109.26-109.24-109A109,109,0,0,0,1105,1180.38c.32,59.64,49.39,108.64,108.68,108.5C1274.17,1288.75,1323.15,1239.77,1322.85,1179.68Z"/><path class="cls-2" d="M886.77,609.14c0,5.17,0,10.34,0,15.51q0,265.27.13,530.55c0,15.74-.72,31.52.69,47.26a372.51,372.51,0,0,0,8.73,55.36c.45,1.85.65,3.76,1,5.64-.44-.38-1.14-.69-1.28-1.16-2.77-9.52-7-18.51-10.27-27.81-4-11.18-7.83-22.43-11.84-33.6-5.82-16.2-11.63-32.4-17.67-48.52-6.19-16.54-11.94-33.25-18-49.84-3.95-10.82-7.87-21.67-11.93-32.46-5.67-15.07-11-30.27-16.42-45.44q-8.73-24.57-18.07-49c-4-10.42-7.62-20.95-11.42-31.43-1.84-5.06-3.84-10.07-5.48-15.19-3.43-10.72-7.39-21.28-11.38-31.77-4.55-12-8.56-24.12-13.27-36-5.9-15-11.2-30.15-16.39-45.37-2.95-8.65-6.26-17.16-9.24-25.79s-6.71-17.14-9.41-25.91c-1.48-4.85-3.55-7.86-8.9-7.61,5.67-1,5.62-1,3.57-6.61-6.52-17.87-12.67-35.89-19.6-53.6-5.17-13.22,1.14-25,14-29.51,24.35-8.53,48.53-17.52,72.77-26.34,29.38-10.7,58.77-21.32,88.08-32.2C872.58,605.51,879.67,605.22,886.77,609.14Z"/><path class="cls-3" d="M949.48,1372.78c21.06,27.94,45.25,52.71,73.81,73.07a4.82,4.82,0,0,1,.8,1,7,7,0,0,1-4.56-1.15c-15-8.72-30.12-17.25-45.12-26-25.56-14.86-51-29.86-76.58-44.74-15.64-9.11-31.36-18.09-47-27.13l-63.43-36.59-45.79-26.44c-12.37-7.14-24.77-14.22-37.13-21.38q-29-16.83-58-33.73c-21.49-12.47-42.94-25-64.56-37.27-8-4.56-15.57-10.09-24.31-13.39-5.59-4.59-12.17-7.59-18.34-11.23-12.06-7.12-24.24-14-36.37-21s-15.24-18.45-8.3-30.5Q538.2,1040.63,581.88,965c3.63-6.29,8.83-10.16,16.18-10.92,4.78,5.8,9.51,11.64,14.34,17.4q24.3,29,48.64,57.89c17.11,20.45,34.1,41,51.22,61.46q29.52,35.26,59.16,70.42c12.11,14.45,24.11,29,36.2,43.46,16.73,20,33.36,40.12,50.35,59.91,4.86,5.66,8.89,12.13,15,16.68l0,0c3.92,7.14,9.83,12.74,15,18.93q26,31.42,52.29,62.6c1.37,1.64,2.38,3.79,4.8,4.27l0-.05c-.07,1.25.72,1.78,1.77,2.08l.2.34.76,1,1.43,1.83-.06.37Z"/><path class="cls-4" d="M557.62,1179.08c8.74,3.3,16.27,8.83,24.31,13.39,21.62,12.26,43.07,24.8,64.56,37.27q29,16.83,58,33.73c12.36,7.16,24.76,14.24,37.13,21.38l45.79,26.44,63.43,36.59c15.68,9,31.4,18,47,27.13,25.55,14.88,51,29.88,76.58,44.74,15,8.72,30.11,17.25,45.12,26a7,7,0,0,0,4.56,1.15H1024l.93.92,0,0c.23.65.54.64.92.11,27.25,18.6,56.21,33.72,87.77,43.7,4.27,1.35,8.84,2,12.71,4.52-18.45-3.16-36.91-6.26-55.35-9.49q-62.52-11-125-22c-39.2-6.94-78.37-14-117.57-21q-68.61-12.13-137.24-24.12l-137.24-24.14c-6.54-1.15-13.08-2.28-19.6-3.52-12.23-2.32-19.06-12.48-16.9-24.77q14.88-84.75,29.66-169.51C548.33,1190,550.5,1183.17,557.62,1179.08Z"/><path class="cls-5" d="M706.26,756.56c5.35-.25,7.42,2.76,8.9,7.61,2.7,8.77,6.41,17.24,9.41,25.91s6.29,17.14,9.24,25.79c5.19,15.22,10.49,30.42,16.39,45.37,4.71,11.91,8.72,24.07,13.27,36,4,10.49,7.95,21.05,11.38,31.77,1.64,5.12,3.64,10.13,5.48,15.19,3.8,10.48,7.46,21,11.42,31.43q9.29,24.4,18.07,49c5.39,15.17,10.75,30.37,16.42,45.44,4.06,10.79,8,21.64,11.93,32.46,6.06,16.59,11.81,33.3,18,49.84,6,16.12,11.85,32.32,17.67,48.52,4,11.17,7.84,22.42,11.84,33.6,3.32,9.3,7.5,18.29,10.27,27.81.14.47.84.78,1.28,1.16a.39.39,0,0,1,0,.44c0,1.76-.47,3.69,1.62,4.74,3.56,10.29,6.9,20.67,10.72,30.86a307.72,307.72,0,0,0,20.14,42.29,30,30,0,0,1,3.41,7.63c-1.73.14-2.51-1-3.49-2.21-3.37-4.26-6.93-8.39-10.42-12.56-13.49-16.11-26.93-32.26-40.53-48.27-1.59-1.87-2.74-4.55-5.66-5l0,0a2.13,2.13,0,0,0-.41-2.07c-7.12-8.62-14.19-17.27-21.37-25.84-7.37-8.79-14.86-17.46-22.24-26.24-8.23-9.79-16.35-19.67-24.57-29.46-7.09-8.45-14.3-16.8-21.37-25.26-7.9-9.48-15.65-19.08-23.57-28.54-10.56-12.64-21.3-25.13-31.81-37.81q-14.92-18-29.78-36c-15.47-18.85-31.64-37.12-47.37-55.77-15.06-17.87-29.87-36-45-53.82-2.11-2.5-3.67-5.79-7.16-7C584.23,936.69,570,920,556,903c-6.82-8.28-5.36-20.34,3.23-27.77,12.38-10.7,25-21.13,37.52-31.66q46-38.75,92.11-77.42C694,761.86,698.67,756.49,706.26,756.56Z"/><path class="cls-6" d="M598.36,953.51c3.49,1.17,5,4.46,7.16,7,15.1,17.85,29.91,35.95,45,53.82,15.73,18.65,31.9,36.92,47.37,55.77q14.83,18.06,29.78,36c10.51,12.68,21.25,25.17,31.81,37.81,7.92,9.46,15.67,19.06,23.57,28.54,7.07,8.46,14.28,16.81,21.37,25.26,8.22,9.79,16.34,19.67,24.57,29.46,7.38,8.78,14.87,17.45,22.24,26.24,7.18,8.57,14.25,17.22,21.37,25.84a2.13,2.13,0,0,1,.41,2.07c-6.12-4.55-10.15-11-15-16.68-17-19.79-33.62-39.89-50.35-59.91-12.09-14.46-24.09-29-36.2-43.46q-29.53-35.24-59.16-70.42c-17.12-20.45-34.11-41-51.22-61.46q-24.27-29-48.64-57.89c-4.83-5.76-9.56-11.6-14.34-17.4A.62.62,0,0,1,598.36,953.51Z"/><path class="cls-6" d="M873,1281.35c2.92.48,4.07,3.16,5.66,5,13.6,16,27,32.16,40.53,48.27,3.49,4.17,7,8.3,10.42,12.56,1,1.23,1.76,2.35,3.49,2.21a.57.57,0,0,1,.42.41c.16.61-.58,2,1.1,1.32a86.51,86.51,0,0,1,10.42,16c-2.42-.48-3.43-2.63-4.8-4.27q-26.21-31.25-52.29-62.6C882.85,1294.09,876.94,1288.49,873,1281.35Z"/><path class="cls-2" d="M898.85,1268.64c-2.09-1.05-1.6-3-1.62-4.74A6.3,6.3,0,0,1,898.85,1268.64Z"/><path class="cls-6" d="M946.79,1369.18c-1-.3-1.84-.83-1.77-2.08A2.48,2.48,0,0,1,946.79,1369.18Z"/><path class="cls-5" d="M934.64,1351.15c-1.68.65-.94-.71-1.1-1.32Z"/><path class="cls-6" d="M947.75,1370.53l-.76-1Z"/><path class="cls-6" d="M949.48,1372.78l-.36,0,.06-.37A.91.91,0,0,1,949.48,1372.78Z"/><path class="cls-3" d="M1024.93,1447.78l-.93-.92C1024.53,1446.94,1025,1447.12,1024.93,1447.78Z"/><path class="cls-3" d="M1025.82,1447.84c-.38.53-.69.54-.92-.11Z"/></svg>