<svg id="Capa_1" data-name="Capa 1" xmlns="http://www.w3.org/2000/svg" viewBox="0 0 2032 2032"><defs><style>.cls-1{fill:#a159fd;}.cls-2{fill:#f14e1e;}.cls-3{fill:#fe7161;}.cls-4{fill:#0ace82;}.cls-5{fill:#1abbfc;}</style></defs><rect x="491" y="504.5" width="1050" height="1023" rx="162"/><path class="cls-1" d="M1016.21,1023.73q0,38.77-.11,77.55c0,.76-.11,1.53-.16,2.29l-92.22-.06a95.91,95.91,0,0,1-31.6-7.92c-31.21-14.12-52.12-46.69-50.85-80.88,1.42-38,20.29-64.55,54.91-80,7.44-3.31,15.43-4.91,23.53-5.78,1.27-.14,2.54-.32,3.8-.47a4.29,4.29,0,0,0,.5.07l91.93-.08,0,.13c0,1,.11,2,.12,3.06.15,25.74-.3,51.49.24,77.24C1015.91,1013.86,1016.24,1018.8,1016.21,1023.73Z"/><path class="cls-2" d="M1015.94,928.5l-91.93.08a4.29,4.29,0,0,1-.5-.07c-41.82-3-75-33.33-81.42-74.52-7.38-47.51,26.08-92.66,73.67-99.48a94.31,94.31,0,0,1,13.53-1q41.78,0,83.55,0c1.1,0,2.21.09,3.31.15q0,86.12,0,172.25C1016.16,926.81,1016,927.66,1015.94,928.5Z"/><path class="cls-3" d="M1015.94,928.5c.08-.84.22-1.69.22-2.54q0-86.13,0-172.25c.94-.06,1.87-.15,2.81-.15q41.63,0,83.27,0c16.68,0,32.45,3.69,46.57,12.66,28.72,18.25,43.12,44.63,42.08,78.67-1.23,40-30.05,73.37-69.8,81.87-2.82.61-5.7,1-8.55,1.45-4.68.15-9.32,1.47-14,.81a90.81,90.81,0,0,0-12.76-.47q-33.24,0-66.48,0c-1.11,0-2.21.07-3.32.11Z"/><path class="cls-4" d="M923.72,1103.51l92.22.06c0,.59.16,1.18.16,1.77,0,29.22.23,58.43-.09,87.64-.42,38.48-27.42,72.67-64.65,82.51a87.49,87.49,0,0,1-60.19-163.57C901.49,1107,912.42,1104.55,923.72,1103.51Z"/><path class="cls-5" d="M1016.21,1023.73c0-4.93-.3-9.87.12-14.8a81.1,81.1,0,0,1,2.83-15.93c10.53-39,48.34-67.84,91.31-64.14.68.06,1.36,0,2,0,12.3,1.65,24.14,4.89,34.79,11.39,28.72,17.52,43.88,43.29,43.53,76.86-.35,33.75-16.25,59.44-45.71,75.75-45.59,25.24-103.23,4.22-122.71-44.1A106,106,0,0,1,1016.21,1023.73Z"/></svg>