<svg id="Capa_1" data-name="Capa 1" xmlns="http://www.w3.org/2000/svg" viewBox="0 0 2032 2032"><defs><style>.cls-1{fill:#300;}.cls-2{fill:#fe9900;}.cls-3{fill:#fd9900;}.cls-4{fill:#340100;}</style></defs><path class="cls-1" d="M1541,667.75v696.5c-1.67.7-1.6,2.23-1.81,3.68a188.86,188.86,0,0,1-5.1,24.36,183.86,183.86,0,0,1-58,90.73,182,182,0,0,1-95.9,43.09c-1.46.2-3,.14-3.71,1.76h-721c-.75-1.62-2.25-1.56-3.71-1.76-38.22-5.25-71.84-20.75-100.18-46.8-33-30.37-52.91-68-58.87-112.67-.18-1.34-.32-2.62-1.74-3.27V668.63c1.62-.75,1.55-2.26,1.77-3.71,9.65-63.15,43-109.69,98.89-140.1,18.86-10.26,39.26-16.23,60.57-19,1.34-.18,2.63-.32,3.27-1.74h721c.75,1.62,2.25,1.57,3.71,1.76,38.28,5.15,71.83,20.75,100.19,46.79,32.72,30.05,52.36,67.32,58.79,111.39C1539.4,665.52,1539.33,667.05,1541,667.75ZM916.29,764.49H896.16c-11.81,0-23.62,0-35.43,0-2.88,0-5.59.58-5.63,4-.06,4.51-.58,9-1,13.44-.61,6.73-1.09,13.48-3.06,20-6.82,22.55-15.15,44.58-22.78,66.85C818.76,896.56,809,924.27,799.39,952s-19.15,55.22-28.74,82.82q-14.52,41.78-29,83.54-17.29,49.86-34.56,99.74c-1.58,4.57-.1,6.92,4.69,7.4,1.44.14,2.91.1,4.37.11h75.24c8.29,0,9.45-.9,12.06-9q15.55-48.11,31.07-96.21c.89-2.77,1.92-3.89,5.06-3.88q77.64.18,155.29,0c2.77,0,4,.76,4.92,3.49,4.71,14.2,9.68,28.31,14.55,42.45q9.74,28.23,19.45,56.47c1.92,5.57,3.39,6.63,9.27,6.63q43.52,0,87,0c7.73,0,9-1.85,6.34-9.32-4.4-12.46-8.86-24.9-13.27-37.35q-19.59-55.32-39.16-110.63-12.37-34.93-24.81-69.86-19.68-55.5-39.34-111c-13.84-39.07-27.73-78.13-41.4-117.25-1.54-4.4-3.95-5.78-8.33-5.75C952.16,764.58,934.22,764.49,916.29,764.49Zm367.46,288.32V886.21c0-7.24-1.2-8.46-8.28-8.46H1195c-8.57,0-9.26.68-9.26,9.14v330.59c0,1.31-.06,2.63,0,3.93.3,3.93,2.34,6.29,6.39,6.3q42.85.06,85.71,0c3.55,0,5.37-1.9,5.75-5.26a42.86,42.86,0,0,0,.11-4.81ZM1180.92,783.9c-1,33.34,21.22,55.2,50.3,57.15,35.38,2.37,57.84-22.91,58.62-52.86.86-33.29-19.6-56.85-53.49-57C1206,731.13,1180.84,753.32,1180.92,783.9Z"/><path class="cls-2" d="M916.29,764.49c17.93,0,35.87.09,53.8-.06,4.38,0,6.79,1.35,8.33,5.75,13.67,39.12,27.56,78.18,41.4,117.25q19.65,55.52,39.34,111,12.39,34.93,24.81,69.86,19.6,55.31,39.16,110.63c4.41,12.45,8.87,24.89,13.27,37.35,2.63,7.47,1.39,9.31-6.34,9.32q-43.53,0-87,0c-5.88,0-7.35-1.06-9.27-6.63q-9.75-28.23-19.45-56.47c-4.87-14.14-9.84-28.25-14.55-42.45-.91-2.73-2.15-3.5-4.92-3.49q-77.64.12-155.29,0c-3.14,0-4.17,1.11-5.06,3.88q-15.42,48.13-31.07,96.21c-2.61,8.09-3.77,9-12.06,9H716.1c-1.46,0-2.93,0-4.37-.11-4.79-.48-6.27-2.83-4.69-7.4q17.28-49.87,34.56-99.74,14.5-41.77,29-83.54Q785,993.43,799.39,952c9.63-27.74,19.37-55.45,28.89-83.23,7.63-22.27,16-44.3,22.78-66.85,2-6.53,2.45-13.28,3.06-20,.4-4.47.92-8.93,1-13.44,0-3.41,2.75-4,5.63-4,11.81,0,23.62,0,35.43,0Zm0,81.13-1,.13c-1.32,5.87-2.62,11.74-4,17.61-5.15,22.41-12.42,44.21-19.38,66.09-10,31.48-18.35,63.47-29.5,94.59-1.15,3.23-.45,3.91,2.81,3.89,17.2-.12,34.4-.06,51.61-.06s34.11-.07,51.17.06c3.29,0,4.56-.51,3.2-4.05s-2.22-7.47-3.48-11.16c-10.1-29.46-18.79-59.38-28.33-89-6.73-20.89-13.05-41.9-18.77-63.09C919.21,855.59,917.69,850.62,916.25,845.62Z"/><path class="cls-2" d="M1283.75,1052.81v164.86a42.86,42.86,0,0,1-.11,4.81c-.38,3.36-2.2,5.26-5.75,5.26q-42.86,0-85.71,0c-4,0-6.09-2.37-6.39-6.3-.1-1.3,0-2.62,0-3.93V886.89c0-8.46.69-9.14,9.26-9.14h80.46c7.08,0,8.28,1.22,8.28,8.46Z"/><path class="cls-3" d="M1180.92,783.9c-.08-30.58,25.1-52.77,55.43-52.67,33.89.11,54.35,23.67,53.49,57-.78,29.95-23.24,55.23-58.62,52.86C1202.14,839.1,1180,817.24,1180.92,783.9Z"/><path class="cls-4" d="M916.25,845.62c1.44,5,3,10,4.32,15,5.72,21.19,12,42.2,18.77,63.09,9.54,29.64,18.23,59.56,28.33,89,1.26,3.69,2.09,7.53,3.48,11.16s.09,4.08-3.2,4.05c-17.06-.13-34.11-.06-51.17-.06s-34.41-.06-51.61.06c-3.26,0-4-.66-2.81-3.89,11.15-31.12,19.5-63.11,29.5-94.59,7-21.88,14.23-43.68,19.38-66.09,1.35-5.87,2.65-11.74,4-17.61Z"/></svg>