<svg id="Capa_1" data-name="Capa 1" xmlns="http://www.w3.org/2000/svg" viewBox="0 0 2032 2032"><defs><style>.cls-1{fill:#001e36;}.cls-2{fill:#31a7fe;}.cls-3{fill:#001e37;}</style></defs><path class="cls-1" d="M1381.15,1527.76H651.85c-1-2.35-3.3-2-5.17-2.29a186.05,186.05,0,0,1-134.18-97.79A179.88,179.88,0,0,1,493,1363.09c-.18-1.66-.14-3.38-2-4.25V673.16c1.87-.84,1.79-2.58,2-4.23.51-3.79,1-7.59,1.66-11.35,7.71-41.26,26.82-76.2,57.83-104.62a182.85,182.85,0,0,1,41.74-28.81,186.38,186.38,0,0,1,56.9-17.8c1.76-.25,3.77,0,4.7-2.11h721.32c.6,1.43,1.84,1.77,3.22,2q3,.41,5.91.93,72,12.58,116.78,70.33c19.1,24.65,30.89,52.66,35.87,83.49.26,1.63.17,3.4,2.06,4.22v702.66c-2.33,1-2,3.3-2.28,5.17A186.14,186.14,0,0,1,1441,1507.24a181.54,181.54,0,0,1-54.66,18.23C1384.45,1525.79,1382.18,1525.43,1381.15,1527.76ZM812.86,765.56c-25,.57-49.92,1.2-74.89,1.68-10.12.2-10.12.06-10.12,10.39v431.19c0,3.83,0,7.66,0,11.49.06,6.45,1.17,7.56,7.55,7.62h78.4c1.17,0,2.34.07,3.49,0,3.36-.33,5.13-2.07,5.41-5.37.12-1.49,0-3,0-4.5v-129.4c0-1.34.09-2.67,0-4-.17-2.39.92-3.3,3.24-3.2,4.32.17,8.65.19,13,.34,27.48,1,54.92.82,82.15-3.77,19.28-3.25,38.09-8.17,55.62-17,33-16.69,57.57-41.47,71.12-76.38,6-15.33,8.75-31.34,10.05-47.7,2.08-26.32-1.05-51.92-10.94-76.42-15.47-38.28-43.65-63.77-81.37-79.29-27.47-11.3-56.32-15.57-85.82-16.17C857.46,764.55,835.16,765,812.86,765.56Zm292.45,406.09c0,12,.18,24-.08,36-.11,5.46,2.15,8.7,7,10.82a178.8,178.8,0,0,0,30.65,10.49,305.1,305.1,0,0,0,95.2,7.12c20.73-1.71,40.8-6.09,59.73-14.9,44.37-20.66,68.28-63.08,60-114.31-4.4-27.35-20.2-47.39-43.09-62.08a293.18,293.18,0,0,0-60-29.39,321.51,321.51,0,0,1-38.28-17,46.65,46.65,0,0,1-14.18-10.88c-5.79-6.68-6.76-14.5-2.77-22.27,2.67-5.2,7.11-8.32,12.54-10a75,75,0,0,1,16.13-3.22c14.85-1.24,29.6-.11,44.28,2.11,19.83,3,39.17,7.73,57.12,17.07a10.41,10.41,0,0,0,3.7,1.43c6.37.46,8.08-1.58,8.06-6.54-.13-23-.06-46-.07-69,0-.67,0-1.33-.06-2a8.64,8.64,0,0,0-6-8.27,141.31,141.31,0,0,0-25.78-7.73c-32.11-5.78-64.41-7.88-96.91-3.91-20.75,2.54-40.24,9-58,20.14-42.31,26.67-55.45,73.5-45.11,113,6.29,24,21.31,41.91,41.26,55.84,17.68,12.35,36.9,21.87,57.11,29.41,12.79,4.77,25.48,9.78,37.57,16.18a47.86,47.86,0,0,1,13.92,10.41,21,21,0,0,1,5.08,9c2,8.57-2.52,17.74-10.95,22-7.42,3.72-15.44,5.12-23.61,5.75-30,2.28-59-2.89-87.3-12.67a186.5,186.5,0,0,1-30.75-14.27c-4.17-2.35-6.13-1.13-6.41,3.66-.06,1,0,2,0,3Q1105.32,1154.16,1105.31,1171.65Z"/><path class="cls-2" d="M812.86,765.56c22.3-.57,44.6-1,66.91-.56,29.5.6,58.35,4.87,85.82,16.17,37.72,15.52,65.9,41,81.37,79.29,9.89,24.5,13,50.1,10.94,76.42-1.3,16.36-4.1,32.37-10.05,47.7-13.55,34.91-38.07,59.69-71.12,76.38-17.53,8.86-36.34,13.78-55.62,17-27.23,4.59-54.67,4.74-82.15,3.77-4.33-.15-8.66-.17-13-.34-2.32-.1-3.41.81-3.24,3.2.1,1.33,0,2.66,0,4V1218c0,1.5.08,3,0,4.5-.28,3.3-2.05,5-5.41,5.37-1.15.11-2.32,0-3.49,0h-78.4c-6.38-.06-7.49-1.17-7.55-7.62,0-3.83,0-7.66,0-11.49V777.63c0-10.33,0-10.19,10.12-10.39C762.94,766.76,787.9,766.13,812.86,765.56Zm10.39,159.78v25.47q0,21.74,0,43.47c0,4.48.07,4.45,4.27,4.76,13.47,1,27,.8,40.43.5A166,166,0,0,0,906.39,994c12.7-3.34,24.48-8.36,34.67-16.92,10.9-9.16,17.83-20.54,20.37-34.52,1.86-10.2,2.57-20.52,1.06-30.82-3.49-23.85-15.72-41.38-38-51.23a110,110,0,0,0-39.15-9.2c-19-.93-37.94-.09-56.91,0-5.09,0-5.13.29-5.14,5.59Q823.24,891.12,823.25,925.34Z"/><path class="cls-2" d="M1105.31,1171.65q0-17.49,0-35c0-1,0-2,0-3,.28-4.79,2.24-6,6.41-3.66a186.5,186.5,0,0,0,30.75,14.27c28.29,9.78,57.26,15,87.3,12.67,8.17-.63,16.19-2,23.61-5.75,8.43-4.23,13-13.4,10.95-22a21,21,0,0,0-5.08-9,47.86,47.86,0,0,0-13.92-10.41c-12.09-6.4-24.78-11.41-37.57-16.18-20.21-7.54-39.43-17.06-57.11-29.41-20-13.93-35-31.82-41.26-55.84-10.34-39.54,2.8-86.37,45.11-113,17.77-11.19,37.26-17.6,58-20.14,32.5-4,64.8-1.87,96.91,3.91a141.31,141.31,0,0,1,25.78,7.73,8.64,8.64,0,0,1,6,8.27c0,.67.06,1.33.06,2,0,23-.06,46,.07,69,0,5-1.69,7-8.06,6.54a10.41,10.41,0,0,1-3.7-1.43c-18-9.34-37.29-14.07-57.12-17.07-14.68-2.22-29.43-3.35-44.28-2.11a75,75,0,0,0-16.13,3.22c-5.43,1.69-9.87,4.81-12.54,10-4,7.77-3,15.59,2.77,22.27a46.65,46.65,0,0,0,14.18,10.88,321.51,321.51,0,0,0,38.28,17,293.18,293.18,0,0,1,60,29.39c22.89,14.69,38.69,34.73,43.09,62.08,8.24,51.23-15.67,93.65-60,114.31-18.93,8.81-39,13.19-59.73,14.9a305.1,305.1,0,0,1-95.2-7.12,178.8,178.8,0,0,1-30.65-10.49c-4.84-2.12-7.1-5.36-7-10.82C1105.49,1195.64,1105.31,1183.65,1105.31,1171.65Z"/><path class="cls-3" d="M823.25,925.34q0-34.23,0-68.45c0-5.3,0-5.56,5.14-5.59,19-.11,38-.95,56.91,0a110,110,0,0,1,39.15,9.2c22.32,9.85,34.55,27.38,38,51.23,1.51,10.3.8,20.62-1.06,30.82-2.54,14-9.47,25.36-20.37,34.52-10.19,8.56-22,13.58-34.67,16.92A166,166,0,0,1,868,999.54c-13.48.3-27,.49-40.43-.5-4.2-.31-4.26-.28-4.27-4.76q0-21.74,0-43.47Z"/></svg>