<svg id="Capa_1" data-name="Capa 1" xmlns="http://www.w3.org/2000/svg" viewBox="0 0 2032 2032"><defs><style>.cls-1{fill:#fefefe;}.cls-2{fill:#020202;}.cls-3{fill:#e34d26;}.cls-4{fill:#f06529;}.cls-5{fill:#eae9e9;}.cls-6{fill:#eaeaea;}</style></defs><path class="cls-1" d="M1016,631.16H572.78c-6.78,0-6.64,0-6,6.45q4.63,50.52,9.13,101.06c3,33.52,5.86,67.05,8.86,100.56,3.69,41.41,7.5,82.81,11.2,124.23,3.34,37.55,6.54,75.11,9.9,112.66,4.4,49.31,8.93,98.61,13.32,147.92,4.41,49.48,8.66,99,13.08,148.46,5.11,57.38,10.38,114.75,15.38,172.14.34,3.92,1.71,5.17,5.3,6.16q178.3,49.17,356.51,98.69a20.82,20.82,0,0,0,11.76.06q140.33-39,280.69-77.83,38.64-10.71,77.3-21.4c2.38-.66,4.87-.78,5.16-4.67,1.49-19.67,3.4-39.31,5.15-59q3.88-43.7,7.75-87.39,4.53-50.54,9.1-101.06c2.63-29.48,5.17-59,7.79-88.45q4.59-51.6,9.23-103.18,3.87-43.42,7.71-86.86,4.57-51.33,9.19-102.65,3.9-43.7,7.77-87.39,4.56-51.06,9.15-102.12c2.67-29.83,5.3-59.66,8.06-89.48.64-7,.84-6.94-6-6.94Z"/><path class="cls-2" d="M1218.07,381.63c-.14,1.92-.41,3.83-.41,5.74q0,79.86.08,159.71c0,4.51-.84,6-5.71,5.88-15.5-.37-31-.29-46.53,0-4,.07-5-1-5-5,.2-24.68.11-49.36.07-74,0-1.33.57-2.83-1.08-4.35l-38.88,59.78-39-60c-1.61,1.65-.91,3.3-.91,4.74,0,24.33-.21,48.66.1,73,.06,5.06-1.54,6-6.14,5.89q-22.47-.42-45,0c-4.23.07-5.2-1.13-5.19-5.26q.21-80.11.08-160.23c0-1.93-.08-3.87-.12-5.81h60.3L1121.09,442l36.68-60.39Z"/><path class="cls-2" d="M817.13,381.63c-.13,1.92-.38,3.83-.39,5.75q0,79.83.08,159.65c0,4.42-.69,6.06-5.65,5.93-15.5-.39-31-.27-46.52-.05-3.87.06-5.1-.79-5-4.88.26-15.85,0-31.72.18-47.57.05-3.54-.65-4.87-4.54-4.8q-21.66.36-43.34,0c-4-.07-4.5,1.39-4.46,4.83.17,15.69-.11,31.37.2,47,.09,4.55-1.31,5.47-5.59,5.4q-23.52-.4-47.05,0c-4.35.08-5.09-1.35-5.08-5.31q.16-83,0-166h57.12c0,17.44.1,34.88-.1,52.32,0,3.52,1,4.33,4.38,4.29,14.44-.19,28.89-.28,43.33,0,4.46.1,5.12-1.52,5.09-5.42-.1-17.08.11-34.15.2-51.23Z"/><path class="cls-2" d="M1000.15,381.63c-1,14.06-.18,28.15-.47,42.22-.1,4.73,1.57,11-.82,13.8-2.77,3.23-9.23.94-14.08,1-10.39.18-20.8.25-31.19-.05-3.86-.11-4.52,1.16-4.51,4.72.14,34.55,0,69.1.22,103.64,0,5-1.51,6-6.16,5.95q-23-.43-46,0c-4.32.09-5.13-1.29-5.11-5.29.15-34.55,0-69.1.21-103.64,0-4.52-1.22-5.48-5.52-5.39-13.39.3-26.8,0-40.19.21-3.84.07-5.07-.74-5-4.85.21-17.44,0-34.89,0-52.34Z"/><path class="cls-2" d="M1302.7,381.63c0,36.14.21,72.27,0,108.4,0,5.31,1.51,6.22,6.41,6.16,23.26-.27,46.53,0,69.8-.22,4,0,5,1,5,5q-.34,23.54,0,47.06c.06,4-1.12,4.94-5,4.92q-64-.21-128,0c-4.22,0-5.21-1.13-5.2-5.25q.21-81.45.08-162.88c0-1.05-.11-2.11-.17-3.16Z"/><path class="cls-3" d="M1016,631.16h443.22c6.86,0,6.66,0,6,6.94-2.76,29.82-5.39,59.65-8.06,89.48q-4.58,51.06-9.15,102.12-3.9,43.69-7.77,87.39-4.59,51.33-9.19,102.65-3.88,43.42-7.71,86.86-4.61,51.6-9.23,103.18c-2.62,29.48-5.16,59-7.79,88.45q-4.51,50.54-9.1,101.06-3.92,43.7-7.75,87.39c-1.75,19.66-3.66,39.3-5.15,59-.29,3.89-2.78,4-5.16,4.67q-38.64,10.76-77.3,21.4-140.36,38.88-280.69,77.83a20.82,20.82,0,0,1-11.76-.06Q831.22,1600,652.91,1550.8c-3.59-1-5-2.24-5.3-6.16-5-57.39-10.27-114.76-15.38-172.14-4.42-49.48-8.67-99-13.08-148.46-4.39-49.31-8.92-98.61-13.32-147.92-3.36-37.55-6.56-75.11-9.9-112.66-3.7-41.42-7.51-82.82-11.2-124.23-3-33.51-5.87-67-8.86-100.56q-4.5-50.53-9.13-101.06c-.6-6.46-.74-6.45,6-6.45Zm.07,707.61a11.62,11.62,0,0,1-2.06-.15c-40.09-10.75-80.17-21.57-120.29-32.17-3.16-.83-3.72-2.37-4-5.07-2.32-26.84-4.82-53.67-7-80.52-.35-4.23-1.47-5.62-5.88-5.6q-51,.29-102,0c-4.3,0-5.85.83-5.4,5.44,2.06,21.21,3.81,42.44,5.71,63.67,3.06,34.2,6.24,68.39,9.14,102.6.34,4,1.66,5.68,5.54,6.74,31.72,8.67,63.38,17.58,95.06,26.4L1016,1456.58q0,15.33,0,30.67,0,40.44,0,80.9c0,2.23-1,5.3,3.64,4,30.88-8.75,61.82-17.3,92.73-26q44.83-12.56,89.65-25.19c35.13-9.82,70.25-19.68,105.45-29.24,5.36-1.45,6.69-4.37,6.91-9.34.44-10,1.32-19.93,2.18-29.87,1.28-14.82,2.73-29.62,4.07-44.43.8-8.89,1.48-17.79,2.31-26.69,1.3-13.93,2.76-27.84,4-41.78.87-9.59,1.44-19.21,2.28-28.81,1.3-14.81,2.71-29.61,4.1-44.42.83-8.89,1.78-17.76,2.37-26.68,1-14.48,2.65-28.92,4-43.38.83-9.24,1.49-18.5,2.34-27.74,1.28-13.93,2.73-27.85,4-41.78.87-9.6,1.44-19.22,2.32-28.81,1.26-13.76,2.77-27.49,4-41.25.89-9.77,1.26-19.59,2.32-29.33,1.63-15,2.94-30,4.11-45,.68-8.73,1.72-17.42,2.31-26.17,1-14.65,2.65-29.26,4-43.9.82-9.06,1.8-18.11,2.41-27.21,1-14.13,2.75-28.2,3.89-42.32.75-9.43,1.87-18.81,2.43-28.27.89-14.83,2.58-29.62,4-44.43.85-8.89,1.86-17.75,2.37-26.68.62-10.65,1.83-21.26,3-31.87.45-4.27-1.22-5.32-5.34-5.32q-178.2.15-356.42,0c-4,0-5.49.88-5.46,5.24.18,35.61.12,71.22.13,106.82-2.29.09-4.57.26-6.86.26q-135.08,0-270.17-.12c-5,0-5.86,1.49-5.32,6,1.21,10.13,2.06,20.32,3,30.49,2.63,29.29,5.17,58.58,7.83,87.87,3.33,36.82,6.79,73.64,10.12,110.46q4.49,49.73,8.75,99.46c.39,4.68,1.69,6.37,6.87,6.36q119.49-.3,239-.13c2.28,0,4.56.23,6.84.35Z"/><path class="cls-4" d="M1016.05,818.39c0-35.6.05-71.21-.13-106.82,0-4.36,1.45-5.25,5.46-5.24q178.22.13,356.42,0c4.12,0,5.79,1,5.34,5.32-1.12,10.61-2.33,21.22-3,31.87-.51,8.93-1.52,17.79-2.37,26.68-1.4,14.81-3.09,29.6-4,44.43-.56,9.46-1.68,18.84-2.43,28.27-1.14,14.12-2.93,28.19-3.89,42.32-.61,9.1-1.59,18.15-2.41,27.21-1.33,14.64-3,29.25-4,43.9-.59,8.75-1.63,17.44-2.31,26.17-1.17,15-2.48,30-4.11,45-1.06,9.74-1.43,19.56-2.32,29.33-1.25,13.76-2.76,27.49-4,41.25-.88,9.59-1.45,19.21-2.32,28.81-1.26,13.93-2.71,27.85-4,41.78-.85,9.24-1.51,18.5-2.34,27.74-1.31,14.46-3,28.9-4,43.38-.59,8.92-1.54,17.79-2.37,26.68-1.39,14.81-2.8,29.61-4.1,44.42-.84,9.6-1.41,19.22-2.28,28.81-1.26,13.94-2.72,27.85-4,41.78-.83,8.9-1.51,17.8-2.31,26.69-1.34,14.81-2.79,29.61-4.07,44.43-.86,9.94-1.74,19.9-2.18,29.87-.22,5-1.55,7.89-6.91,9.34-35.2,9.56-70.32,19.42-105.45,29.24q-44.85,12.54-89.65,25.19c-30.91,8.65-61.85,17.2-92.73,26-4.65,1.32-3.64-1.75-3.64-4q-.07-40.45,0-80.9,0-15.35,0-30.67a2.48,2.48,0,0,0,.07-.61q29.76-8.22,59.52-16.43,82.63-22.89,165.3-45.71c4-1.09,5.66-2.73,5.82-7.11.32-9.14,1.38-18.26,2.21-27.38q7.72-85.26,15.46-170.51c4.08-45.44,7.9-90.9,12.23-136.32.53-5.56-1.25-5.86-5.68-5.86q-124.82.15-249.63.08c-1.75,0-3.51.12-5.27.19a6.28,6.28,0,0,1,0-.75L1016,931.76a3.72,3.72,0,0,0-.08-.57,6.08,6.08,0,0,0,1,.16q133,0,265.92.12c3.81,0,4.64-1.66,4.94-5,3-33.84,6.12-67.69,9.46-101.5.51-5.14-.68-6.42-5.93-6.41q-135.06.26-270.14.13c-1.76,0-3.52.11-5.28.17Z"/><path class="cls-5" d="M1016.06,1159.36c-2.28-.12-4.56-.35-6.84-.35q-119.49,0-239,.13c-5.18,0-6.48-1.68-6.87-6.36q-4.2-49.74-8.75-99.46c-3.33-36.82-6.79-73.64-10.12-110.46-2.66-29.29-5.2-58.58-7.83-87.87-.91-10.17-1.76-20.36-3-30.49-.54-4.48.32-6,5.32-6q135.09.26,270.17.12c2.29,0,4.57-.17,6.86-.26l-.1.45q0,56.17,0,112.35a3.72,3.72,0,0,1,.08.57c-2.28-.11-4.56-.32-6.84-.32q-71.61,0-143.21,0c-9.42,0-9.28,0-8.39,9.39,3.12,33.29,6.26,66.58,9.07,99.9.39,4.63,1.42,6.15,6.33,6.13,45.8-.2,91.6-.11,137.4-.14,1.91,0,3.82-.35,5.73-.54a6.28,6.28,0,0,0,0,.75q-.06,56-.11,112Z"/><path class="cls-6" d="M1016.11,1456a2.48,2.48,0,0,1-.07.61L884.9,1420.11c-31.68-8.82-63.34-17.73-95.06-26.4-3.88-1.06-5.2-2.72-5.54-6.74-2.9-34.21-6.08-68.4-9.14-102.6-1.9-21.23-3.65-42.46-5.71-63.67-.45-4.61,1.1-5.46,5.4-5.44q51,.27,102,0c4.41,0,5.53,1.37,5.88,5.6,2.17,26.85,4.67,53.68,7,80.52.23,2.7.79,4.24,4,5.07,40.12,10.6,80.2,21.42,120.29,32.17a11.62,11.62,0,0,0,2.06.15l-.09.41Q1016,1397.57,1016.11,1456Z"/><path class="cls-4" d="M1016.06,1338.77V1159.36l-.1-.42c1.93.08,3.86.22,5.79.22q63.15,0,126.3,0c1.23,0,2.47.07,3.69,0,2.11-.13,2.65.71,2.45,2.83-1.15,11.73-2.12,23.48-3.18,35.23-3,33.65-6.2,67.3-9,101-.44,5.31-1.83,7.78-7.38,9.23-39.62,10.33-79.13,21.12-118.68,31.76Z"/><path class="cls-1" d="M1016,1339.18c39.55-10.64,79.06-21.43,118.68-31.76,5.55-1.45,6.94-3.92,7.38-9.23,2.78-33.67,6-67.32,9-101,1.06-11.75,2-23.5,3.18-35.23.2-2.12-.34-3-2.45-2.83-1.22.08-2.46,0-3.69,0q-63.15,0-126.3,0c-1.93,0-3.86-.14-5.79-.22q.06-56,.11-112c1.76-.07,3.52-.19,5.27-.19q124.81,0,249.63-.08c4.43,0,6.21.3,5.68,5.86-4.33,45.42-8.15,90.88-12.23,136.32q-7.65,85.26-15.46,170.51c-.83,9.12-1.89,18.24-2.21,27.38-.16,4.38-1.83,6-5.82,7.11q-82.7,22.73-165.3,45.71-29.76,8.24-59.52,16.43Q1016.05,1397.57,1016,1339.18Z"/><path class="cls-1" d="M1015.94,931.19q0-56.18,0-112.35c1.76-.06,3.52-.17,5.28-.17q135.07,0,270.14-.13c5.25,0,6.44,1.27,5.93,6.41-3.34,33.81-6.42,67.66-9.46,101.5-.3,3.36-1.13,5-4.94,5q-133-.15-265.92-.12A6.08,6.08,0,0,1,1015.94,931.19Z"/><path class="cls-3" d="M1016.11,1046.17c-1.91.19-3.82.53-5.73.54-45.8,0-91.6-.06-137.4.14-4.91,0-5.94-1.5-6.33-6.13-2.81-33.32-5.95-66.61-9.07-99.9-.89-9.41-1-9.39,8.39-9.39q71.61,0,143.21,0c2.28,0,4.56.21,6.84.32Z"/></svg>