<?xml version="1.0" encoding="utf-8"?>
<!-- Generator: Adobe Illustrator 26.0.0, SVG Export Plug-In . SVG Version: 6.00 Build 0)  -->
<svg version="1.1" xmlns="http://www.w3.org/2000/svg" xmlns:xlink="http://www.w3.org/1999/xlink" x="0px" y="0px"
	 viewBox="0 0 1200 350" style="enable-background:new 0 0 1200 350;" xml:space="preserve">
<style type="text/css">
	.st0{fill:#AA76B9;}
	.st1{fill:#B872C8;}
	.st2{fill:#3A2B71;}
	.st3{fill:#B876C6;}
	.st4{fill:#A7A9DE;}
	.st5{fill:#A7AADF;}
	.st6{fill:#B772C7;}
	.st7{fill:#B372C2;}
	.st8{fill:#AA73B5;}
	.st9{fill:#A0A2CE;}
	.st10{fill:#8F5A9B;}
	.st11{fill:#392A71;}
	.st12{fill:#DFDFDF;}
	.st13{fill:#DEDEDE;}
	.st14{fill:#AFA6DE;}
	.st15{fill:#E8E0E8;}
	.st16{fill:#EDEAEE;}
	.st17{fill:#865B90;}
	.st18{fill:#3B2B75;}
	.st19{fill:#3B2B74;}
	.st20{fill:#362C6A;}
	.st21{fill:#30345B;}
	.st22{fill:#2E2F56;}
	.st23{fill:#A372B3;}
	.st24{fill:#31355D;}
	.st25{fill:#A675B4;}
	.st26{fill:#343162;}
	.st27{fill:#32365F;}
	.st28{fill:#35355C;}
	.st29{fill:#2F3257;}
	.st30{fill:#32365A;}
	.st31{fill:#35355D;}
	.st32{fill:#34365D;}
	.st33{fill:#BA72CA;}
	.st34{fill:#B16FBF;}
	.st35{fill:#AF70BD;}
	.st36{fill:#B671C5;}
	.st37{fill:#BF70D1;}
	.st38{fill:#B078C0;}
	.st39{fill:#32375D;}
	.st40{fill:#323563;}
	.st41{fill:#E8E6EC;}
	.st42{fill:#F7E7FA;}
	.st43{fill:#A578B9;}
	.st44{fill:#A7AAE1;}
	.st45{fill:#F4F6FD;}
	.st46{fill:#B772C6;}
	.st47{fill:#B871C8;}
	.st48{fill:#A56DB4;}
	.st49{fill:#B972C8;}
	.st50{fill:#9F6CAB;}
	.st51{fill:#B471C3;}
	.st52{fill:#A76CB4;}
	.st53{fill:#B672C6;}
	.st54{fill:#32375F;}
	.st55{fill:#333464;}
	.st56{fill:#333662;}
	.st57{fill:#392C71;}
	.st58{fill:#353268;}
	.st59{fill:#F2EEF9;}
	.st60{fill:#343464;}
	.st61{fill:#B270CB;}
	.st62{fill:#713D7B;}
	.st63{fill:#412A72;}
	.st64{fill:#30385E;}
	.st65{fill:#33365E;}
	.st66{fill:#E3ABD0;}
	.st67{fill:#303457;}
	.st68{fill:#B07BBD;}
	.st69{fill:#CD7A7E;}
	.st70{fill:#B070C9;}
	.st71{fill:#AB76B8;}
	.st72{fill:#3B2A72;}
	.st73{fill:#B177B2;}
	.st74{fill:#32365D;}
	.st75{fill:#AC6FC5;}
	.st76{fill:#A36EC0;}
	.st77{fill:#A975B6;}
	.st78{fill:#C27C8D;}
	.st79{fill:#C67993;}
	.st80{fill:#BD78A2;}
	.st81{fill:#B078B3;}
	.st82{fill:#F2E3F4;}
	.st83{fill:#713D7A;}
	.st84{fill:#B972CA;}
	.st85{fill:#693E78;}
	.st86{fill:#F7DCE1;}
	.st87{fill:#CD858D;}
	.st88{fill:#B370CE;}
	.st89{fill:#FBEDF1;}
	.st90{fill:#FDFDFD;}
	.st91{fill:#F7DBE1;}
	.st92{fill:#F5B2B1;}
	.st93{fill:#DCA8CD;}
	.st94{fill:#D7A4CC;}
	.st95{fill:#FDDBF0;}
	.st96{fill:#F5B3B1;}
	.st97{fill:#F7D7DD;}
	.st98{fill:#CA798E;}
	.st99{fill:#E1BAD3;}
	.st100{fill:#F7B2B0;}
	.st101{fill:#F8E6E9;}
	.st102{fill:#C07D8F;}
</style>
<g id="Capa_1">
</g>
<g id="Capa_2">
	<g>
		<path class="st0" d="M167.5,232.4v-38.3h-19.3v-38.3h-19.3v-38.3h38.7v38.3h19.3v38.3h19.3v-38.3h19.3v-38.3h38.7v19.1h-19.3V175
			h-19.3v38.3h-19.3v19.1H167.5z"/>
		<path class="st0" d="M512,232.4V117.6h96.7v19.1H628V175h-19.3v19.1H628v38.3h-38.7v-38.3h-38.7v38.3H512z M589.3,175v-38.3h-38.7
			V175H589.3z"/>
		<path class="st0" d="M702.4,232.4v-95.7h-38.7v-19.1h116v19.1h-38.7v95.7H702.4z"/>
		<path class="st0" d="M819.8,232.4V117.6h96.7v19.1h-58v19.1h58V175h-58v38.3h58v19.1H819.8z"/>
		<path class="st0" d="M955.1,232.4v-19.1h19.3v-19.1h19.3v-38.3h-19.3v-19.1h-19.3v-19.1h38.7v19.1h38.7v-19.1h38.7v19.1h-19.3
			v19.1h-19.3v38.3h19.3v19.1h19.3v19.1h-38.7v-19.1h-38.7v19.1H955.1z"/>
		<g>
			<path class="st1" d="M285.7,224.5c1.2-1,2.4-2.1,3.6-3.1c1.7-1.2,3.2-2.3,1.1-4.5c-0.3-0.3-0.4-1.2-0.3-1.2
				c4-1.4-1.2-5.9,2.6-7.4c1.5-0.6,2.8-1.9,4.2-2.9c1.1,0.2,1.9,0.9,2.6,1.7c2.8,1.9,2.5-0.8,2.5-2c0.1-1.5-0.1-3,1-4.1
				c0.8-0.9,1.6-2.1,3.1-0.9c-0.3,2-0.9,3.9-0.9,6.1c0,3.4-6.3,7.3-10.1,6.6c0.7,0.5,1.5,0.4,2.3,0.5c0.9,0.1,2.2-0.9,2.4,0.9
				c0.1,1.3-0.8,2.1-1.9,2.6c-0.9,0.5-1.8,0.3-2.6-0.2c-0.2,0-0.4-0.1-0.5-0.3c0.1,0.2,0.3,0.3,0.6,0.3c1.1,1,0.5,1.9-0.1,2.8
				c-0.8,1.1-1.3,2.1-1.5,3.4c-0.3,1.3-0.8,2.4-2.5,2.2c-0.6-0.1-1.2-0.2-1.4,0.6c-0.2,0.6,0,1.3,0.5,1.5c3.6,1.2,1.8,3.9,1.1,5.6
				c-0.9,2.2,1,0.7,1.2,1.3c0.7,0.2,1.3,0.6,1.8,1.1c1.1,1.3,2,2.6,0.1,4c-0.5,0.4-0.9,1.2-0.5,1.8c1.3,2,1,3.6-0.9,5
				c-0.3,0.3-0.4,0.9-0.1,1.3c1.4,1.5,0.8,2.6-0.2,4.1c-1.2,1.8,0.7,3.2,1.6,4.5c1.2,1.8,2.2,3.1,0.2,5c-1,0.9-0.3,1.9,0.4,2.7
				c2.6,3.4,5.4,6.8,7.9,10.4c1.7,2.4,3.7,0.9,5.6,0.8c2.1,1.7,3.1,4.3,5.1,6c1.5,1.2,3.1-0.9,4.6,0.3c1.6,1.6,2.6,3.7,4.5,5.2
				c1.6-1.6,2.9-3.4,5.3-3.9c1-0.2,1.8,0.2,2.4,1c1.2,1.7,0.8,3.7,1,5.6c-0.1,0.8-0.3,1.6,0.2,2.4c0.6,1.6,1.7,2.9,3,4.1
				c0.9,0.8,1.7,1.9,2,3.1c0.3,1.2,0.3,2.4-0.9,3c-1.2,0.6-1.9-0.3-2.6-1.1c-2.9-3.4-5.1-7.3-8.4-10.4c-2.7,0.7-5.1,0.8-6.6-2.2
				c-1-2-2.4-2.4-4.4-0.9c-3.2,2.4-3.8,3.4-2.1,5.8c1.9,2.6,3.9,5.1,5.8,7.7c0.5,0.7,1.2,1.4,1.2,2.4c0,0.8-0.5,1.3-1.1,1.6
				c-0.8,0.4-1.7,0.4-2.2-0.2c-3.6-4.4-7.7-8.5-10.3-13.7c-0.3-0.5-0.1-1.1,0-1.7c0.2-0.5,0.4-1,0.6-1.5c0.4-3-1.4-4.6-3.9-5.6
				c-0.9,0.2-1.6,0.9-2.6,1c-0.2,0-0.3-0.1-0.5-0.1c-2.9-3.7-5.8-7.4-8.6-11.1c-0.7-0.9-1.8-1.9-0.2-2.8c2.2-1.3,1.5-2.6,0.2-4.1
				c-1.9-2.4-3.7-4.9-5.6-7.4c0.1-1.5,1.6-1.6,2.4-2.5c0.2-0.1,0.5-0.1,0.7-0.1c-0.4-0.1-0.7-0.4-1-0.7c-0.3-0.4-0.5-0.7-0.8-1.1
				c-3.5-4.6-3.6-4.7,1-8.3c1.6-1.3,1.7-2.2,0.4-3.6c-0.8-0.8-1.4-1.8-2.1-2.7c-0.3-0.4-0.8-1-0.7-1.1c2.1-2.3,0.2-5.5,1.2-7.2
				C286.6,227.5,286.2,226.2,285.7,224.5z"/>
			<path class="st2" d="M282.4,192.1c-1.1-1.1-0.7-2,0.4-2.8c1.6-1.2,3.3-2.5,4.9-3.7c1.7-1.3,4-2.3,1.6-5c-0.8-0.9,0.2-1.6,0.9-2.2
				c1.6-1.3,3.1-2.7,4.9-3.7c2.9-1.7,3.2-3.5,0.9-5.8c0.3-1.3,1.5-1.6,2.4-2.3c1.6-1.4,3.8-2.3,1.9-5.1c-0.8-1.2,0.3-2.6,1.8-3.2
				c3.1-1.3,4.9-4.4,8-5.9c1-0.5,1.5-1.6,1-3c-0.9-2.2,0.2-3.7,2-4.9c1.3-0.9,2.6-1.9,3.8-2.9c1.5-1.2,3.5-2.1,1.8-4.6
				c-0.8-1.1,0.5-1.8,1.3-2.4c2.5-1.9,4.9-3.8,7.4-5.6c1.7-1.3,2.9-2.6,2-4.9c-0.6-1.4,0-2.4,1.3-3.1c0.4-0.1,0.7-0.1,1.1,0.1
				c3,4.6,0.4,8.2-3.4,10.2c-1.8,1-3.5,2.1-5.2,3.4c-1.5,1.1-1.1,2.3-0.3,3.5c1.1,1.6,2,0.3,2.8-0.2c1.9-1.2,3.2-2.6,3.4-5.2
				c0.2-2.8,2.4-4.8,4.5-6.2c7.1-4.8,13.4-10.8,20.7-15.3c1-0.7,1.1-1.6,1.1-2.6c0.1-2.4,1.3-3.7,3.8-2.9c1.5,0.5,2.7,0.1,3.7-1
				c2.7-2.7,5.7-5,8.9-7.1c0.8-0.5,1.8-1.1,1.3-2.1c-0.5-1.1-1.6-0.6-2.4-0.4c-2.5,0.4-4.3,2.1-6.3,3.4c-1.1,0.7-2.2,2.4-3.7,0.6
				c1.4-3.1,4.9-4,6.9-6.5c0.2-0.3,0.4-0.6,0.6-0.9c1.7-3.2,3.8-1.5,5.9-0.6c3.9-0.7,6.1-4.2,9.3-6c0.4-0.3,0.9-0.6,1.4-0.8
				c0.3-0.1,0.7-0.2,1-0.1c0.7,2.9-0.8,4.6-3.1,5.9c-1.1,0.6-2.4,0.7-3.3,1.5c4,2.8,7.5-0.5,11.2-1c1.3-0.2,2.4-0.8,3.8-0.3
				c1.6,0.6,2.4-0.7,3.1-2c1.8-3.5,2.2-3.5,5.7-1.7c1,0.5,2,1.1,3.1,1.4c1,0.2,1.3,0.9,0.7,1.8c-0.9,1.1-2.1,1.7-3.3,0.9
				c-2.2-1.3-3.7-0.1-5.3,1.1c-1.4,1-2.7,2.1-4.1,3.1c-1,0.6-2.1,1.3-3.2,0.6c-2-1.2-3.6-0.6-5.3,0.7c-1.1,0.8-2.5,1.5-3.9,0.8
				c-2.3-1.1-3.9,0-5.6,1.3c-4,3.1-7.9,6.2-12,9.2c-1.1,0.9-2.2,1.9-3.6,2.4c-9.3,6.2-17.7,13.4-26.6,19.9c-1.5,1.1-2.7,2.1-1.2,4.2
				c0.8,1.2,0,2.1-1.1,2.8c-3.9,2.7-7.2,6-11.2,8.5c-2.3,1.5-3.3,3.1-1.5,5.6c0.1,2-1.4,2.9-2.7,4c-2.5,0.9-4.6,2.5-6.8,4
				c-2.2,1.6-3.1,3.4-1.5,5.9c-1.3,1-2.5,2-3.8,2.9c-1.6,1.1-2.9,2.2-1.1,4.3c0.9,1.1,0,1.9-0.8,2.5c-1.5,1.2-3,2.5-4.6,3.5
				c-2.4,1.4-3.2,3.2-1.9,5.8c-3.5,1.9-5.9,5.1-9,7.5c-1.8,1.4,0.1,3.7-1.4,4.8c1.6-0.4-0.4-3.1,1.9-3.2c1.4,1.4,1.6,2.6-0.3,3.8
				c-1.4,0.9-2.7,2-4.1,3.1c-0.3,0.4-0.4,0.8-0.2,1.3c0.5,1.1,1.9,1.9,1.1,3.4c-0.9,1.7-2.8,2.3-4.3,3.1c-1.4,0.8-2.3-0.8-2.7-2.3
				l0,0c2.5-2.6,2.5-2.6,0.9-5.7l0-0.1c0.8-1.6,2.4-2.4,3.8-3.3C283.3,194.9,283.3,193.7,282.4,192.1z"/>
			<path class="st3" d="M306,200.2c-2.7,0.4-3.6,2.1-2.9,4.6c0.5,1.9-0.6,3.1-1.9,4.1c-1,0.9-1.6-0.1-2.2-0.8
				c0.7-1.7,2.1-3.3,1.1-5.3c-0.3-1.3-1.7-2-1.7-3.4c2.5,1.1,4.6,0.6,6.5-1.3c1.2-1.1,2.5-2,3.8-2.9c3.1-2.1,5.4-4.8,6.3-8.6
				c1.5,0.5,2.2,1.6,2.5,3c-1.4,2.4-1.6,4.6,0.6,6.8c0.6,0.6,1.1,1.6,0.7,2.2c-2.1,3.6,0.8,6,2,8.7c0.1,0.3,0.1,0.7,0,1
				c-1.1,1.6-2.2,3.2-1,5.3c-0.5,1.7-3.1,2.7-1.5,5c0,0.2,0.1,0.4,0.3,0.5c0.2,0.9-0.1,1.5-0.8,2.1c-0.6,0.4-1.5,1.2-1,1.6
				c3.1,2.7-3.1,5.9,0.7,8.7c1.7,1.2,2.7,3.4,4.1,5.1c2.3,2.7,4.6,5.4,6.7,8.3c0.8,1.1,1.8,2,3.2,1.3c2.2-1.1,3.5,0.2,4.2,1.8
				c1.4,3.1,3.1,2.9,5.3,1.2c1.8-1.3,3.4-3.2,5.9-0.9c1.3,1.2,2.5-0.4,3.6-1.1c10.2-7.7,20.3-15.6,30.5-23.4c1.3-1,2.7-1.8,4-2.7
				c1.4-1,2.6-1,3.7,0.1c1.4,1.5,2.5,0.9,3.8-0.1c3.4-2.6,6.6-5.6,10.5-7.7c1.9,0.5,1,1.7,0.4,2.5c-1,1.4-2.4,2.5-3.9,3.3
				c-2,1.1-3.9,2.4-5.4,4.2c-1.7,1.9-4.1,2-6.2,2.6c-1.5,0.4-2-0.9-2.3-1.8c-9.4,7.6-19.3,14.8-29.2,22.6c2.1,0.6,4.1,0.8,4.4,3.1
				c-0.1,0.8-0.6,1.2-1.3,1.5c-1.8-0.3-3.6-0.6-5.2,0.8c-2.4-0.2-3.5,2-5.2,3c-1,0.6-1.9,1.6-2.9,0.1c-1.5-2.5-2.8-1.3-4.4-0.2
				c-1.9,1.4-3.6,4.5-6.3,0.7c-0.8-1.2-2,0.5-2.9,1c-2,1.1-3.7,4.6-6.3,0.8c-0.1-0.2-0.8-0.3-0.9-0.2c-3.5,2.8-4.4-0.8-5.9-2.5
				c-1.1-1.2-1.9-2.4-3.6-0.9c-1.3,1.2-2.2,0.7-3.1-0.6c-1.3-1.9-2.7-3.7-4.2-5.5c-1.3-1.5-2.3-2.9,0.1-4.4c1.2-0.8,0.6-1.7,0-2.6
				c-1.1-1.7-2.9-3-3.4-5.1c2.3-1.8,1.7-3.4-0.1-5.2c-1.6-1.7-3.3-3.5-0.2-5.6c0.6-0.4,0.8-1.4,0.3-1.9c-2.5-2.4,0.3-3.4,1.2-4.9
				l0,0c-1.1-1.9-2.3-3.8-0.4-5.9c0.2-0.3-0.1-0.8-0.6-1c-1-0.2-1.5,0.3-1.8,1.2c1.2,2.9-1,4.3-2.8,5.3c-2.9,1.6-2.7,3.1-0.8,5.2
				c0.2,0.3,0.2,0.6,0.2,1c-0.7,1.2-2,1.8-3,2.7c-1.6,1.4-3.1,2.2-1.4,4.8c1.2,1.9-1.5,2.6-2.6,3.7c-0.6,0.1-1-0.3-1.3-0.7
				c-0.1-2.2,1.3-4.4,0.3-6.7c-0.1-0.2-0.1-0.6,0.1-0.7c4.4-2.3,2.7-8.3,6.6-10.9c0.9-0.6,1.7-1.4,1.8-2.8c0.1-2.8,2.5-5.4,5.1-5.8
				c2.5-0.4,4.7,2.2,3.5,4.8c-1.6,3.3-1,6.6-1.1,10c-0.1,1.2-0.2,2.3-0.5,3.4c-0.6,2.2-0.4,4.2,1.7,5.4c1.2,0.7,1.3,1.6,0.6,2.5
				c-1.7,2.4-0.8,4.5,0.7,6.6c1.2,1.7,1.9,3.5,0.2,5.3c-0.5,0.6-0.8,1.6-0.2,1.8c2.4,0.9,3.2,4.3,6.4,3.8c0.9-0.1,1.8,0.3,2.5,1
				c3.9,4.2,8.2,4.1,12.9,1.6c0.6-0.3,1.3-0.6,2-0.4c2.8,0.6,5.3,0.9,7.4-1.7c0.7-0.9,2.1-0.4,3.2,0.1c2.1,0.9,4,1.2,5.5-0.9
				c-1.7,1.1-3.5,1.9-5.6,0.5c-1.6-1-3-0.2-4,0.9c-2.2,2.5-4.1,1.5-5.7-0.4c-1.4-1.7-2.5-2.6-3.8,0.1c-0.4,0.8-1.2,1.4-2.1,1.8
				c-0.7,0.4-1.5,0.7-2.2,0c-0.5-0.6-0.4-1.3-0.1-1.9c0.8-1.3,1-2.6-0.7-3.8c-0.9,3.1-2.5,3.6-4.6,1c-1.2-1.4-2.8-0.8-4.2-0.7
				c-1.6,0.1-2.7-0.5-3.3-1.9c-0.5-1.3-0.3-2.5,1.3-3c1.9,1.8,3.9,1.1,6,0.3c0.6,0,1.2,0.8,1.6,0.4c0.6-0.6,0-1.3-0.4-1.8
				c-2.7-3.7-5.4-7.5-8.4-10.9c-1.6-1.7-1.7-3.1-0.6-5.2c1.3-2.5,0.4-5.6,1.1-8.3c0.9-3.2-0.5-6.8,1.3-9.9c-0.7-1.3-2.6,0.2-3.2-1.3
				c-0.6-1.3,0.4-2.4,0.5-3.7c0.1-1.4,0.5-2.7,1.3-3.8c0.6-1.1-0.2-1.8-0.8-2.5c-0.4-0.4-0.9-0.6-1.4-0.6c-1.6,0.1-2.1,1.5-3,2.5
				C308.7,199.3,307.7,200.4,306,200.2z"/>
			<path class="st4" d="M314.6,186.7c2.4,3.4-0.6,5.2-2.5,6.8c-2.9,2.7-6.3,4.9-9.4,7.4c-2.3,1.8-3.2-0.3-4.3-1.6
				c0.3-1.9,2-2.4,3.3-3.2c2-1.3,2.6-2.7,1-4.7c1.7-1.8,4-3.3,1.2-6.1c-0.9-0.9,0.4-1.6,1.1-2.1c3.1-2.4,6.2-4.8,9.3-7.1
				c1.1-0.9,2.3-1.6,0.9-3.2c-1.1-1.3-0.5-2.3,0.7-3.2c1.5-1.1,2.9-2.3,4.4-3.3c1.7-1.2,4.1-2.1,1.9-4.9c-0.6-0.8,0.1-2,0.8-2.4
				c3.2-1.9,5.6-5,9.1-6.6c0.7,0.3,1.2,1.4,2.3,0.5c8.2-6.6,16.9-12.5,24.8-19.4c0.3-0.2,0.4-0.5,0.6-1.2c-1.6-0.2-3.1-1.1-4-2.2
				c-1.6-1.9,1.6-2.3,1.8-3.8c0.4-2.9,1.6-2.3,3.2-0.7c-0.2-0.9-1.1-1.5-1.5-2.3c-0.9-2.1-0.4-3.1,1.9-2.9c2.1,0.2,3.1-0.3,3.2-2.6
				c0.1-1.5,0.7-3.2,2.7-3.5c0.2,0,0.4,0.7,0.5,0c0.5-1.8,0.5-1.8,2.2-1.2c1,0.9,1.8,1.9,1.8,3.4c-1.2,2.6-3.7,3.6-5.7,5.3
				c-1.5,1.2-2.2,2.2-2,4.5c0.3,2.5-1,5.2-1.1,7.8c-1.5,2-3.6,3.2-5.5,4.6c-7.5,5.8-15.1,11.6-22.6,17.3c-1.1,0.8-2.3,1.6-3,2.7
				c-0.6,1.6,0.4,3.5-0.9,5.1c-1.9,1.7-3.8,3.2-2.4,6.3c0.5,1.2-0.6,2.3-1.6,3.2c-1.4,1.2-2.9,2.2-4.3,3.4c-0.6,0.5-1.6,1-1.5,1.7
				C321.7,183.4,317.5,184.5,314.6,186.7z"/>
			<path class="st5" d="M358.1,126.4c0.2,0.6,1.5,1.3-0.1,1.7c-1.1,0.2-1.9,0.5-2.2,1.1c-0.1,1.9,3.2-2.2,1.8,1.6
				c-0.2,0.6,0.8,0.6,1.3,0.4c0.9-0.4,1.7-0.7,2.2,0.5c0.5,1.2-0.5,1.5-1,2.2c-1.8,2.4-4.3,3.8-6.5,5.5c-6.3,4.9-12.7,9.8-19.1,14.6
				c-1.3,1-2.5,1.8-2.2-1c0.6-1.7,2.7-3.3,0.1-5.2c-1.1-0.8,0.3-1.5,1-2.1c3.4-2.7,6.9-5.3,10.3-7.9c1.4-1.1,1.8-2.1-0.1-3
				c-1.3-1-0.9-1.8,0.2-2.6c1.5-1.1,3-2.4,4.5-3.6c0.6-1.3,2.1-1.7,2.9-2.8c0.3-0.2,0.6-0.2,0.9-0.2c1.6,1.5,3.4,2,5.4,0.8
				C357.8,126.3,358,126.4,358.1,126.4z"/>
			<path class="st6" d="M365,279.7c1.2,1.5,2.2,3.9,4.5,1.2c1.3-1.5-1.5-2.3-1.1-3.8c1.1-0.2,1.7,1.1,2.8,0.9c0.9-1-0.6-2.1,0-3.1
				c0.1-0.2,0.2-0.3,0.3-0.4c2.1,2.9,4,1.8,6.3,0c4.2-3.5,8.8-6.7,13.1-10.1c3-2.4,3.2-2.4,5.5,0.8c0.1,0.4,0.1,0.9-0.1,1.3
				c-1.3,2-3.7,2.6-5.5,4c-6.9,5.4-14,10.7-20.9,16.2c-1.6,1.3-3.3,3-5.5,0.5c-0.6-0.7-1.7-0.3-2.5,0.3c-1,0.7-2,1.5-3,2.3
				c-0.4,0.4-1,0.9-1.5,0.6c-2.2-1.5-4.4-0.4-6.5-0.3c-1.4-0.7-2.3-1.7-2.2-3.4c1.2-1.6,3-2.4,4.4-3.7c1.3-1.2,2.6-1.9,4,0
				c0.9,1.2,1.9,0.7,2.9,0C361.6,281.7,362.7,279.8,365,279.7z"/>
			<path class="st7" d="M488.6,104.8c-0.1,1.7-1.7,2-2.7,2.9c-1.6,1.4-3.8,2.2-1.7,5.1c1.1,1.5-1.2,2.1-2.1,3
				c-1.6,1.5-4.7,2.4-1.8,5.4c-1.8,2.3-1.1,4.8-1.3,7.4c-0.1,1.2-1.8,2.3-0.4,4c0.9,1.2-0.3,1.9-1.1,2.5c-2.1,1.6-4.2,3.2-6.3,4.8
				c-1,0.8-1.7,1.7-0.6,2.8c1.7,1.8,0.4,2.8-1,3.8c-2.9,2.2-5.9,4.4-8.8,6.7c-0.8,0.6-2.1,1.4-1.2,2.4c2.2,2.6,0,3.5-1.6,4.7
				c-1.3,1-2.5,2-3.8,2.9c-1.6,1.2-3.4,2.1-1.4,4.5c1.2,1.4-0.5,2.2-1.4,2.9c-4,3.1-8,6.2-12,9.2c-1.5,1.1-2.5,2.1-0.8,3.8
				c1.3,1.4,0.3,2.2-0.8,3c-3.7,2.9-7.4,5.8-11.1,8.7c-0.1,0.4-0.4,0.6-0.8,0.4c-0.9-1.4-0.1-2.5,0.8-3.3c1.7-1.5,3.2-3.3,5-4.8
				c2.2-1.8,4.8-3.3,4.5-6.8c-0.1-0.9,0.9-1.6,1.5-2.2c2.4-2.5,4.8-4.9,7.7-6.8c2.5-1.7,5-3.3,3.9-7.1c-0.4-1.4,1-2.2,2.1-2.9
				c3-2,5.7-4,6.4-8.2c0.6-3.7,4.5-5.3,7.4-7.3c1.6-1.1,3-2,2.1-4.3c-0.5-1.4,0.2-2.4,1.2-3.3c1.2-1.1,2.4-2.1,3.8-3
				c2.1-1.3,3-3.1,2.9-5.4c-0.3-1.4,1.4-2.2,1.2-3.7c-0.2-0.7-0.4-1.5-0.3-2.2c0.7-1.8,1.7-3.4,0.8-5.5c-0.6-1.4,0.4-2.7,1.5-3.5
				c1.9-1.4,3.3-2.9,2.4-5.5c-0.2-0.6,0-1.5,0.5-1.9c2.1-1.7,4.5-3.2,3.8-6.6c0-0.3,0.8-0.3,1.2,0
				C487.2,102.8,488.3,103.5,488.6,104.8z"/>
			<path class="st8" d="M426.2,196c0.2-0.1,0.4-0.3,0.7-0.4c2.2,2,2.2,3.6-0.5,5.3c-3,1.9-5.7,4.3-8.5,6.4c-1.3,1-2,1.9-0.7,3.3
				c1.4,1.5,0.3,2.4-0.9,3.3c-4,3.1-8,6.2-12,9.2c-1.3,1-2.3,1.9-0.9,3.6c1,1.2,0.2,2.1-0.8,2.8c-6.6,5-13.1,10.1-19.7,15.1
				c-0.8,0.6-1.9,1.4-2.7,0.2c-1.6-2.5-3-1-4.4,0.1c-2.5,1.9-4.9,3.7-7.4,5.7c-1.7,1.3-3.1,2.9-4.9,0c-0.8-1.3-1.8-0.2-2.6,0.3
				c-1.6,1-2.6,3-4.7,3.1c0.2-1.7,1.5-2.4,2.9-3.1c0.5-0.4,1-0.8,1.5-1.2c1-1.2,2.3-1.7,3.7-1c2.1,1,3.7,0.3,5.3-1
				c1.3-1.1,2.6-2.2,3.9-3.3c2.1-1.9,4.4-3.4,7.4-2.5c1.4,0.4,2.4-0.4,3.4-1.2c4.8-3.7,9.7-7.4,14.5-11.1c0.8-0.6,1.9-1.3,1.9-2.3
				c0-5,4.2-6.8,7.3-9.3c1.5-1.2,3.2-2.2,4.8-3.4c1.7-1.3,3.1-2.6,2.4-5.1c-0.5-1.6,0.7-2.8,1.9-3.8c2.1-1.6,4-3.4,6.3-4.8
				C425.1,199.7,426.1,198.2,426.2,196z"/>
			<path class="st9" d="M343.7,134.8c2.1,1,2.3,1.7,0.3,3.2c-3.2,2.6-6.5,5-9.7,7.5c-0.7,0.5-2.4,1.1-1,2.2c2.8,2.4,0.4,3.7-0.9,5.2
				c-3.8,1.3-6,4.9-9.4,6.8c-0.5,0.3-0.8,1.2-0.3,1.9c1.9,2.8-0.3,3.8-2,5c-1.5,1.1-3,2.1-4.4,3.2c-1,0.7-1.7,1.6-0.6,2.8
				c1.3,1.4,0.5,2.4-0.7,3.4c-3.1,2.3-6.2,4.7-9.3,7.1c-0.8,0.6-2.1,1.3-1.2,2.4c2.6,3,0.3,4.4-1.8,5.9c-0.6-1.3,0.6-1.6,1.2-2.1
				c1-0.8,1.2-1.7,0.3-2.6c-1.7-1.7-0.8-2.7,0.8-3.8c3.1-2.2,6-4.6,9-6.9c1.1-0.9,1.9-1.7,0.7-3c-1.2-1.3-0.7-2.2,0.5-3.1
				c1.6-1.2,3.1-2.3,4.6-3.5c1.7-1.3,4.3-2.2,1.8-5.2c-0.9-1,0.5-1.8,1.3-2.4c3-2.3,6-4.6,9-6.9c0.8-0.7,2.4-1.4,1.2-2.6
				c-2.3-2.5-0.3-3.5,1.4-4.7c2.9-2.2,5.8-4.5,8.8-6.6C344.6,136.9,344.6,136,343.7,134.8z"/>
			<path class="st10" d="M304,289.5c-1.1,0.8-2.2,1.6-3.3,2.5c-0.9-1-1.9-2-2.8-3c-3.1-3.6-3-3.7,0.7-6.5c0,0-0.1,0-0.1,0
				c3,1.2,4.4,3.7,5.6,6.5C304,289.1,304,289.3,304,289.5z"/>
			<path class="st11" d="M287.4,192.8c-1.4,1.2,0,4.2-3.1,4.4c0.5-1.5,2-3,0.4-4.7c-0.4-0.5,0-1.1,0.6-1.4c3.6-1.4,5.8-4.6,8.1-7.4
				c1.2-1.5,1.9,1.6,2.6-0.1c-0.9,2.8-3.7,3.5-5.6,5.2C289,190,287.5,190.9,287.4,192.8z"/>
			<path class="st12" d="M478,87.5c1-0.9,2-1.7,3.1-0.1c0.9,1.3,1.5,2.2-0.1,3.4c-1.4,1-2.2,1.1-3.3-0.4
				C476.6,89.1,476.5,88.2,478,87.5z"/>
			<path class="st13" d="M317.1,279.5c-0.6-1.4-3.1-2.2-1.9-4.2c1.4-2.5,3.1-1.8,5,1.7c-0.8,0.7-1.7,1.4-2.5,2.1
				C317.5,279.2,317.3,279.4,317.1,279.5z"/>
			<path class="st14" d="M300.1,202.8c3.5,2.6,1,3.9-1.1,5.3c-0.7-0.9-1.4-1.8-2.1-2.7C298,204.6,299,203.7,300.1,202.8z"/>
			<path class="st15" d="M359,250.9c-0.2,1.7-2,2-2.9,3.1c-1-0.3-1.4-1.3-1.9-2.1C356,248.7,356.4,248.6,359,250.9z"/>
			<path class="st16" d="M371.1,274.9c0.5,0.6,1,1.3,1.4,1.9c0.7,0.9,0.4,1.6-0.4,2.3c-0.8,0.6-1.6,0.9-2.3-0.1
				c-0.5-0.6-1-1.2-1.5-1.8C369,276,370,275.4,371.1,274.9z"/>
			<path class="st11" d="M276.7,205.2c0.9,0.8,1.6,2.9,3,1.6c1.4-1.4,6-1.6,2.8-5.4c-0.4-0.5-1-1.5,0.4-1.7c1.8,3.1,1.5,5.4-1.8,7.4
				C278.4,208.8,277.3,207.9,276.7,205.2z"/>
			<path class="st17" d="M485.5,97.6c2.6-1.6,0-3-0.1-4.6c1.5,0.1,2.4,1,2.8,2.4c-0.4,1.7,1.3,2.4,1.8,3.8c-2.3,1.4-3.1,3.2-1.4,5.7
				c-0.8-1.1-1.7-2.2-2.5-3.3C486.4,100.1,487.8,98.6,485.5,97.6z"/>
			<path class="st11" d="M282.4,192.1c1.4,1.4,1.5,2.6-0.4,3.9c-1.5,1-2.9,2.2-4.3,3.3c0.3-1.9,2-2.4,3.2-3.2
				C282.5,195.1,282.9,193.8,282.4,192.1z"/>
			<path class="st11" d="M277.7,199.5c3,2.5,1.8,4.2-0.9,5.7C278.4,203.5,278.7,201.6,277.7,199.5z"/>
			<path class="st18" d="M347.7,92.5c-0.8-1.1-1.6-2.2-2.3-3.3c10.2-7.9,20.5-15.7,30.6-23.7c2.6-2.1,3.8-0.5,5.2,1.3
				c1.6-0.2,2.5-1.5,3.7-2.3c1.7-1.2,3.1-2.7,5.5-1.9c1.1,0.4,2.2-0.6,3.1-1.2c1-0.7,2.1-1.4,3.4-1.4c2.3-2.5,4.1-1.9,5.7,0.8
				c1.4,0.2,2-0.9,2.8-1.6c1.4-1.2,2.8-1.7,4.7-1.2c1.9,0.5,6.7-2.3,7.4-4c0.3-0.7,0.1-1.3-0.3-1.9c-0.6-0.8-1.4-0.8-2.1-0.3
				c-1.4,0.9-2.6,1.9-4.2,2.2c-1,0.2-1.9,0.2-2.4-0.8c-0.6-1.1,0.2-1.7,1-2.2c1.4-1.1,2.8-2,4.1-3.2c1.6-1.4,3-2,4.7-0.2
				c0.5,0.5,1.2,0.9,1.9,0.4c2.6-1.8,3.7,0.2,5,1.8c1.8,2.3,3.7,4.7,5.4,7.1c1.1,1.6,2.5,2.3,4.3,1c1.9-1.4,1-2.7-0.1-4.1
				c-2.7-3.5-5.4-7.1-8.2-10.7c-0.6-0.7-1.2-1.4-1.5-2.3c-0.3-0.8-0.2-1.6,0.5-2.2c0.9-0.8,1.4-0.1,1.9,0.6c0.5,0.7,1.1,1.1,2,1.2
				c1.3,0.1,1.8-1.9,3.3-1.4c5.5,6.3,10.3,13.2,15.5,19.8c1,1.3,1,2.7,0.5,4.2c-0.7,2.3,3.7,8.6,6.1,8.9c1.1,0.1,1.3-0.7,1.5-1.5
				c0.3-1.2,0.1-2.5,0.7-3.7c1-0.8,1.6-1.7,1-3.2c-0.9-1.9,2.3-6,4.3-5.7c1.7,0.3,2.1,1.6,1.5,3.1c-0.3,0.3-0.7,0.5-1,0.8
				c-0.3,0.6-0.4,1.3,0,1.9c0.3,0.6,0.9,1.6,0.6,1.9c-2.6,2.1-0.7,5.3-2.1,7.6c-0.3,0.5-0.6,1.1-0.3,1.6c2.5,4.2,0.7,7.6-1.7,11
				c0,1,0.5,1.7,1.1,2.5c1.3,1.7,1,3.4-0.7,4.4c-2.7,1.7-2.5,4.1-1.7,6.5c0.5,1.4,0.1,2.1-0.3,3.3c-0.8,2.6-1.3,5.7-1.1,8.2
				c0.2,2.2-0.5,3.1-1.5,4.3c-0.8,1.3-1.4,2.6-1.4,4.2c0,1.8-0.9,3-2.2,4.1c-1.5,1.4-3.1,2.6-2.5,5.2c0.4,1.5-0.6,2.6-2,3.2
				c-2.8-0.8-4.4-4.7-2.8-7.6c2-3.6,1-6.7-0.4-10c0-2,1.2-2.6,3-2.8c1.2-0.1,2.4,2.2,3.3,0.9c1.1-1.7-0.7-1.3-1.6-1.1
				c-0.6,0.1-1.1,0.3-1.7,0.2c-0.1,0-0.2-0.1-0.3-0.1c-0.5-1.5,0.7-2.1,1.4-3.1c0.9-7.5,1.9-14.9,3-22.4c0.2-1.1,0.1-2.1-0.5-3
				c-1.4-2.2-2.4-4.4-1-7.1c0.3-0.5,0.1-1.1-0.2-1.6c-2.1-3-4.3-5.9-6.7-8.7c-1.3-1.5-2.7-0.4-4.1-0.2c-3.7-1.4-7.3-2.4-11.4-2
				c-2.1,0.2-5-0.1-6.9-1c-3.8-1.9-5.8,0.4-8,2.3c-2,1.8-3.7,2.6-6.1,1.1c-1.2-0.7-2.1-0.3-3,0.7c-1.3,1.6-3,2.1-5,1.5
				c-2.3-0.7-4,0.3-5.6,1.7c-3.1,2.6-6.3,5-9.5,7.4c-1.3,1-2.8,1.8-4.4,0.6c-1.5-1.1-1.2-2.6-0.6-4.1c0.3-0.7,0.9-1.5-0.1-2.1
				c-0.9-0.5-1.4,0.5-2.1,0.9c-6.4,5.5-14.1,9.2-20.5,14.7c-1.6,1.3-2.9,2.7-1.8,5.1c0.3,0.7,0.1,1.5-0.3,2.2
				c-0.9,1.3-2.2,2.3-3.6,3.1c-1.5,0.8-3.1,1-4.2-0.6c-1.2-1.7,0.5-2.3,1.5-3.2C347.2,93.4,347.7,93.1,347.7,92.5z"/>
			<path class="st19" d="M435.5,152.4c0.1,0.2,0.3,0.3,0.4,0.5c0.8,1.6,0.8,2.9-1,3.8c-2.8,1.5-4.5,3.7-4.5,7.1c0,2.3-2.5,3.2-3,5.2
				l0,0c-0.3,1.2-1.1,1.9-2.1,2.5c-0.8,0.5-1.9,0.9-1.9,1.8c-0.4,4.3-4.3,5.6-6.9,7.9c-1.9,1.6-4.5,2.8-1.9,5.9
				c0.5,0.5-0.1,1.3-0.6,1.8c-1.5,1.1-2.9,2.2-4.4,3.3c-1.5-2.5-4.9-2.5-6.3-5c0.3-1.1,1-1.8,1.9-2.3c3.1-1.7,4.4-3.9,2.7-7.4
				c0.5-1.4,1.6-2.2,2.8-3c3-2.6,6.5-4.5,9-7.6c1.8-1.2,3.3-2.5,2.7-5c1.1-1.2,2.7-1.7,3.8-2.8c1.2-1.2,2.5-2.4,1.7-4.4
				c-0.5-1.2,0.5-2.2,0.7-3.2c0.3-2.8,2.4-5.5,0.9-8.5c-0.3-0.6-0.1-1.5,0.4-1.9c2.6-1.9,4.1-5.2,7.3-6.5c2.5-0.6,3.3,1.1,3.9,3
				c0.4,0.7,0.9,1.4,1.2,2.2c0.1,0.3,0.1,0.7,0.1,1c-1.5,2.1-0.8,5.2-2.9,7.1C438.1,149.6,435.4,149.8,435.5,152.4z"/>
			<path class="st20" d="M430,41c-0.7,0.1-1.3,0-2-0.4c-0.7-0.5-1.1-2-2-1.2c-1.2,1,0.1,2.1,0.7,2.9c2.8,3.8,5.7,7.5,8.6,11.2
				c1.4,1.7,2,3.5,0,5.1c-2.2,1.7-3.9,0.5-5.2-1.3c-1.7-2.2-3.2-4.5-4.8-6.7c-1.2-1.7-2.5-3.3-4.9-1.7c-0.6,0.4-1.1,0.3-1.6-0.1
				c-1-0.9-2.1-2.3-3.5-1.4c-2.1,1.3-4,3-6,4.6c-0.4,0.3-0.4,0.8,0,1.2c0.3,0.4,0.8,0.4,1.2,0.3c1.8-0.4,3-1.5,4.5-2.5
				c1-0.6,2.3-1.6,3.2,0.1c0.7,1.3,2.1,2.8,0.1,4.3c-2.9,2.1-5.4,5.8-9.9,3.3c-1.2-0.7-1.6,0.5-2.3,0.9c-1.1,0.5-1.7,2-3.3,1.4
				c2.2-1.6,4.4-3.3,6.6-4.9c2.3,1.2,4.5,1.4,6.3-0.9c0.3-0.5,0.7-1,0.3-1.5c-0.4-0.5-1-0.3-1.5,0c-1.7,0.8-2.8,2.7-5,2.5
				c-2.7-2.5-2.1-4.3,0.9-6.1c1.6-0.9,3-2.2,4.4-3.3c1.2-1,2.3-1.5,3.4,0.1c0.6,0.8,1.5,1.3,2.4,0.6c2.2-1.9,3.2-0.2,4.3,1.3
				c2.1,2.7,4.2,5.5,6.3,8.2c1,1.3,1.9,1.9,3.4,0.8c1.5-1.1,0.7-2.2-0.1-3.2c-2.9-3.8-5.9-7.6-8.8-11.5c-0.9-1.2-2.5-2.4-0.7-4.1
				c1.9-1.9,2.7,0.2,3.9,1.1c0.3,0.2,0.6,0.3,0.9,0.5c0.3,0,0.4,0.1,0.4,0.3C430.1,40.8,430,40.9,430,41z"/>
			<path class="st21" d="M430,41c-0.1-0.2-0.3-0.4-0.4-0.6c2.3-2.5,3.9-1.8,5.8,0.8c5.9,8.1,12.1,15.9,18.2,23.8
				c0.7,1,1.3,2.7,3.2,1.5c1.6-1,0.8-2,0.1-3.2c-0.9-1.5,0.2-2.4,1.3-3.1c1.7-1,2.8-3.5,5.2-2.5c1.3,0.6,2.4,2.1,0.4,3.4
				c-0.4-1.2-0.6-3.3-2.4-2.3c-1.4,0.8-4.5,1.3-3.1,4.3c0.8,1.8,0.4,3-1.2,4c-0.3,1.7,0.6,4.1-1.5,4.9c-2.2,0.8-3.3-1.6-4.6-2.8
				c-1.8-1.6-3.3-3.6-2-6.3c0.4-1,0.1-2.1-0.5-2.9c-5.4-6.9-10.3-14.2-16.2-20.7C431.3,39.6,431.1,40.9,430,41z"/>
			<path class="st22" d="M454.6,115.1c1.3-1,2.7-2,1.4-3.9c-0.1-0.2-0.3-0.6-0.3-0.6c2.5-2.4,0-5.7,1.8-8.4c1.4-2.1-0.8-4.5-1.2-6.8
				c-0.1-0.9-0.4-1.6,0.5-1.8c4.2-1.1,4.1-3.5,2.2-6.6c-0.2-0.3,0-0.9,0-1.3c0.9-1.2,1.9-2.2,3.4-2.5c-2.6,2.3-2.8,4.4-0.2,7
				c2,1.9,1,3.7-1,5.1c-1.9,1.4-4.5,2.5-2.1,5.6c0.6,0.8-0.3,1.4-0.9,2c-0.8,0.7-1.2,1.5-0.6,2.4c1.1,1.5,1.2,2.6-0.5,3.7
				c-0.5,0.3-0.9,1.1-0.5,1.5c2.3,2.5-0.3,4-1.2,5.8C454.9,116.1,454.6,115.7,454.6,115.1z"/>
			<path class="st23" d="M408.1,177.8c2.5,3.9,2.5,3.9-1.2,6.8c-1.2,1-2.5,1.9-3.7,2.9c0.4,3.4-0.8,5.7-3.7,7.8
				c-5.4,3.9-10.8,7.7-15.7,12.3c0,1.3,2.5,1.9,1.1,3.7c-1.3-0.7-2.2-1.8-2.7-3.1c-0.2-1.3,0.4-2.2,1.3-3c0.5-0.5,1-1,1.6-1.3
				c6.3-3.7,10.7-9.3,14.5-15.4c0.9-1.5,2.1-2.7,3.7-3.5c2.7-1.4,4.9-3,4.3-6.6C407.3,178,407.7,177.8,408.1,177.8z"/>
			<path class="st24" d="M413.8,189c0-0.3,0.2-0.8,0-1c-2.8-4.4,1-5.9,3.5-7.9c2.1-1.7,4.6-2.7,4.4-6.5c-0.2-2.9,3.9-2.7,5.5-4.6
				c1.9,1.8,1.8,3.2-0.5,4.8c-3.8,2.7-7.4,5.7-11.2,8.5c-1.5,1.1-2.6,2.2-1.1,4.2C415.3,187.5,415.8,188.7,413.8,189z"/>
			<path class="st25" d="M382.7,208.4c1.3,0.5,2,1.4,2.1,2.8c-2.9,2.6-5.9,5-9.3,7c-0.9-1-1.8-2-2.6-3.1c0-0.4,0.1-0.7,0.3-1
				C376.5,212.5,378.9,209.4,382.7,208.4z"/>
			<path class="st26" d="M462.4,83.1c-1.1,0.8-2.3,1.7-3.4,2.5c1.5-3.4,3.5-6.7,1.6-10.7c-0.7-1.6,0.4-3.7,0.6-5.4
				c0.4-2.4,1.1-5,1.5-7.5c0.5,2.3,2.8,4.8-0.6,6.7c1.9,2.8-2.3,6.2,1,8.9C465.7,79.7,465.2,81.7,462.4,83.1z"/>
			<path class="st27" d="M397,60c-1.3,1-2.6,2.1-4,3.1c-0.6,0.4-1.7,1.1-2.1,0.9c-3.9-2.3-5.8,1.2-8.4,2.7c-0.3,0.2-0.9,0.1-1.3,0.1
				c3.2-2.4,6.5-4.7,9.5-7.3C393.3,57.4,395.1,56.9,397,60z"/>
			<path class="st28" d="M383.7,207.5c0-1.6,1.4-2,2.4-2.7c4.7-3.7,9.4-7.3,14.2-10.9c1.3-1,2.7-1.8,1.4-3.9
				c-0.9-1.4,0.6-1.9,1.5-2.6c3,0.4,4.7,2.6,6.3,4.8c-3.1-3.1-4.9-1.2-7.5,1.2C396.1,198.5,389.8,202.9,383.7,207.5z"/>
			<path class="st29" d="M435.5,152.4c-0.6-3.2,2.8-3.1,4-4.9c1.9-2,1.9-4.6,2.4-7l0,0c-0.1-0.7,0-1.4,0.6-1.8
				c2.2-1.3,4-3.1,6.1-4.5c1.3-0.9,1.4-1.9,0.8-3.2c0-0.4,0-0.7,0.2-1c0.3-0.2,0.7-0.2,1,0c0.7,1.1,1.9,1.8,1.9,3.2
				c-2.6,2-5.2,4.1-7.9,6.1c-0.8,0.6-1.9,1.3-1,2.5c1.8,2.3,0.1,3.4-1.4,4.7C440,148.3,437,149.5,435.5,152.4z"/>
			<path class="st30" d="M427.3,169.1c2.3-4.2,1.6-10,7.1-12.4c1.7-0.8,1.5-2.2,1.4-3.7c1.8,1.6,1.2,2.8-0.6,4c-2,1.4-5.1,2.5-2.5,6
				c0.5,0.6-0.3,1.2-0.8,1.7C430.5,166.1,428.9,167.6,427.3,169.1z"/>
			<path class="st31" d="M454.6,115.1c0.3,0.4,0.6,0.7,0.9,1.1c0.7,0.9,1.3,1.8,2,2.7c-1.4,2.1-3.7,3.1-5.5,4.7
				c-0.5,0.1-0.8-0.1-0.9-0.6c1.1-0.9,2.1-1.9,1.8-3.4C452.5,117.6,453.5,116.4,454.6,115.1z"/>
			<path class="st32" d="M450.2,129.8c-0.2,0.1-0.4,0.3-0.5,0.4c-1.5-2.6-1.7-4.8,1.5-6.3c0.9,1.1,2.4,1.9,1.7,3.8
				c-0.7,0.6-1.4,1.1-2.1,1.7C450.8,129.8,450.6,129.9,450.2,129.8z"/>
			<path class="st33" d="M315.7,243.3c-1.3,2.1-1.2,4.4,1.7,3.9c3.3-0.6,5.4,0,7,2.9c1.5-1.2-0.3-4.3,2.4-4c1.5,0.1,1.8,2.4,2.8,3.6
				c1.2,1.3-3,1.4-1.5,3.7c2-0.7,3.3-2,3.9-4.2c0.5-1.8,1.5-1.9,2.5-0.3c0.5,0.8,1,1.5,1.5,2.2c1.7,2.1,3.2,2.2,5.2,0.4
				c1.5-1.3,2.7-3.1,5.1-0.6c1.4,1.4,3.1-0.6,4.5-1.5c0.6-0.5,1.5-1.2,2.1-0.5c0.9,1-0.3,1.6-0.9,2.2c-2.1,1.7-4,3.4-7,1.4
				c-1.7-1.2-3.3-0.9-4.6,1.2c-0.8,1.3-2.1,2-3.8,0.9c-0.8-0.5-2.4-0.8-2.9-0.3c-2.8,2.4-5.8,2.1-9.2,1.9c-2-0.1-3.2-0.3-4.2-1.9
				c-0.4-0.7-1-1.8-1.5-1.8c-2.9-0.1-5.2-0.8-7.4-3.1c-0.8-0.9-1.8-1.6-2.3-2.9c-0.7-1.8,1-1.2,1.6-1.8c1.4-1.4,0.3-2.7-0.6-3.9
				c-2.3-2.9-3.3-5.7,0.2-8.5c-2.5-0.6-4.2-3.5-3.8-5.6c0.4-1.9,2.5-3.9,0-5.9c3.1-1.9-1.2-5.5,1.7-7.7c1.1-0.9,1.5-2.5,0.3-4
				c-1-1.2-2.1-1-3.4-0.5c-1.6,0.6-4.2,1.7-3.4,3.1c2,3.7-1.5,4.4-2.8,6.1c-1.2,1.5-2.3,2.2-1.3,4.6c0.9,2-2,2.6-3.2,3.8
				c-0.7,0.7-1.7,1.2-1,2.1c1.7,2.5,0.2,4.2-1.1,6.1c-0.9,0-1.8,0.1-2.7,0.1c-0.8,0-0.8-1.2-0.6-1.2c3.6,0.2,1.1-3.6,3.4-4.6
				c-3.5,0.7-3.3-1.6-3.6-3.4c-0.2-1.4,0.8-2.1,1.9-1.5c2.8,1.6,2.8-0.6,2.6-2c-0.3-2.3,3.6-2.7,2-5.3c1.8-0.1,3.7-0.1,4.5-2.6
				c-2.6-0.2-5.9,1-6.5-3.2c3.8,2,8.7,0.6,11.2-2.9c0.6-0.8,0.1-1.5,0.1-2.2c0-1.9-0.2-4,1.7-5.2c1.3-1,2.6-2,3.8-2.9
				c0.8-1.3,1.9-2.1,3.3-2.5c0.5,0.2,0.9,0.5,1.4,0.7c0.1,1.5,1.9,2.2,2,3.7c-3,1.3-1.2,4.7-2.8,6.7c-0.5,0.7,0.9,0.7,1.6,0.3
				c0.7-0.5,1.4-0.8,2.1,0c0.8,0.9,0.5,1.8-0.1,2.5c-1.3,1.5-2.4,2.9-0.2,4.6c0.2,0.1,0.3,0.5,0.3,0.5c-3.1,1.7-0.1,4.9-1.8,6.9
				c-0.8,0.9-0.5,1.9-0.2,2.9c0.2,0.5,0.9,1.1,0.4,1.5c-4.1,3.1-0.7,5.1,1,7.3c2.1,2.7,4.2,5.5,6.3,8.2c0.3,0.5,0.7,0.9,1,1.4
				c1.1,1.3,1.3,3.1-0.1,3.9c-1.6,0.8-1.7-1.2-2.3-2.2c-0.3-0.2-0.5-0.4-0.6-0.6c-0.3-0.7-0.8-1.1-1.6-0.9
				C318.1,242.3,317.1,243.5,315.7,243.3z"/>
			<path class="st34" d="M324.7,289.4c-2.9,2.8-4.7,1.1-6.3-1.5c-0.6-1-1.2-2.9-2.6-2.2c-2.1,1-4.2,2.4-5.5,4.4
				c-0.5,0.8,0.6,1.6,1.2,2.3c2.3,3,4.6,6,6.9,9c1,1.3,1.3,2.3-0.3,3.4c-1.5,1.1-2.2,0.4-3-0.8c-3.7-4.9-7.3-9.7-11-14.6
				c0,0,0,0.1,0,0.1c0.2-0.9,0.7-1.4,1.6-1.3c0,0.7-0.3,1.6,0,2c3.3,4.4,6.6,8.8,9.9,13.1c0.5,0.6,1.2,0.6,1.8,0.1
				c1-0.9,0.3-1.6-0.2-2.4c-2.2-2.9-4.4-5.8-6.7-8.7c-3.4-4.2,1.2-4.8,3-6.6c2-2.1,3.9-1.3,4.8,1c1.5,3.8,4.5,2,6.9,2.1
				C325.3,289.4,325.1,289.5,324.7,289.4z"/>
			<path class="st35" d="M324.7,289.4c0.2-0.2,0.4-0.3,0.6-0.5c2.6,3.4,5.2,6.9,7.9,10.3c0.6,0.8,1.1,2.5,2.5,1.4
				c1-0.8,0.3-2.2-0.4-3.1c-1.9-2.2-4-4.2-5.3-7c0.2-0.5,0.5-0.6,1-0.5c3.2,2.5,5.4,5.7,7.2,9.3c0,0.2,0,0.4-0.1,0.6
				c-2.4,2.7-4.1,2.2-5.9-0.7C329.9,295.8,327.2,292.6,324.7,289.4z"/>
			<path class="st34" d="M330.6,290.1c-0.2,0.2-0.5,0.3-0.7,0.5c-0.1-0.9,0.6-1.3,1.2-1.8c0.4-1.6-0.2-3.1-0.8-4.5
				c-1.8-2.4-3.8-1.1-4.9,0.4c-2.5,3.3-4,2.2-5.7-0.6c-0.6-1.1-1.5-2-2.3-3c-0.6-0.1-0.8-0.5-0.8-1.1c0.2-0.2,0.3-0.3,0.5-0.5
				c0.3,0.4,0.5,0.8,0.8,1.1c3.8,5,3.8,5.1,9.1,1.6c1.3-0.9,2.2-0.9,3.1,0.4c1.2,1.7,2.4,3.3,3.7,5c0,0.2,0,0.4-0.1,0.5
				C333,289.4,332.1,290.1,330.6,290.1z"/>
			<path class="st33" d="M298.7,208.9c0.4,0.6,0.8,1.1,0,1.4c-1,0.4-1.8,0-2.5-0.6c-0.5-0.4-0.5-1.2,0-1.5
				C297.2,207.4,298,208.4,298.7,208.9z"/>
			<path class="st10" d="M306.6,287.5c-0.9-3-2.7-5.3-5.3-7C304,280.4,307.4,284.8,306.6,287.5z"/>
			<path class="st36" d="M330.3,284.2c1.2,1.3,2.3,2.7,0.8,4.5C329.6,287.4,331.1,285.6,330.3,284.2z"/>
			<path class="st37" d="M287.3,254.3c0.4-0.1,0.9-0.1,1.3-0.2c0.6-0.1,1.2-0.1,1.3,0.7c0,0.3-0.1,0.7-0.3,0.9c-0.6,0.5-1,0-1.4-0.4
				C287.9,255,287.6,254.7,287.3,254.3C287.3,254.3,287.3,254.3,287.3,254.3z"/>
			<path class="st33" d="M292.9,216.9c-0.3-0.4-0.4-0.8-0.1-1.2c0.6-0.7,1.2-0.3,1.7,0.2c0.4,0.4,0.4,0.6-0.1,0.9
				C293.9,217.1,293.4,217.4,292.9,216.9z"/>
			<path class="st38" d="M316.6,280c0.3,0.4,0.5,0.7,0.8,1.1c-1.5-1.1-1.9,3.1-3.6,0.7C314.7,281.2,315.7,280.6,316.6,280z"/>
			<path class="st39" d="M354,87c7.3-5.3,14.5-10.5,21.8-15.8c2.6,0,2.4,1.7,1.9,3.3c-0.6,1.6-0.4,3,0.9,3.9c1.4,1,2.6,0,3.7-0.8
				c3.6-2.8,7.3-5.4,10.8-8.4c1.9-1.6,3-1.2,3.6,1.1c0.1,1.7-1.5,1.8-2.5,2.3c-1.3,0.8-2.6,1.4-3,3c-0.6,1.1-1.9,1.6-2.7,2.4
				c0.9-0.6,1.9-1.7,2.9-0.4c1,1.3,0,2.3-1,3.2c-1.6,1.4-3.5,2.4-5.1,3.9c-0.4,0.3-0.8,0.6-1.1,0.8c-4.2-1.7-8.9,1.2-10.7,6.5
				c-1.8-1-3.5-2.8-5,0.3c-1.5-3.2-3.1-2.9-5.7-0.9c-8.9,7-18,13.9-27,20.7c-1.2,0.9-2.4,2.5-4,0.4c-1.6-2.2,0.4-2.8,1.5-3.7
				c1.8-1.5,4.4-2.5,2.1-5.6c-0.8-1.1,0.8-1.7,1.5-2.3c3.6-2.8,7.2-5.6,10.9-8.4c0.2,1-0.5,1.4-1.2,1.9c-0.9,0.7-1.5,1.5-0.5,2.5
				c0.8,0.9,1.8,0.8,2.7,0.1c1.5-1.1,2.9-2.2,4.3-3.3c0.6-1.1,0-2.3,0.2-3.4c0.1-1.2-0.3-3.1,2-2.7c2.4,0.9,8.2-1.8,9.1-4.2
				c0.1-0.3,0.2-0.7-0.1-0.9c-0.4-0.4-0.8-0.3-1.3-0.2c-1.3,0.5-2.2,1.6-3.4,2.3c-1.6,1.1-2.8,2.7-5,2.8C354.3,87.6,354,87.4,354,87
				z"/>
			<path class="st18" d="M360.7,99.2c2.2,0,3.5-1.7,4.8-3c1.9-1.8,4.4-1.9,6.5-2.9c1.1-0.5,2.1,0.3,2.4,1.3c0.4,1.3,0.3,2.5-1.1,3.2
				c-3.8,1.9-7,4.6-10,7.7c-1.1,1.2-2.9,3.1-4.8,0.6c-0.7-0.8-1.2-0.1-1.7,0.3c-0.8,0.6-1.4,1.6-0.5,2.3c2.1,1.8,0.1,2.3-0.9,2.9
				c-6.6,3.8-12.3,8.8-18.2,13.6c-1.8,1.5-4.3,1.8-5.8,4c-0.8,1.2-1.5,2.3-1.7,3.6c-0.2,1,1.2,2.1-0.1,3.1c-2,1.5-4.1,3-6.1,4.5
				c-0.2,0.1-0.5,0.1-0.7,0.1c-0.6-0.1-1.3-0.7-1-1.1c1.5-1.9-4.4-2.8-0.5-4.9c2.6-1.5,4.6-3.7,7.5-4.7c2.5-0.8,3.6-3.9,2.5-6.5
				c-0.3-0.8-0.2-1.3,0.3-1.8c0.1-0.7,0.6-0.9,1.2-1.1c7.7-5.8,15.5-11.4,22.8-17.7C357.4,101.5,358.8,99.9,360.7,99.2z"/>
			<path class="st18" d="M407.4,88.7c-2.2,0.1-4.3-0.8-6-2c-1.6-1.2-2.3-0.7-2.8,0.6c-1.6,3.6-1.8,2.6-5.6,3.4
				c-2.2,0.5-5.2-0.1-7.1,2.2c-1.1,1.4-2.5,1.8-4,0.2c-0.9-1-1.8-0.4-2.8,0c-0.6,0.2-1.3,0.8-1.8-0.1c-0.3-0.7,0.1-1.3,0.7-1.8
				c0.6-0.5,1.3-1.3,2-1.3c3.7-0.2,4.8-2.9,5.9-5.7c1.8-2.5,4.8-3.6,6.7-5.9c2-0.9,3.1,0.6,4.4,1.6c0.3,0.2,0.6,0.4,0.8,0.6
				c1.6,2.5,3.2,1.3,4.8,0.1c0.6-0.1,1,0.2,1.4,0.6c1.4,2.3,3.6,4,4.1,6.7C408.1,88.4,407.9,88.6,407.4,88.7L407.4,88.7z"/>
			<path class="st39" d="M360.7,99.2c-1.6,1.3-3.3,2.5-4.9,3.8c-5.6,5.2-12,9.4-18,14.2c-1.6,1.2-2.9,2.9-5,3.5
				c-0.4,0.3-0.7,0.6-1.1,0.8c-0.1-0.2-0.3-0.3-0.4-0.5c12.4-9.5,24.8-19.1,37.2-28.6C366.8,95.6,363.2,96.8,360.7,99.2z"/>
			<path class="st18" d="M312.1,155c2.9-3.4,1.1-9.5,6.3-11.7c0.7,1.5-0.6,1.7-1.1,2.2c-0.8,0.8-1.8,1.8-1.3,2.9
				C318,152.6,314.3,153.3,312.1,155z"/>
			<path class="st40" d="M393.5,78.4c-2.6,2-5.1,3.9-7.7,5.9c-0.2,0.1-0.4,0.3-0.6,0.4c0.1-2.6,2.9-2.7,4-4.2
				c0.6-0.8,2.7-1.1,1.6-2.5c-0.9-1.2-1.7,0.5-2.5,0.8c-0.5,0.2-1,0.6-1.9-0.2c1.5-1.2,3-2.3,4.5-3.5
				C393.5,75,393.6,76.6,393.5,78.4z"/>
			<path class="st41" d="M363.8,106.5c0.8,1,1.5,2,2.3,3c-0.2,2-1.3,2.8-3.3,2.6c-0.8-1-1.5-2.1-2.3-3.1
				C361.6,108.1,362.7,107.3,363.8,106.5z"/>
			<path class="st41" d="M318.9,151.3c1.4,1.4,4,2.6,0.7,4.7c-2.3,1.5-2.4-1.1-3.5-1.8C316.4,152.7,317.9,152.3,318.9,151.3z"/>
			<path class="st11" d="M278.4,205.2c0.4-0.8,0.9-1.3,1.8-1.3C279.9,204.7,279.3,205.2,278.4,205.2z"/>
			<path class="st33" d="M426.2,196c2,2.2,1.1,3.9-1.1,5c-3.1,1.5-5.2,4.2-8.1,6c-1.3,0.8-1.9,1.9-0.9,3.4c0.9,1.3,0.3,2.4-0.8,3.3
				c-2,1.6-3.8,3.6-6,4.6c-2.9,1.3-4.4,4-6.9,5.5c-0.7,0.4-1.4,1.3-0.9,2c1.5,2.6-0.5,3.4-2,4.6c-5.3,4.1-10.6,8.1-15.9,12.2
				c-1.1,0.9-2,1.5-3.6,0.4c-2.3-1.6-4.2,0.6-5.6,1.9c-1.6,1.3-3.1,2.7-4.7,4c-1.8,1.5-3.6,3.5-6.1,0.8c-1-1.1-2.1,0.7-3.2,0.3
				c-1.1-1.7-2.5-2.7-4.6-1.7c-0.6,0.2-1.2,0.3-1.5-0.3c-0.3-0.6,0.1-1.1,0.6-1.5c0.5-0.4,1.1-0.9,1.6-1.3
				c9.4-7.2,18.8-14.4,28.2-21.6c0.7-0.6,1.6-2.1,2.5-1.2c1.3,1.2-0.9,1-1,1.7c-0.1,0.7,0.9,1.6,1.2,1.3c1.7-1.9,4.9-0.4,6.5-3.2
				c1.8-3,5.8-3.8,8.4-6.2c0.8-0.8,1.5-1.3,1.2-2.5c0,0,0,0,0,0c-1.2-4.1-1.3-4.2,2.8-7.2c3.1-2.3,6-5,9.4-6.9
				c1.4-0.8,2.3-2,1.4-3.7c-0.9-1.6-0.2-2.4,1-3.4c3.6-3.2,7.7-5.8,11.3-8.9c1.3-1.1,2.6-2,1.4-4c-1-1.6,0.2-2.5,1.3-3.4
				c2.9-2.2,5.8-4.5,8.7-6.7c1.2-0.9,2.1-1.9,1-3.4c-1-1.4-0.3-2.3,0.8-3.1c2.8-2.2,5.6-4.3,8.5-6.5c1.4-1.1,2.8-2,1.7-4.2
				c-0.6-1.1,0-2.3,1-3c2.9-2.1,5.4-4.6,8.6-6.3c0.9-0.2,3.2,0.8,1.5-1.7c-2.6-4.6,1.9-6,3.8-8.5c0.7-0.9,0.3-1.5-0.4-2.1
				c-1.1-2.7,1.5-3,2.7-4.3c0.6-0.4,1.2-0.5,1.9-0.6c0.9-0.1,1.9-0.1,2.8-0.5c0.8-0.3,1.5-0.4,2.3,0.1c0.2,0.7,0.5,1.4,0.7,2.1
				c-0.3,1.7-2,1.4-3,2.1c0.3,1,1.2,0.4,1.6,0.7c1.2,4.7-2.3,6.5-5.4,8.6c-2.1,1.4-3.8,2.7-1.8,5.5c1.2,1.7-0.4,2.2-1.5,2.6
				c-2.9,1.2-5.1,3.5-7.5,5.4c-0.8,0.6-1.7,1.8-1.5,2.6c0.9,5-3.3,6.3-6.1,8.2c-2,1.3-2.6,2.6-1.9,4.5c0.8,2.1,0,2.8-1.8,3.9
				c-4.2,2.5-7.7,6-11.3,9.4c-0.4,0.4-0.8,1.2-0.7,1.5c1.7,3.1-1,3.9-2.6,5.3c-2.5,2.2-5,4.4-7.4,6.6
				C426.2,194.4,426,195.1,426.2,196z"/>
			<path class="st42" d="M321.4,243.2c0,0.2,0.1,0.3,0.2,0.4c-3.4,3.4-3.4,3.4-6-0.3c1.3-1,2.3-2.4,4.1-2.3
				C320.8,241.3,321.4,242,321.4,243.2z"/>
			<path class="st1" d="M313.1,194.8c-1.1,0.8-2.2,1.7-3.3,2.5C310.3,195.6,311.4,194.8,313.1,194.8z"/>
			<path class="st1" d="M316.5,199.1c-0.7-1.2-2.2-2-2-3.7C315.2,196.7,316.7,197.4,316.5,199.1z"/>
			<path class="st0" d="M362.8,112.1c1.1-0.9,2.2-1.7,3.3-2.6c3.5-2.5,7.1-4.9,10.4-7.7c2.5-2.1,4-1.9,5.4,1
				c1.7,0.1,3.5-0.7,4.9,1.2c0.6,0.9,2,0.3,2.6-0.7c1.3-2.1,2.9-1.9,4.6-0.5c0.6-0.9,0-1.8,0.3-2.6c0.6-1.8,1.6-2.9,3.5-1.6
				c1.5,1,2.9,1.5,4.8,0.9c2-0.7,3.3,0.5,3.8,2.4c0.8,2.6,1.3,5.4,5.1,5.5c1,0,3.6,4.8,3.4,5.9c-0.3,1.5-1.7,0.7-2.5,1.2
				c0.6,1.5,1.2,2.9,0.6,4.6c-1.1,3.1-2.2,3.6-4.9,1.7c-1.2-0.8-2.4-1.3-3.7-1.8c-0.8-2.3-1.8-4.5-3.8-6c-0.7-0.5-1.2-1-2.1-0.6
				c-1.2,0.6-2,1.8-3.3,2.3c-2,0.9-3.9,1.1-5-1.4c0-0.3,0.1-0.7,0.2-1c0.5-0.9,1.2-1.7,0.3-2.8c-0.2-0.2-0.6-0.4-0.9-0.2
				c-1.3,0.8-0.3,1.8-0.2,2.7c0.1,0.6,0.1,1.1-0.2,1.6c-7.1,6.1-14.3,12-22.3,16.9c-0.3,0.1-0.7,0.2-1,0.2c-0.9-0.1-1.6,1.4-2.4,0.6
				c-0.7-0.7-0.3-1.8,0.1-2.6c0.6-1,0.7-1.8-0.3-2.7c-1.9-1.7-0.8-2.7,0.7-4c2.3-1.9,5.2-3.2,7-5.8c-0.8-1.1-1.6-2.2-2.4-3.3
				c-0.2-0.9,0.9-1.6,0.4-2.6c-1.5,0-2.4,1.2-3.5,2c-3.8,2.9-7.6,5.8-11.5,8.7c-1.2,0.9-2.3,1.9-4,1.7c0.9-2.6,3.5-3.3,5.3-4.9
				C357.9,115.8,360.4,114,362.8,112.1z"/>
			<path class="st5" d="M350.3,122.8c5.5-4.2,10.9-8.4,16.5-12.5c1.1-0.8,2.4-3.4,4.2-1.1c1.8,2.3-1.3,2.6-2.1,3.8
				c-0.1,0.6-2.2-0.9-1,0.7c1.2,1.7,0,2.1-0.6,3c-1-0.6-0.1-1.4-0.5-2.1c-1.3,0.9-1.8,2.5-1.8,3.5c0,2.7-1.2,3.9-4,3.2
				c-0.5-0.1-0.8-0.9-1.4-0.2c-0.4,0.5-0.2,1,0.1,1.6c0.6,1,1.1,2,1.6,3c0.3,0.5,1.9,0.8,0.6,1.7c-0.6,0.4-1.7,0.6-1.9-1
				c-0.1-0.9-1.3-2.7-1.9,0c0,0-0.1,0-0.1,0c-1.7-1-3.5-1.6-5.5-0.7c-0.2,0-0.3-0.1-0.5-0.1C351.5,124.7,350.5,124,350.3,122.8z"/>
			<path class="st43" d="M371.2,116.3c-0.9,3.1-4.2,3.6-6.1,5.6c-0.8,0.9-2.5,1.1-2.1,2.8c0.4,1.6,1.9,1.6,3.7,1.4
				c-1.2,1.8-2.8,2.8-2.7,4.8c0.8-0.1,1.6-0.3,2.3-0.4c0.3,0,0.5,0.1,0.5,0.4c-0.1,0.1-0.1,0.2-0.2,0.3c-1.7,0.1-2.7,1.7-4.1,2.3
				c-0.7-2.1-2.2-4.2,0.5-5.9c0.1-0.1,0.2-0.5,0.1-0.6c-3.3-4.5,1.5-5.1,3.4-7C368,118.5,369.7,117.5,371.2,116.3z"/>
			<path class="st44" d="M328.6,163.8c-1.2-0.5-0.6-2.1-1.9-2.4c-0.9-0.2-2.4-0.1-1.5-1.7c0.8-1.4,2.3-1.7,3.8-2
				c0.1,0,0.3,0.3,0.4,0.4C327.4,159.7,330.5,162,328.6,163.8z"/>
			<path class="st9" d="M330.2,159.1c0.5,1.3,3.6,2.4,0.4,4C331.3,161.7,329.9,160.5,330.2,159.1z"/>
			<path class="st45" d="M352.6,125.7c2.2-2.9,4-2.1,5.5,0.7C354.6,129.2,354.4,129.2,352.6,125.7z"/>
			<path class="st46" d="M472.4,125.8c-0.5,0.3-0.9,0.5-1.5,0.3c0.5-1.6,1.2-3.1,0.8-5c-0.4-1.6,0.9-2.6,2.2-3.5
				c1.4-1,2.8-2,1.3-4.2c-0.9-1.3-0.2-2.6,1-3.2c2.2-1,3.5-3.3,5.8-4.2c1.1-0.5,1.4-1.4,1-2.6c-4-4,1.4-4.1,2.5-5.9
				c1,0.2,2.4-1,2.9,0.7c0.6,2-1.6,2.1-2.4,3.2c-0.5,0.3-0.8,0.7-0.3,1.4c1.7,2.3,1,3.8-1.7,4.4c-2,0.5-2.8,2-2,3.6
				c1.2,2.3,0,3.3-1.5,4.5c-2,1.4-4.1,2.6-1.7,5.7c1.4,1.7-1.9,2.3-1.8,4c-0.7,0.2-1.4,0.5-2.1,0.7
				C474,125.4,473.2,125.9,472.4,125.8z"/>
			<path class="st47" d="M476.3,129.8c-0.9,0.3-1.7,1.3-2.7,0.8c-0.6-0.3-0.1-0.9,0-1.5c0.4-1.4,0.9-2,2.4-1.1
				c0.2,0.1,1.1-0.7,1.6-1.1C479.1,128.8,475.9,128.4,476.3,129.8z"/>
			<path class="st7" d="M483.1,103.5c1.1,1.5,0.8,2.6-1,3.1c-1,0.3-1.8,1-2.5,1.7c-2.1,1.9-5.3,3.1-3.2,7.1c0.5,1-1.1,2.2-2.2,2.7
				c-1.5,0.8-2.3,2.2-1.8,3.3c1.1,2.3,0,3.4-1.5,4.7c-0.9,1.5-4.6,1.4-2.6,4.6c0.8,0.4,0.3,1,0.3,1.5c-0.3,0.5-0.7,0.9-1,1.4
				c-2.4,2.9-3.1,4.6-3.1,7.9c0,0.9-0.2,1.6-1.2,1.8c-3.9,1.1-6.3,4.3-9.5,6.5c-0.4,0.2-0.6,1.2-0.4,1.5c2.1,2.9-0.4,4.1-2,5.5
				c-2.1,1.7-4.4,3.4-6.5,5c-1.7,1.3-3.8,2.2-2,5c0.8,1.2-0.5,2.1-1.4,2.8c-2.7,2.1-5.4,4.2-8.2,6.3c-1.3,1-2.6,1.8-1.4,3.9
				c0.5,0.9,0.3,2.3-0.6,2.8c-3.1,1.8-4.9,5.1-8.3,6.6c-2,0.9-3.6,2.8-5.3,4.2c-0.7,0.6,0,1.2,0.2,1.8c0.6,2.4,0.5,4-2.4,5.2
				c-4.5,2-7.9,5.7-11.9,8.6c-1.9,1.4,1.7,2.7,0,4.1c-0.8-1.3-1.6-2.6-2.4-3.8c4.7-3.5,9.3-7.1,14-10.6c0.9-0.7,2.5-1.5,1.2-2.9
				c-2-2.2-0.3-3.1,1.2-4.2c3.9-3,7.9-6,11.8-9c0.9-0.7,2.3-1.3,1.1-2.7c-1.7-2-0.5-3,1-4.1c3-2.3,6-4.6,9-6.9
				c0.9-0.7,2-1.5,0.9-2.7c-1.7-1.9-0.6-2.9,0.9-4.1c3-2.2,5.8-4.5,8.8-6.7c1.1-0.8,1.9-1.7,0.7-3.1c-1.2-1.3-0.5-2.2,0.6-3.1
				c2.6-1.9,5-4.1,7.7-5.8c2.8-1.8,3.9-3.6,1.2-6.4c1.3-1,2.5-2,3.8-2.9c1.5-1.1,3.2-2.1,1.2-4.2c-0.9-0.9-0.4-1.7,0.5-2.3
				c1.2-0.9,2.4-1.8,3.5-2.7c0.6-0.5,1.5-1.2,0.9-1.9c-2.5-2.9,0-4,1.8-5.3c1.8-1.3,3.5-2.4,1.2-4.8c-0.9-0.9,0.2-1.6,0.9-2.2
				c2-1.6,4-3.1,6-4.6C481.9,105.4,483,104.9,483.1,103.5z"/>
			<path class="st48" d="M488.2,95.4c-1.2-0.4-1.9-1.6-2.8-2.4c-0.1-1.4,1.1-1.6,1.9-2.2c2,0.2,3,1.2,2.5,3.3
				C489.3,94.6,488.8,95,488.2,95.4z"/>
			<path class="st17" d="M489.9,94.1c-0.1-1.7-1-2.7-2.5-3.3C489.8,90.9,490.5,91.8,489.9,94.1z"/>
			<path class="st49" d="M404.1,262.4c0.1,0.2,0.3,0.4,0.4,0.5c-0.2,3-3.6,3.1-4.7,5.3c-0.2,0.1-0.4,0.2-0.6,0.3
				c-2.5-1.5-2.2-3.1,0.1-4.6C400.7,263,401.8,260.9,404.1,262.4z"/>
			<path class="st50" d="M404.1,262.4c-2.7-0.6-4.1,1.4-5.7,2.9c-1.2,1.2,0.1,2.2,0.8,3.2c-1.8,0-2-1.8-3-2.7c0,0,0,0.1,0,0.1
				c1.7-1.3,3.4-2.6,5.2-4C402.5,261,403.5,260.9,404.1,262.4z"/>
			<path class="st50" d="M399.8,268.2c0.8-2.4,3.9-2.8,4.7-5.3c1.2,1.1,0.2,1.8-0.6,2.4C402.5,266.3,401.2,267.3,399.8,268.2z"/>
			<path class="st51" d="M347.1,298.2c1,1.2,1.9,2.6,3,3.7c2.5,2.5,1.7,4-1.2,5.1c-0.8-0.9-1.6-1.9-2.4-2.8
				c-3.8,1.5-3.8,1.5-6.4-2.2c-0.6-0.8-1.6-1.5-0.7-2.7c0.8-1.1,1.9-1.2,3-0.6c0.4,0.2,0.8,0.4,1.3,0.5c1.1,0,1.9-0.9,3-1
				C346.8,298.2,346.9,298.2,347.1,298.2z"/>
			<path class="st52" d="M344.4,300.3c-1.3,0.8-1.8-0.2-2.5-0.9c-0.5-0.5-1-0.5-1.5-0.2c-0.5,0.3-0.8,0.8-0.7,1.4
				c0.3,2.3,3.6,4.2,5.8,3.4c0.3-0.1,0.6,0.1,1,0.1c-2.3,2.3-4.1,2.1-5.7-0.8c-0.7-1.3-1.8-2.3-2.6-3.5c0,0,0,0.1,0,0.1
				C340.1,296.3,342,296.4,344.4,300.3z"/>
			<path class="st53" d="M348.7,286.6c-1.8,1-4.1,1.9-1.6,4.4c2,2.1,2.8-0.5,4.1-1.2c1.3,1.6,2.2,4,5,1.6c1.8-1.5,2,1.7,3.5,1.7
				c2-0.6,3.9-1.7,5.8,0.7c0.7,1,2.1-0.9,3.1-1.5c0.9,1.2,3.7,2.3,1.5,3.8c-1.8,1.2-3.1,5.9-6.7,2.2c-0.1-0.1-0.2-0.3-0.2-0.2
				c-2.9,1.2-5.6-0.6-8.3-0.4c-0.7,0-1.6,1-2.1,0.2c-2.2-3.3-3.8-1.2-5.6,0.4c0,0,0.1,0,0.1,0c-2.8-0.8-3.7-3.5-5.4-5.5
				c-1.2-1.4-2.2-2.7-4.5-2.1c-2.1,0.5-3.5-0.8-3.5-3.1c0,0,0,0.1,0,0.1c1.4-1.1,2.9-2.2,4.3-3.4c1.4-1.2,2.8-2.1,4.1,0.2
				c0.4,0.6,1.2,1.1,1.7,0.5C346.5,282.5,347.5,285,348.7,286.6z"/>
			<path class="st54" d="M446.7,111.6c-0.2,1.4-2.5,1-2.3,2.6c2.3,3.4-0.7,6.6-0.5,10c0.1,1.9,0.3,4.2-0.8,6
				c-2.7,4.6-5.4,5.7-8.7,0.9c-0.7-0.9-1.4-1.7-1.7-2.8c-0.2-1.1,0.2-2,1.1-2.7c2.1-1.7,2.8-3.5,3.2-6.5c0.5-3.9,0-7.8,1-11.6
				c0.3-0.1,0.7-0.2,1,0c2.4,1.7,3.6,1.5,2.6-1.8c-0.5-1.6,1.2-2.3,1.3-3.7c-0.9-2-2.1-0.3-3.1-0.3c-0.3,0-0.6,0-0.9-0.2
				c-0.1-2,1.9-3.9,0.4-6c0-1.3,2.4-1.6,1.6-2.9c-0.9-1.6-2.4,0.5-3.6,0c-1-2,0.9-2.6,1.7-3.6c0.8-0.7,2.4-0.3,2.7-1.8
				c-0.3-2.4-2.3-3.8-3.6-5.5c-0.2-0.3-0.4-0.6-0.5-0.9c-0.1-0.5,0.1-1,0.4-1.4c2-2.1,1.9-3.1-0.2-5.2c-1.9-1.9-2.7,0-3.7,1
				c-0.9,0.9-1.9,1.7-3.3,1.8c-0.4-0.1-0.6-0.3-0.8-0.7c2.7-3.6-0.5-5.7-2-8.3c-0.1-0.3-0.2-0.6-0.3-1c0.1-1.1,0.9-1.3,1.6-1.2
				c1.9,0.4,3.4-0.5,5-1.2c1-0.2,1.9,0.4,2.9,0.6c6.4,0.2,11.7,6,11.5,12.3c0,0.8-0.2,1.7,0.2,2.4c2.6,4.5,2.1,8.8-0.4,13.2
				c-0.2,0.3-0.4,0.8-0.2,1c2.6,2.4-0.1,5.1,0.5,7.6c0.7,2.6-2.2,2.4-3.6,3.4c2.6-0.2,2.7-0.2,3.5,3.6
				C448.2,109.8,446.8,110.1,446.7,111.6L446.7,111.6z"/>
			<path class="st55" d="M437,66c-0.8-0.3-1.6-0.5-2.4-0.8c-1.7,0.9-3.4,1.8-5.1-0.2c-0.6-0.7-1.5-0.4-2.3-0.2c-0.7,0.2-1.3,0.2-2,0
				c-1.4-0.8-2.9-1.3-4.6-0.5c-0.6,0.3-1.4,0.6-2,0.4c-3.5-1.2-5.6,0.4-7.3,3.3c-0.7,1.2-2.1,2.4-3.4,1.4c-3.4-2.8-4.8-0.5-6.2,2.1
				c-2.6,2.8-3.8,2.7-5.3-0.5c-0.9-1.6-1.4-3-3.7-0.8c-3.4,3.2-7.4,5.8-11.1,8.7c-1.3,1-2.8,1.5-4,0.3c-1.1-1.1-1.9-2.6-1-4.3
				c0.8-1.5,1.1-2.8-0.9-3.6c1.1-0.9,2.2-1.4,3.3-0.1c0.9,1.1,0.6,2.1-0.2,3.1c-0.7,0.9-1.3,2-0.1,3.1c1.3,1.1,2.3,0.3,3.4-0.5
				c3.3-2.5,6.5-5.1,9.7-7.7c2-1.6,4-3,6.8-1.6c1.3,0.7,2.7,0.2,3.5-1.2c1.3-2.2,2.9-2.3,4.9-0.8c1.5,1.2,2.8,0.7,3.8-0.7
				c1.3-2,4-2.2,5.2-4.3c0.2-0.3,1.1-0.5,1.2-0.3c1.9,2.4,4.4,1.4,6.8,1.7c1.8,0.2,3.3,1.9,5.1,0c2.5,2.3,7-0.4,9,3.4
				C438,65.7,437.6,66,437,66z"/>
			<path class="st56" d="M437,66c0.4-0.3,0.7-0.6,1.1-0.8c2.2-2.2,4-2.2,5.7,0.6c1.5,2.3,3.3,4.4,5,6.6c1.3,1.7,2.7,3.2,0.8,5.4
				c-0.5,0.6-0.6,1.7,0,2.3c3.9,3.6,1.4,7.9,1.3,12c-0.1,5.5-2.6,10.8-1.6,16.5c0,0.1-0.3,0.3-0.4,0.5c-1.1-1.5-1.1-4.4-4.6-2.7
				c0.9-1.4,0.5-3.4,2.8-2.4c0.2,0.1,0.7-0.1,0.9-0.3c0.4-0.3,0.7-6.8,0.3-7.2c-1-0.8-2.1-2.2-1.1-2.8c3.2-1.8,1.5-5.1,2.9-7.4
				c0.4-0.6,0.1-1.2-0.2-1.9c-1.1-2.1-2-4.6-1.7-6.8c0.5-3.1-0.8-5.2-2.7-7C443.2,68.1,440.5,66.2,437,66z"/>
			<path class="st57" d="M435.3,130.8c1,1.2,2.1,3.4,3.5,2.7c1.8-1,4.2-2.4,3.9-5.1c-0.3-2.6,1.5-5.1,0.2-7.7
				c-0.2-0.3-0.1-1.2,0.2-1.3c2.5-1.2,1.2-3.4,1.3-5.1c1,1.6,3,2.8,1.4,5.3c-1,1.6,1.7,1.3,2.2,2.4c-4.1,1.9-4.7,6-1.5,9.8
				c-1.2,3.1-3.9,4.6-6.3,6.6c-0.6-1.2-0.4-3.2-2.5-3.3C434.4,134,434,133.3,435.3,130.8z"/>
			<path class="st20" d="M432.2,39.3c0.5,0.3,1.1,0.4,1.4,0.8c5.1,6.6,10.2,13.3,15.3,20c0.8,1,1,2.3,0.8,3.6
				c-0.4,2.5,2.6,7.4,4.9,8c1.1,0.3,1.4-0.4,1.7-1.3c0.4-1-0.4-2.4,0.7-3.2c0.7,2.3,1,5-1,6.2c-2,1.1-3.6-1.5-5-2.8
				c-1.3-1.2-2.3-2.9-3.4-4.3c-0.7-0.9-1.2-1.9-0.3-2.8c1.9-2,0.7-3.5-0.5-5.1C441.9,52,437.1,45.6,432.2,39.3z"/>
			<path class="st58" d="M451,123.9c-1.9,1.8-1.9,4-1.4,6.2c0,0,0,0,0,0c0.4,1.8,0.1,3.3-1.7,4.3c-2.1,1.2-3.6,3.1-5.4,4.6
				c-0.2,0.5-0.5,0.9-0.7,1.4c-0.6-0.7-1.1-1.5-1.7-2.2c1.2-3.1,4.2-4.4,6.3-6.6c1-0.8,2.4-1.5,1.8-2.9c-1.3-3.1,0.8-4.4,2.8-5.8"/>
			<path class="st59" d="M446.7,111.6c1.3-0.6,1.9-3,3.9-1.8c0.8,0.5,1.7,1.4,1.5,2.5c-0.2,1.1-1.3,1.6-2.2,2
				c-1.1,0.5-1.6-0.6-2.1-1.3C447.3,112.5,447,112,446.7,111.6C446.7,111.6,446.7,111.6,446.7,111.6z"/>
			<path class="st60" d="M354.5,87.5c-1.6,1.8,0.9,4.6-1.4,6.2c-1.4-2.5-1.6-4.8,0.9-6.8C354.2,87.2,354.3,87.3,354.5,87.5
				L354.5,87.5z"/>
			<path class="st61" d="M382.7,208.4c-2.9,2.3-5.5,5.1-9.2,6.2c-4.1,2.8-9.3,3-13.2,6.2c-0.7,0.6-1.7,0.7-2.6,0.9
				c-1.3,0.3-2.3,0.1-2.9-1.2c-0.6-1.3,0.4-1.8,1.2-2.5c6.2-4.8,12.4-9.5,18.6-14.3c1.5-1,1.6,1.4,2.7,1.2c3.3-0.4,5.2-3,7.6-4.8
				c1.8-1.3,0.4-2.9-0.2-4.3c-1.7-3.1-0.8-5.1,2.2-6.9c3.2-1.9,5.9-4.6,9.1-6.6c1.7-1,3.7-2.2,2-5.1c-1.3-2.3,1.4-2.5,2.7-3.4
				c0.9-0.4,1.4-1.3,2.2-1.7c0.3-0.1,0.5-0.2,0.8-0.2c0.6,0,0.8-0.4,0.9-0.9c0.1-0.3,0.3-0.5,0.5-0.7c1.2-0.8,2.4-1.6,3.4-2.7
				c0.5-0.4,0.9-1,1.1-1.6c-1.5-3.7-1.2-4.4,2.6-5.5c1.7,1.7,0.8,4.1,1.6,6.1c0.4,1-0.7,1.5-1.6,1.8c-1.7,0.6-2.7,1.5-2.2,3.5
				c0.5,1,1.3,2,1.1,3.3c-1,0.8-2,1.6-3,2.5c0.8,4.5,0.1,5.3-4.3,7.9c-3.5,2.1-5.9,5.3-7.1,9.3c-0.4,1.3-1.5,2.3-2.6,3.1
				c-3.1,2.3-6.2,4.7-9.3,7.1C383.6,206,382.3,206.7,382.7,208.4z"/>
			<path class="st62" d="M411.1,175.3c-0.8-1.1-1.5-2.1-2.3-3.2c0.6-1.9,1.9-3,3.7-3.7c0.9-0.4,1.8-1,1.3-2c-2-3.6,0.5-5.2,2.9-6.9
				c0.5-0.4,1.1-0.8,1.6-1.3c3.1-1.3,1.6-4.3,2.3-6.4c1.5-2,3.3-3.5,5.7-4.3c3.1,1.1,3.5,2.3,1.9,5c-0.4,0.6-0.9,1.3-0.5,1.9
				c2.2,3.3-0.7,4.4-2.6,5.8c-1.8,1.4-3.9,2.3-4.4,4.8c-0.1,0.5-0.2,1.1-0.4,1.6c0.7,1.5-0.4,2-1.3,2.7
				C416.4,171.3,413.7,173.3,411.1,175.3z"/>
			<path class="st63" d="M419.4,165.5c-0.8-1.5,0.4-2,1.3-2.7c1.7-1.3,3.4-2.7,5.2-3.9c1.5-1.1,2.8-2.1,1.1-4.1
				c-0.6-0.7-0.4-1.6,0.3-2.2c2.5-2,0.9-3.4-0.7-4.9c-1-0.3-1.4-0.8-1.1-1.9c2.5-0.2,3.1-1.2,1.3-3.2c-0.3-0.3-0.5-0.7-0.8-1.1
				c-0.3-0.4-0.7-0.8-1.3-1c-1-0.3-1.9,0.8-2.9,0.1c0.7-1.9,0-4,1.2-5.8c1.5,0.4,2.2,1.6,3.2,2.5c0.9,0.9,1.3,2.7,3.2,1.7
				c1.5-0.9,2.9-1.8,2.6-4c-0.4-2.5,0.5-4.8,1.2-7.1c0.7,0.9,1.4,1.8,2.1,2.7c-1.2,2.5,1.2,3,2.4,4.2c-2.9,1.5-4.2,4.7-7,6.3
				c-0.3,0.2-0.8,0.9-0.7,1c2.3,2.9,0.4,5.8-0.5,8.2c-1.2,3.4,0.9,8.2-3.9,10.3c-1.1,0.5-2.2,1.1-3.3,1.7
				C421.9,164,421,165.1,419.4,165.5z"/>
			<path class="st64" d="M413.5,178.8c-1.1,0.5-2.2,2.5-3.3,0.5c-1.1-2,0.9-3,2.2-4c1-0.7,2.2-2.6,3.3-0.6
				C416.8,176.7,414.7,177.6,413.5,178.8z"/>
			<path class="st65" d="M419.4,165.5c0.5-1.4,1.7-2.2,2.9-3c2.1,3.2,1.8,3.8-2,4.1C420,166.3,419.7,165.9,419.4,165.5z"/>
			<path class="st58" d="M441.9,140.5c0.8,2.9,0.4,5.4-2.4,7C440.2,145.1,439.8,142.4,441.9,140.5z"/>
			<path class="st66" d="M324.4,205.1c1.8-1.2,2.1-2.1,1.3-4.5c-0.8-2.3,0.9-5.5,1.7-8.2c0.3-0.8,1.5-1.3,2.4-1.9
				c1.6-1,2.4-2.1,0.7-3.7c-0.4-0.4-1-1.3-0.6-1.4c3.9-1.4-0.6-5.4,2.2-7.1c1-0.6,1.8-1.4,2.7-2.1c1.5-1,2.2-1.9,0.7-3.5
				c-1-1-1-2,0.3-2.8c1.2-0.7,1.6-1.6,0.5-2.7c-1.2-1.3-0.7-2.2,0.5-3c0.3-0.2,0.5-0.5,0.8-0.6c2.7-1.5,4.4-3.4,2-6.5
				c2.2-3.1,5.9-4.4,8.5-7.1c1.2-1.3,2.8,0.2,4.2,0c1.7-0.3,2.9-1.9,4.5-2.3c0.6-0.1,1.1,0,1.3,0.7c-0.2,1-0.8,1.7-1.5,2.2
				c-3.5,2.3-3.4,5.9-3.2,9.4c0.2,2.1-0.2,3.5-1.7,4.8c-3.2,2.9-3.2,2.9-0.8,6.7c0.4,0.7,0.8,1.4,0.9,2.2c-1.3,2.4-3.9,3.2-5.7,4.9
				c-0.9,0.9-2.4,1.4-1.9,3.2c0.3,0.8,0.6,1.6,0,2.5c-1.4,0.4-2.3-1.8-3.6-0.7c-0.7,0.6,0,1.2,0.8,1.2c1,0,1.9-0.8,2.9-0.2
				c-1.4,2.8,0.1,6.1-1.7,8.8c-0.1,0.2-0.1,0.5,0.1,0.7c3.7,3.3,1.3,7.7,2,11.5l0,0c-0.1,0.3-0.1,0.8-0.4,0.9
				c-3.6,2.7-4.6,5.5-1.4,9.4c1.4,1.7-0.5,4.1-0.8,6.1c-0.5,3.7,0.8,8.4-4,10.7c-1,0.5-1.9,1.2-3.2,1.1c-4.7-6-9.4-12.1-14.1-18.1
				c-0.5-0.6-1.2-1.5-0.3-2"/>
			<path class="st0" d="M335,233.7c1.3-1,2.5-2,3.8-2.9c1.6-1.1,1.4-2.4,1.6-4.3c0.2-2.6-0.3-5.8,1.3-8.3c0.8-1.2,0.9-1.8,0.2-3
				c-3.3-5.2-3.3-5.3,1.8-9.1c0.4-0.3,0.8-0.5,1.1-0.8c1.4,1.7,3.1,3.4,0,5.1c-0.7,0.4-0.5,1.2,0,1.8c1,1.4,2.1,2.7,3.1,4.1
				c0.8,1.1,1.7,0.8,2.6,0.1c1-0.8,2-1.3,2.8,0.1c1.1,1.9,2.2,1.3,3.6,0.2c8.5-6.6,17.1-13.2,25.7-19.7c0.9-0.7,2.1-1.4,1-2.7
				c-1.7-2-0.5-2.9,1-4.1c4.1-3,8-6.1,12.1-9.2c1-0.8,2.3-1.5,0.9-3c-1.5-1.6-0.6-2.5,0.8-3.6c3.7-2.8,7.2-5.6,10.9-8.5
				c0.5,0,0.6,0.2,0.6,0.6c-0.2,0.5-0.5,0.9-0.7,1.4c-1.6,0.6-2.9,1.6-3.8,2.9l-0.3,0.2l-0.3,0.2c-0.1,0.6-0.5,0.9-1.1,0.8l0,0
				c-1.3,0.1-1.9,0.9-1.8,2.2c-2.8,0.3-4.6,0.8-2.9,4.5c0.8,1.9-1.6,3.3-3.2,4.2c-3.9,2.1-7,5.1-10.5,7.6c-2.5,1.7,0.5,3.4,0,5.2
				c-2.2,3.9-5.5,6.4-9.8,7.6c-6.1,4.6-12.2,9.3-18.3,14c-0.9,0.7-2.7,1.1-1.7,2.8c0.9,1.6,1.9,0,2.9-0.2c1.7-0.2,2.9-0.9,4-2.2
				c0.5-0.7,1.6-1.3,2.3-1.3c3.2,0.2,5.9-1.5,8.8-2.1c-0.2,0.2-0.4,0.4-0.6,0.6c-6.8,5.2-13.7,10.4-20.5,15.7c-1.4,1-2.5,2.1-3.9,0
				c-0.8-1.2-1.8-0.7-2.6,0c-1.7,1.3-3.6,2.5-5.2,4C338.1,237.2,336.4,236.7,335,233.7z"/>
			<path class="st67" d="M442.6,139.1c0.5-2.3,2.3-3.7,4.1-4.8c1.7-1,2.6-2.2,2.9-4.1c1.9,1.9,1.9,3.4-0.6,4.8
				C446.8,136.2,445.4,138.8,442.6,139.1z"/>
			<path class="st68" d="M321.4,243.2c-0.6-0.7-1.1-1.4-1.7-2.2C321.2,241,322.3,241.3,321.4,243.2z"/>
			<path class="st69" d="M344.1,184.1c0.3-0.9-0.3-1.4-0.7-2.1c0.8-4.2,4.8-5.1,7.6-7.2c1.1-0.8,2.1,0.4,2,1.8
				c-0.1,0.8-0.7,1.4-1,2.1c0,0.3,0,0.6,0,0.9c1.4,2,0,3.8-0.2,5.7c1.1,1.7,1.7,3.4,0.3,5.4c-0.5,0.7-0.1,1.3,0.7,1.5
				c1.6-0.4,3.1,0.3,4.5,0.3c3.8,0,8.2,2.5,11.5-1.6c1-1.3,2.6-2.3,4.2-2.9c0.4-0.1,0.7-0.1,1,0c2.6,2.8,1.4,4.5-1.3,6.4
				c-3.7,2.5-7.1,5.4-10.7,8.1c-0.9,0.6-2,2-2.9,0.6c-2-3.1-3.5-1-5.2,0.2c-1.7,1.2-3.1,3.4-5.5,0.4c-1.1-1.4-2.4,1-3.6,1.6
				c-1.4-1.6-3.1-3-0.5-5.3c1.4-1.3-0.5-2.6-1.3-3.8c-1.2-1.7-3.4-3.3-0.3-5.2c0.3-0.2,0.5-1,0.4-1.2
				C340.7,187.5,343.2,186,344.1,184.1L344.1,184.1z"/>
			<path class="st70" d="M409.9,166.7c-0.2-0.2-0.4-0.4-0.6-0.6c-2.8-2.5-1.8-4.3,1-6c1.8-1.1,2.9-1.9,1.8-4.8
				c-0.6-1.6,1.5-4.6,0.6-7.3c-0.1-0.4,1.5-1.3,2.3-1.9c1.6-1.3,3.4-2,2-5.1c-0.6-1.4,2.3-4.4,0.5-7c2.3-1.3,2.1-2.9,0.5-4.7
				c-0.5-0.6,0-1.4,0.5-1.8c1.7-1.1,1.9-2.4,0.6-4c-0.5-0.6-0.2-1.4,0.4-1.8c1.8-1.2,1.8-2.4,0.4-3.9c-0.5-0.5-0.8-1.4-0.1-1.8
				c2.9-1.6,1.4-3.3,0.3-5c2.5-2.7,2.5-2.7-0.4-6.6c-0.8-1.1-1.8-2.2-0.4-3.5c1.2-1.1,2.4-1.7,3.8-0.3c1,1.8,2.2,3.5,3.5,5
				c1.6,1.8,2,3.7,1,5.9c0.7,2.3,0.7,4.5-0.5,6.6c0,0.6,0.2,1.2,0.3,1.8c-0.4,2-2.3,3.9-0.6,6.1c0.1,0.7-0.1,1.4-0.5,2
				c-0.4,0.6-0.8,1.1-1.2,1.7c-0.1,2.1,1.9,5.1-2.3,5.5c0.7,2,1.1,4-0.8,5.7c0.4,0.1,0.7,0.2,1.1,0.4c0.8,0.6,1.3,1.4,1.3,2.5
				c-0.3,3-3.4,3.7-4.8,5.7c-0.6,1.7,0.7,4.2-2,5c-0.3,0.1-0.6,0.1-1,0c-1.2-0.8,0.8-2.2-0.8-3.1c-0.6,1.9-1.4,3.5-1.1,5.5
				c0.2,1.7,0.2,3.5-1.9,4.3c-0.2,0-0.3,0-0.5-0.1C408.6,161.5,409.4,164.2,409.9,166.7z"/>
			<path class="st71" d="M374,188.1c-0.2,0.1-0.5,0.3-0.7,0.4c-1.2-1.1-2.4-2.2-4.2-1.1c-0.7,0.4-1.6,0.4-2.3-0.1
				c-0.3-0.2-0.5-0.5-0.7-0.8c-1.4-2.4-0.2-4,1.7-5.3c1.9-1.5,3.7-3.1,5.7-4.4c2.3-1.5,3.3-3.3,2.5-6c0.3-1,1-1.7,1.9-2.2
				c3.6-1.6,6.9-3.9,10.1-6.3c1-0.7,1.9-1.7,3.1-2.1c1.3-0.4,2.5-0.1,2.1,1.5c-0.5,1.6-0.2,3.1,0,4.7c0.3,2.8-2.5,3.6-3.8,5.3
				c-0.5,0.8-0.4,1.7-0.1,2.5c0.1,0.5,0.4,1,0.4,1.6C384.5,179.9,379.3,184,374,188.1z"/>
			<path class="st71" d="M404.4,118.8c1.7-0.9,2.8,0.5,4.1,1c0.9,0.4,1.5,2.4,2.3,1.4c0.9-1.1,2.2-2.4,1.7-4.3
				c-0.4-1.3-0.8-2.6-2.5-2.8c1.4-1.9,2.9-0.4,4.7-0.7c-1.2-0.9-1.5-2-1.5-3.3c-0.1-1.2-0.9-2.6-2.1-2.4c-4.3,0.7-4.5-2.7-5.2-5.2
				c-0.7-2.5-1.5-3.5-4-2c-1.4,0.9-2.6,0-3.8-0.8c-0.7-0.5-1.2-1.8-2.2-1.1c-1.1,0.7-0.9,2-0.7,3.1c0.1,0.6,0.7,1.2,0.4,1.9
				c-0.2,0.4-0.5,0.9-0.9,0.9c-0.6,0.1-0.9-0.4-1.3-0.9c-1.2-1.7-2.2-2.6-3.6,0.1c-1,1.9-3.1,2.5-4.3,0.1c-1-2-3,0.7-3.7-1.2
				c1.9-1,3.7-3,5.7,0.1c0.5,0.8,1.4-0.1,2.1-0.5c1.8-1.4,3.7-2.8,5.5-4.2c0.5-0.4,1.1-0.9,1.7-1.2c0.4-0.2,1.2-0.4,1.2-0.4
				c1.5,4,5.7-0.7,7.6,2.3c1.2,1.9,2.8,3.6,4.1,5.5c1.1,1.5,2.1,2.8,4,1c0.7-0.6,1.5-0.6,2.1,0.2c0.5,0.6,1.4,1.6,0.8,2
				c-3.3,2.1-1.1,4.2-0.3,6.3c-0.7,1.4-2.3,2.7-0.7,4.5c0.3,0.4,0.1,0.9-0.2,1.2c-1.3,1.7-2.5,3.4-0.6,5.4c-2.3,2.6,0.9,7.3-3.7,9.1
				c-3,1.1-0.9,3.7-1.2,5.7c-1.6,1.2-3.8,2-1.4,4.6c1.3,1.5-0.6,2.1-1.4,2.8c-1.7,1.6-5.1,2.4-2.5,5.9c0.6,0.9-0.7,1.5-1.4,2.1
				c-2.5,2.1-5.4,3.8-7.7,6.2c-0.6-0.1-0.9-0.4-1.1-0.9c0.8-2.6,2.9-4.1,4.8-5.7c1.4-1.2,2.1-2.2,1.2-4.1c-1-1.9-0.4-3.6,1.3-4.8
				c3.7-2.6,5.3-5.8,3.7-10.4c-0.7-2.2,0.3-3.6,2.6-3.9c1.2-0.2,2.6-0.4,2.4-1.8c-0.2-1.4,1-3.1-1.1-4.2c-2.4-1.3-3.5-4.2-6.3-5.2
				C402.7,119.2,403.3,118.8,404.4,118.8z"/>
			<path class="st72" d="M423,101.1c-1-1.3-2.1-1.2-3.2-0.1c-1,1-0.4,1.8,0.2,2.7c0.3,0.5,0.6,1,1,1.4c2.5,2.4,2.4,4.4-0.8,6
				c2.4-2.4,1.4-4.4-0.5-6.4c-1.4-1.4-2.3-3,0-4.5c1.2-0.8,1.3-1.9,0.2-2.8c-1.5-1.4-2.1-4.9-4.5-3.8c-2.9,1.4-3.6-0.2-4.8-1.8
				c-0.9-1.2-1.6-2.5-3.2-3c0.2-0.2,0.4-0.4,0.6-0.6c0.4-1.7,1.9-2.7,3.3-2.1c2.1,0.9,4.2,0.3,6.3,0.4c3.7,3.2,6.4,7.4,9.1,11.4
				c1.6,2.3-0.3,3.7-2.1,4.9C423.5,102.8,423.2,101.9,423,101.1z"/>
			<path class="st73" d="M394.5,160.3c0.3,0.4,0.7,0.8,1,1.2c5,6.4,5,6.4-1.5,11.4c-1.3,1-2.8,2-4.2,2.9c-0.4-0.2-1.1-0.2-0.7-1
				c1.5-2.1,3.8-3.2,5.7-4.8c2.9-2.5,3-3-0.3-6c0,2.2,0.5,4.3-1.6,5.6c-1.6,1-2.8,2.8-5,2.6c0-1.1,0.9-1.6,1.6-2.1
				c2.1-1.4,4-2.8,2.1-5.8c-0.8-1.2,1-2.2,1-4.1c-5,2.9-8.8,7.2-14.1,8.9c0-2,1.7-2.7,2.9-3.8c2.1-1.4,4.1-3,6-4.5
				c1.7-1.3,4.3-2.3,2.3-5.3c-0.5-0.7,0.3-1.5,0.8-2.1c0.8-0.8,1.1-1.6,0.6-2.7c-1-2.3,0.1-3.9,1.9-5.3c1.3-1,2.5-1.9,1.9-3.9
				c-0.4-1.7,1-2.7,2.1-3.6c1.1-0.8,2.1-1.8,3.5-1.9c1.2,0.2,0.8,1,0.5,1.7c-1.4,1.5-2.7,3-2.5,5.3c0.1,1.7-1,3-2.3,4
				c-1.4,1.1-1.9,2.4-1.6,4.2C395.5,154.2,393.8,157.2,394.5,160.3z"/>
			<path class="st74" d="M396.5,70.9c1.8,2.5,3.5,2.3,5-0.3c0.9-1.5,2.3-2.6,3.9-1.7c2.7,1.4,4.5,0.4,6.3-1.5
				c0.8-0.5,1.7-0.3,2.6-0.1c1.3,0.7,3.1,1.1,3.7-0.1c1.7-3.4,4.8-2.5,7.5-2.8c0.5-0.1,1-0.2,1.5-0.3c1.1,0.5-0.8,2.4,1.1,2.6
				c0.2,0.2,0.3,0.4,0.5,0.7c-0.8,2.2-2.4,3.1-4.6,2c-1.6-0.8-2.8-0.4-4.1,0.6c-1.7,1.3-3.4,2.3-5.7,1c-1.5-0.8-2.6,0.2-3.7,1
				c-1.7,1.2-3.4,2-5.4,0.6c-1-0.7-2-0.2-2.9,0.4c-1.2,0.8-2.3,1.9-3.9,2.2c-1.6,0.5-2.7-2.5-3.8-1.1c-1.3,1.7,1.2,2.8,1.8,4.3
				c0.3,0.7,0.8,1.4,0.7,2.2c-1.8,0.2-2.1-2.1-3.6-2.2c-1-1-0.8-2.9-2.5-3.3C391.1,71.4,394.3,71.8,396.5,70.9z"/>
			<path class="st20" d="M344.2,104.9c-1,0.6-2,2-3.1,0.3c-0.7-1.1-1.4-2.7-0.1-3.7c1.4-1.1,3.1-0.7,4.3,0.5
				C346.7,103.4,345.1,104.1,344.2,104.9z"/>
			<path class="st2" d="M332.8,120.6c7.7-5.9,15.3-11.7,23-17.6c-0.1,1.5-1.5,2-2.4,2.7c-5.2,4.1-10.5,8-15.7,12.1
				c-1.1,0.9-2.4,1.5-3,3.1C334.1,122.5,333.4,121.1,332.8,120.6z"/>
			<path class="st75" d="M403.5,81.2c0.8-0.5,1.5-1,2.3-1.5c1.5,0.3,1.5,2.3,3,2.6c2.5-2.1,4.5-1.9,6,1.2c0.6,1.1,1.4,2,2.2,3.1
				c-1.6,1.7-2.9,3.1-5.1,0.5c-1.3-1.6-2.5,0.6-3.8,1.1C406.3,85.9,403.9,84.2,403.5,81.2z"/>
			<path class="st76" d="M397.1,80.9c1.9-1.8,3.7-2.7,5.4,0.2C400.3,84.7,399.7,84.6,397.1,80.9z"/>
			<path class="st47" d="M472.3,136.1c-1.1,0.3-2.3,0.4-3.1-0.5c-0.4-0.4,0-1.2,0.6-1.3c0.9-0.2,1.9-1.3,2.8-0.1
				C473,134.8,472.9,135.5,472.3,136.1z"/>
			<path class="st47" d="M463.2,143.3c0.4-0.6,0.8-1.2,1.2-1.8c0.8-0.1,1.9-0.3,1.4,1.1C465.4,143.7,464.5,144.5,463.2,143.3z"/>
			<path class="st47" d="M467.7,137.2c-0.9,1.7-1.5,2.4-3,1.4C465.6,138.2,466.4,137.8,467.7,137.2z"/>
			<path class="st47" d="M468.6,132.2c-0.1-0.5-0.2-1-0.3-1.5c0.5-0.2,1.1-0.7,1.3,0.1C469.8,131.5,469,131.8,468.6,132.2z"/>
			<path class="st47" d="M472.4,125.8c0.8-0.6,1.6-1.2,2.5-0.2C474.1,126.3,473.3,126.3,472.4,125.8z"/>
			<path class="st77" d="M358.2,148c-0.3,0-0.7-0.1-1-0.1c-4.2-0.9-5-0.3-4.4,3.4c-0.1,0.1-0.2,0.2-0.3,0.2
				c-3.9-2.7-6.1,0.6-8.7,2.5c-1.4,1-2.8,2-4.1,3c-0.2-0.7,0.5-0.9,0.7-1.4c0.6-1,1.6-1.7,2.7-2.1c0.9-0.7,1.8-1.4,2.8-2.1
				c2.3-2.5,5.4-4.3,8-6.4c2.7-2.2,3.3,1.2,5,1.8c0.9-0.4,1.7-0.8,2.1-1.8c0.3-0.3,0.7-0.3,1,0C361.7,147.1,360.3,148,358.2,148z"/>
			<path class="st78" d="M367.8,134.5c0.3-0.3,0.6-0.5,1-0.8c0.2,0.1,0.3,0.1,0.5,0.2c0,1.9-2.1,3.6-0.7,5.7
				c-1.4,3.3-1.9,3.4-6.1,1.8c-1,0-1.9,0.7-2.9,0.6c-0.4-0.1-0.5-0.4-0.4-0.8C362.1,139,364.9,136.8,367.8,134.5z"/>
			<path class="st79" d="M368.8,133.7c-0.7-0.9-1.3-1.7-2-2.6c0,0,0.1-0.2,0.1-0.2c6.9-5.8,13.9-11.3,21.3-16.2
				c1.2,1.4-0.2,2.3-0.8,3.2c-2,2.9-5.1,4.6-8.1,6.3c-3.6,2.1-6.9,4.6-9.8,7.4c1.6-1.5,3.1-3.5,5.3-3.8c2.6-0.4,3.9,1.3,4.2,3.8
				c-0.2,0.3-0.6,0.5-0.9,0.6c-2.1-1.3-4.1-1.5-6.1,0.5c-0.7,0.7-1.6,1.3-2.7,1.2C369.1,133.8,368.9,133.7,368.8,133.7z"/>
			<path class="st80" d="M388.6,115.2c-1.5-0.3-2.3,0.9-3.2,1.6c-6.2,4.7-12.4,9.4-18.6,14.1c-0.2-0.2-0.3-0.3-0.4-0.5
				c7.7-5.9,15.3-11.7,23-17.6c0.3-0.1,0.6-0.1,0.9,0.1c1.6,2.2,3.3,1.9,5.3,0.4c1-0.7,1.5-2.1,2.9-2.3c0.6,0.2,0.9,0.6,0.8,1.2
				c-2.1,2-4.2,3.8-7,4.7C390.6,117.5,389.6,116.4,388.6,115.2z"/>
			<path class="st81" d="M399.4,112.2c-0.3-0.4-0.6-0.7-0.8-1.1c3.4,0.8,5.9,4,5.9,7.7c-0.6,0.5-1.3,0.9-1.2,1.8
				c0.7,0.5,1.3,1.3,1.9,1.9c2.9,2.7,3,3.8,0.4,6.9c-0.4,0.4-0.8,0.9-1.2,1.2c-1.9,1.5-2.5,3.1-1,5.2c0.6,0.8,1.1,2.1,0,2.8
				c-1.2,0.8-2.4,0.3-3-1.2c0.4-0.4,0.8-0.8,0.7-1.4c-1.2-0.6-1.5-1.8-1.9-2.9c-0.1-0.3,0-0.7,0-1c0.5-1.5,1.7-2.4,2.9-3.3
				c2-1.4,2.4-2.9,0.7-4.9c-1.4-1.7-1.9-3.4-0.9-5.7c1.1-2.5-1.6-3.8-2.4-5.7C399.5,112.5,399.5,112.3,399.4,112.2z"/>
			<path class="st82" d="M390.4,112.9c-0.3,0-0.6,0-0.9-0.1c-0.3-0.4-0.5-0.8-0.8-1.1c-1.1-1.3-1.4-2.5,0.3-3.7
				c1.2-0.9,2-0.4,2.8,0.6c1.3,1.5,0.9,2.6-0.6,3.6C390.9,112.4,390.6,112.7,390.4,112.9z"/>
			<path class="st83" d="M424.4,102.7c1,1.4,2,2.8,3.1,4.1c0.7,0.9,1.3,2,2.7,1c1.1-0.8,2-1.6,0.9-3c-0.1-0.2-0.4-0.5-0.3-0.6
				c1.4-2.4,1.3-4.7,0.8-7.4c-0.2-1,2.2-2.6,0.6-4.5c-0.1-0.2,0-0.8,0.2-0.9c3.7-2.5,0.7-4.4-0.7-6.3c-1.1-1.5-2-2.8-0.1-4.4
				c1.8-1.6-0.5-2.5-0.8-3.8c1-0.8,2-1.6,3-2.4c2.7,0.8,4.1,2.7,4.3,5.4c-0.1,0.3-0.1,0.7-0.2,1c-0.8,1.9-0.9,3.6,0.7,5.1
				c0.8,0.8,1.4,1.8,1,3c-0.2,1.5-2.3,1.8-2.2,3.5c1.3,0.4,2.1,1.3,2,2.8c3.1,2.3,1,4.3-0.4,6.3c3.3,2.1,3.1,3.8-0.7,5.9
				c-0.1,1.6,1.9,3.2-0.2,4.9c-0.6,0.5-0.1,1.5,0.4,2.2c0.9,1.2,1,2.3-0.3,3.3c-1,0.8-1.3,1.6-0.5,2.6c1.2,1.6,0.3,2.6-0.9,3.7
				c-1.3,1.2-3.4,1.7-3.8,3.7c1.8,2.9-1.2,5.7-0.1,8.9c0.5,1.4-2.8,3.4-4.9,3.9c-1.5,0.4-1.9-1.5-2.2-2.9c0.1-4.2,1.1-8.3,1.3-12.5
				c0.5-0.7,1.2-1.5,0.7-2.4c-1-1.9,0-3.4,0.8-5c0.1-1.4-1.1-2.9,0-4.3c0.5-0.6,1.1-1.4,0.4-2.2c-0.7-0.8-1.5,0-2.2,0.1
				c-0.3,0-0.7,0.1-1,0c2.2-2.5,1.3-4.6-0.7-6.7c-1-1.1-2.3-2.3-2.3-4C423.5,101.6,423.9,102.2,424.4,102.7z"/>
			<path class="st56" d="M428,66.8c-0.8,0.6-1.9,1.6-2.6,0.4c-0.8-1.4,1.8-1.6,1.5-3c1.1-0.8,2.3-2,3.3-0.2c1.2,2.1,2.8,1.5,4.5,1.2
				C433,68,430.3,66.6,428,66.8z"/>
			<path class="st39" d="M412.2,67.6c-2.3,1.7-4.3,4.5-7.8,1.9c-1-0.8-2,0.5-2.9,1.1c2.3-4.1,2.3-4.1,6.7-1.9
				c1.5,0.7,2.1-0.5,2.7-1.4c1.8-3.1,3.7-5.4,7.8-3.5c0.6,0.3,1.6-0.1,2.3-0.5c2-1.3,3.4-0.8,4.5,1.1c-1.4,1.6-3.2,1.4-5,0.9
				c0,2.1-1.6,2.8-3.1,3.6c-1.5,0.8-2.4,0.1-3.2-1C413.7,66.4,412.9,67.5,412.2,67.6z"/>
			<path class="st84" d="M375.5,203.6c3.3-2.5,6.6-5.1,9.8-7.6c2.2,1.7,2.8,3.3,0.1,5.2c-2.1,1.4-3.9,3.1-6,4.5
				C376.8,207.2,375.4,206.4,375.5,203.6z"/>
			<path class="st70" d="M419.4,158.6c-1.4,1.1-2.7,2.1-4.1,3.1c-1.5,1.1-2.4,2.1-1,3.9c0.9,1.1,0.3,1.9-0.7,2.6
				c-1.6,1.3-3.2,2.6-4.8,3.9c-0.6-1.3,0.2-2.7,1-3c4.6-1.5,2.1-5.2,2.8-7.9c2.4-0.6,4.2-1.5,2.9-4.6c-0.6-1.3-0.1-2.2,1.4-2.3
				l0.1,0c0.3,0.1,0.6,0.3,0.8,0.5C418.5,156.1,419.4,157.1,419.4,158.6z"/>
			<path class="st70" d="M405.3,171.1c0.6-1.8,1.9-2.8,3.8-2.9C407.9,169.1,406.6,170.1,405.3,171.1z"/>
			<path class="st70" d="M403.7,172.3c0.4-0.3,0.7-0.6,1.1-0.8c0.3,0.6,1.3,1.2,0.3,1.8C404.5,173.7,404.1,172.8,403.7,172.3z"/>
			<path class="st70" d="M401.9,174.6c-0.7-1.8,0.3-2.2,1.8-2.2C402.8,172.9,402.3,173.7,401.9,174.6z"/>
			<path class="st85" d="M425.8,145.7c-1.9-2.3,0.8-2.6,1.6-3.8c0.3,0.4,0.7,0.9,1,1.4c0.7,0.9,1.5,1.8,0.2,2.9
				C427.5,147.3,426.6,146.6,425.8,145.7z"/>
			<path class="st86" d="M362.3,139.9c1.4,0.7,2.1,2.2,3.5,3.1c1.3,0.8,1.4,2.3,0.9,3.7c-0.2,0.7-0.8,1.6,0.1,2.1
				c0.8,0.4,1.5-0.3,2.1-0.7c2.4-1.8,5.4-3.2,5-7c0-0.2,0.5-0.3,0.9-0.2c2.8,2.5,2.8,3.6,0.1,6c-1.2,1.1-2.5,2-3.8,3
				c-0.7,0.6-1.8,1.2-1.7,2c0.4,4.3-3,5.8-5.6,7.9c-1.7,1.3-3.1,2.6-2.1,5.1c0.5,1.4-0.5,2.6-1.5,3.6c-1.2,1.2-2.7,2.2-4,3.2
				c-1.2,0.9-1.6,1.9-1.5,3.5c0.2,2.6-0.7,5.2-1.3,7.7c-1.1-0.9-2.1-1.9-2.4-3.4l0,0c-0.1-0.4-0.2-1,0.2-1.3
				c2.3-1.3,1.4-2.9,0.5-4.6c-0.3-0.5-0.7-0.9-1-1.4c-3.7-4.9-3.7-4.9,0.9-9c0.6-0.5,1.7-1.4,1.3-1.8c-2.6-2.6,0.5-5.1-0.2-7.6
				c-0.4-1.4,0.4-2.1,1.4-2.8c1.4-1,2.7-2.1,4.1-3.2c1.2-1,3.3-1.2,3.3-3.4"/>
			<path class="st87" d="M351.8,173.8c3.1,2.3,0.4,4-0.7,5.8c-0.9-1.2,0.1-1.8,0.8-2.5c0.5-0.4,0.6-1,0.1-1.5
				c-0.5-0.5-1.1-0.3-1.5,0.1c-2.4,2.1-5.6,3.3-7.2,6.3c-0.8-1-0.7-2,0.3-2.7C346.3,177.4,348.5,174.8,351.8,173.8z"/>
			<path class="st88" d="M352.8,151.3c-1.5-0.7-2.6-1.6-1.2-3.3c1.7-2.1,3.6-2.1,5.6-0.1C355.7,149,354.3,150.2,352.8,151.3z"/>
			<path class="st89" d="M344.1,184.1c-1.5,0.5-2.5,3.4-4.5,0.9c-0.9-1.1-0.7-2.2,0.5-2.9C342.4,180.7,342.9,183,344.1,184.1
				C344.1,184.1,344.1,184.1,344.1,184.1z"/>
			<path class="st90" d="M353.4,182.9c0-2-2.1-4.3,0.7-5.9c0.1-0.1,0.2-0.5,0.1-0.6c-3.3-4.5,1.7-5,3.4-7.1c0.7-0.8,1.9-1.4,2.6-2.2
				c0.6-0.6,1.3-1.4,0.4-2.4c-2-2.1-0.7-3.4,1.1-4.7c1.4-1,2.8-2.1,4.1-3.1c1.4-1.1,3.6-2,1.8-4.5c-0.6-0.8,0.4-1.4,1-1.9
				c1.6-1.3,3.2-2.7,4.9-3.7c2.9-1.7,3.2-3.5,0.7-5.8c-0.6-3.2,2.2-3.8,4-5c1.7-1.1,3.3-0.4,4.5,1.1c1.6,2,3.8,3.8,1.8,6.9
				c-0.9,1.4,0.4,2.5,1.2,3.7c2.1,3.1,2,4.1-0.9,6.3c-1.8,1.3-2.2,2.5-1.8,4.8c0.5,2.3-1.1,4.7-0.9,7.2c-1.2,1.1-2.5,2.1-3.7,3.2
				c-0.8,0.5-1.5,1-2.3,1.5c-4-1.4-6.9,0-10.6,5c0.6,2.7,0,4.9-2.5,6.5c-1,0.6-1.5,1.6-1.5,2.9c0,3.2-1.6,5.7-4.8,6.5
				c-1.8,0.5-3.2,1.5-4.9,2.1c-1.9-1-2.7-2.1-0.7-3.9c2.2-2-0.5-2.8-1-4.2C350.8,183.9,352.1,183.3,353.4,182.9z"/>
			<path class="st91" d="M352.1,193.6c2.2-2.2,5.5-2.8,7.7-5c0.8-0.8,2.1-1.4,1.1-2.7c-1.3-1.7-0.8-3.1,0.9-4c3-1.6,4.1-3.8,2.2-6.9
				c2.7,1.5,5,3.2,4.4,6.8c-1.9,1.2-2.7,2.8-1.4,4.9c-0.4,0-0.6-0.2-0.8-0.5c0.2,0.5,0.6,0.8,1.1,0.9c0.6-0.2,1.4-0.2,1.9-0.6
				c2.7-2,3.6-0.5,4.1,2c-2.1,1.6-4.1,3.2-6.2,4.8c-1.6,1.2-3.2,3.4-5.2,0.3c-0.3-0.5-1.1-0.6-1.5-0.2c-1.9,1.8-3.1,1.2-4.7-0.6
				C354.6,191.5,353.6,194.2,352.1,193.6z"/>
			<path class="st87" d="M353.4,182.9c-1,0.9-2,1.7-3,2.6c0.4-2,2.1-3.8,0.7-5.9C351.9,180.7,352.7,181.8,353.4,182.9z"/>
			<path class="st61" d="M416.9,154.4c-0.6,0.6-1.6,1.1-0.7,2.2c0.6,0.8,2.6,1.2,1.1,2.5c-1.3,1.1-2.3,3.4-4.7,2.1
				c1.5-0.9,2.2-2.7,1.6-3.8c-1.6-2.6,1.9-4.3,0.6-6.8c-0.4-0.6,0.8-0.2,1.3-0.3c1.3-0.1,1.3,1.2,1.6,1.8
				C417.8,152.7,417.1,153.6,416.9,154.4z"/>
			<path class="st62" d="M420.7,152.4c-1.1,0.8-2.3,1.7-3.4,2.5c-0.1-0.2-0.2-0.3-0.3-0.5c3.4-1,1-3.5,1.3-5.3
				C419,150.2,419.9,151.3,420.7,152.4z"/>
			<path class="st92" d="M368.4,181.8c-0.6-2.8-3-4.5-4.4-6.8c2.1-1.6,4.3-3.1,6.2-4.9c2.5-2.3,4.4-2.5,6.1,0.6
				c2.3,2.4,1.8,4.2-0.9,5.9C373,178.1,370.8,180,368.4,181.8z"/>
			<path class="st93" d="M388,172.2c1.3-1,2.5-2,3.8-2.9c1.7-1.1,2.9-2.2,1.1-4.3c-1-1.1,0-2.1,1-2.4c2.3-0.6,2.6,1.8,3.6,2.9
				c0.8,0.8,2.2,2,0.6,3.1c-2.9,2.1-5.3,5.1-9,6.1C388.7,173.9,388.4,173.1,388,172.2z"/>
			<path class="st94" d="M382.4,178.6c0.9,1.1,0.5,1.8-0.5,2.6c-1.1,0.8-2,1.1-2.9-0.2c-0.8-1.2-0.1-1.9,0.7-2.5
				C380.7,177.7,381.6,177.5,382.4,178.6z"/>
			<path class="st95" d="M367.3,187.1c-1.1,0.2-1.5-0.8-2.5-1.3c1.4-0.5,1.6,0.5,2.2,0.8C367.1,186.8,367.3,186.9,367.3,187.1z"/>
			<path class="st0" d="M400.5,137.4c0.8,0.3,1.6,0.7,2.4,1c0.2-0.3,0.5-0.6,0.4-0.6c-3-3.9-2.1-6.7,1.8-9.4
				c1.1-0.8,3.2-3.2-0.3-4.7c-0.9-0.4-1.9-1.6-1.7-3.1c2.5-1.4,3.2,0.9,4.3,2.2c2.1,2.5,2,2.6,5,2.1c-0.7,1.6-1.8,2.7-0.9,4.7
				c0.8,1.7-0.6,3.5-2.8,3.1c-3.3-0.5-3.3,1.1-2.3,3.3c1.9,4.5,0,7.7-3.6,10.1c-2.3,1.5-2.9,3.1-1,5.3c1.2,1.4,0.9,2.3-0.8,3.1
				c-2.6,1.3-3.9,4.2-6.4,5.7c-2-0.9-1-2.7-1-4.1c0-0.8,0.7-1.6,0.6-2.3c-0.6-3.8-0.5-7.1,3.4-9.3c0.4-0.2,0.6-1.5,0.5-2.2
				C397.4,140,398.6,138.6,400.5,137.4z"/>
			<path class="st0" d="M406.9,103.5c1.2,0.3,1.4,1.1,1.9,1.9C407.5,105.1,407.4,104.3,406.9,103.5z"/>
			<path class="st0" d="M414.5,108c-0.2-0.1-0.6-0.2-0.9-0.5c-0.3-0.3,0.1-0.6,0.4-0.6c0.4,0,0.8,0.1,1.2,0.2
				C415.1,107.3,415,107.4,414.5,108z"/>
			<path class="st96" d="M382.4,165.9c-0.8-2-2.5-4,0.3-5.8c0.2-0.1,0.2-1,0-1.3c-2.5-2.9-0.4-4.3,1.8-5.6c2.8-1.6,2.5-3.3,0.5-5.4
				c-1.5-1.6-2.8-3-0.5-5.4c1.7-1.8-1.3-3.1-2.1-4.7c-0.6-1.1-1.6-2.3-3-1.3c-1.8,1.3-4,2.2-5,4.5c1.7,3,0,4.7-2.3,6.2
				c-1.4,0.9-2.6,1.9-3.9,2.9c-0.7,0.5-1.4,1-2.2,0.3c-0.7-0.6-1.7-1.7-1.1-2.3c3.1-3.4-0.3-4.9-1.9-7c-0.3-0.4-0.6-0.7-0.8-1.1
				c2,0.8,4.1,3.9,5.8-0.3c2.9-3.1,6.4-5.5,9.9-7.6c0.2-0.1,0.4-0.2,0.5-0.4c1.3-1.4,2.6-2.4,4.6-1.1c1.4,0.9,2.6-0.5,3.9-0.4
				c0.3,0.2,0.5,0.4,0.6,0.7c0,0.1,0,0.2-0.1,0.3c-0.2,1-1.9,1.8-1.1,2.9c1,1.4,2.2-0.3,3.3-0.1c0.3,0.1,0.6,0.2,0.9,0.4
				c1.3,2.1,0.4,3.2-1.8,3.5c-1.2,0.2-2.5,0.2-3.7-0.4c0.5,0.9,1.4,0.6,2.1,0.7c2.4,0.6,3,1.9,1.3,3.6c-2.6,2.5-2.3,4.6-0.2,7.1
				c1.2,1.4,1.3,3.5,0,4.8c-2.3,2.2-3.7,4.7-3.4,7.6c4.8-1.3,3.1-6.4,4.9-9.7c0.7-1.2-0.8-2.2-1.6-3.2c-1.3-1.6-1-2.8,1.1-3.2
				c2.5-0.5,4.5-0.9,3.5-4.5c-0.6-2.2,3-4.2,5-3.2c0.1,0.3,0.2,0.6,0.1,1c-1.4,1-2.9,1.8-1.4,4c1,1.5-0.9,2.1-1.8,2.8
				c-1.9,1.6-4.4,2.8-1.9,6c1.6,2-3.7,2.2-1.6,4.7c2.1,2.5-0.2,3.4-1.7,4.5C387.2,162.4,384.8,164.2,382.4,165.9z"/>
			<path class="st80" d="M397.8,138.6c-0.1-0.2-0.2-0.4-0.4-0.5c0-0.3,0.1-0.6,0.2-0.9c1.4-1.1,0.7-3.1,1.9-4.2
				c0.8,0.9,1.4,1.9,1.5,3.2C400,136.9,398.9,137.7,397.8,138.6z"/>
			<path class="st55" d="M412.2,67.6c0.4-1.8,2.2-1.1,3.2-2.2c0.7,1.7-0.8,1.8-1.2,2.5C413.5,67.8,412.8,67.7,412.2,67.6z"/>
			<path class="st18" d="M408.7,82.3c-1.7-0.1-1.9-1.9-3-2.6C407.6,79.5,407.7,81.4,408.7,82.3z"/>
			<path class="st97" d="M378.1,131.9c-2.6,3.5-6,5.9-9.9,7.6c-3.2-2.6,0-4,1.1-5.8c1.1-0.9,2.2-1.6,3.1-2.6
				C374.6,128.9,376.5,129,378.1,131.9z"/>
			<path class="st98" d="M399.6,132.9c0.3,1.8,0.7,3.7-1.6,4.7c-1.4-0.8-2.6-1.8-4.5-0.9c-1.7,0.8-2.6-0.5-3-2.1
				c-0.2-0.2-0.3-0.4-0.5-0.6c-0.7-0.1-1.1-0.5-1.3-1.2c0.7-1.6,0.3-2.5-1.5-2.6c-1.7,1.2-3.1,3.1-5.3,0.5c-1-1.1-2,1.2-3.3,0.9
				c-3.6-7-6.4,0.4-9.8,0.7c1.1-4.3,4.9-5.9,7.9-7.7c4.4-2.7,8.6-5.5,12-9.4c1.6-0.9,1.5,1.6,2.8,1.4c1.2-0.1,2.4-0.2,3.5-1
				c4.6-3.6,4.6-3.5,7.7,1.1c0.2,0.6,0.2,1.2-0.2,1.6c-1.8,2-1,3.6,0.5,5.3c2.4,3,2.1,4-1.1,6.2
				C400.6,130.6,399.4,131.2,399.6,132.9L399.6,132.9z"/>
			<path class="st79" d="M402.2,117c-0.5-0.6-1-1.2-1.5-1.9c-1.5-2.2-3.2-2.2-4.6-0.1c-1.3,1.8-2.7,2.3-4.7,1.6
				c3.1-0.7,4.8-3.8,8-4.4l0,0C400.6,113.6,402.9,114.4,402.2,117z"/>
			<path class="st80" d="M402.2,117c0.1-2.2-1.9-3.2-2.8-4.8c3.6,2.3,4.2,3.7,2.9,7.5c-0.5,1.5,0.4,2.3,1.1,3.3
				c2.6,3.6,2.5,4.1-1.1,6.8c-1.1,0.8-2.2,1.6-2.7,3c-0.8-1.6,0-2.4,1.4-3.2c3.4-1.9,3.8-3.1,1.2-5.6
				C399.6,121.4,401,119.4,402.2,117z"/>
			<path class="st99" d="M372.5,163.1c-1.1,0.9-1.9,0.2-2.7-0.8c-0.9-1.2-0.5-2,0.6-2.8c1.1-0.9,2-0.8,2.8,0.4
				C374.2,161.2,373.8,162.1,372.5,163.1z"/>
			<path class="st100" d="M390.5,134.6c0.8,0.7,1.3,2.4,2.6,1.4c2.5-1.9,3.6-0.1,4.9,1.5c-0.2,0.1-0.4,0.3-0.6,0.4
				c-2.8-2.3-2.4,1.5-3.6,2.2c-1.8,1.1,0.4,2.1,1.4,3.2c-2.1,0.9-3.3,3.2-6,2.7c-0.3-0.1-1,0.2-1.1,0.5c-0.2,0.6,0.2,1.2,0.7,1.4
				c2.9,1.7,3.1,3.7,0.9,6.1c-0.4,0.4-0.4,1-0.6,1.6c-0.3,1.1,2.5,1.7,0.5,3.1c-2.3,1.6-4.1,3.9-7.2,4.4c1.7-1.7,2.6-3.4,1.4-5.8
				c-0.6-1.2,1-1.5,1.8-2c3.2-2,3.8-4.4,1.2-7.1c-2.9-3-1.2-4.8,0.7-6.9c0.5-0.5,1.7-0.6,1.2-1.7c-0.3-0.8-1.1-0.7-1.8-0.6
				c-2.6,0.3-3.1-1.7-4.5-4.2c2.4,1.3,3.9,2.7,6.1,2.3C390.4,136.9,390.9,136.2,390.5,134.6z"/>
			<path class="st101" d="M389.3,132.4c0.3,0.6,0.5,1.2,0.8,1.7c-1.5,0.9-3,3.6-4.8,0.4c-1.3-2.4,1.5-2.5,2.3-3.7
				C388.5,130.9,389,131.4,389.3,132.4z"/>
			<path class="st102" d="M389.3,132.4c-0.6-0.5-1.1-1.1-1.7-1.6c-0.1-0.2-0.2-0.4-0.4-0.5c1.2-1,2.3-0.9,2.8,0.7
				C390.1,131.2,391.6,132.9,389.3,132.4z"/>
		</g>
	</g>
</g>
</svg>
