<svg id="Capa_1" data-name="Capa 1" xmlns="http://www.w3.org/2000/svg" viewBox="0 0 2032 2032"><defs><style>.cls-1{fill:#020202;}.cls-2{fill:#010101;}.cls-3{fill:#264de4;}.cls-4{fill:#2965f1;}.cls-5{fill:#eaeaeb;}.cls-6{fill:#e8e9eb;}.cls-7{fill:#eaebeb;}.cls-8{fill:#2b66f1;}.cls-9{fill:#2a65f1;}.cls-10{fill:#fff;}</style></defs><path class="cls-1" d="M1080.79,361.18c-1.22,2.37-.62,4.92-.64,7.38-.06,13-.17,26,.06,39,.07,4-1.22,5.12-5.14,5.07-15-.2-30-.08-45-.08-8.75,0-17.51-.06-26.27,0-1.83,0-4.52-1-5.17,1.57-.59,2.34-.28,5,0,7.42.09,1,1.43,1.24,2.45,1.25,1.75,0,3.51,0,5.26,0q34.15,0,68.31,0c5.38,0,5.51.1,5.52,5.25q.06,53.67,0,107.34c0,5-.15,5.1-6.44,5.11q-55.87,0-111.76,0c-6,0-12-.12-18,0-3.12.09-4.44-.8-4.4-4.19q.21-22.51,0-45c0-3.11.71-4.75,4.14-4.39a51,51,0,0,0,5.25,0q33.4,0,66.81-.05c1.82,0,4.34,1.08,5.26-1.47a13.57,13.57,0,0,0,.08-7.4c-.24-1.11-1.35-1.29-2.37-1.31l-5.25,0H947.36c-8.42,0-7.8.77-7.8-7.52V361.18Z"/><path class="cls-1" d="M1249.05,361.18q0,22.53,0,45.05c0,6.58.7,6.35-6.6,6.35q-34.92,0-69.84,0c-5.35,0-5.44.22-5.39,5.45,0,4.68,0,4.79,5.18,4.8q34.17.07,68.34,0c1.75,0,3.5.06,5.25,0,2.26-.07,3.13,1.08,3,3.21,0,1,0,2,0,3q0,52.57,0,105.13c0,6.35-.06,6.4-6.57,6.4q-63.78,0-127.56,0c-6.44,0-6.49-.06-6.5-6.57q-.06-20.65,0-41.3c0-5.6.1-5.69,5.84-5.7q33.4,0,66.83,0c1.5,0,3,.05,4.5,0,4.71-.2,4.77-.28,4.76-5.34,0-4.75,0-4.88-5.09-4.89q-34.15-.07-68.33,0c-1.75,0-3.51-.07-5.26,0-2.17.08-3.26-.88-3.25-3.07,0-2,0-4,0-6q0-50.31,0-100.62c0-2,.4-4-.59-5.9Z"/><path class="cls-2" d="M911,361.18c.08,18.25,0,36.51.35,54.75.07,4.11-1.78,4.34-5,4.32-13.26-.12-26.52-.05-39.77-.05-10.76,0-21.52.12-32.27-.07-3.54-.06-4.84,1-4.81,4.67.15,16.51.19,33,0,49.52,0,4,1.28,5.05,5.1,5,22.77-.14,45.53-.1,68.29-.05,9.57,0,8.28-1.2,8.32,8.35q.11,22.5,0,45c0,5.37-.11,5.48-5.22,5.48q-64.92,0-129.82,0c-5.46,0-5.51-.1-5.51-6.75q0-60,0-120.06,0-23.62,0-47.27a14.78,14.78,0,0,1,.57-2.89Z"/><path class="cls-3" d="M1016.82,619.08h452.95c1.26,0,2.51,0,3.76,0,6.86.09,6.7.08,6,7.19-1.8,19.43-3.42,38.88-5.16,58.32q-3.48,38.88-7,77.74-3.27,36.63-6.49,73.27-4.19,46.73-8.43,93.43-2.55,28.41-5,56.83-4.18,47.46-8.39,94.94-3.3,37-6.69,74-3.54,39.24-7.06,78.49c-2.18,24.67-4.27,49.35-6.46,74-2.31,25.92-4.72,51.82-7,77.74-2.23,24.92-4.37,49.85-6.6,74.77q-4.18,46.71-8.45,93.43c-.09,1-.2,2-.27,3-.79,11.82.7,9.4-9.86,12.34q-149.61,41.6-299.27,83c-22.17,6.15-44.37,12.21-66.51,18.48a17.73,17.73,0,0,1-10.18,0q-182.13-50.68-364.32-101.19c-10.33-2.87-9.39-.11-10.47-12.74-3.13-36.64-6.66-73.25-9.94-109.88-2.74-30.65-5.32-61.31-8-92s-5.59-61.29-8.32-91.93c-2.27-25.42-4.4-50.86-6.68-76.27-2.78-31.15-5.69-62.29-8.46-93.43-2.73-30.65-5.32-61.31-8.05-92-2.76-30.9-5.66-61.79-8.43-92.69-2.2-24.42-4.28-48.84-6.45-73.27q-3.4-38.49-6.88-77c-2.29-25.92-4.38-51.85-6.88-77.74-1.83-18.92-2.81-37.92-5.52-56.75-.4-2.81.23-4.33,3.37-4.18,2.25.11,4.5,0,6.76,0Zm-.56,545.11c0,2.25-.07,4.5-.07,6.75q0,84.35-.06,168.71c0,3.06,1.3,6.62-2.08,9-5-.3-9.74-2.17-14.55-3.46-35.47-9.5-70.92-19.14-106.4-28.64-4.11-1.1-7.18-2.24-7.48-7.52-.78-13.46-2.09-26.9-3.26-40.35s-2.34-26.89-3.71-40.31c-.65-6.3-.86-6.34-7.24-6.35q-51.42,0-102.83,0c-6.7,0-6.91.09-6.31,7.22,2.08,24.91,4.3,49.8,6.52,74.7,2.81,31.61,5.75,63.21,8.39,94.84.35,4.15,1.58,6,5.75,7.13,20.28,5.38,40.45,11.18,60.67,16.78q86.31,23.92,172.64,47.81l-.06,99.89c0,5-.11,10,.05,15,.15,4.47,1.23,5.23,5.61,4,14.86-4.09,29.7-8.27,44.55-12.39l73.34-20.32q30.6-8.48,61.19-17c25.67-7.17,51.29-14.47,77-21.58,13.64-3.77,27.36-7.25,41-10.86,3.32-.87,5.14-3,5.19-6.43.14-11.72,2.2-23.29,2.8-34.93.74-14.42,3.17-28.67,3.6-43.15.19-6.35.29-13,1.6-19.29,1.47-7.11,1.76-14.36,2.26-21.47.56-8.19,1.68-16.35,2.2-24.55.37-5.9.1-12,1.42-17.81,2.08-9.09,1.17-18.34,2.36-27.49,1-7.57,1.26-15.44,2.22-23,1.84-14.32,2.54-28.72,3.82-43,1.24-13.86,2.88-27.71,3.6-41.64.28-5.39.41-11,1.48-16.31,1.92-9.59,1.39-19.33,2.49-29,.84-7.38,1.6-14.84,2.12-22.29.73-10.39,2.55-20.72,2.63-31.19a19.66,19.66,0,0,1,.28-5.22c2.24-7.76,1.39-15.83,2.42-23.72,1-7.58,1.63-15.35,2.22-23,.45-5.92,0-12.07,1.45-17.82,1.88-7.59,1.61-15.38,2.22-23,.71-8.9,1.78-17.84,2.18-26.81.29-6.4.84-12.9,1.56-19.32,1.08-9.63,2.72-19.19,2.7-28.93a23.25,23.25,0,0,1,.33-6c2-7.78,1.61-15.83,2.35-23.71.72-7.65,1.66-15.35,2.23-23,.42-5.67.14-11.54,1.37-17.07,2-9.08,1.23-18.33,2.45-27.48,1-7.57,1.57-15.35,2.2-23,.48-5.92.29-12,1.41-17.83a166.13,166.13,0,0,0,2.43-25.2c.33-8.73,1.74-17.34,2.15-26.06a130.26,130.26,0,0,1,1.42-16.32c1.54-8.85,2-17.79,2.54-26.69.59-9.94.75-9.35-9.22-9.35H1025.67c-10,0-9.48-.76-9.49,9.24q0,53.32-.06,106.64c-3,.12-6,.34-9,.34H735.45c-1.75,0-3.5,0-5.25,0-5.22.17-5.29.32-4.78,5.72q1.92,20.15,3.77,40.3c1.9,20.65,3.72,41.31,5.69,62,.81,8.45,1,8.44,9.67,8.44h261.93c3.25,0,6.49.22,9.73.33l0,118.17c-3.24.12-6.48.34-9.73.34q-125.71,0-251.44,0c-2.92,0-6-.73-8.83.89,0,1.08-.07,2.07,0,3q3.72,42.19,7.48,84.4c.7,7.71,1.73,15.4,2.21,23.13.23,3.67,1.79,4.79,5.15,4.5,1.74-.16,3.5,0,5.25,0q120.1,0,240.19,0C1009.79,1163.72,1013.06,1163.33,1016.26,1164.19Z"/><path class="cls-4" d="M1016.12,812.08q0-53.33.06-106.64c0-10-.46-9.24,9.49-9.24h359.76c10,0,9.81-.59,9.22,9.35-.53,8.9-1,17.84-2.54,26.69a130.26,130.26,0,0,0-1.42,16.32c-.41,8.72-1.82,17.33-2.15,26.06a166.13,166.13,0,0,1-2.43,25.2c-1.12,5.85-.93,11.91-1.41,17.83-.63,7.67-1.18,15.45-2.2,23-1.22,9.15-.42,18.4-2.45,27.48-1.23,5.53-1,11.4-1.37,17.07-.57,7.69-1.51,15.39-2.23,23-.74,7.88-.32,15.93-2.35,23.71a23.25,23.25,0,0,0-.33,6c0,9.74-1.62,19.3-2.7,28.93-.72,6.42-1.27,12.92-1.56,19.32-.4,9-1.47,17.91-2.18,26.81-.61,7.59-.34,15.38-2.22,23-1.42,5.75-1,11.9-1.45,17.82-.59,7.67-1.24,15.44-2.22,23-1,7.89-.18,16-2.42,23.72a19.66,19.66,0,0,0-.28,5.22c-.08,10.47-1.9,20.8-2.63,31.19-.52,7.45-1.28,14.91-2.12,22.29-1.1,9.63-.57,19.37-2.49,29-1.07,5.31-1.2,10.92-1.48,16.31-.72,13.93-2.36,27.78-3.6,41.64-1.28,14.33-2,28.73-3.82,43-1,7.56-1.24,15.43-2.22,23-1.19,9.15-.28,18.4-2.36,27.49-1.32,5.76-1,11.91-1.42,17.81-.52,8.2-1.64,16.36-2.2,24.55-.5,7.11-.79,14.36-2.26,21.47-1.31,6.31-1.41,12.94-1.6,19.29-.43,14.48-2.86,28.73-3.6,43.15-.6,11.64-2.66,23.21-2.8,34.93-.05,3.44-1.87,5.56-5.19,6.43-13.69,3.61-27.41,7.09-41,10.86-25.69,7.11-51.31,14.41-77,21.58q-30.57,8.55-61.19,17L1066.39,1577c-14.85,4.12-29.69,8.3-44.55,12.39-4.38,1.2-5.46.44-5.61-4-.16-5-.05-10-.05-15l.06-99.89-.1-.73a29.34,29.34,0,0,0,4.42-.55q113.12-31.32,226.2-62.71c7.38-2,7.38-2.1,8.08-10.08,1.36-15.69,2.67-31.39,4.07-47.07,1.66-18.68,3.44-37.36,5.08-56,2.24-25.41,4.34-50.83,6.61-76.24,2.74-30.63,5.63-61.25,8.41-91.88q3.59-39.6,7.08-79.2,3.29-37,6.52-74c2.17-24.66,4.3-49.33,6.53-74,2.26-25.16,4.7-50.3,6.9-75.46.85-9.7.64-9.73-8.93-9.73H1023.74c-2.5,0-5,.21-7.49.31C1016.22,812.79,1016.17,812.44,1016.12,812.08Z"/><path class="cls-5" d="M1016.24,1470.49q-86.32-23.9-172.64-47.81c-20.22-5.6-40.39-11.4-60.67-16.78-4.17-1.11-5.4-3-5.75-7.13-2.64-31.63-5.58-63.23-8.39-94.84-2.22-24.9-4.44-49.79-6.52-74.7-.6-7.13-.39-7.22,6.31-7.22q51.42,0,102.83,0c6.38,0,6.59,0,7.24,6.35,1.37,13.42,2.53,26.87,3.71,40.31s2.48,26.89,3.26,40.35c.3,5.28,3.37,6.42,7.48,7.52,35.48,9.5,70.93,19.14,106.4,28.64,4.81,1.29,9.5,3.16,14.55,3.45l2.17,1.22q0,60-.08,119.92Z"/><path class="cls-6" d="M1016.12,812.08c0,.36.1.71.13,1.06q-.07,57.68-.17,115.33l.13.73c-3.24-.11-6.48-.32-9.73-.33H744.55c-8.71,0-8.86,0-9.67-8.44-2-20.65-3.79-41.31-5.69-62q-1.85-20.16-3.77-40.3c-.51-5.4-.44-5.55,4.78-5.72,1.75-.06,3.5,0,5.25,0h271.69C1010.13,812.42,1013.12,812.2,1016.12,812.08Z"/><path class="cls-7" d="M1016.26,1164.19c-3.2-.86-6.47-.47-9.71-.47q-120.09,0-240.19,0c-1.75,0-3.51-.13-5.25,0-3.36.29-4.92-.83-5.15-4.5-.48-7.73-1.51-15.42-2.21-23.13q-3.78-42.19-7.48-84.4c-.08-1,0-2,0-3,2.85-1.62,5.91-.89,8.83-.89q125.71-.06,251.44,0c3.25,0,6.49-.22,9.73-.34a1.53,1.53,0,0,1-.16.73q0,57.64.07,115.29A1.82,1.82,0,0,1,1016.26,1164.19Z"/><path class="cls-8" d="M1016.22,1349.84l-2.17-1.22c3.38-2.35,2.08-5.91,2.08-9q.12-84.36.06-168.71c0-2.25,0-4.5.07-6.75a1.82,1.82,0,0,0-.09-.8c2.74.11,5.48.33,8.22.33q62.63,0,125.23,0c10.08,0,9.56-1.65,8.52,9.9-2.27,25.12-4.48,50.24-6.77,75.36q-2.71,29.85-5.58,59.68c-.59,6.07-.77,6.08-6.78,7.7-20.49,5.55-41,11-61.47,16.61S1036.66,1344.23,1016.22,1349.84Z"/><path class="cls-9" d="M1016.26,1047.37q0-59.08,0-118.17l-.13-.73c2.5.12,5,.36,7.48.36q48.81,0,97.63,0c17.52,0,35,0,52.56,0,5.08,0,5.09.14,5.3,5.49,0,.75,0,1.5,0,2.25l-.15,1.45c-1.66,17.89-3.35,35.77-5,53.66-1.56,17.15-3.13,34.29-4.48,51.45-.28,3.54-1.59,4.95-5.06,4.63-1.74-.17-3.5,0-5.25,0q-67.44,0-134.87,0c-2.74,0-5.48.2-8.22.31A1.53,1.53,0,0,0,1016.26,1047.37Z"/><path class="cls-10" d="M1016.1,1048.1c2.74-.11,5.48-.31,8.22-.31q67.42,0,134.87,0c1.75,0,3.51-.14,5.25,0,3.47.32,4.78-1.09,5.06-4.63,1.35-17.16,2.92-34.3,4.48-51.45,1.62-17.89,3.31-35.77,5-53.66.16-.13.45-.28.44-.39a5.06,5.06,0,0,0-.29-1.06c0-.75,0-1.5,0-2.25-.21-5.35-.22-5.47-5.3-5.49-17.52,0-35,0-52.56,0q-48.81,0-97.63,0c-2.49,0-5-.24-7.48-.36q.09-57.66.17-115.33c2.5-.1,5-.31,7.49-.31h273.37c9.57,0,9.78,0,8.93,9.73-2.2,25.16-4.64,50.3-6.9,75.46-2.23,24.65-4.36,49.32-6.53,74s-4.33,49.33-6.52,74q-3.52,39.6-7.08,79.2c-2.78,30.63-5.67,61.25-8.41,91.88-2.27,25.41-4.37,50.83-6.61,76.24-1.64,18.68-3.42,37.36-5.08,56-1.4,15.68-2.71,31.38-4.07,47.07-.7,8-.7,8-8.08,10.08q-113.09,31.38-226.2,62.71a29.34,29.34,0,0,1-4.42.55q0-60,.08-119.92,30.66-8.41,61.32-16.82c20.48-5.57,41-11.06,61.47-16.61,6-1.62,6.19-1.63,6.78-7.7q2.91-29.82,5.58-59.68c2.29-25.12,4.5-50.24,6.77-75.36,1-11.55,1.56-9.89-8.52-9.9q-62.61-.07-125.23,0c-2.74,0-5.48-.22-8.22-.33Q1016.14,1105.74,1016.1,1048.1Z"/><path class="cls-6" d="M1179.1,936.61a5.06,5.06,0,0,1,.29,1.06c0,.11-.28.26-.44.39Z"/></svg>