<svg width="1200" height="350" viewBox="0 0 1200 350" fill="none" xmlns="http://www.w3.org/2000/svg">
<path d="M261.373 226.309C264.148 226.597 266.498 228.059 269.011 229.009C273.273 230.597 277.473 232.334 281.711 234.009C289.694 237.134 297.681 240.255 305.673 243.371C309.422 244.809 313.172 246.059 316.835 247.621C320.297 249.084 323.822 250.384 327.297 251.821C329.722 252.821 332.185 253.696 334.597 254.709C336.197 255.396 336.86 255.034 337.222 253.346C338.209 248.709 339.309 244.096 340.284 239.459C342.072 231.034 343.809 222.597 345.597 214.022C346.909 215.559 346.922 217.422 347.509 219.022C348.834 222.772 350.009 226.522 351.184 230.347C353.022 236.234 354.784 242.159 356.622 248.046C357.934 252.259 359.309 256.446 360.647 260.634C361.322 262.759 361.897 264.934 362.647 267.021C363.397 269.108 363.896 271.458 364.746 273.633C365.596 275.808 365.834 277.858 366.609 279.883C369.021 286.221 370.509 292.846 372.734 299.245C373.784 302.233 374.621 305.295 375.546 308.333C375.671 308.745 375.921 309.27 375.546 309.583C375.171 309.895 374.759 309.42 374.409 309.158C369.409 305.408 364.409 301.733 359.322 298.083C355.134 295.058 351.009 291.933 346.822 288.946C341.822 285.396 336.972 281.683 331.972 278.158C328.66 275.833 325.36 273.471 322.135 270.996C317.01 267.058 311.81 263.221 306.485 259.546C303.61 257.546 300.948 255.259 298.035 253.296C295.123 251.334 292.123 249.134 289.21 247.046C286.298 244.959 283.81 242.784 280.936 240.909C277.186 238.409 273.761 235.422 269.923 232.997C267.061 231.184 264.511 228.859 261.623 227.034C261.323 226.884 261.323 226.584 261.373 226.309Z" fill="#56AEFF"/>
<path d="M225.636 201.747L145 141.749H287.497L287.56 142.223C286.127 142.783 284.657 143.243 283.16 143.598C279.86 144.136 276.735 145.273 273.51 146.098C266.073 147.973 258.623 149.848 251.198 151.836C243.161 153.986 235.086 155.986 227.061 158.161C221.761 159.598 216.436 160.961 211.111 162.286C208.924 162.836 208.836 163.136 209.774 165.111C210.936 167.611 211.949 170.11 213.161 172.498C214.836 175.86 216.324 179.323 217.824 182.748C219.411 186.36 220.999 189.985 222.636 193.573C223.661 195.81 224.411 198.185 225.624 200.347C225.765 200.553 225.842 200.796 225.844 201.045C225.846 201.295 225.774 201.539 225.636 201.747Z" fill="#56AEFF"/>
<path d="M243.885 218.647C243.047 218.334 242.91 218.922 242.872 219.647C242.76 222.222 242.66 224.797 242.522 227.372C242.056 236.296 241.581 245.217 241.098 254.134C241.023 255.309 241.36 255.759 242.597 255.609C246.785 255.121 250.997 254.709 255.197 254.246L269.634 252.571L282.909 251.071L283.109 251.459L202.011 310.008L201.698 309.783C216.065 264.783 230.431 219.755 244.797 174.698C245.322 177.81 244.797 180.847 244.735 183.885C244.597 189.01 244.297 194.122 243.96 199.235C243.572 204.935 243.56 210.672 242.96 216.359C242.91 216.954 242.91 217.552 242.96 218.147C243.01 218.822 243.385 219.084 243.885 218.647Z" fill="#145DA0"/>
<path d="M328.948 141.736H429.296L429.434 142.173L315.061 226.247L314.811 225.984C316.548 223.784 318.261 221.572 320.023 219.384C322.885 215.834 325.773 212.309 328.648 208.772C331.66 205.022 334.685 201.272 337.673 197.522C340.66 193.772 343.71 190.022 346.698 186.272C350.26 181.822 353.872 177.41 357.447 172.973C359.947 169.91 362.385 166.86 364.947 163.873C365.772 162.91 365.61 162.335 364.635 161.785C358.385 158.248 352.135 154.735 345.885 151.198C343.035 149.598 340.148 148.06 337.36 146.348C334.573 144.636 331.86 143.361 328.948 141.736Z" fill="#145DA0"/>
<path d="M288.095 40C302.836 84.7492 317.582 129.503 332.332 174.26L331.969 174.423L324.757 163.373C318.857 154.281 312.957 145.194 307.057 136.111C301.057 126.844 295.062 117.582 289.07 108.324C287.945 106.574 287.945 106.561 286.433 107.936L258.708 133.323C258.058 133.954 257.311 134.477 256.496 134.873C266.912 103.274 277.329 71.6702 287.745 40.0625" fill="#145DA0"/>
<path d="M487.767 231.75C475.017 231.75 463.392 226.75 455.017 218.25L463.517 208.125C470.017 214.75 479.142 219 488.017 219C499.017 219 505.267 213.875 505.267 206C505.267 197.625 499.017 195 490.517 191.375L477.767 185.75C468.892 182.125 459.142 175.125 459.142 161.75C459.142 147.25 471.767 136.375 489.267 136.375C500.142 136.375 510.267 140.875 517.142 148L509.642 157.125C503.892 152.125 497.392 149 489.267 149C479.892 149 473.892 153.5 473.892 160.75C473.892 168.625 481.267 171.625 488.767 174.75L501.392 180C512.267 184.625 520.142 191.375 520.142 204.875C520.142 219.625 507.892 231.75 487.767 231.75ZM539.441 258.75C535.941 258.75 533.191 258.25 530.816 257.375L533.566 246.125C534.816 246.625 536.816 247.125 538.566 247.125C545.941 247.125 550.441 241.625 552.941 234.25L554.316 229.5L527.066 161.25H541.816L554.441 196.625C556.566 202.75 558.566 209.625 560.816 216.125H561.441C563.066 209.75 564.941 203 566.691 196.625L577.816 161.25H591.816L566.566 234.25C561.191 248.875 553.941 258.75 539.441 258.75ZM604.185 230V161.25H615.935L617.185 170.875H617.56C623.81 164.625 630.935 159.5 640.31 159.5C654.935 159.5 661.435 169.375 661.435 186.75V230H646.935V188.625C646.935 176.625 643.435 172 635.435 172C629.06 172 624.685 175.25 618.685 181.25V230H604.185ZM710.938 231.75C692.188 231.75 677.438 218.375 677.438 195.75C677.438 173.375 692.813 159.5 708.813 159.5C726.938 159.5 736.813 172.625 736.813 192.125C736.813 195 736.563 197.75 736.188 199.5H691.563C692.688 212.625 700.938 220.375 712.813 220.375C718.938 220.375 724.063 218.5 729.188 215.25L734.188 224.5C727.813 228.75 719.938 231.75 710.938 231.75ZM691.313 189.5H724.313C724.313 177.625 719.063 170.875 709.063 170.875C700.438 170.875 692.813 177.5 691.313 189.5ZM752.988 230V161.25H764.738L765.988 173.625H766.363C771.238 164.75 778.488 159.5 785.863 159.5C789.238 159.5 791.363 160 793.488 161L790.988 173.5C788.613 172.75 786.863 172.375 783.988 172.375C778.488 172.375 771.738 176.375 767.488 187.25V230H752.988ZM825.808 260.875C809.308 260.875 797.308 254.75 797.308 242.875C797.308 237 800.933 231.625 807.308 227.875V227.25C803.683 225 801.058 221.375 801.058 215.75C801.058 210.375 804.808 205.75 808.683 203V202.5C804.058 199 799.558 192.375 799.558 184.25C799.558 168.625 812.058 159.5 826.183 159.5C830.183 159.5 833.683 160.25 836.308 161.25H860.558V172.125H847.558C850.183 174.875 852.058 179.375 852.058 184.625C852.058 199.75 840.683 208.25 826.183 208.25C823.183 208.25 819.683 207.625 816.558 206.25C814.433 208.125 812.808 210.125 812.808 213.5C812.808 217.5 815.683 220.125 824.308 220.125H837.058C853.308 220.125 861.808 225.125 861.808 236.875C861.808 250.125 847.808 260.875 825.808 260.875ZM826.183 199C833.308 199 839.183 193.375 839.183 184.25C839.183 175 833.433 169.75 826.183 169.75C819.058 169.75 813.308 175 813.308 184.25C813.308 193.375 819.183 199 826.183 199ZM827.933 251.375C839.933 251.375 847.808 245.5 847.808 239.25C847.808 233.5 843.308 231.625 834.933 231.625H824.558C821.308 231.625 818.308 231.375 815.433 230.625C811.308 233.75 809.558 237.25 809.558 240.75C809.558 247.375 816.558 251.375 827.933 251.375ZM874.448 230V161.25H888.948V230H874.448ZM881.698 148.375C876.323 148.375 872.823 145 872.823 139.75C872.823 134.625 876.323 131.25 881.698 131.25C886.948 131.25 890.698 134.625 890.698 139.75C890.698 145 886.948 148.375 881.698 148.375ZM926.709 231.75C914.959 231.75 906.584 223.875 906.584 211.75C906.584 197 919.084 189.375 947.584 186.25C947.459 178.25 944.584 171.25 934.584 171.25C927.334 171.25 920.459 174.625 914.709 178.375L909.334 168.5C916.334 164.125 926.084 159.5 937.084 159.5C954.209 159.5 962.084 170.375 962.084 188.75V230H950.209L949.084 222.25H948.584C942.334 227.625 934.959 231.75 926.709 231.75ZM931.209 220.25C937.209 220.25 941.959 217.5 947.584 212.25V195.5C927.209 197.875 920.459 203 920.459 210.75C920.459 217.5 925.084 220.25 931.209 220.25Z" fill="#145DA0"/>
</svg>
