<svg id="Capa_1" data-name="Capa 1" xmlns="http://www.w3.org/2000/svg" viewBox="0 0 2032 2032"><defs><style>.cls-1{fill:#df1f21;}.cls-2{fill:#de1f21;}.cls-3{fill:#0d6cb3;}.cls-4{fill:#0d6db4;}.cls-5{fill:#0d6bb2;}.cls-6{fill:#c51b1d;}</style></defs><path class="cls-1" d="M1296.46,1582.31c-3.12,2.38-5.58,4.26-8,6.13-12.56,9.5-26.28,16.54-42,18.86a92.61,92.61,0,0,1-37.46-1.66c-22-5.78-35-19.84-38.49-42.32-5-32.36,7.69-57.91,37.21-71.69a105.56,105.56,0,0,1,16.5-6.06c16.7-4.68,33.78-6.22,51-6.25,4,0,8-.09,12,0,2.73.07,3.72-1.21,3.68-3.79-.09-7.76.44-15.54-.43-23.27-1.82-16.1-12.71-26-30.47-28.28-15.21-1.91-30.13-.06-45,3a203.49,203.49,0,0,0-23.59,6.65c-4.63,1.57-4.71,1.52-5.86-3q-2.18-8.54-4.15-17.11c-1-4.58-1-4.69,3.4-6.55a189.67,189.67,0,0,1,43.37-12.63c18.1-2.95,36.27-4.06,54.46-.67a92.11,92.11,0,0,1,10.37,2.51c25.39,8,39.51,26.4,40.45,53,.34,9.64.2,19.3.21,29q0,58.55,0,117.09c0,1.89-.06,3.77-.05,5.66,0,2.35-1.08,3.27-3.47,3.24-8.81-.09-17.63-.12-26.44,0-3.13,0-3.86-1.65-4.21-4.22C1298.71,1594.41,1298.21,1588.76,1296.46,1582.31Zm-5.6-49.9h0c0-7.12-.11-14.25,0-21.37.07-3.26-1.2-4.4-4.41-4.37-10.26.1-20.54-.28-30.77.69a79,79,0,0,0-22,4.86c-14.54,5.83-21.32,15.72-21.47,31.39-.22,22.05,12.6,34.36,34.66,33.15,16.51-.91,29.71-9.21,42.15-19.15,2-1.55,1.8-3.63,1.8-5.72C1290.87,1545.4,1290.86,1538.9,1290.86,1532.41Z"/><path class="cls-1" d="M907.05,1582.16c-5.06,3.74-9.18,6.93-13.44,9.9-23.12,16.07-48.5,20.24-75.52,13.23-20.62-5.35-33.24-19-37-40-3.5-19.54-1.13-38.09,11.55-54.26,8.83-11.26,20.71-18.16,34-22.92,16.15-5.81,32.95-8,50-8.58,6.92-.24,13.84-.19,20.76-.17,2.54,0,3.93-.78,3.88-3.58-.14-7.13.34-14.31-.32-21.39-1.7-17.94-12.08-28-30.49-30.31-19.09-2.41-37.62.73-55.95,5.68-5.64,1.53-11.2,3.39-17.35,5.26-2.59-8-4.18-16.22-6-24.32-.53-2.29,1.58-2.62,3.06-3.26a177.42,177.42,0,0,1,27.33-9.39c20.46-5.26,41.2-7.63,62.32-5.63a86,86,0,0,1,27.92,7c17.87,8.14,27.9,22.19,31.11,41.36a91,91,0,0,1,1.23,15q0,70.8,0,141.61c0,.42,0,.84,0,1.26-.1,5.44-.1,5.49-5.65,5.53q-11.34.07-22.66,0c-5,0-5.12-.07-6-4.88C908.82,1594,908.06,1588.61,907.05,1582.16Zm-5.82-49.82c0-6.91.06-13.83,0-20.75-.05-4.56-.21-4.8-4.44-4.85-10.27-.12-20.55-.35-30.78.61a78.58,78.58,0,0,0-22,4.88c-15.22,6.11-22.47,17.57-21.46,34,.13,2.09.4,4.17.72,6.24,2,12.95,11,22,24,23.89a49.41,49.41,0,0,0,8.77.46c17.05-.53,30.62-9,43.4-19.24,1.7-1.37,1.83-3.13,1.82-5.07C901.2,1545.76,901.22,1539.05,901.23,1532.34Z"/><path class="cls-2" d="M1013.1,848.46c-6.3-5.79-12.64-11.54-18.89-17.38-20.7-19.35-41-39.13-59-61-13.11-15.92-25-32.65-32.91-51.87a96.1,96.1,0,0,1-7.24-27.89c-1.8-19.49,3.79-36.86,14.92-52.7,12.64-18,28.16-33.26,44.68-47.59,22.67-19.67,46.94-37.35,70.1-56.41a421.89,421.89,0,0,0,39.8-36.62c13.15-14,24.55-29.23,32.92-46.58,13.13-27.2,16-55.74,11-85.29-.67-3.89-1.44-7.77-2.24-12.08,2.39.38,3.06,2,3.94,3.25A101,101,0,0,1,1129.39,410c1.84,28-6.24,53.47-19.52,77.61-14.6,26.55-34.21,49.15-55.9,70.07-13,12.54-26.85,24.08-41,35.35-18.9,15.12-36.48,31.59-50.49,51.51-9.64,13.7-16.77,28.53-19.65,45.19-3.34,19.28.46,37.54,8.09,55.2,7.37,17,17.74,32.32,28.27,47.49,9.81,14.13,20,28,28.53,43,2.27,4,4.3,8.08,6.45,12.12Z"/><path class="cls-1" d="M1064.51,1559.89c2.07-2.94,2.71-5.83,3.65-8.56a824.85,824.85,0,0,0,34.34-133.22c1-6,1.79-12,2.71-18,.7-4.58.72-4.67,5.52-4.69q17.63-.08,35.25,0c4.84,0,5.12.4,4.24,5.1-2.84,15.26-6,30.45-9.56,45.55-11.8,49.68-27.25,98.16-48,144.89-1.28,2.87-2.82,5.65-3.83,8.62-1.3,3.86-3.82,4.77-7.65,4.72-14.27-.19-28.54-.06-42.81-.09-5.18,0-5.22-.06-6.81-5.24q-30.42-98.88-60.81-197.76c-.25-.81-.38-1.65-.67-2.43-.76-2.06-.22-3.26,2.11-3.34.84,0,1.68-.05,2.52-.05,12,0,23.92,0,35.88,0,4.89,0,5,0,6.49,4.83q10.78,34.51,21.46,69.07c4.72,15.21,9.25,30.49,14.17,45.64,4.09,12.6,6.27,25.65,9.54,38.44C1062.82,1555.39,1063,1557.5,1064.51,1559.89Z"/><path class="cls-3" d="M1295.26,1131.94c7,.66,11.12,5.3,13.89,11,2.64,5.43,0,10.2-3.52,14.39-4.28,5-9.78,8.54-15.48,11.72-13.07,7.29-27.05,12.42-41.31,16.76-31.37,9.54-63.45,15.76-95.86,20.48-70.78,10.31-142,13.41-213.38,11.94q-63.57-1.32-126.82-8c-31.71-3.37-63.32-7.37-94.74-12.8-8.69-1.51-17.26-3.55-25.37-7.15a33.86,33.86,0,0,1-10.1-6.28c-4.86-4.7-5.75-10.08-2.49-16,2.27-4.12,5.67-7.27,9.3-10.15,8.43-6.72,17.86-11.74,27.68-16.07,22.59-10,46.09-16.8,70.66-19.52,10.21-1.13,20.53-1.61,30.56,1.68,1.16.38,2.49.51,3.4,2.38-4.78.51-9.4.93-14,1.5a184.33,184.33,0,0,0-55.86,16.54c-4.57,2.14-9,4.61-12.58,8.24-4.83,4.88-4.44,9.14,1.17,13,3.49,2.4,7.46,3.81,11.4,5.23,19.85,7.14,40.46,10.89,61.24,13.83,49.12,7,98.57,8.94,148.11,9.37q68.94.6,137.74-3.88c28.89-1.9,57.73-4.33,86.43-8.11,27.65-3.63,55.24-7.72,82-16.16a92.77,92.77,0,0,0,13.46-5.27,64.66,64.66,0,0,0,8.68-5.06c9.67-6.87,11.16-13,6-23.7Z"/><path class="cls-1" d="M659.11,1655.57c1-2.24,2.69-2.73,4.09-3.59a128.9,128.9,0,0,0,13.3-9.48Q700.71,1623,702.21,1592c.51-10.26,1.22-20.51,1.21-30.8q-.09-116.1,0-232.21c0-8.41-.8-7.85,7.75-7.87,10.7,0,21.4-.05,32.09,0,5.44,0,5.44.11,5.53,5.7,0,1,0,2.09,0,3.14q0,114.86,0,229.7a386.41,386.41,0,0,1-2.15,40.81c-2.64,25-14.08,44.87-33.69,60.29a120.94,120.94,0,0,1-29.83,17.29c-1.7.68-3.44,1.74-5.12-.25C671.66,1670.33,665.29,1662.86,659.11,1655.57Z"/><path class="cls-2" d="M1049.94,878.67c.83-2.24,2.75-3.64,4.22-5.38a87.28,87.28,0,0,0,15.08-24.53c7.11-18.1,5.23-35.32-4.87-51.78a102.73,102.73,0,0,0-9.45-12.55c-12-14.13-22.54-29.24-29.83-46.4q-22.5-53,12-99.09c12.3-16.51,27.67-29.74,44.51-41.37,29.72-20.53,62.27-35.37,96.07-47.69,12.39-4.52,24.91-8.59,38.46-12.25-1.69,2.64-3.85,3.36-5.66,4.43-30,17.73-59.52,36.13-87,57.6-14.25,11.12-27.81,23-39.05,37.27a88.65,88.65,0,0,0-12.59,21c-5.64,13.68-5.32,27.37,0,41.07,4.88,12.65,12.45,23.74,20.13,34.75,4.44,6.37,9.07,12.6,13.54,18.94,6,8.48,10.47,17.66,12.46,27.94,3.34,17.29-1.34,32.88-10.5,47.31-13.7,21.59-33.23,37-54.64,50.25a2.73,2.73,0,0,1-2.92.41Z"/><path class="cls-4" d="M891,1057.56c-1.38,1.55-2.88,3-4.12,4.66-3.59,4.81-2.89,8.86,2.12,12.29,3.33,2.28,7.15,3.46,11,4.55,9.34,2.62,19,3.55,28.55,4.54,24.63,2.53,49.31,4.58,74.12,4,28.59-.68,56.85-4.45,85-9.35,5.37-.93,10.72-2,16.09-2.94,2.49-.44,4.83-.58,7.26.88a326.3,326.3,0,0,0,43.44,21.36,19.67,19.67,0,0,1,1.86,1.07c-.85,2.39-3.11,2.54-4.9,3.26a389.77,389.77,0,0,1-78.53,22.28,437.3,437.3,0,0,1-97.8,6.13c-29-1.4-57.63-5.35-85.28-14.77a112.61,112.61,0,0,1-24.5-11.34c-4.45-2.84-8.62-6-11.57-10.49-4.12-6.24-3.86-12.14.75-18a29.48,29.48,0,0,1,6.47-5.94C870,1063.43,880.15,1059.72,891,1057.56Z"/><path class="cls-3" d="M1204.27,887.51c-3.15,1.59-6.3,3.17-9.44,4.78-4.28,2.21-8.92,3.94-12.77,6.76-11.89,8.72-25.68,11.89-39.69,14.72a882.93,882.93,0,0,1-89,13,1227.41,1227.41,0,0,1-128.18,5.61c-34.83-.26-69.63-1.7-104.22-6.08-17.06-2.16-34.07-4.74-50.47-10.22-5-1.67-9.9-3.53-14.15-6.72-6.36-4.77-6.64-9.61-1-15.19a34.93,34.93,0,0,1,9.32-6.36c42.85-21.13,87.9-33.9,135.84-35.64,1.47,0,2.94,0,4.41,0,.62,0,1.24.13,2.52.28-2.12,1.64-4.2,1.86-6.15,2.38-19.86,5.29-39.62,10.92-58.69,18.68-6.81,2.77-13.56,5.7-19.53,10.06-3,2.21-6.62,4.46-6.05,8.87s4.56,5.82,8,7.19c10,4,20.64,5.55,31.28,6.68,35.74,3.79,71.6,3.75,107.48,3,30.42-.66,60.79-2.18,91.12-4.39q48.94-3.55,97.53-10.7,25.77-3.82,51.56-7.62C1204.11,886.87,1204.19,887.19,1204.27,887.51Z"/><path class="cls-4" d="M871.77,956.6a35.53,35.53,0,0,0-8.84,9.66c-4.65,7.57-3.09,13.61,4.62,17.93,7.3,4.09,15.45,5.43,23.57,6.28,35.28,3.74,70.64,6.2,106.16,5.25a764,764,0,0,0,105.1-10.56c10.13-1.68,20.23-3.59,30.34-5.37,2-.36,4-.88,5.92.84,9.87,9,21.3,15.49,33.84,20.72-1.74,2.43-4.25,2.39-6.29,2.95a707.64,707.64,0,0,1-121.17,22c-35.37,3.29-70.78,4.39-106.24,2-26.19-1.74-52.21-4.85-77.52-12.25a109.71,109.71,0,0,1-23.82-9.73c-4-2.31-7.8-5-10.61-8.75-3.88-5.2-4.13-10.36-.64-15.77a20.16,20.16,0,0,1,3.59-4.36c12.14-10.52,26.42-16.77,41.84-20.69Z"/><path class="cls-5" d="M802.44,1236c35.3,5,70.6,8.07,106,10,35,1.93,70.05,2.21,105.1,1.6a1308.77,1308.77,0,0,0,134.94-9.06c43.76-5.31,87.16-12.6,129.54-25.06,14.9-4.38,29.56-9.46,43.53-16.34,10-4.93,19.6-10.41,27.61-19.28,1,3.35-.26,5.8-1.18,8.15-3.06,7.8-8.22,14.08-14.52,19.49-12.46,10.71-27.1,17.47-42.29,23.13-24.26,9-49.42,14.68-74.87,19-35,6-70.23,9.42-105.64,11.67-47.17,3-94.37,3.29-141.57,1.86-35.23-1.06-70.41-3.27-105.31-8.51-17.23-2.58-34.35-5.73-50.87-11.47C809.21,1240,805.51,1238.65,802.44,1236Z"/><path class="cls-3" d="M1227.82,860a19.92,19.92,0,0,1,11.43-9.93c23.32-8.45,46.68-9.43,69.93.24a69.05,69.05,0,0,1,23.72,16.22c17.61,18.48,21.87,43.66,11.41,67.67-6.68,15.35-17.39,27.57-30.08,38.18-18.39,15.38-39.41,26.13-61.48,35a368.23,368.23,0,0,1-40.53,13.52c-1.54.43-3.07,1.45-5,.79.3-3.62,3.34-4.45,5.81-5.77a348.62,348.62,0,0,0,48.31-30.55c13.2-10.12,25.38-21.31,35.16-34.87,7.7-10.66,13.6-22.18,15.28-35.42,4.16-32.65-20.22-53.86-44-59.13-11-2.44-21.65-1-32.27,1.93C1233,858.59,1230.4,859.26,1227.82,860Z"/><path class="cls-6" d="M1358.48,1406.24c-1.78,1.25-.75,3.44-1.47,5.09a1.45,1.45,0,0,1-1.36,1,1.32,1.32,0,0,1-1.41-1,46.28,46.28,0,0,1-.12-14.29c.29-2,4.3-1.68,5.55.48s1.49,5.11,3.63,7.27c2.4-1.85,2.63-4.48,3.6-6.64.8-1.81,1.94-2.69,3.86-2.3,1.77.36,2.14,1.76,2.13,3.33,0,3.54,0,7.09,0,10.64,0,1-.15,2.3-1.41,2.43-1.9.21-1.57-1.49-1.78-2.6s-.26-2-.37-2.88c-2-1.23-2.32.38-2.87,1.31-.9,1.51-.78,4.22-3.09,4.09-2.16-.13-2-2.83-3-4.36C1359.9,1407.12,1359.52,1406.37,1358.48,1406.24Z"/><path class="cls-6" d="M1344.82,1395.69c.83,0,1.66,0,2.49,0,1.21,0,2.68-.21,3,1.41.48,2.15-1.42,1.41-2.38,1.73-1.85.62-1.66,2.16-1.7,3.58-.09,2.69-.08,5.39-.19,8.08,0,1.14-.62,2-1.92,1.85a1.72,1.72,0,0,1-1.43-1.77c-.1-2.69-.14-5.39-.19-8.08,0-2-.16-3.8-2.83-3.86-1,0-1.55-.64-1.15-1.6a2,2,0,0,1,1.29-1.15c1.64-.14,3.3-.05,5-.05Z"/><path class="cls-2" d="M1049.79,878.57c.41.32.41.65,0,.89a.64.64,0,0,1-.5-.13c0-.45.21-.67.69-.66Z"/><path class="cls-4" d="M871.62,956.75c.29-.35.19-.52-.29-.47a.79.79,0,0,0-.05.4c.17.83-.33-.34.47-.07A1.54,1.54,0,0,1,871.62,956.75Z"/><path class="cls-3" d="M1295.44,1131.85c-.31-.78-.72.34-.34-.41a.73.73,0,0,1,.24-.27c.41.24.38.5-.07.77Z"/></svg>