<svg id="Capa_1" data-name="Capa 1" xmlns="http://www.w3.org/2000/svg" viewBox="0 0 2032 2032"><defs><style>.cls-1{fill:#f05033;}.cls-2{fill:#010101;}</style></defs><path class="cls-1" d="M784.39,581.72c32.84,33,64.47,64.36,95.48,96.37,3.21,3.32,4.49,10.54,3.64,15.43-5.79,33.07,3.67,59.42,31.17,79.61,5.09,3.74,9.73,11.91,9.79,18.08q1,113.29,0,226.6c0,5.64-4.16,13.26-8.81,16.54-27.58,19.46-40.16,50.27-31.61,80.73,8.23,29.32,35.51,51.25,65.06,52.3,32.94,1.16,60.3-17.16,71.8-48.1,10.62-28.54.37-60.18-25.31-81-4.41-3.58-9-10.13-9.07-15.35-.51-76.72-.26-153.45-.12-230.18,0-1,1-1.92,2.46-4.63,28.41,28.42,56.75,56.11,84,84.85,3.53,3.72,2.42,13,1.65,19.46-3.68,30.72,8.45,59.26,33.48,73,27.37,15.07,54.6,13.84,80.4-4.59,23-16.43,33.5-48.38,25.2-76.26-8.88-29.83-34.27-53-63.36-50.53-25.31,2.12-40.75-8.23-56.24-25.25-19.6-21.53-41.58-40.89-61.2-62.4-5.44-6-9.47-16.62-8.53-24.44,5.79-47.82-33.94-87.24-82.27-80.93-5.88.77-14.22-1-18.24-4.87-30-28.86-59.2-58.56-88.63-88-2.51-2.51-4.87-5.17-6.91-7.33,29.08-29.88,56.47-61.19,87.28-88.67,23.64-21.09,54.41-17.06,77.16,5.65q198.92,198.55,397.47,397.48c28.07,28.12,28.1,61.37,0,89.58q-197.86,198.34-396.2,396.22c-24.62,24.57-59.84,23.76-85.62-1.94q-106-105.68-211.62-211.82C635,1065.55,573,1004.09,511.58,942c-28-28.38-27.17-61.08,1-89.32Q641.26,723.91,770,595.28C774.19,591.12,778.58,587.2,784.39,581.72Z"/><path class="cls-2" d="M1086.07,1509.09c-22.12-25.2-21.57-27.33,17-70.52-30.21-27.63-38.25-63.42-19.95-95.07,16.14-27.93,43.7-34.89,73.24-35.07,18.29-.12,36.57,3,54.88,3.64s36.67.14,56.25.14v31.6l-30.87,3.74c12.13,21,15.71,41.83,6.2,63.2-13.65,30.68-48,46.44-90.88,39.46-14.65-2.39-19.14,3.22-22.44,15.89,28.85,2.47,57.12,4.23,85.21,7.5,30.88,3.58,47.25,17,50.41,39.17,4.54,31.87-8.47,59.13-37.93,68.31-23.92,7.47-49.63,10.11-74.77,12.37-13.22,1.19-26.94-3-40.42-4.81C1068.12,1582.62,1052.74,1541.28,1086.07,1509.09Zm75.6-99.21c22.39,0,35.35-11.22,35.53-30.71.19-20.13-12.82-33-33.52-33.21-21.33-.2-34.83,12.81-35,33.73C1128.52,1400.06,1139.27,1409.9,1161.67,1409.88ZM1149,1519.77l0,.37c-5.89-.33-12.45-2.43-17.51-.54-6.17,2.3-14.44,7.21-15.6,12.38-1.23,5.46,3.33,16.47,8,18.28,25,9.71,50.88,9.5,75.7-.93,4.27-1.79,8-10.44,7.67-15.67-.21-3.48-7.68-8.58-12.47-9.35C1179.61,1521.88,1164.24,1521.16,1149,1519.77Z"/><path class="cls-2" d="M1531.7,1456.63l9.3,32.93c-30.59,15.41-61.79,21-94.33,10.24-21.73-7.21-28.15-25.84-28.5-46.74-.45-27.32-.12-54.66-.12-82,0-27.58,0-27.58-26.09-29.58-7.2-24.81-5.42-29.25,16-37.92,16-6.49,25.16-19.79,26.49-35.33,1.72-20,12-23,28.22-20.85,3.51.48,7.08.49,12.74.86v55.62H1531v38h-54.93c0,35-.83,68.09.39,101.11.52,14,11.42,20.35,25.19,19.08C1511,1461.18,1520.25,1458.76,1531.7,1456.63Z"/><path class="cls-2" d="M1368.49,1309.17v159.89l23.76,5.7v28.71H1287v-29.71c27.47,4.67,23.75-14.69,23.55-32.16-.31-26.75.24-53.52-.38-80.26-.11-5-3.18-13.57-6.26-14.25-24.85-5.49-18-21.4-13.38-37.92Z"/><path d="M1300.24,1244c0-22.21,9.82-31.73,32.74-31.73,24.79,0,35.43,10,35.61,33.42.17,21.8-13.37,34.65-36,34.16C1312.25,1279.38,1300.24,1266.09,1300.24,1244Z"/></svg>