<svg id="Capa_1" data-name="Capa 1" xmlns="http://www.w3.org/2000/svg" viewBox="0 0 2032 2032"><defs><style>.cls-1{fill:#60d9fa;}.cls-2{fill:#61d9fa;}</style></defs><path class="cls-1" d="M1250.71,1483h-53.24c.72-.41.74-1,0-1.3a14.8,14.8,0,0,0-2.7-.66,214.26,214.26,0,0,1-21.55-6c-24.77-8.4-47.59-20.69-69.39-35-29.93-19.59-57.18-42.5-83-67.13-1.56-1.48-2.93-3.2-5.1-4.35-2.38,2.27-4.73,4.53-7.09,6.77-25.26,23.89-51.91,46.07-81.07,65.1-21.69,14.17-44.4,26.33-69,34.67a193.38,193.38,0,0,1-22.48,6.13c-.77.16-2.83-.54-2,1.72H780.85c.75-.36.83-1,.15-1.29a42.43,42.43,0,0,0-4.46-1.34,96.59,96.59,0,0,1-38.68-20.85c-15.36-13.47-25.55-30.38-32.64-49.31-8.66-23.13-12-47.28-12.88-71.79-1-28.09,1.52-56,5.83-83.7,3.1-20,7.23-39.77,12.14-59.39.57-2.26.49-3.6-2.15-3.9a16.38,16.38,0,0,1-2.68-.79A615.24,615.24,0,0,1,621,1159.8c-27-12.34-52.69-26.79-75.66-45.76-16.46-13.58-30.85-29-41.06-47.92-15.55-28.84-17.69-58.57-5.18-89,7.77-18.89,20.16-34.6,34.84-48.58,18.87-18,40.45-32,63.37-44.19,34.08-18.05,70-31.38,107-42.17,6.75-2,6.73-2,5.05-8.84-7.8-31.94-13.54-64.22-16.07-97-1.88-24.42-1.77-48.84,1.75-73.14,2.62-18.08,7.07-35.69,15-52.27,14.63-30.79,37.43-52,71.22-60.06.73-.18,1.55-.12,2-.89s-.3-.69-.53-1h49.51c-1.15.74-.49,1.3.29,1.48,2.87.69,5.78,1.21,8.65,1.89,23.35,5.51,45,15.22,65.76,27,31,17.6,59,39.22,85.58,62.89,7.88,7,15.57,14.29,23.63,21.71l6-5.75c29.67-28.11,61.08-54,96.28-75,21.72-13,44.41-23.73,69-30,3.75-1,7.58-1.66,11.36-2.54.79-.18,2.33,0,1.44-1.68h48.57c.42,1.48.41,1.52,1.77,1.82a98,98,0,0,1,30.92,12.69c20.23,12.74,33.7,31,42.88,52.74,9.39,22.19,13.43,45.59,14.84,69.46a402.09,402.09,0,0,1-2.91,74.54,653.34,653.34,0,0,1-14.29,75.57c-1.2,4.84-1.52,4.16,3.28,5.61l.45.11c29.27,8.6,58,18.62,85.76,31.38,26.8,12.32,52.37,26.71,75.21,45.57,16.2,13.39,30.37,28.57,40.58,47.12,13.32,24.2,17.35,49.7,10.11,76.6-5.33,19.82-16,36.65-29.62,51.76-15,16.67-32.69,30.11-51.68,41.9-26.54,16.47-54.88,29.17-84.12,40-15.61,5.76-31.46,10.8-47.41,15.51-3.58,1.06-3.58,1.1-2.74,4.76.1.46.27.9.38,1.35,7.12,29.34,12.75,58.95,15.56,89,2.65,28.3,3.07,56.55-1.16,84.74-3,20-8.35,39.22-18,57.08-13,24.08-31.79,41.62-58,50.56-2.94,1-6,1.67-9,2.58C1251.08,1481.61,1249.49,1481.58,1250.71,1483Zm-234.73-298c30,.21,60-1.15,90-3,3.11-.19,5.7-.61,7.83-3.77a1323.11,1323.11,0,0,0,91.53-158.71,7,7,0,0,0-.08-6.89q-19.42-39.84-41.51-78.28-23.6-41.1-50.13-80.35c-1.23-1.82-2.31-3.31-5-3.48-16.92-1.12-33.86-2.1-50.81-2.59-44.21-1.28-88.39-.66-132.52,2.48-3.47.25-5.55,1.33-7.49,4.22A1326.55,1326.55,0,0,0,827,1012.15a8.34,8.34,0,0,0,0,8.22q25.56,52.2,55.55,102,17,28.19,35.37,55.48c1.68,2.51,3.41,4.31,6.63,4.09a18.16,18.16,0,0,1,2.32.2C956.55,1184,986.24,1185.27,1016,1185.07Zm479.39-168.74a59.83,59.83,0,0,0-7.84-28.47A104.43,104.43,0,0,0,1470,964.94c-13.44-13.62-28.94-24.5-45.43-34-35.64-20.57-73.94-34.61-113.3-46.08-2.8-.82-3.11.48-3.72,2.44a1081.19,1081.19,0,0,1-48.84,126,6.55,6.55,0,0,0,.08,6.09,1107.52,1107.52,0,0,1,48.7,125.53c1.1,3.46,1.17,3.51,4.45,2.56,32.89-9.57,65-21.06,95.64-36.62,19.61-10,38.28-21.39,54.82-36,9.95-8.82,18.79-18.61,25.22-30.36A59.73,59.73,0,0,0,1495.37,1016.33ZM983.71,697.12a4.34,4.34,0,0,0-1.68-2.39C958,671.63,932.65,650,904.79,631.59c-18.08-12-36.92-22.5-57.39-29.85-14.59-5.24-29.53-8.77-45.19-7.91-17.26.95-31.44,8-42.08,21.78A82.63,82.63,0,0,0,749,635.51c-7.73,19.35-10.3,39.66-11,60.27a359.81,359.81,0,0,0,2.54,54.5,585.9,585.9,0,0,0,14,75.14c.86,3.44.93,3.52,4.28,2.76,24.44-5.46,49.07-9.87,73.84-13.52,19.08-2.82,38.22-5.24,57.43-6.87a10.14,10.14,0,0,0,8.32-4.73,1065.85,1065.85,0,0,1,83.36-103.57C982.44,698.7,983.1,697.85,983.71,697.12ZM737.79,1331.87a212.2,212.2,0,0,0,4.77,43.63c3,13.93,7.6,27.26,15.89,39,7.69,11,17.78,18.56,30.84,22,12.18,3.24,24.37,2.56,36.54.17,18.34-3.59,35.32-10.83,51.71-19.58,25.94-13.83,49.47-31.13,71.91-50q16.27-13.68,31.54-28.46c3.69-3.56,3.31-2.85.09-6.43-3.44-3.81-6.9-7.61-10.31-11.45a1091.08,1091.08,0,0,1-73-92.19,7.8,7.8,0,0,0-6.35-3.76c-9.91-.84-19.79-2.08-29.68-3.24a1042.88,1042.88,0,0,1-103-17.34c-3.36-.74-3.38-.74-4.26,2.68-3.41,13.25-6.28,26.62-8.72,40.08A463,463,0,0,0,737.79,1331.87ZM1048.15,697c.55.65.93,1.15,1.35,1.6a1046.85,1046.85,0,0,1,82.34,102c3.45,4.87,7,8,13.14,7.39,1.81-.17,3.69.43,5.55.61,18.42,1.81,36.78,4.19,55.07,7,22.59,3.45,45.07,7.53,67.37,12.57,3.74.85,3.81.78,4.7-2.9,9.07-37.26,15.73-74.87,16.46-113.33.37-19.18-.77-38.25-5.13-57-3.16-13.59-7.81-26.56-16.11-38-9.15-12.54-21.34-20.13-36.8-22.42-12.39-1.83-24.5-.34-36.51,2.69-21.17,5.33-40.52,14.84-59.1,26-31.34,18.9-59.37,42.07-85.88,67.15C1052.46,692.41,1050.47,694.59,1048.15,697Zm246.1,628.36c-.22-11.54-.62-22.74-1.72-33.9a591.74,591.74,0,0,0-14.82-84c-1.08-4.41-1.11-3.87-4.89-3q-37.15,8.13-74.78,13.6-28.41,4.11-57,6.85A8.88,8.88,0,0,0,1134,1229a1071.58,1071.58,0,0,1-83.34,103.61c-3.07,3.35-3.09,2.68.41,6,14.48,13.92,29.49,27.25,45.27,39.69,21.68,17.09,44.39,32.61,69.42,44.44,17.68,8.36,35.94,14.84,55.72,15.83,23.59,1.18,42.16-7.51,54.7-28a103.81,103.81,0,0,0,11.07-26.11C1292.74,1365.09,1294.1,1345.11,1294.25,1325.32Zm-757.43-309c-.2,8.22,1.94,16.27,5.54,24,4.8,10.28,11.66,19.08,19.57,27.1,14.66,14.87,31.75,26.45,49.87,36.59,34.24,19.17,70.87,32.41,108.38,43.43,3.22,1,3.31.85,4.43-2.71a1065.53,1065.53,0,0,1,48.51-125.08,7.49,7.49,0,0,0-.07-7c-4.09-8.89-8-17.86-11.9-26.85a1031.53,1031.53,0,0,1-36.58-98.24c-1.07-3.42-1.12-3.44-4.37-2.51-30.38,8.7-60.07,19.26-88.56,33-20.64,10-40.39,21.43-58,36.2-11.41,9.54-21.63,20.15-28.92,33.27C539.77,996.39,536.69,1005.76,536.82,1016.35ZM954.89,803.09c41.16-1.81,81.15-1.65,122.16-.1-19.63-25.91-39.58-50-61-73.37C994.46,753.09,974.5,777.21,954.89,803.09Zm-93.28,54.17c-3.75-.37-6.47.41-9.23.77q-40,5.19-79.41,13.8c-5.17,1.13-5.14,1.13-3.6,6,8.58,27.11,18.6,53.7,29.46,80,.56,1.34.77,2.94,2.4,4C819.78,926.19,839.81,891.54,861.61,857.26Zm308.67,318.15a13.1,13.1,0,0,0,2,.11c23.43-3.07,46.77-6.76,70-11.3,6.56-1.29,13.06-2.86,19.61-4.15,1.91-.38,2.32-1.21,1.7-2.88-.27-.73-.49-1.47-.73-2.21q-13.17-41.09-29.87-80.88c-.45-1.07-.61-2.37-2.19-3.37C1212.12,1106.49,1192,1141.26,1170.28,1175.41Zm-308.35.3c-22-34.68-42.18-69.45-61.09-105.85-12.48,29.79-23.59,59.27-33,89.67C799,1166.48,829.87,1171.7,861.93,1175.71Zm368.74-214.13c1.29-.35,1.34-1,1.57-1.57q17.34-41.26,31-83.91c1-3.15,1-3.21-2.34-3.93-26.12-5.76-52.45-10.29-79-13.89-3.54-.48-7.12-1.65-11.38-.86,10.86,17.24,21.23,34.17,31.15,51.36C1211.73,926.14,1221.33,943.73,1230.67,961.58Zm-214.91,341c10.59-9.33,57.42-66,60.28-73.09-40.17,1.73-80.16,1.78-121.13-.08C974.44,1255.18,994.4,1279.28,1015.76,1302.56Z"/><path class="cls-2" d="M1016.17,1109.72a93.53,93.53,0,1,1,93.42-93.65A93.33,93.33,0,0,1,1016.17,1109.72Z"/></svg>