<svg id="Capa_1" data-name="Capa 1" xmlns="http://www.w3.org/2000/svg" viewBox="0 0 2032 2032"><defs><style>.cls-1{fill:#4d4d4d;}.cls-2{fill:gray;}.cls-3{fill:#020202;}.cls-4{fill:#030303;}.cls-5{fill:#040404;}.cls-6{fill:#c9c9c9;}.cls-7{fill:#cbcbcb;}.cls-8{fill:#d2d2d2;}.cls-9{fill:#cdcdcd;}.cls-10{fill:#d7d7d7;}.cls-11{fill:#e0e0e0;}.cls-12{fill:#070707;}</style></defs><path class="cls-1" d="M335.9,1115.54a1.36,1.36,0,0,1-1.46-1.41c0-1.27-.05-2.55-.05-3.82V882.17l2.1-.73c.11,1.19,1.06,1.61,1.89,2.22,3.62,2.61,7.62,4.58,11.46,6.81,6.37,3.7,12.74,7.42,19.12,11.1,7.72,4.46,15.45,8.88,23.17,13.33q13.39,7.73,26.77,15.47c4.64,2.66,9.45,5,14,7.89,9.78,6.2,20,11.67,30,17.51,10.21,6,20.48,11.82,30.7,17.76,8.69,5,17.34,10.15,26,15.18,10.68,6.18,21.43,12.23,32.05,18.5a12,12,0,0,0,6.41,2c-1.17,1.83-1,3.89-1,5.93v244.35c0,1.15,0,2.3,0,3.44s.62,1.58,1.54,1.87a.61.61,0,0,1,0,.67c-1.72.76-3.34,1.08-4.76-.66a5.61,5.61,0,0,0-1.62-1q-28.09-16.33-56.19-32.68-32.6-18.9-65.2-37.74-36.23-21-72.4-42.1c-1.26-.74-3.43-.93-3.41-2.66s2.23-2.22,3.59-3c22.69-13.22,45.44-26.33,68.08-39.63,2.81-1.65,4.91-1.78,7.69-.14,10.53,6.24,21.18,12.26,31.77,18.4,14,8.11,28.1,16.1,41.94,24.5,3.79,2.3,9-.26,8.32-4.87a9.76,9.76,0,0,1,0-1.53c0-34.32-.1-68.64.1-103,0-5.59-2.1-9-6.79-11.71q-40.95-23.52-81.77-47.26c-3.09-1.79-6.27-3.41-9.34-5.24-2.61-1.56-5.39.33-6.45,2.28-.58,1-.35,2.25-.35,3.39q0,45.15,0,90.32l0,.07c-3,.9-5.41,2.77-8,4.28q-32.32,18.69-64.55,37.51C338,1113.71,336.58,1114.19,335.9,1115.54Z"/><path class="cls-2" d="M558,1009.19a12,12,0,0,1-6.41-2c-10.62-6.27-21.37-12.32-32.05-18.5-8.69-5-17.34-10.14-26-15.18-10.22-5.94-20.49-11.79-30.7-17.76-10-5.84-20.18-11.31-30-17.51-4.52-2.85-9.33-5.23-14-7.89q-13.39-7.71-26.77-15.47c-7.72-4.45-15.45-8.87-23.17-13.33-6.38-3.68-12.75-7.4-19.12-11.1-3.84-2.23-7.84-4.2-11.46-6.81-.83-.61-1.78-1-1.89-2.21,2-2.44,5.06-3.2,7.52-4.92,2.16-1.5,4.88-2.18,6.53-4.44a.79.79,0,0,0,.53-.28,45,45,0,0,0,14.09-8.09l2-1.09a6.5,6.5,0,0,0,4.79-2.82.91.91,0,0,0,.56-.28c3.86-.86,6.83-3.49,10.21-5.29,1.36-.72,3.12-1.13,3.81-2.84l2.06-1.07c3.85-1.16,7.07-3.56,10.53-5.48,1.26-.7,2.87-1,3.48-2.64a.71.71,0,0,0,.55-.25,20.75,20.75,0,0,0,8.67-5.1.71.71,0,0,0,.52-.26,26.66,26.66,0,0,0,11.11-6.5l1.13-.47a1.47,1.47,0,0,0,1.81-1.17.78.78,0,0,0,.51-.25,31.63,31.63,0,0,0,11.68-6.69.82.82,0,0,0,.56-.28,3.47,3.47,0,0,0,3.33-2,.76.76,0,0,0,.53-.21,6.1,6.1,0,0,0,1.44-.38q9.29-5.22,18.52-10.52c.4-.23.61-.78.91-1.18a.7.7,0,0,0,.55-.25c1.93-.37,3.71-1,4.81-2.81a.71.71,0,0,0,.54-.27c3.85-.9,6.84-3.49,10.21-5.31,1.36-.74,3.1-1.15,3.82-2.83l2-1.1c3.89-.81,6.82-3.49,10.21-5.27,1.36-.72,3.1-1.15,3.85-2.8a.68.68,0,0,0,.51-.27c1.24.1,2.14-.68,3.11-1.23,4.81-2.73,9.61-5.5,14.4-8.27.75-.43,1.62-.76,1.86-1.75,5.16-2.87,10.34-5.73,15.48-8.65a4.69,4.69,0,0,1,2.8-.89c0,1.66-.11,3.31-.11,5v77.57c0,7.12,0,7.07-6.24,10.56-2.17,1.22-4.64,2.08-6.18,4.24l-2,1.08c-1-.18-1.49.37-1.86,1.15l-2,1.17a23.86,23.86,0,0,0-9.62,5.64,20.2,20.2,0,0,0-4.93,2.75,14.36,14.36,0,0,0-7.16,4.3.79.79,0,0,0-.51.26,33.86,33.86,0,0,0-11.65,6.7,1.11,1.11,0,0,0-.56.37,1.41,1.41,0,0,0-1.86,1.07l-2,1.12c-3.83.95-6.8,3.55-10.22,5.29-.39.2-.59.78-.89,1.18l-3.45,1.93c-3.48.77-6.16,3-9.07,4.86a1.53,1.53,0,0,0-.67,1.94,3.24,3.24,0,0,0,0,2.15c-.36,1.31.6,1.83,1.47,2.35,2.61,1.57,5.17,3.27,7.9,4.6,3,1.45,5.49,3.72,8.76,4.54a.67.67,0,0,0,.52.22,19.12,19.12,0,0,0,8.7,5,.86.86,0,0,0,.56.28,6.25,6.25,0,0,0,4.8,2.79l2,1.09a1.47,1.47,0,0,0,1.81,1.17l1.1.5a5,5,0,0,0,2.5,2.18c4,2.21,7.87,4.48,11.81,6.71,1.94,1.11,3.67,2.67,6,3a.7.7,0,0,0,.51.25,19,19,0,0,0,8.7,5.06.75.75,0,0,0,.53.28c1.11,1.78,2.89,2.43,4.8,2.86.67.34,1.34.68,2,1a1.56,1.56,0,0,0,1.86,1.16,1,1,0,0,0,.56.29c1.07,1.82,2.84,2.47,4.79,2.81a.93.93,0,0,0,.57.25,19.56,19.56,0,0,0,8.63,5.06l1.1.49c1.28,2.14,3.53,2.72,5.64,3.53a5.76,5.76,0,0,0,7.33-2l1.13-.44a5.49,5.49,0,0,0,1.45-.33q10.44-6,20.83-12c.4-.23.61-.77.9-1.17a.91.91,0,0,0,.56-.28c3.89-.83,6.82-3.5,10.21-5.29,1.36-.72,3.12-1.13,3.8-2.85a.82.82,0,0,0,.54-.28c3.9-.9,6.94-3.48,10.32-5.38,1.79-1,4.12-1.41,5.17-3.56a4.31,4.31,0,0,0,2.09-1.19,1.69,1.69,0,0,0,1.45-.19c5.27-3.08,10.55-6.14,15.81-9.25,1.39-.82,3.1-1.27,3.9-2.91l1.08-.53a1.51,1.51,0,0,0,1.85-1.14.67.67,0,0,0,.48-.25c2.27-.58,4.44-1.32,5.77-3.46l1.1-.45c2.26-.15,3.93-1.58,5.49-2.93,2-1.74,1.64-3.42-.78-5.42h0c-.14-1-.65-1.46-1.67-1.28a3.8,3.8,0,0,0-2-1.08,14.15,14.15,0,0,0-7.13-4.32l-1.13-.41c-1.31-2.16-3.46-2.94-5.75-3.48A.68.68,0,0,0,637,891a20,20,0,0,0-8.66-5.14l-3.44-1.88a1.81,1.81,0,0,0-1.92-1.2.68.68,0,0,0-.52-.21,20.59,20.59,0,0,0-8.69-5.09l-1.09-.45a15.89,15.89,0,0,0-8.1-4.91l-1.1-.43A5.1,5.1,0,0,0,599.2,869l-2-1a1.51,1.51,0,0,0-1.84-1.18l-1.07-.51a5.71,5.71,0,0,0-4.27-2.65l-2-1a14.31,14.31,0,0,0-7.2-4.31l-2-1c-.64-1.55-2.29-1.91-3.42-2.88l.06-83.76,0-4.2a1.39,1.39,0,0,1,1.36-1.52,34.81,34.81,0,0,0,12.52,7.34,1,1,0,0,0,.56.27,18.78,18.78,0,0,0,8.63,5.1.71.71,0,0,0,.51.29,6.5,6.5,0,0,0,4.84,2.78.76.76,0,0,0,.54.28,19.5,19.5,0,0,0,8.66,5.08l2,1.08a30.78,30.78,0,0,0,11,6.38l3.56,2c.26.9.78,1.4,1.78,1.18l1.07.55c.61,1.21,1.8,1.71,2.89,2.33l11.46,6.53c1.94,1.1,3.63,2.71,6,2.94l1.07.5a5.38,5.38,0,0,0,4.28,2.61.77.77,0,0,0,.53.22,19.57,19.57,0,0,0,8.67,5.1l3.45,1.91A31.63,31.63,0,0,0,682,825.9a.71.71,0,0,0,.53.24,3.39,3.39,0,0,0,3.32,1.94l1.09.53a5.71,5.71,0,0,0,4.24,2.65l2,1c.71,1.7,2.48,2.08,3.84,2.81,3.39,1.79,6.37,4.42,10.22,5.31a.84.84,0,0,0,.53.28,1.54,1.54,0,0,0,1.79,1.19l1.13.46a1.76,1.76,0,0,0,1.89,1.22.7.7,0,0,0,.52.21c2.3,2.71,5.48,3.92,8.69,5.09,1.63.93,3.06,2.23,4.91,2.77a22.45,22.45,0,0,0,9.64,5.65.81.81,0,0,0,.56.23,3.39,3.39,0,0,0,3.29,2l1.08.51a5.93,5.93,0,0,0,4.25,2.66l2,1.05a19.8,19.8,0,0,0,8.73,5,.83.83,0,0,0,.54.27,6.75,6.75,0,0,0,4.81,2.84c2.78,1.56,5.16,3.8,8.27,4.8a3.16,3.16,0,0,0,3.27,2l1.64.83a1.3,1.3,0,0,0,1.15,1.5,1.31,1.31,0,0,1,1.16,1.15L751.62,896.9l-51.3,29.72q-22.5,13-45,26.1l-51.28,29.75-43.66,25.28c-1.06-.32-1.64.11-1.84,1.16A2,2,0,0,1,558,1009.19Z"/><path class="cls-3" d="M560.4,1007.75l43.66-25.28,51.28-29.75q22.49-13.05,45-26.1l51.3-29.72,25.48-14.74c.7,1.59.44,3.27.44,4.91q0,111.91,0,223.82c0,1,0,2,0,3.06,0,1.45-.94,2-2.14,2.22l-.13-.2-.24,0c-1.27-1.69-3.24-2.41-5-3.41-22.06-12.79-44.12-25.6-66.27-38.24-2.95-1.68-3.94-3.59-3.92-7,.14-27.82.08-55.64.08-83.46,0-1,0-2,0-3.06-.3-5.3-3-6.81-7.55-4.3-.67.37-1.32.76-2,1.15-29.34,17-58.63,34.11-88.07,51-4.78,2.74-6.87,6.07-6.85,11.61.16,34.46.08,68.91.09,103.36a23.12,23.12,0,0,0,.19,3.82c.52,3.11,2.72,4.33,5.57,3.12a25.84,25.84,0,0,0,2.69-1.45q36.91-21.37,73.78-42.81c2.4-1.4,4.14-1.46,6.54-.06,23.1,13.56,46.27,27,69.41,40.46,4.35,2.54,4.35,2.7.11,5.15q-41.55,24-83.12,48.05-53.16,30.69-106.34,61.39c-1.62.94-3.53,1.51-4.69,3.15l-1.11.32c-.92-.29-1.58-.76-1.54-1.87s0-2.29,0-3.44V1015.12c0-2-.19-4.1,1-5.93a2,2,0,0,0,.54-.28A1.5,1.5,0,0,0,560.4,1007.75Z"/><path class="cls-4" d="M1574.73,1129.23c.24,0,.34-.17.31-.42a1.78,1.78,0,0,0,1-1c2.19-4.27,2.38-8.77,1.63-13.41-1.2-7.35-3.63-14.34-6.28-21.24q-16.65-43.38-33.49-86.69-10-25.86-19.94-51.74c-1.24-3.24-1-3.54,2.3-3.55q25.07,0,50.14,0c3,0,3,.06,4,3,4.59,14.46,9.12,28.93,13.7,43.39,6.55,20.66,13.24,41.28,17.83,62.5.25,1.18.24,2.58,1.59,3.25,1.17-.29,1.13-1.33,1.34-2.14,1-3.7,1.88-7.41,2.81-11.11,3.73-15,8.22-29.73,12.93-44.42,5.45-17,10.68-34.06,16.05-51.09,1.06-3.37,1.15-3.39,4.47-3.39q23.93,0,47.84,0c3.54,0,3.59.13,2.47,3.34-.45,1.33-.92,2.65-1.37,4q-14,41.1-28,82.19-14,40.89-28,81.76c-3.26,9.54-6.7,19-11.62,27.84-7.6,13.68-18.25,23.44-33.87,27.1-3.08.72-6.34.62-9.3,1.93l-1.5.12c-1.24-.54-2.52-.18-3.78-.18-12.47,0-24.94.1-37.42.12-3.13,0-3.2-.06-3.29-3.18q-.49-18.14-.92-36.25c-.06-2.67.07-2.81,2.77-2.84,4.71-.06,9.42,0,14.13,0a41.23,41.23,0,0,0,11.72-1.28C1568.93,1134.65,1572.81,1133.35,1574.73,1129.23Z"/><path class="cls-5" d="M1485.29,1124.83a5.78,5.78,0,0,0-3,.19,6.49,6.49,0,0,0-3-.2l-17.82.2a6.07,6.07,0,0,0-3-.2c-3.67-1.51-7.67-1.6-11.45-2.72-14.85-4.37-24.44-13.67-27.91-29a82.19,82.19,0,0,1-1.7-18.24q0-37.89,0-75.78c0-4.55,0-4.54-4.39-4.53q-7.27,0-14.55,0c-4.13,0-4.15,0-4.16-4.31q0-12.63,0-25.26c0-4.09.06-8.17,0-12.25,0-2,.71-2.77,2.7-2.69,2.54.1,5.1,0,7.65,0,3.32,0,6.64-.05,10,0,1.92,0,2.86-.77,2.82-2.71,0-1,0-2,0-3.06q0-22.58,0-45.16c0-3.42,0-3.46,3.32-3.46q23,0,45.93,0c3.45,0,3.45,0,3.51,3.33,0,.63,0,1.27,0,1.91q0,22.2,0,44.39c0,4.74,0,4.75,4.57,4.75h23c3.79,0,3.84,0,3.84,3.85q0,18.38,0,36.75c0,.51,0,1,0,1.53a2.06,2.06,0,0,1-2.36,2.32l-3.45,0c-7.52,0-15,0-22.58,0-2.59,0-2.82.28-3,2.82-.05.76,0,1.53,0,2.29q0,32,0,63.91c0,1.92.06,3.83.22,5.74.77,8.57,6.93,13.6,15.73,12.88a121.11,121.11,0,0,0,14.51.15c1.25,1.25.92,2.84.92,4.34,0,9.69.08,19.37,0,29-.06,7,1.42,5.7-6.12,7.32C1492,1123.8,1488.55,1123.67,1485.29,1124.83Z"/><path class="cls-6" d="M894.05,973.19V900.07c0-1.15,0-2.3.05-3.45a2.27,2.27,0,0,1,2.47-2.35c.89,0,1.78,0,2.68,0h50.53c5.74,0,6.18.45,6.18,6.41q0,46.89,0,93.79c0,16.08,0,32.16,0,48.24a39.75,39.75,0,0,0,5.83,20.64c3.48,5.9,9,9.18,15.16,11.64,8.65,3.44,17.73,3.83,26.69,2.75a37.46,37.46,0,0,0,18.58-7.16c7.35-5.66,11.12-13.33,12.77-22.27a57.52,57.52,0,0,0,.8-10.64q0-68.91,0-137.82c0-5.57,0-5.58,5.41-5.58h50.92c.9,0,1.79,0,2.68,0,2.35.17,2.76.62,2.92,3.07,0,.51,0,1,0,1.53q0,70.46-.07,140.89a130.61,130.61,0,0,1-1.91,19.68c-1.85,11.83-6.58,22.37-13.08,32.15-7.66,11.52-18.46,19.39-30.85,25.38a98.06,98.06,0,0,1-26.84,8.15c-5.6.92-11.22,2.45-17,1.84-3.46-.37-6.83.63-10.28.72-7.53.21-15-.65-22.52-1a63.75,63.75,0,0,1-12.34-2c-3.08-.78-6.21-1.36-9.3-2.09-7.86-1.86-15-5.45-21.91-9.44a67.72,67.72,0,0,1-15.3-12,75.42,75.42,0,0,1-16.58-27.12c-1.86-5.25-3.19-10.64-4.54-16a46.8,46.8,0,0,1-1-11c-.08-24.63,0-49.26,0-73.89Zm202.17.31q0-37.12,0-74.27c0-3.39,0-3.47-2.93-3.47q-26.41,0-52.83,0c-2.93,0-3,.15-3.1,3,0,.77,0,1.53,0,2.3v134c0,5.24-.08,10.47-1.33,15.6-3.36,13.76-11.46,23.17-25.31,27a56.92,56.92,0,0,1-32.48-.69c-10.86-3.37-18.1-10.59-21.57-21.5a50.22,50.22,0,0,1-2.31-15.44q0-69.87,0-139.74c0-5.17-.18-4.52-4.62-4.52H897.31a1.73,1.73,0,0,0-1.91,1.89c0,.76,0,1.53,0,2.29q0,68.91,0,137.82c0,11.29,1.25,22.42,4.72,33.2,4.66,14.46,12.61,26.64,24.75,36,13.67,10.52,29.51,15.28,46.25,17.76,11.54,1.71,23.16,1.61,34.77,1.13a123.37,123.37,0,0,0,40.7-8.16c19.91-7.87,34.65-21.25,42.81-41.29,4.87-12,6.84-24.53,6.85-37.41Q1096.24,1006.24,1096.22,973.5Z"/><path class="cls-7" d="M1178.15,970.73c8.4-11.06,18.62-19.12,31.64-23.26,7.87-2.51,16-4.05,24.32-3.32,12.4,1.1,24.23,4.29,34.32,12.1a52.26,52.26,0,0,1,13.1,14.77c3.61,6.14,6.75,12.57,8.19,19.6a81.07,81.07,0,0,1,1.9,13.52c1.3,38.5.17,77,.54,115.53,0,4.22-.65,4.88-4.87,4.88q-24.12,0-48.23,0a13.08,13.08,0,0,1-2.66-.14,2.38,2.38,0,0,1-2.24-2.61c0-1,0-2,0-3.06q0-49,0-98a32,32,0,0,0-6.61-19.88,19.27,19.27,0,0,0-10.69-6.86,29.33,29.33,0,0,0-15.83-.24,26.26,26.26,0,0,0-17.66,15.58,41.93,41.93,0,0,0-3.77,17c.1,30.23,0,60.47,0,90.71,0,.89,0,1.78,0,2.68,0,4.2-.65,4.84-4.91,4.84q-24.11,0-48.22,0a13.17,13.17,0,0,1-2.67-.15,2.39,2.39,0,0,1-2.24-2.61c0-.89,0-1.79,0-2.68v-165c0-5.57,0-5.57,5.43-5.57h45.54c.9,0,1.79-.05,2.68,0,2.35.17,2.85.63,2.93,3.06s0,5.1,0,7.65Zm-55.12,65.8v82.68c0,3.83,0,3.82,3.7,3.82h45.54c5.33,0,5.5.79,5.49-5.31q0-43.83,0-87.66a50.59,50.59,0,0,1,1.75-14.76c2.68-8.86,7.41-16.16,15.8-20.71,13.23-7.19,34.78-3.12,39.32,17.63a52,52,0,0,1,1.05,11q.08,47.84,0,95.69c0,4.07-.05,4.09,3.89,4.09h46.7c.76,0,1.53,0,2.29,0a1.81,1.81,0,0,0,2-1.89c.06-.89.06-1.78.06-2.68q0-52.05,0-104.11c0-9.08-.74-18.1-3.32-26.87-4.22-14.36-12-26.06-25.2-33.78-9.15-5.38-19.15-7.52-29.64-7.74-21.63-.46-39.3,7.32-52.16,25.12-.7,1-1,2.75-2.65,2.28s-.93-2.17-.94-3.35c0-5.61,0-11.22,0-16.84,0-2.63-.21-2.83-2.74-3-.64,0-1.28,0-1.92,0h-43.25c-1.28,0-2.55,0-3.83-.07a1.62,1.62,0,0,0-1.89,1.83c0,.77,0,1.53,0,2.3Z"/><path class="cls-8" d="M559.69,1264.46c1.16-1.64,3.07-2.21,4.69-3.15q53.14-30.74,106.34-61.39,41.58-24,83.12-48.05c4.24-2.45,4.24-2.61-.11-5.15-23.14-13.48-46.31-26.9-69.41-40.46-2.4-1.4-4.14-1.34-6.54.06Q641,1127.83,604,1149.13a25.84,25.84,0,0,1-2.69,1.45c-2.85,1.21-5,0-5.57-3.12a23.12,23.12,0,0,1-.19-3.82c0-34.45.07-68.9-.09-103.36,0-5.54,2.07-8.87,6.85-11.61,29.44-16.85,58.73-34,88.07-51,.67-.39,1.32-.78,2-1.15,4.59-2.51,7.25-1,7.55,4.3.06,1,0,2,0,3.06,0,27.82.06,55.64-.08,83.46,0,3.37,1,5.28,3.92,7,22.15,12.64,44.21,25.45,66.27,38.24,1.73,1,3.7,1.72,5,3.41-1.57.52-2.71-.52-3.87-1.19-12.1-7-24.14-14.13-36.24-21.14-8.78-5.09-17.62-10.08-26.43-15.11-2.54-1.45-5-3-7.6-4.34-2.4-1.28-2.83-3.31-2.82-5.78.06-12.38,0-24.76,0-37.14V983c0-.89,0-1.78,0-2.68-.14-3.57-1.29-4.22-4.53-2.62-6.61,3.25-12.78,7.27-19.19,10.88-6.65,3.73-13.2,7.64-19.8,11.45-7.16,4.13-14.33,8.22-21.49,12.35q-14.69,8.45-29.34,16.93c-1,.58-2,1.2-2.92,1.83a8.12,8.12,0,0,0-3.94,7.32q.07,53.22,0,106.44c0,.51,0,1,0,1.53.22,2.42,1.25,3.28,3.53,2.48a32.19,32.19,0,0,0,6.9-3.16c8.63-5.63,17.83-10.28,26.68-15.53,6.77-4,13.41-8.31,20.36-12,8.4-4.47,16.33-9.74,24.72-14.21a3.69,3.69,0,0,1,4.2.13c11.53,7,23.27,13.56,34.94,20.29,9.56,5.52,18.86,11.49,28.64,16.65,3.36,1.78,6.58,3.83,9.89,5.71a4.19,4.19,0,0,1,1.85,1.85c.52,1.08.49,1.9-.67,2.56q-14.76,8.36-29.5,16.75-2.82,1.61-5.63,3.24c-9.19,5.4-18.34,10.85-27.57,16.18-8.68,5-17.55,9.72-26.13,14.9-9.56,5.77-19.28,11.29-29,16.86-8.37,4.82-16.63,9.85-25.17,14.39-5.82,3.1-11.42,6.6-17.13,9.91l-25.43,14.75c-2.85,1.66-5.65,3.41-8.54,5C562.63,1263.92,561.41,1265.13,559.69,1264.46Z"/><path class="cls-9" d="M1583.32,1179.28c3-1.31,6.22-1.21,9.3-1.93,15.62-3.66,26.27-13.42,33.87-27.1,4.92-8.85,8.36-18.3,11.62-27.84q14-40.89,28-81.76,14-41.09,28-82.19c.45-1.33.92-2.65,1.37-4,1.12-3.21,1.07-3.33-2.47-3.34q-23.91,0-47.84,0c-3.32,0-3.41,0-4.47,3.39-5.37,17-10.6,34.09-16.05,51.09-4.71,14.69-9.2,29.44-12.93,44.42-.93,3.7-1.84,7.41-2.81,11.11-.21.81-.17,1.85-1.34,2.14-1.35-.67-1.34-2.07-1.59-3.25-4.59-21.22-11.28-41.84-17.83-62.5-4.58-14.46-9.11-28.93-13.7-43.39-.93-3-1-3-4-3q-25.07,0-50.14,0c-3.34,0-3.54.31-2.3,3.55q9.94,25.88,19.94,51.74,16.74,43.35,33.49,86.69c2.65,6.9,5.08,13.89,6.28,21.24.75,4.64.56,9.14-1.63,13.41a1.78,1.78,0,0,1-1,1,3.8,3.8,0,0,1-.06-1.49c2.31-5.81,1.87-11.59.28-17.5-3.49-13-9-25.26-13.74-37.8-3.33-8.75-6.48-17.61-10-26.3-3.09-7.77-6-15.63-9.12-23.37-2.55-6.19-4.9-12.5-7.28-18.78-3.19-8.43-6.45-16.83-9.68-25.25q-4.34-11.36-8.66-22.7c-.27-.71-.57-1.41-.88-2.1-1.21-2.65-.63-3.74,2.25-4.09a19.42,19.42,0,0,1,2.29,0h49c4.73,0,5.26.34,6.5,4.71,3.49,12.33,7.79,24.41,11.42,36.71,1.85,6.28,4,12.53,6.08,18.76,2.26,6.7,4.19,13.57,6.07,20.43,1.51,5.47,2.9,11,4.78,16.39,1.27,3.68,1.76,7.63,2.61,11.46.1.45,0,1,.94,1.24,1.12-2.32,1.48-5,2-7.46,1.62-7.72,3.8-15.27,6.06-22.81,3.13-10.45,6.11-20.94,9.59-31.27,3.6-10.69,6.85-21.49,10.18-32.27,1.23-4,2.82-7.83,3.86-11.87,1-3.68,1.58-4,5.36-4q24.12,0,48.23,0c4,0,5.41,1.67,3.82,5.51s-2.57,7.72-4,11.52c-3.46,9.12-6.46,18.4-9.49,27.67-1.81,5.53-3.82,11-5.73,16.5q-3.17,9.17-6.3,18.36c-2,6-4.07,12-6.13,18-1.74,5-3.23,10.15-4.9,15.2s-3.71,10.2-5.42,15.35c-1.52,4.58-3.08,9.14-4.56,13.73-2,6-4.44,11.83-6.29,17.89-2,6.43-4.29,12.75-6.52,19.1-4.37,12.51-9.56,24.68-18.32,34.79-7.41,8.57-16.79,14.26-28.22,16C1588.51,1179.4,1586,1180.72,1583.32,1179.28Z"/><path class="cls-8" d="M411.75,1071.15q0-45.17,0-90.32c0-1.14-.23-2.34.35-3.39,1.06-2,3.84-3.84,6.45-2.28,3.07,1.83,6.25,3.45,9.34,5.24q40.89,23.64,81.77,47.26c4.69,2.7,6.82,6.12,6.79,11.71-.2,34.32-.1,68.64-.1,103a9.76,9.76,0,0,0,0,1.53c.71,4.61-4.53,7.17-8.32,4.87-13.84-8.4-27.93-16.39-41.94-24.5-10.59-6.14-21.24-12.16-31.77-18.4-2.78-1.64-4.88-1.51-7.69.14-22.64,13.3-45.39,26.41-68.08,39.63-1.36.79-3.57,1.16-3.59,3s2.15,1.92,3.41,2.66q36.18,21.07,72.4,42.1,32.58,18.9,65.2,37.74,28.11,16.31,56.19,32.68a5.61,5.61,0,0,1,1.62,1c1.42,1.74,3,1.42,4.76.66-1.32,1.88-2.37,2.21-4.64,1.11-1.71-.83-3.32-1.87-5-2.83-7.13-4.19-14.24-8.4-21.38-12.57-6.57-3.83-13.17-7.59-19.74-11.42-7.68-4.46-15.28-9.07-23-13.41-11.4-6.38-22.64-13.07-33.93-19.62-8-4.65-16.17-9.07-24-14.11-5.85-3.8-12.34-6.59-18.24-10.33-6.65-4.22-13.63-7.84-20.38-11.86-9.82-5.85-19.78-11.46-29.66-17.19-1.43-.83-2.84-1.71-4.18-2.67-2.14-1.53-2.23-2.58-.1-4,2.52-1.69,5.19-3.16,7.81-4.7,10-5.86,19.85-11.84,29.91-17.53,10.38-5.87,20.77-11.72,30.94-17.94,7-4.31,7-4.59,14.33-.49,6.64,3.74,13.18,7.66,19.77,11.48,7.46,4.31,14.9,8.67,22.36,13s15.13,8.9,22.7,13.34c2.3,1.34,4.63,2.63,7,3.92,2.7,1.51,5.41.17,5.85-2.91a18.27,18.27,0,0,0,0-2.67q0-51.49,0-103c0-4.53-1.68-7.76-5.71-10-10.69-5.81-21.08-12.14-31.56-18.31-11.16-6.58-22.43-13-33.67-19.4-8.36-4.79-16.76-9.53-25.13-14.3-3.46-2-5.88-.52-5.9,3.65,0,10.84,0,21.69,0,32.53,0,18,0,36,0,54C413,1068.58,413.86,1070.4,411.75,1071.15Z"/><path class="cls-9" d="M1486.09,1082.23c-8.8.72-15-4.31-15.73-12.88-.16-1.91-.22-3.82-.22-5.74q0-32,0-63.91c0-.76,0-1.53,0-2.29.16-2.54.39-2.81,3-2.82,7.53,0,15.06,0,22.58,0l3.45,0a2.06,2.06,0,0,0,2.36-2.32c0-.51,0-1,0-1.53q0-18.37,0-36.75c0-3.8,0-3.84-3.84-3.85h-23c-4.56,0-4.57,0-4.57-4.75q0-22.18,0-44.39c0-.64,0-1.28,0-1.91-.06-3.29-.06-3.32-3.51-3.33q-23,0-45.93,0c-3.3,0-3.32,0-3.32,3.46q0,22.57,0,45.16c0,1,0,2,0,3.06,0,1.94-.9,2.74-2.82,2.71-3.31-.07-6.63,0-10,0-2.55,0-5.11.07-7.65,0-2-.08-2.74.72-2.7,2.69.09,4.08,0,8.16,0,12.25q0,12.63,0,25.26c0,4.29,0,4.3,4.16,4.31q7.27,0,14.55,0c4.38,0,4.39,0,4.39,4.53q0,37.89,0,75.78a82.19,82.19,0,0,0,1.7,18.24c3.47,15.31,13.06,24.61,27.91,29,3.78,1.12,7.78,1.21,11.45,2.72-2.5,1.56-4.94.2-7.33-.28-9-1.82-17.23-5.39-23.64-12.24-5.52-5.89-8.69-13-10.37-20.85-1.6-7.45-1.41-14.93-1.42-22.44q0-33.88,0-67.77c0-.76,0-1.53,0-2.29-.1-2.87-.11-2.94-3.12-3-5.11,0-10.21,0-15.32,0-3.7,0-4.49-.79-4.5-4.5q0-19.14,0-38.29c0-3.83.82-4.57,4.8-4.59,5,0,10,0,14.94,0,3.12,0,3.19-.08,3.2-3.26q0-21.63,0-43.27c0-.89,0-1.78,0-2.68,0-4.52.59-5.12,5-5.12h44c1.28,0,2.55,0,3.83,0,1.87,0,2.87.83,2.84,2.76,0,.9,0,1.79,0,2.68v43.65c0,.9.06,1.79,0,2.68-.17,2.06.87,2.63,2.76,2.59,4.34-.07,8.68,0,13,0,4.08,0,8.16-.05,12.25,0,2.85,0,3.34.52,3.35,3.39q.07,20.29,0,40.59c0,3-.49,3.38-3.72,3.39-7.65,0-15.31,0-23,0-.89,0-1.79,0-2.68,0-1.48,0-2,.77-2,2.15,0,.77,0,1.54,0,2.3q0,32.36,0,64.71a24.71,24.71,0,0,0,1,7.53c1.38,4.4,4.28,7.13,9,7.66C1483.13,1080.54,1485,1080.48,1486.09,1082.23Z"/><path class="cls-6" d="M1375.67,1036v81.12c0,.77,0,1.53,0,2.3-.1,3.25-.46,3.6-3.86,3.69h-49.36c-.76,0-1.53,0-2.29,0a2.37,2.37,0,0,1-2.52-2.7c0-.77,0-1.53,0-2.3V954.34c0-.64,0-1.28,0-1.92.16-2.75,1-3.65,3.67-3.83.38,0,.76,0,1.14,0h48.22a14.57,14.57,0,0,1,2.29.07,2.92,2.92,0,0,1,2.67,2.8c.09,1,.05,2,.05,3Zm-56.41-.13q0,41.16,0,82.31c0,3.74,0,3.77,3.79,3.77q23.73,0,47.47,0c3.33,0,3.43-.16,3.52-3.42,0-.51,0-1,0-1.53V955.08c0-.77,0-1.53,0-2.3.13-2-.93-2.74-2.8-2.66-.76,0-1.53,0-2.29,0q-22.59,0-45.17,0c-4.49,0-4.54-.46-4.54,4.62Q1319.28,995.32,1319.26,1035.89Z"/><path class="cls-8" d="M775.39,1116.17c1.2-.26,2.15-.77,2.14-2.22,0-1,0-2,0-3.06q0-111.92,0-223.82c0-1.64.26-3.32-.44-4.91a1.31,1.31,0,0,0-1.16-1.15,1.3,1.3,0,0,1-1.15-1.5c4.18,1.12,4.39,1.33,4.39,5.31q0,113.85,0,227.68c0,1.85-.06,3.61-1.79,4.72C776.27,1118,775.49,1117.63,775.39,1116.17Z"/><path class="cls-6" d="M1346.63,927.86c-8.28,0-16.56,0-24.84,0-3.86,0-4.15-.3-4.16-4.14q0-19.31,0-38.61c0-3.91.75-4.62,4.75-4.62q24.27,0,48.54,0c4,0,4.72.7,4.73,4.65q0,19.3,0,38.61c0,3.81-.3,4.1-4.18,4.11C1363.2,927.88,1354.91,927.86,1346.63,927.86Zm-.15-45.75h-24.09c-3.05,0-3.15,0-3.16,2.85q0,19.32,0,38.63c0,2.8.25,2.95,3.14,2.95q23.89,0,47.8,0c3.78,0,3.93-.12,3.93-3.81q0-18.36,0-36.72c0-3.73-.21-3.89-3.9-3.9C1362.29,882.1,1354.39,882.11,1346.48,882.11Z"/><path class="cls-9" d="M1574.73,1129.23c-1.92,4.12-5.8,5.42-9.7,6.54a41.23,41.23,0,0,1-11.72,1.28c-4.71,0-9.42,0-14.13,0-2.7,0-2.83.17-2.77,2.84q.42,18.12.92,36.25c.09,3.12.16,3.19,3.29,3.18,12.48,0,25-.09,37.42-.12,1.26,0,2.54-.36,3.78.18a1.25,1.25,0,0,1-1,1c-3.41.3-6.82.79-10.23.82-9.94.11-19.87.06-29.81,0-4.18,0-4.63-.7-4.91-4.89-.81-11.94-.7-23.9-.77-35.85,0-4.6.32-5,5-5,5.35,0,10.7-.09,16,0,3,0,5.77-.8,8.69-1,2-.13,3.75-1.45,5.49-2.51C1571.77,1131.09,1572.88,1129.56,1574.73,1129.23Z"/><path class="cls-10" d="M525.52,862.62c1.54-2.16,4-3,6.18-4.24,6.21-3.49,6.24-3.44,6.24-10.56V770.25c0-1.66.07-3.31.11-5,.49-.4,1.1-.33,1.21.21a14.48,14.48,0,0,1,.2,3c0,27.49,0,55,.07,82.48,0,3-.78,5.12-3.54,6.45C532.49,859.13,529.59,862.05,525.52,862.62Z"/><path class="cls-8" d="M335.9,1115.54c.68-1.35,2.05-1.83,3.24-2.53q32.25-18.78,64.55-37.51c2.61-1.51,5.06-3.38,8-4.28-1.17,2.87-4,3.79-6.35,5.09-10.72,6-21.28,12.35-31.91,18.56-11.39,6.64-22.87,13.13-34.33,19.67A4.94,4.94,0,0,1,335.9,1115.54Z"/><path class="cls-9" d="M1485.29,1124.83c3.26-1.16,6.75-1,10.09-1.74,7.54-1.62,6.06-.36,6.12-7.32.1-9.68,0-19.36,0-29,0-1.5.33-3.09-.92-4.34.88-.88,1.68-.64,2,.41a8.82,8.82,0,0,1,.18,2.63q0,16.75,0,33.51c0,3.66-.35,4.21-3.83,4.92a59.75,59.75,0,0,1-11.61,1.59C1486.63,1125.44,1485.83,1125.56,1485.29,1124.83Z"/><path class="cls-9" d="M1461.44,1125l17.82-.2a6.49,6.49,0,0,1,3,.2c-1.06,2.12-3.21,1.16-4.76,1.41a37.85,37.85,0,0,1-14.69-.3C1462.15,1126,1461.62,1125.74,1461.44,1125Z"/><path class="cls-11" d="M586.36,947.11c-.29.4-.5.94-.9,1.17q-10.38,6-20.83,12a5.49,5.49,0,0,1-1.45.33c1.13-2.35,3.55-3.15,5.53-4.36,4.95-3,10.08-5.77,15.11-8.68A3.63,3.63,0,0,1,586.36,947.11Z"/><path class="cls-11" d="M463.86,807c-.3.4-.51.95-.91,1.18q-9.24,5.31-18.52,10.52a6.1,6.1,0,0,1-1.44.38c.2-1.7,1.73-2.19,2.88-2.74,4.57-2.18,8.65-5.18,13.1-7.55C460.55,807.93,462,807,463.86,807Z"/><path class="cls-11" d="M640.21,915.93c-.8,1.64-2.51,2.09-3.9,2.91-5.26,3.11-10.54,6.17-15.81,9.25a1.69,1.69,0,0,1-1.45.19c1.53-2.92,4.76-3.61,7.2-5.28,3.63-2.48,7.68-4.32,11.51-6.51C638.57,916,639.26,915.53,640.21,915.93Z"/><path class="cls-11" d="M515,940c-2.34-.3-4.07-1.86-6-3-3.94-2.23-7.86-4.5-11.81-6.71a5,5,0,0,1-2.5-2.18,2.14,2.14,0,0,1,1.81.17q8.58,5,17.18,10C514.39,938.75,515,939.15,515,940Z"/><path class="cls-11" d="M652.88,809c-2.37-.23-4.06-1.84-6-2.94l-11.46-6.53c-1.09-.62-2.28-1.12-2.89-2.33,2.51-.32,4.11,1.62,6,2.62,4.42,2.32,8.65,5,13,7.54C652.2,807.78,652.81,808.17,652.88,809Z"/><path class="cls-11" d="M519.77,774.82c-.24,1-1.11,1.32-1.86,1.75-4.79,2.77-9.59,5.54-14.4,8.27-1,.55-1.87,1.33-3.11,1.23.51-1.84,2.22-2.32,3.6-3.13q5.89-3.44,11.89-6.71C517.09,775.57,518.24,774.63,519.77,774.82Z"/><path class="cls-11" d="M475.2,917.07c-3.27-.82-5.8-3.09-8.76-4.54-2.73-1.33-5.29-3-7.9-4.6-.87-.52-1.83-1-1.47-2.35,5.11,2.89,10.25,5.73,15.29,8.72C473.46,915,475,915.38,475.2,917.07Z"/><path class="cls-11" d="M350.54,872.09c-1.65,2.26-4.37,2.94-6.53,4.44-2.46,1.72-5.53,2.48-7.52,4.92-.7.23-1.4.48-2.1.72a3.08,3.08,0,0,1,1.79-2.71l12.13-7.14A3.13,3.13,0,0,1,350.54,872.09Z"/><path class="cls-11" d="M617,929.47c-1.05,2.15-3.38,2.55-5.17,3.56-3.38,1.9-6.42,4.48-10.32,5.38,1-2.25,3.48-2.65,5.26-3.91,2.33-1.66,4.89-3,7.36-4.44A4,4,0,0,1,617,929.47Z"/><path class="cls-11" d="M402.59,842.21c-.61,1.6-2.22,1.94-3.48,2.64-3.46,1.92-6.68,4.32-10.53,5.48.07-1.08,1-1.33,1.7-1.88,3.17-2.58,7.07-3.93,10.47-6.12C401.2,842,402,842.24,402.59,842.21Z"/><path class="cls-11" d="M499.89,786.34c-.75,1.65-2.49,2.08-3.85,2.8-3.39,1.78-6.32,4.46-10.21,5.27.25-1.51,1.67-1.89,2.66-2.52,3-1.89,6.1-3.58,9.17-5.35A3.12,3.12,0,0,1,499.89,786.34Z"/><path class="cls-11" d="M386.52,851.4c-.69,1.71-2.45,2.12-3.81,2.84-3.38,1.8-6.35,4.43-10.21,5.29.57-1.78,2.26-2.27,3.63-3.09,2.49-1.5,5.06-2.85,7.52-4.38A3.86,3.86,0,0,1,386.52,851.4Z"/><path class="cls-11" d="M365.16,863.72a45,45,0,0,1-14.09,8.09c.09-1.28,1.23-1.51,2.07-2,3-1.84,6.12-3.62,9.13-5.52A3.54,3.54,0,0,1,365.16,863.72Z"/><path class="cls-11" d="M483.79,795.51c-.72,1.68-2.46,2.09-3.82,2.83-3.37,1.82-6.36,4.41-10.21,5.31a1.92,1.92,0,0,1,1.05-1.48c3.7-2.19,7.39-4.42,11.12-6.56C482.41,795.34,483.17,795.54,483.79,795.51Z"/><path class="cls-11" d="M600.93,938.69c-.68,1.72-2.44,2.13-3.8,2.85-3.39,1.79-6.32,4.46-10.21,5.29.08-1.09,1-1.37,1.74-1.82,3.15-1.87,6.31-3.71,9.41-5.65A3.85,3.85,0,0,1,600.93,938.69Z"/><path class="cls-11" d="M707.25,840.42c-3.85-.89-6.83-3.52-10.22-5.31-1.36-.73-3.13-1.11-3.84-2.81,3.44.26,5.94,2.6,8.74,4.18C703.81,837.55,706.23,838.12,707.25,840.42Z"/><path class="cls-11" d="M562.05,961.05a5.76,5.76,0,0,1-7.33,2c-2.11-.81-4.36-1.39-5.64-3.53a2.19,2.19,0,0,1,2.1.37c2.92,2.11,6,2.71,9.42,1.16A3.89,3.89,0,0,1,562.05,961.05Z"/><path class="cls-11" d="M589.33,772.24a34.81,34.81,0,0,1-12.52-7.34c.62,0,1.43-.24,1.83.06,3.2,2.45,7,4,10.23,6.28C589.13,771.43,589.18,771.9,589.33,772.24Z"/><path class="cls-11" d="M438.57,821.52a31.63,31.63,0,0,1-11.68,6.69c1.7-2.67,4.64-3.68,7.19-5.11C435.41,822.35,436.69,820.91,438.57,821.52Z"/><path class="cls-11" d="M626.12,793.5a30.78,30.78,0,0,1-11-6.38C619.32,788.27,623.28,789.92,626.12,793.5Z"/><path class="cls-11" d="M485.77,885.67a33.86,33.86,0,0,1,11.65-6.7c-.37,2-2.34,2.2-3.64,2.93C491.22,883.35,489,885.51,485.77,885.67Z"/><path class="cls-11" d="M423.44,830.1a26.66,26.66,0,0,1-11.11,6.5c.05-1.25,1.14-1.59,1.94-2.07,2.54-1.52,5.13-3,7.74-4.36C422.39,830,423,830.11,423.44,830.1Z"/><path class="cls-11" d="M457.06,903.43a1.53,1.53,0,0,1,.67-1.94c2.91-1.83,5.59-4.09,9.07-4.86-.07,1.08-1,1.36-1.72,1.82C462.4,900.1,459.73,901.77,457.06,903.43Z"/><path class="cls-11" d="M682,825.9a31.63,31.63,0,0,1-11.1-6.53,2.24,2.24,0,0,1,1.81.17c2.77,1.62,5.53,3.26,8.31,4.88A1.84,1.84,0,0,1,682,825.9Z"/><path class="cls-11" d="M470.25,894.7c.3-.4.5-1,.89-1.18,3.42-1.74,6.39-4.34,10.22-5.29a1.65,1.65,0,0,1-.75,1.26C477.28,891.47,474.12,893.78,470.25,894.7Z"/><path class="cls-11" d="M655.2,901.75c2.42,2,2.78,3.68.78,5.42-1.56,1.35-3.23,2.78-5.49,2.93.1-1.4,1.38-1.84,2.27-2.28C655.49,906.47,656.39,904.58,655.2,901.75Z"/><path class="cls-11" d="M510,871.66a23.86,23.86,0,0,1,9.62-5.64A16.65,16.65,0,0,1,510,871.66Z"/><path class="cls-11" d="M736.35,857.29a22.45,22.45,0,0,1-9.64-5.65c.48,0,1.09-.24,1.44,0,2.62,1.51,5.21,3.08,7.77,4.68C736.17,856.44,736.21,856.94,736.35,857.29Z"/><path class="cls-11" d="M613.07,786a19.5,19.5,0,0,1-8.66-5.08A12.82,12.82,0,0,1,613.07,786Z"/><path class="cls-11" d="M721.8,848.87c-3.21-1.17-6.39-2.38-8.69-5.09C716.56,844.53,719.71,845.8,721.8,848.87Z"/><path class="cls-11" d="M628.31,885.82A20,20,0,0,1,637,891c-.62,0-1.44.23-1.84-.07C632.86,889.19,629.86,888.47,628.31,885.82Z"/><path class="cls-11" d="M667.43,817.46a19.57,19.57,0,0,1-8.67-5.1C662.2,813.13,665.34,814.41,667.43,817.46Z"/><path class="cls-11" d="M598.52,777.61a18.78,18.78,0,0,1-8.63-5.1,2.81,2.81,0,0,1,2.5.47C594.27,774.75,597.19,775.13,598.52,777.61Z"/><path class="cls-11" d="M484.42,922.32a19.12,19.12,0,0,1-8.7-5C479.17,918,482.27,919.34,484.42,922.32Z"/><path class="cls-11" d="M524.24,945.32a19,19,0,0,1-8.7-5.06C518.91,941.14,522.16,942.22,524.24,945.32Z"/><path class="cls-11" d="M411.81,836.86a20.75,20.75,0,0,1-8.67,5.1C405.25,838.94,408.37,837.62,411.81,836.86Z"/><path class="cls-11" d="M613.74,877.44a20.59,20.59,0,0,1,8.69,5.09C619,881.81,615.83,880.52,613.74,877.44Z"/><path class="cls-11" d="M756.26,868.75a19.8,19.8,0,0,1-8.73-5A14.34,14.34,0,0,1,756.26,868.75Z"/><path class="cls-11" d="M548,959.06a19.56,19.56,0,0,1-8.63-5.06C542.74,954.81,545.84,956.12,548,959.06Z"/><path class="cls-11" d="M604.55,872.08a15.89,15.89,0,0,1,8.1,4.91c-.48,0-1.12.25-1.41,0C609.05,875.31,606.1,874.64,604.55,872.08Z"/><path class="cls-11" d="M497.93,878.71a14.36,14.36,0,0,1,7.16-4.3C503.25,876.76,501.14,878.65,497.93,878.71Z"/><path class="cls-11" d="M580.81,858.29a14.31,14.31,0,0,1,7.2,4.31C585,862.18,582.45,861,580.81,858.29Z"/><path class="cls-11" d="M644.37,895.08a14.15,14.15,0,0,1,7.13,4.32A9.85,9.85,0,0,1,644.37,895.08Z"/><path class="cls-11" d="M649.39,910.55c-1.33,2.14-3.5,2.88-5.77,3.46A7.94,7.94,0,0,1,649.39,910.55Z"/><path class="cls-11" d="M637.49,891.19c2.29.54,4.44,1.32,5.75,3.48A6.84,6.84,0,0,1,637.49,891.19Z"/><path class="cls-11" d="M603.87,780.68A6.5,6.5,0,0,1,599,777.9C601.38,777.55,602.81,778.8,603.87,780.68Z"/><path class="cls-11" d="M529.57,948.46c-1.91-.43-3.69-1.08-4.8-2.86A4.33,4.33,0,0,1,529.57,948.46Z"/><path class="cls-11" d="M538.78,953.75c-1.95-.34-3.72-1-4.79-2.81C536.3,950.66,537.73,951.88,538.78,953.75Z"/><path class="cls-11" d="M371.94,859.81a6.5,6.5,0,0,1-4.79,2.82C368.2,860.76,369.63,859.53,371.94,859.81Z"/><path class="cls-11" d="M489.78,925.39a6.25,6.25,0,0,1-4.8-2.79C487.28,922.32,488.71,923.54,489.78,925.39Z"/><path class="cls-11" d="M469.22,803.92c-1.1,1.8-2.88,2.44-4.81,2.81C465.46,804.84,466.88,803.6,469.22,803.92Z"/><path class="cls-11" d="M761.61,871.86A6.75,6.75,0,0,1,756.8,869C758.82,869.26,760.72,869.71,761.61,871.86Z"/><path class="cls-11" d="M691.16,831.26a5.71,5.71,0,0,1-4.24-2.65C689.09,828.28,690.26,829.55,691.16,831.26Z"/><path class="cls-11" d="M575.36,854.38c1.13,1,2.78,1.33,3.42,2.88a4.11,4.11,0,0,1-3.15-1C575,855.78,574.55,855.13,575.36,854.38Z"/><path class="cls-11" d="M590,863.62a5.71,5.71,0,0,1,4.27,2.65C592.07,866.65,590.9,865.37,590,863.62Z"/><path class="cls-11" d="M599.2,869a5.1,5.1,0,0,1,4.25,2.66C601.28,872,600.08,870.75,599.2,869Z"/><path class="cls-11" d="M745.53,862.67a5.93,5.93,0,0,1-4.25-2.66C743.46,859.69,744.65,860.94,745.53,862.67Z"/><path class="cls-11" d="M658.23,812.14a5.38,5.38,0,0,1-4.28-2.61C656.16,809.11,657.33,810.4,658.23,812.14Z"/><path class="cls-8" d="M773.15,878.68a3.16,3.16,0,0,1-3.27-2C771.36,876.71,772.64,877.06,773.15,878.68Z"/><path class="cls-11" d="M685.83,828.08a3.39,3.39,0,0,1-3.32-1.94C684,826.1,685.29,826.47,685.83,828.08Z"/><path class="cls-11" d="M740.2,859.5a3.39,3.39,0,0,1-3.29-2C738.4,857.52,739.69,857.87,740.2,859.5Z"/><path class="cls-11" d="M442.46,819.27a3.47,3.47,0,0,1-3.33,2C439.63,819.56,440.92,819.21,442.46,819.27Z"/><path class="cls-11" d="M533.43,950.65a1.56,1.56,0,0,1-1.86-1.16C532.58,949.26,533.23,949.58,533.43,950.65Z"/><path class="cls-11" d="M426.38,828.46a1.47,1.47,0,0,1-1.81,1.17C424.74,828.58,425.39,828.26,426.38,828.46Z"/><path class="cls-11" d="M493.61,927.65a1.47,1.47,0,0,1-1.81-1.17C492.79,926.28,493.44,926.6,493.61,927.65Z"/><path class="cls-11" d="M653.54,900.48c1-.18,1.53.31,1.67,1.28A1.32,1.32,0,0,1,653.54,900.48Z"/><path class="cls-11" d="M631.46,796.68c-1,.22-1.52-.28-1.78-1.18A1.34,1.34,0,0,1,631.46,796.68Z"/><path class="cls-11" d="M595.35,866.78a1.51,1.51,0,0,1,1.84,1.18C596.17,868.2,595.52,867.86,595.35,866.78Z"/><path class="cls-10" d="M521.63,864.85c.37-.78.89-1.33,1.86-1.15C523.3,864.79,522.66,865.13,521.63,864.85Z"/><path class="cls-11" d="M483.35,887.11a1.41,1.41,0,0,1,1.86-1.07A1.36,1.36,0,0,1,483.35,887.11Z"/><path class="cls-11" d="M643.14,914.26a1.51,1.51,0,0,1-1.85,1.14C641.48,914.33,642.14,914,643.14,914.26Z"/><path class="cls-11" d="M712.59,843.57a1.76,1.76,0,0,1-1.89-1.22C711.78,842.05,712.45,842.4,712.59,843.57Z"/><path class="cls-11" d="M623,882.74a1.81,1.81,0,0,1,1.92,1.2C623.76,884.29,623.09,883.94,623,882.74Z"/><path class="cls-11" d="M709.57,841.89a1.54,1.54,0,0,1-1.79-1.19C708.76,840.52,709.4,840.85,709.57,841.89Z"/><path class="cls-1" d="M560.4,1007.75a1.5,1.5,0,0,1-1.84,1.16C558.76,1007.86,559.34,1007.43,560.4,1007.75Z"/><path class="cls-4" d="M1096.22,973.5q0,32.73,0,65.47c0,12.88-2,25.45-6.85,37.41-8.16,20-22.9,33.42-42.81,41.29a123.37,123.37,0,0,1-40.7,8.16c-11.61.48-23.23.58-34.77-1.13-16.74-2.48-32.58-7.24-46.25-17.76-12.14-9.35-20.09-21.53-24.75-36-3.47-10.78-4.71-21.91-4.72-33.2q0-68.91,0-137.82c0-.76,0-1.53,0-2.29a1.73,1.73,0,0,1,1.91-1.89h52.45c4.44,0,4.62-.65,4.62,4.52q0,69.87,0,139.74a50.22,50.22,0,0,0,2.31,15.44c3.47,10.91,10.71,18.13,21.57,21.5a56.92,56.92,0,0,0,32.48.69c13.85-3.84,22-13.25,25.31-27,1.25-5.13,1.33-10.36,1.33-15.6V901c0-.77,0-1.53,0-2.3.09-2.83.17-3,3.1-3q26.41,0,52.83,0c2.9,0,2.93.08,2.93,3.47Q1096.24,936.37,1096.22,973.5Z"/><path class="cls-4" d="M1123,1036.53V954.24c0-.77,0-1.53,0-2.3a1.62,1.62,0,0,1,1.89-1.83c1.28,0,2.55.07,3.83.07H1172c.64,0,1.28,0,1.92,0,2.53.12,2.73.32,2.74,3,0,5.62-.06,11.23,0,16.84,0,1.18-.67,2.87.94,3.35s2-1.31,2.65-2.28c12.86-17.8,30.53-25.58,52.16-25.12,10.49.22,20.49,2.36,29.64,7.74,13.15,7.72,21,19.42,25.2,33.78,2.58,8.77,3.31,17.79,3.32,26.87q.07,52.05,0,104.11c0,.9,0,1.79-.06,2.68a1.81,1.81,0,0,1-2,1.89c-.76,0-1.53,0-2.29,0h-46.7c-3.94,0-3.89,0-3.89-4.09q0-47.85,0-95.69a52,52,0,0,0-1.05-11c-4.54-20.75-26.09-24.82-39.32-17.63-8.39,4.55-13.12,11.85-15.8,20.71a50.59,50.59,0,0,0-1.75,14.76q0,43.83,0,87.66c0,6.1-.16,5.3-5.49,5.31h-45.54c-3.68,0-3.7,0-3.7-3.82Z"/><path class="cls-4" d="M1319.26,1035.89q0-40.58,0-81.15c0-5.08,0-4.63,4.54-4.62q22.57,0,45.17,0c.76,0,1.53,0,2.29,0,1.87-.08,2.93.64,2.8,2.66,0,.77,0,1.53,0,2.3V1117c0,.51,0,1,0,1.53-.09,3.26-.19,3.41-3.52,3.42q-23.73,0-47.47,0c-3.76,0-3.79,0-3.79-3.77Q1319.26,1077,1319.26,1035.89Z"/><path class="cls-12" d="M1346.48,882.11c7.91,0,15.81,0,23.72,0,3.69,0,3.89.17,3.9,3.9q0,18.36,0,36.72c0,3.69-.15,3.81-3.93,3.81q-23.89,0-47.8,0c-2.89,0-3.13-.15-3.14-2.95q-.06-19.32,0-38.63c0-2.81.11-2.84,3.16-2.85h24.09Z"/></svg>