<?xml version="1.0" encoding="utf-8"?>
<!-- Generator: Adobe Illustrator 26.0.0, SVG Export Plug-In . SVG Version: 6.00 Build 0)  -->
<svg version="1.1" xmlns="http://www.w3.org/2000/svg" xmlns:xlink="http://www.w3.org/1999/xlink" x="0px" y="0px"
	 viewBox="0 0 1200 350" style="enable-background:new 0 0 1200 350;" xml:space="preserve">
<style type="text/css">
	.st0{fill:#12325B;}
	.st1{fill:#4384D8;}
</style>
<g id="Capa_1">
</g>
<g id="Capa_2">
	<path class="st0" d="M299.8,36c-46.5,81.2-93,162.4-139.5,243.6c25.4,0,50.8-0.1,76.2-0.1c8.1-13.9,16.2-27.7,24.3-41.6
		c-9.4,0.1-18.8,0.3-28.2,0.4c22.2-39,44.5-78,66.8-116.9c11.4,20.3,22.7,40.7,34.1,61c8.2-14.1,16.5-28.2,24.7-42.2
		C338.7,105.5,319.2,70.8,299.8,36z"/>
	<path class="st1" d="M260.5,279.5c8.4-13.9,16.9-27.9,25.4-41.8c25.6-0.3,51.3-0.5,76.9-0.8c-5.8-12.1-11.6-24.2-17.4-36.3
		c8.1-13.2,16.1-26.4,24.2-39.7c22.4,39.6,44.9,79.1,67.3,118.7C378.1,279.6,319.3,279.5,260.5,279.5z"/>
	<g>
		<path class="st0" d="M597.7,235.6c-8.3-14.7-17.2-29.2-26.8-43.5c-9.6-14.3-19.9-27.8-30.7-40.5v84h-28.5V107.4h23.5
			c4.1,4.1,8.6,9.1,13.5,15c4.9,5.9,10,12.2,15.1,19c5.1,6.7,10.2,13.7,15.3,20.9c5.1,7.2,9.8,14.2,14.2,20.8v-75.7h28.7v128.2
			H597.7z"/>
		<path class="st0" d="M651.5,107.4h28.9v128.2h-28.9V107.4z"/>
		<path class="st0" d="M832.1,171.4c0,11-1.6,20.6-4.9,29c-3.3,8.3-7.7,15.3-13.4,20.9c-5.7,5.6-12.4,9.8-20.3,12.7
			c-7.8,2.8-16.3,4.3-25.3,4.3c-8.8,0-17-1.4-24.8-4.3c-7.8-2.8-14.6-7.1-20.4-12.7c-5.8-5.6-10.4-12.6-13.7-20.9
			c-3.3-8.3-5-18-5-29c0-11,1.7-20.6,5.2-29c3.5-8.3,8.1-15.3,14-21c5.9-5.7,12.6-9.9,20.3-12.8c7.7-2.8,15.8-4.3,24.3-4.3
			c8.8,0,17,1.4,24.8,4.3c7.8,2.8,14.6,7.1,20.3,12.8c5.8,5.7,10.4,12.7,13.7,21S832.1,160.4,832.1,171.4z M734.2,171.4
			c0,6.3,0.8,12,2.3,17c1.5,5.1,3.8,9.4,6.7,13c2.9,3.6,6.4,6.4,10.6,8.4c4.2,2,9,3,14.4,3c5.3,0,10.1-1,14.3-3
			c4.3-2,7.8-4.8,10.7-8.4c2.9-3.6,5.1-8,6.7-13c1.5-5.1,2.3-10.7,2.3-17s-0.8-12-2.3-17.1c-1.5-5.1-3.8-9.5-6.7-13.1
			c-2.9-3.6-6.5-6.4-10.7-8.4c-4.3-2-9-3-14.3-3c-5.4,0-10.2,1-14.4,3.1c-4.2,2-7.7,4.9-10.6,8.5c-2.9,3.6-5.1,8-6.7,13.1
			C735,159.6,734.2,165.2,734.2,171.4z"/>
		<path class="st0" d="M942.1,235.6c-8.3-14.7-17.2-29.2-26.8-43.5c-9.6-14.3-19.9-27.8-30.7-40.5v84h-28.5V107.4h23.5
			c4.1,4.1,8.6,9.1,13.5,15c4.9,5.9,10,12.2,15.1,19c5.1,6.7,10.2,13.7,15.3,20.9c5.1,7.2,9.8,14.2,14.2,20.8v-75.7h28.7v128.2
			H942.1z"/>
	</g>
</g>
</svg>
