<svg width="1200" height="350" viewBox="0 0 1200 350" fill="none" xmlns="http://www.w3.org/2000/svg">
<path d="M270.263 235H188.063V92.2H270.263V117H218.263V148.4H266.663V173.2H218.263V210H270.263V235ZM342.377 123.6C357.043 123.6 368.243 126.8 375.977 133.2C383.843 139.467 387.777 149.133 387.777 162.2V235H366.977L361.177 220.2H360.377C357.31 224.067 354.11 227.267 350.777 229.8C347.577 232.333 343.843 234.133 339.577 235.2C335.443 236.4 330.31 237 324.177 237C317.777 237 311.977 235.8 306.777 233.4C301.71 230.867 297.71 227.067 294.777 222C291.843 216.8 290.377 210.267 290.377 202.4C290.377 190.8 294.443 182.267 302.577 176.8C310.71 171.2 322.91 168.133 339.177 167.6L358.177 167V162.2C358.177 156.467 356.643 152.267 353.577 149.6C350.643 146.933 346.51 145.6 341.177 145.6C335.843 145.6 330.643 146.4 325.577 148C320.51 149.467 315.443 151.333 310.377 153.6L300.577 133.4C306.443 130.333 312.91 127.933 319.977 126.2C327.177 124.467 334.643 123.6 342.377 123.6ZM346.577 184.8C336.977 185.067 330.31 186.8 326.577 190C322.843 193.2 320.977 197.4 320.977 202.6C320.977 207.133 322.31 210.4 324.977 212.4C327.643 214.267 331.11 215.2 335.377 215.2C341.777 215.2 347.177 213.333 351.577 209.6C355.977 205.733 358.177 200.333 358.177 193.4V184.4L346.577 184.8ZM494.48 202.6C494.48 209.933 492.746 216.2 489.28 221.4C485.813 226.467 480.613 230.333 473.68 233C466.746 235.667 458.146 237 447.88 237C440.28 237 433.746 236.467 428.28 235.4C422.813 234.467 417.346 232.867 411.88 230.6V206C417.746 208.667 424.08 210.867 430.88 212.6C437.68 214.333 443.68 215.2 448.88 215.2C454.746 215.2 458.88 214.333 461.28 212.6C463.813 210.867 465.08 208.6 465.08 205.8C465.08 203.933 464.546 202.267 463.48 200.8C462.546 199.333 460.413 197.667 457.08 195.8C453.746 193.933 448.546 191.533 441.48 188.6C434.68 185.667 429.08 182.8 424.68 180C420.28 177.067 417.013 173.6 414.88 169.6C412.746 165.467 411.68 160.333 411.68 154.2C411.68 144.067 415.613 136.467 423.48 131.4C431.346 126.333 441.813 123.8 454.88 123.8C461.68 123.8 468.146 124.467 474.28 125.8C480.413 127.133 486.746 129.333 493.28 132.4L484.28 153.8C480.68 152.2 477.213 150.8 473.88 149.6C470.546 148.4 467.28 147.467 464.08 146.8C461.013 146.133 457.813 145.8 454.48 145.8C450.08 145.8 446.746 146.4 444.48 147.6C442.346 148.8 441.28 150.6 441.28 153C441.28 154.733 441.813 156.333 442.88 157.8C444.08 159.133 446.28 160.6 449.48 162.2C452.813 163.8 457.68 165.933 464.08 168.6C470.346 171.133 475.746 173.8 480.28 176.6C484.813 179.267 488.28 182.667 490.68 186.8C493.213 190.8 494.48 196.067 494.48 202.6ZM502.094 125.8H534.694L555.294 187.2C555.96 189.2 556.494 191.2 556.894 193.2C557.427 195.2 557.827 197.267 558.094 199.4C558.494 201.533 558.76 203.8 558.894 206.2H559.494C559.894 202.733 560.427 199.467 561.094 196.4C561.894 193.2 562.76 190.133 563.694 187.2L583.894 125.8H615.894L569.694 249C566.894 256.467 563.227 262.733 558.694 267.8C554.294 272.867 549.16 276.667 543.294 279.2C537.427 281.733 531.027 283 524.094 283C520.76 283 517.827 282.8 515.294 282.4C512.894 282.133 510.76 281.8 508.894 281.4V257.8C510.36 258.067 512.094 258.333 514.094 258.6C516.227 258.867 518.427 259 520.694 259C524.827 259 528.36 258.133 531.294 256.4C534.36 254.667 536.894 252.267 538.894 249.2C540.894 246.267 542.494 243.067 543.694 239.6L545.494 234.2L502.094 125.8ZM817.22 125.8V235H787.42V125.8H817.22ZM802.42 83C806.82 83 810.62 84.0667 813.82 86.2C817.02 88.2 818.62 92 818.62 97.6C818.62 103.067 817.02 106.867 813.82 109C810.62 111.133 806.82 112.2 802.42 112.2C797.887 112.2 794.02 111.133 790.82 109C787.754 106.867 786.22 103.067 786.22 97.6C786.22 92 787.754 88.2 790.82 86.2C794.02 84.0667 797.887 83 802.42 83ZM924.558 202.6C924.558 209.933 922.824 216.2 919.358 221.4C915.891 226.467 910.691 230.333 903.758 233C896.824 235.667 888.224 237 877.958 237C870.358 237 863.824 236.467 858.358 235.4C852.891 234.467 847.424 232.867 841.958 230.6V206C847.824 208.667 854.158 210.867 860.958 212.6C867.758 214.333 873.758 215.2 878.958 215.2C884.824 215.2 888.958 214.333 891.358 212.6C893.891 210.867 895.158 208.6 895.158 205.8C895.158 203.933 894.624 202.267 893.558 200.8C892.624 199.333 890.491 197.667 887.158 195.8C883.824 193.933 878.624 191.533 871.558 188.6C864.758 185.667 859.158 182.8 854.758 180C850.358 177.067 847.091 173.6 844.958 169.6C842.824 165.467 841.758 160.333 841.758 154.2C841.758 144.067 845.691 136.467 853.558 131.4C861.424 126.333 871.891 123.8 884.958 123.8C891.758 123.8 898.224 124.467 904.358 125.8C910.491 127.133 916.824 129.333 923.358 132.4L914.358 153.8C910.758 152.2 907.291 150.8 903.958 149.6C900.624 148.4 897.358 147.467 894.158 146.8C891.091 146.133 887.891 145.8 884.558 145.8C880.158 145.8 876.824 146.4 874.558 147.6C872.424 148.8 871.358 150.6 871.358 153C871.358 154.733 871.891 156.333 872.958 157.8C874.158 159.133 876.358 160.6 879.558 162.2C882.891 163.8 887.758 165.933 894.158 168.6C900.424 171.133 905.824 173.8 910.358 176.6C914.891 179.267 918.358 182.667 920.758 186.8C923.291 190.8 924.558 196.067 924.558 202.6ZM993.772 213.2C997.105 213.2 1000.31 212.867 1003.37 212.2C1006.44 211.533 1009.51 210.733 1012.57 209.8V232C1009.37 233.333 1005.37 234.467 1000.57 235.4C995.905 236.467 990.772 237 985.172 237C978.639 237 972.772 235.933 967.572 233.8C962.505 231.667 958.439 228 955.372 222.8C952.439 217.467 950.972 210.133 950.972 200.8V148.2H936.772V135.6L953.172 125.6L961.772 102.6H980.772V125.8H1011.37V148.2H980.772V200.8C980.772 204.933 981.972 208.067 984.372 210.2C986.772 212.2 989.905 213.2 993.772 213.2Z" fill="#3E314B"/>
<path d="M669.144 260.001C671.433 260.018 673.7 260.495 675.836 261.408C677.131 261.851 678.333 262.576 679.372 263.542C680.41 264.508 681.264 265.695 681.882 267.032C682.5 268.37 682.871 269.831 682.972 271.33C683.073 272.829 682.902 274.335 682.47 275.76C680.682 283.735 673.317 293.033 663.972 293.907C661.194 294.204 658.391 293.788 655.781 292.692C654.066 292.027 652.585 290.778 651.549 289.123C650.513 287.469 649.975 285.493 650.012 283.479C649.685 274.672 656.107 262.773 665.51 260.449C666.701 260.137 667.921 259.987 669.144 260.001Z" fill="#3E314B"/>
<path d="M739.144 260.001C741.433 260.018 743.7 260.495 745.836 261.408C747.131 261.851 748.333 262.576 749.372 263.542C750.41 264.508 751.264 265.695 751.882 267.032C752.5 268.37 752.871 269.831 752.972 271.33C753.073 272.829 752.902 274.335 752.47 275.76C750.682 283.735 743.317 293.033 733.972 293.907C731.194 294.204 728.391 293.788 725.781 292.692C724.066 292.027 722.585 290.778 721.549 289.123C720.513 287.469 719.975 285.493 720.012 283.479C719.685 274.672 726.107 262.773 735.51 260.449C736.701 260.137 737.921 259.987 739.144 260.001Z" fill="#3E314B"/>
<path d="M758.961 204.098C759.013 203.835 759.013 203.563 758.961 203.3C758.854 202.825 758.576 202.412 758.185 202.149C757.951 202.022 757.693 201.954 757.43 201.95H754.221C709.946 202.127 677.605 202.171 673.788 201.95C673.138 201.993 672.486 201.892 671.875 201.651C671.264 201.411 670.708 201.037 670.244 200.555C669.857 199.942 669.611 199.243 669.524 198.513C669.436 197.783 669.511 197.042 669.74 196.347L683.436 131.488L683.562 130.868C684.443 126.727 685.198 122.542 685.24 122.342C685.702 120.915 685.95 119.421 685.974 117.913C686.083 116.398 685.904 114.874 685.446 113.433C684.989 111.991 684.262 110.661 683.31 109.521C681.856 108.082 680.032 107.127 678.067 106.775H677.731C676.431 106.598 671.88 106.31 654.178 106C653.821 107.727 653.234 110.739 652.458 114.503C652.458 114.503 650.361 123.914 648.536 132.816C643.586 156.156 638.762 179.518 633.855 202.858C632.441 208.335 632.788 214.152 634.84 219.399C639.748 230.825 648.767 236.184 660.155 237.336C661.896 237.513 663.301 237.646 664.832 237.756C674.711 237.756 684.925 238 684.925 238C708.604 238 745.056 236.871 747.426 237.048C747.928 237.1 748.434 237.1 748.936 237.048C749.381 237.041 749.818 236.927 750.215 236.716C750.478 236.524 750.701 236.278 750.87 235.992C751.04 235.707 751.152 235.388 751.201 235.055C756.256 215.325 758.794 205.515 758.961 204.098Z" fill="#3E314B"/>
<path d="M694.656 106C694.464 104.226 693.897 102.499 692.984 100.911C692.029 99.6381 690.743 98.5875 689.234 97.8483C687.724 97.1091 686.036 96.7032 684.313 96.6648C677.19 96.4085 670.046 96.4085 662.924 96.6648C659.682 96.6648 656.441 96.6647 653.199 96.5183C646.664 96.2965 640.438 93.9887 635.669 90.0198C630.901 86.0509 627.91 80.6881 627.248 74.919C627.041 72.7774 627.248 70.6175 627 68.4575C627 67.4325 627.33 67.0664 628.466 67.0847C642.195 67.286 655.925 66.5539 669.613 67.4874C675.714 67.7649 681.628 69.4495 686.769 72.3747C690.672 74.4876 693.793 77.5661 695.748 81.2313C697.704 84.8965 698.407 88.9886 697.774 93.0039C697.031 97.3877 695.99 101.728 694.656 106Z" fill="#80AAA0"/>
</svg>
