<svg id="Capa_1" data-name="Capa 1" xmlns="http://www.w3.org/2000/svg" viewBox="0 0 2032 2032"><defs><style>.cls-1{fill:#fecb31;}.cls-2{fill:#feca2c;}.cls-3{fill:#fea817;}.cls-4{fill:#fea511;}.cls-5{fill:#f79c13;}.cls-6{fill:#ed7d12;}.cls-7{fill:#f4b436;}.cls-8{fill:#fdd75f;}.cls-9{fill:#f59911;}.cls-10{fill:#f58410;}</style></defs><path class="cls-1" d="M1292.09,730.82l.67,4c-2.51,2-1.54,3.3.77,4.41,8.06,48.8,16.22,97.6,24.16,146.42q14.63,89.77,28.94,179.59a19,19,0,0,1,0,3.11c-4.84-6.29-8.44-4.63-13.64.57q-197.25,197.71-394.88,395c-5.46,5.44-10.63,11-14.5,17.72-19.88-10.66-39.92-21.06-59.61-32-49.81-27.81-99.6-55.66-149.11-84-21.4-12.25-43.87-22.67-64.06-37,3.1-2.8,6.32-5.47,9.28-8.42q293.6-293.55,587.16-587.13c2.47-2.47,5-4.92,7.42-7.4,3.89-3.92,8.62-5.13,14.08-5.86C1279.22,718.49,1285.66,724.34,1292.09,730.82Z"/><path class="cls-2" d="M923.61,1481.73c3.87-6.69,9-12.28,14.5-17.72Q1135.66,1266.6,1333,1069c5.2-5.2,8.8-6.86,13.64-.57.18,1.44.35,2.87.52,4.3-2.5,3.35-3.36,6.39,1.59,8.32.15,1.43.3,2.85.46,4.28-2.32,4-4,7.87,1.87,10.4.13,1.42.26,2.83.38,4.25-2.6,3.41-3.49,6.48,1.68,8.34l.42,4.24c-2.59,3.38-3.48,6.43,1.59,8.35l.48,4.25c-2.61,3.35-3.45,6.37,1.52,8.34.18,1.42.35,2.84.52,4.26-2.53,3.35-3.38,6.39,1.58,8.32.15,1.43.31,2.86.46,4.28-2.44,3.34-3.3,6.37,1.58,8.31q.35,3.16.67,6.33c-2.76,2.62-2.34,4.75,1,6.45a7.93,7.93,0,0,1,1.14,6.14c-2.62,3.39-3.51,6.44,1.59,8.35.16,1.42.31,2.84.47,4.25-2.63,3.35-3.46,6.38,1.52,8.34.18,1.42.35,2.84.52,4.26-2.55,3.36-3.39,6.4,1.58,8.33l.45,4.28c-2.45,3.34-3.3,6.38,1.61,8.31q.32,3.16.65,6.33c-2.77,2.62-2.35,4.75,1,6.44a7.87,7.87,0,0,1,1.12,6.15c-2.51,2.48-2.74,4.59,1,6.05,1.4,2,1.37,4.26,1.09,6.55-2.64,3.35-3.47,6.38,1.52,8.34l.72,6.3c-3,2.85-2.78,5,1.37,6.29.15,1.42.31,2.85.47,4.27-2.47,3.35-3.33,6.38,1.59,8.32l.63,6.33c-2.8,2.8-2.63,5,1.37,6.26l.75,6.32c-2.52,2.47-2.75,4.58,1,6.06,1.42,2,1.38,4.25,1.1,6.54-2.32,1.6-1.84,4-1.86,6.32-26.55,16.71-54.49,31-81.89,46.15q-74.53,41.31-148.94,82.84-49.29,27.53-98.37,55.42c-21.63,12.25-44.18,18.06-67.81,7A512,512,0,0,1,923.61,1481.73Z"/><path class="cls-3" d="M834.76,556.81l2.86,6c1.53,8.43,4.09,16.29,11.8,21.3l2.86,6c1.5,8,3.77,15.58,11,20.54l0,.07c-.63,2.61.22,4.3,3,4.82,1,2,1.91,4,2.86,6,1.52,8.43,4.09,16.29,11.79,21.31l2.85,6c1.52,8,3.77,15.58,11,20.51l.06.09c-.65,2.6.17,4.3,2.93,4.84,1,2,1.92,4,2.89,6a30.59,30.59,0,0,0,11.78,21.33q1.43,3,2.86,6c.63,6.7,2.6,12.68,8.79,16.4l.05.09c-.38,1.92-.32,3.6,2.13,4l.1.11c.14,1.06-2.1,3.41,1.43,2.65l2.18,4.06-.66,2.08c-5.61-2.84-6.54,2.2-8.15,5.2q-40.36,75.08-80.5,150.29c-18.71,35.08-37.89,69.92-55.68,105.47-33,65.83-68.89,130.07-103.13,195.21-7.64,14.56-16,28.75-24,43.12q15.81-102.42,31.65-204.83,22.71-145.88,45.61-291.71Q752,631.63,769,523.55a13.65,13.65,0,0,1,1.16-2.89c1.59-.27,1.88-.9.54-2l1.95-4.08a55.46,55.46,0,0,0,5.71-2.08c15.83-7.73,23.66-5.86,34.21,8.45,1.44,2,2.64,4,5.34,4.38q1.43,3,2.86,6C823,541.2,826.14,550.51,834.76,556.81Z"/><path class="cls-4" d="M1055.15,695.26q1.39,3,2.81,6c1.34,8.1,3.89,15.57,10.86,20.72a2.46,2.46,0,0,1,1,1.57c-.78,1.38-.36,2.2,1.15,2.53a2.45,2.45,0,0,1,1,1.44c-.44,5.3,1.56,9.29,6.32,11.81a4.89,4.89,0,0,1,.64,1.82c1.38,8.08,4,15.52,10.87,20.72a2.43,2.43,0,0,1,1,1.54c-.76,1.37-.35,2.21,1.14,2.57a2.36,2.36,0,0,1,1,1.4c.94,7.55,3.77,14.13,9.85,19,0,0,.27.31.26.31a16.11,16.11,0,0,0,7.72,15,2.45,2.45,0,0,1,1,1.53c-.72,1.36-.3,2.2,1.16,2.59a2.51,2.51,0,0,1,1,1.6c-.76,1.37-.35,2.19,1.17,2.48a2.49,2.49,0,0,1,1,1.48c-.42,5.29,1.58,9.28,6.32,11.8A4.89,4.89,0,0,1,1123,825l.33,6.12c-3.39,3-6.93,5.78-10.13,8.93q-41.35,40.7-82.59,81.48a22.66,22.66,0,0,1-2.53-3.22c-22.21-42.16-44.15-84.46-66.74-126.42-5.2-9.66-8.89-20.42-17.12-28.31l.28-5.75,1.77-2.34c7-5.14,9.51-12.62,10.87-20.72a5.5,5.5,0,0,1,.65-1.79c4.75-2.53,6.82-6.47,6.27-11.81a2.38,2.38,0,0,1,1-1.48c1.55-.28,2-1.1,1.17-2.48a2.46,2.46,0,0,1,1-1.66c1.52-.32,1.94-1.15,1.18-2.53a2.35,2.35,0,0,1,1-1.58c7.23-6.13,10.89-14.11,12.12-23.35l.19-.19c4.49-2.24,6.05-6,5.51-10.78a2.38,2.38,0,0,1,1-1.5c1.56-.26,2-1.08,1.18-2.46a2.48,2.48,0,0,1,1-1.66c2.43-.22,3.68-1.92,4.52-3.87,4.2-9.72,11.79-15,22.1-14.54,10.64.49,17.7,6.94,22.39,16.51,2.19,4.47,2.83,10.35,8.61,12.45a2.38,2.38,0,0,1,1,1.58c-.78,1.38-.37,2.2,1.17,2.49a2.51,2.51,0,0,1,1,1.48C1049.93,691.51,1051.49,694,1055.15,695.26Z"/><path class="cls-5" d="M657.82,1236.26c8-14.37,16.35-28.56,24-43.12C716.05,1128,752,1063.76,784.94,997.93c17.79-35.55,37-70.39,55.68-105.47q40.11-75.23,80.5-150.29c1.61-3,2.54-8,8.15-5.2,1.79,3.13,1.89,7.53,6.46,8.54a7.66,7.66,0,0,1,.75,1.71c-.3,1.92-.06,3.55,2.2,4.1a2.65,2.65,0,0,1,1.05,1.62c-.76,1.35-.36,2.14,1.14,2.4l1.79,2.5q.14,2.92.29,5.83c-3.05,1.48-4.39,4.32-5.87,7.12q-49.5,93.83-99,187.63c-26.42,50.32-52.48,100.82-78.79,151.2-8.07,15.44-16.56,30.66-24.64,46.09q-31.5,60.15-62.79,120.4c-3.17,5.63-5.76,11.7-9.66,16.76-4.37,5.67-4.59,14.74-13.39,16.83-.65-.69-1.3-1.39-1.94-2.09-.24-3-.37-5.93,1.47-8.54,3.25-1.65,3.07-3.75.78-6.11l.48-4.25c4.95-2,4-5,1.57-8.35.14-1.42.29-2.83.43-4.24,5.63-2.62,4-6.48,1.77-10.43.2-1.41.39-2.83.59-4.24,4-1.39,4.11-3.54,1.24-6.28l.7-6.31c4.12-1.32,4.33-3.48,1.35-6.31Q657.51,1239.4,657.82,1236.26Z"/><path class="cls-6" d="M648.79,1309.7c8.8-2.09,9-11.16,13.39-16.83,3.9-5.06,6.49-11.13,9.66-16.76,6.33.88,9.27-4.08,12.87-7.67Q853,1100.23,1021.27,932c2.94-2.94,6.21-5.55,9.33-8.32q3.32,5.42,6.62,10.85c-1.11,1.33-2.13,2.76-3.35,4Q844.2,1129,654.54,1319.44c-2.92,2.93-6.91,4.9-8.52,9.06l-2.17-2.69q1-5.93,2.08-11.84C648.23,1313.45,648.74,1311.73,648.79,1309.7Z"/><path class="cls-7" d="M643.85,1325.81l2.18,2.69,4.8.19c20.19,14.34,42.66,24.76,64.06,37,49.51,28.32,99.3,56.17,149.11,84,19.69,11,39.73,21.39,59.61,32A512,512,0,0,0,988.24,1518c23.63,11,46.18,5.23,67.81-7q49.13-27.83,98.37-55.42,74.38-41.55,148.94-82.84c27.4-15.2,55.34-29.44,81.89-46.15l3-.41c3.21,5.95-1.85,7.13-5.33,9.07Q1252,1408.07,1121.1,1480.9c-22.89,12.73-45.84,25.34-68.64,38.23-24.89,14.07-49.7,14.57-74.74.52q-164-92.06-328-184.14C646.3,1333.55,640.23,1332.42,643.85,1325.81Z"/><path class="cls-8" d="M650.83,1328.69l-4.8-.19c1.6-4.16,5.59-6.13,8.51-9.06q189.62-190.51,379.33-380.93c1.22-1.23,2.24-2.66,3.35-4q44.22-43.92,88.49-87.81a12.2,12.2,0,0,0,3.84-9.3c5.58,4.08,7.3-1.83,9.73-4.24,37.6-37.34,75-74.94,112.55-112.27,15.08-15,35-9.86,40.26,9.93-6.43-6.48-12.87-12.33-23.32-10.94-5.46.73-10.19,1.94-14.08,5.86-2.46,2.48-5,4.93-7.42,7.4q-293.58,293.58-587.16,587.13C657.15,1323.22,653.93,1325.89,650.83,1328.69Z"/><path class="cls-9" d="M1129.55,837.4a12.2,12.2,0,0,1-3.84,9.3q-44.34,43.81-88.49,87.81l-6.62-10.84v-2.11q41.28-40.75,82.59-81.48c3.2-3.15,6.74-6,10.12-8.93l3.32.41Z"/><path class="cls-8" d="M1047.85,682.08c-5.78-2.1-6.42-8-8.61-12.45-4.69-9.57-11.75-16-22.39-16.51-10.31-.47-17.9,4.82-22.1,14.54-.84,2-2.09,3.65-4.52,3.87,7.86-24,27.64-32.28,42.39-17.42C1040.29,661.84,1044.56,671.78,1047.85,682.08Z"/><path class="cls-8" d="M817.93,525.36c-2.7-.35-3.9-2.42-5.34-4.38-10.55-14.31-18.38-16.18-34.21-8.45a55.46,55.46,0,0,1-5.71,2.08c7.09-13.32,22.08-16.56,33.7-7.19A34.55,34.55,0,0,1,817.93,525.36Z"/><path class="cls-8" d="M834.76,556.81c-8.62-6.3-11.75-15.61-14-25.42C827.31,538.84,831.07,547.8,834.76,556.81Z"/><path class="cls-8" d="M981.45,688.12c-1.23,9.24-4.89,17.22-12.12,23.35C971.92,702.93,975.65,695,981.45,688.12Z"/><path class="cls-8" d="M849.42,584.09c-7.71-5-10.27-12.87-11.8-21.3C843.4,568.87,846.31,576.53,849.42,584.09Z"/><path class="cls-8" d="M880.9,642.83c-7.7-5-10.27-12.88-11.79-21.31C874.88,627.6,877.79,635.27,880.9,642.83Z"/><path class="cls-8" d="M863.24,610.64c-7.19-5-9.46-12.54-11-20.54C857.77,596,861,603,863.24,610.64Z"/><path class="cls-8" d="M894.73,669.35c-7.21-4.93-9.46-12.52-11-20.51C889.26,654.69,892.45,661.78,894.73,669.35Z"/><path class="cls-8" d="M912.39,701.56a30.59,30.59,0,0,1-11.78-21.33C906.31,686.36,909.31,694,912.39,701.56Z"/><path class="cls-8" d="M957.14,734.8c-1.36,8.1-3.87,15.58-10.87,20.72C948.43,747.85,951.7,740.75,957.14,734.8Z"/><path class="cls-8" d="M1068.82,722c-7-5.15-9.52-12.62-10.86-20.72C1063.38,707.19,1066.68,714.27,1068.82,722Z"/><path class="cls-8" d="M1089.78,761.84c-6.89-5.2-9.49-12.64-10.87-20.72C1084.35,747.07,1087.65,754.14,1089.78,761.84Z"/><path class="cls-8" d="M924,724c-6.19-3.72-8.16-9.7-8.79-16.4C920.05,712,922.42,717.79,924,724Z"/><path class="cls-8" d="M1110.73,801.72a16.11,16.11,0,0,1-7.72-15A28.45,28.45,0,0,1,1110.73,801.72Z"/><path class="cls-8" d="M1102.75,786.37c-6.08-4.89-8.91-11.47-9.85-19A55.32,55.32,0,0,1,1102.75,786.37Z"/><path class="cls-8" d="M935.73,745.51c-4.57-1-4.67-5.41-6.46-8.54l.66-2.08A14.44,14.44,0,0,1,935.73,745.51Z"/><path class="cls-8" d="M1078.27,739.3c-4.76-2.52-6.76-6.51-6.32-11.81A25.21,25.21,0,0,1,1078.27,739.3Z"/><path class="cls-8" d="M1122.35,823.2c-4.74-2.52-6.74-6.51-6.32-11.8A25.49,25.49,0,0,1,1122.35,823.2Z"/><path class="cls-1" d="M1351.07,1095.69c-5.82-2.53-4.19-6.4-1.87-10.4C1350.12,1088.7,1351.72,1092,1351.07,1095.69Z"/><path class="cls-3" d="M653.35,1265.69c2.21,4,3.86,7.81-1.77,10.43Z"/><path class="cls-8" d="M964.06,721.2c.55,5.34-1.52,9.28-6.27,11.81A24.73,24.73,0,0,1,964.06,721.2Z"/><path class="cls-8" d="M987.15,677.15c.54,4.81-1,8.54-5.51,10.78A18.77,18.77,0,0,1,987.15,677.15Z"/><path class="cls-3" d="M651.15,1280.36c2.46,3.34,3.38,6.4-1.57,8.35C649,1285.72,650.1,1283,651.15,1280.36Z"/><path class="cls-1" d="M1378.14,1263.53c-5-2-4.16-5-1.52-8.34C1377.13,1258,1377.63,1260.75,1378.14,1263.53Z"/><path class="cls-1" d="M1382.29,1288.71c-4.92-1.94-4.06-5-1.59-8.32Z"/><path class="cls-1" d="M1348.74,1081c-5-1.93-4.09-5-1.59-8.32Z"/><path class="cls-1" d="M1353.13,1108.28c-5.17-1.86-4.28-4.93-1.68-8.34Z"/><path class="cls-1" d="M1359.24,1146c-5-1.93-4.11-5-1.58-8.32C1358.19,1140.49,1358.71,1143.27,1359.24,1146Z"/><path class="cls-1" d="M1355.14,1120.87c-5.07-1.92-4.18-5-1.59-8.35Z"/><path class="cls-1" d="M1357.14,1133.46c-5-2-4.13-5-1.52-8.34Q1356.37,1129.29,1357.14,1133.46Z"/><path class="cls-1" d="M1365.65,1185.9c-5.1-1.91-4.21-5-1.59-8.35Z"/><path class="cls-1" d="M1361.28,1158.63c-4.88-1.94-4-5-1.58-8.31C1360.23,1153.09,1360.75,1155.86,1361.28,1158.63Z"/><path class="cls-1" d="M1367.64,1198.49c-5-2-4.15-5-1.52-8.34C1366.63,1192.93,1367.13,1195.71,1367.64,1198.49Z"/><path class="cls-1" d="M1369.74,1211.08c-5-1.93-4.13-5-1.58-8.33C1368.69,1205.53,1369.21,1208.31,1369.74,1211.08Z"/><path class="cls-1" d="M1371.8,1223.67c-4.91-1.93-4.06-5-1.61-8.31C1370.73,1218.13,1371.26,1220.9,1371.8,1223.67Z"/><path class="cls-3" d="M657.23,1242.55c3,2.83,2.77,5-1.35,6.31A8.13,8.13,0,0,1,657.23,1242.55Z"/><path class="cls-3" d="M655.18,1255.17c2.87,2.74,2.74,4.89-1.24,6.28A7.14,7.14,0,0,1,655.18,1255.17Z"/><path class="cls-8" d="M1055.15,695.26c-3.66-1.3-5.22-3.75-4.16-7.63A11.69,11.69,0,0,1,1055.15,695.26Z"/><path class="cls-8" d="M1126.64,831.56l-3.32-.41q-.15-3.06-.32-6.12A6.68,6.68,0,0,1,1126.64,831.56Z"/><path class="cls-1" d="M1380.23,1276.12c-4.15-1.3-4.39-3.44-1.37-6.29C1380,1271.78,1380.8,1273.8,1380.23,1276.12Z"/><path class="cls-1" d="M1384.29,1301.3c-4-1.31-4.17-3.46-1.37-6.26C1383.38,1297.13,1383.83,1299.21,1384.29,1301.3Z"/><path class="cls-3" d="M648.79,1309.7c0,2-.56,3.75-2.86,4.27q.45-3.18.92-6.36C647.49,1308.31,648.14,1309,648.79,1309.7Z"/><path class="cls-8" d="M1293.53,739.27c-2.31-1.11-3.28-2.45-.77-4.41C1294,736.16,1294.5,737.58,1293.53,739.27Z"/><path class="cls-8" d="M866.25,615.53c-2.75-.52-3.6-2.21-3-4.82A5.38,5.38,0,0,1,866.25,615.53Z"/><path class="cls-8" d="M897.72,674.28c-2.76-.54-3.58-2.24-2.93-4.84A5.43,5.43,0,0,1,897.72,674.28Z"/><path class="cls-8" d="M943,763.67q-.15-2.91-.29-5.83a3.7,3.7,0,0,1,1.84,0c-.09,1.92-.19,3.83-.28,5.75A2.49,2.49,0,0,1,943,763.67Z"/><path class="cls-1" d="M1375.53,1248.64c-3.73-1.46-3.5-3.57-1-6.05Z"/><path class="cls-1" d="M1362.92,1171.41c-3.31-1.7-3.73-3.83-1-6.45Q1362.45,1168.19,1362.92,1171.41Z"/><path class="cls-1" d="M1373.42,1236.44c-3.32-1.69-3.74-3.82-1-6.44C1372.77,1232.15,1373.1,1234.3,1373.42,1236.44Z"/><path class="cls-1" d="M1386,1313.68c-3.72-1.48-3.49-3.59-1-6.06Q1385.52,1310.65,1386,1313.68Z"/><path class="cls-1" d="M1388.24,1326.13l-3,.41c0-2.29-.46-4.72,1.86-6.32Q1387.68,1323.18,1388.24,1326.13Z"/><path class="cls-3" d="M649.1,1293c2.29,2.36,2.47,4.46-.78,6.11Z"/><path class="cls-8" d="M927.75,730.83c-3.53.76-1.29-1.59-1.43-2.65Z"/><path class="cls-8" d="M938.68,751.32c-2.26-.55-2.5-2.18-2.2-4.1C938.28,748,938.62,749.59,938.68,751.32Z"/><path class="cls-8" d="M926.22,728.07c-2.45-.42-2.51-2.1-2.13-4C925.76,724.87,926.12,726.4,926.22,728.07Z"/><path class="cls-8" d="M770.72,518.69c1.34,1.07,1,1.7-.54,2Z"/><path class="cls-8" d="M989.28,673.19c.78,1.38.38,2.2-1.18,2.46Z"/><path class="cls-8" d="M968.36,713.05c.76,1.38.34,2.21-1.18,2.53Z"/><path class="cls-8" d="M966.2,717.24c.78,1.38.38,2.2-1.17,2.48Z"/><path class="cls-8" d="M1112.88,805.84c-1.46-.39-1.88-1.23-1.16-2.59C1112.11,804.11,1112.5,805,1112.88,805.84Z"/><path class="cls-8" d="M1115.08,809.92c-1.52-.29-1.93-1.11-1.17-2.48C1114.31,808.27,1114.69,809.09,1115.08,809.92Z"/><path class="cls-8" d="M940.87,755.34c-1.5-.26-1.9-1.05-1.14-2.4C940.12,753.74,940.49,754.54,940.87,755.34Z"/><path class="cls-8" d="M1071,726.05c-1.51-.33-1.93-1.15-1.15-2.53Z"/><path class="cls-8" d="M1091.93,766c-1.49-.36-1.9-1.2-1.14-2.57Z"/><path class="cls-8" d="M1050,686.15c-1.54-.29-2-1.11-1.17-2.49C1049.26,684.49,1049.64,685.32,1050,686.15Z"/><path class="cls-10" d="M943,763.67a2.49,2.49,0,0,0,1.27-.06c8.23,7.89,11.92,18.65,17.12,28.31,22.59,42,44.53,84.26,66.74,126.42a22.66,22.66,0,0,0,2.53,3.22c0,.7,0,1.41,0,2.11-3.12,2.77-6.39,5.38-9.33,8.32Q853,1100.2,684.71,1268.44c-3.6,3.59-6.54,8.55-12.87,7.67q31.38-60.21,62.79-120.4c8.08-15.43,16.57-30.65,24.64-46.09,26.31-50.38,52.37-100.88,78.79-151.2q49.32-93.92,99-187.63C938.56,768,939.9,765.15,943,763.67Z"/></svg>