<svg id="Capa_1" data-name="Capa 1" xmlns="http://www.w3.org/2000/svg" viewBox="0 0 2032 2032"><defs><style>.cls-1{fill:#e4a127;}.cls-2{fill:#101011;}.cls-3{fill:#f0be26;}.cls-4{fill:#eaecec;}.cls-5{fill:#f0be28;}.cls-6{fill:#fff;}</style></defs><path class="cls-1" d="M1016.66,624.81q222.41,0,444.8,0c9.4,0,9.79-2.18,9.13,9.57-.88,15.93-2.32,31.83-3.66,47.73-1.68,19.83-3.5,39.64-5.26,59.45q-2.67,30.07-5.35,60.15c-1.12,12.71-2.16,25.44-3.28,38.15-2.41,27.15-4.89,54.29-7.24,81.45-2.17,24.95-4.12,49.93-6.32,74.89-2.18,24.7-4.6,49.38-6.81,74.08-1.73,19.32-3.25,38.65-5,58-1.75,19.8-3.66,39.6-5.44,59.4-1.63,18.1-3.17,36.21-4.78,54.31q-2.64,29.71-5.34,59.41c-1.66,18.59-3.27,37.18-4.94,55.77q-3.54,39.24-7.13,78.49c-1.63,18.09-3.1,36.2-4.79,54.28-1.83,19.56-4,39.1-5.68,58.67-.34,3.83-2.27,5.69-5.34,7.12-8.28,3.84-17,6.51-25.66,9.16-53.33,16.23-107.13,30.8-160.85,45.64-58.45,16.16-116.9,32.33-175.6,47.56a35,35,0,0,1-18.65-.33c-74.68-20.18-149.13-41.16-223.63-62q-65.26-18.22-130.49-36.62c-6.47-1.82-6.51-1.82-7.07-8.16q-4.3-48.4-8.57-96.83-4.49-50.62-9-101.24-4.25-47.29-8.58-94.59c-3.29-35.94-6.7-71.86-9.9-107.8-2.32-25.92-4.29-51.87-6.58-77.79-2.12-24-4.55-47.9-6.68-71.87-2.75-31-5.31-62.12-8-93.18-2.45-28.37-4.81-56.75-7.47-85.1-3.24-34.47-6.35-68.94-9.07-103.45-2-25.45-4.55-50.86-6.61-76.31-.47-5.76-1.42-11.67.6-17.4,5.3-1.37,10.71-.61,16-.61Q797.58,624.76,1016.66,624.81Zm-3.54,715.38a15.68,15.68,0,0,1-6.51-.63c-37.61-9.49-74.93-20-112.39-30.08-4.22-1.14-6.06-3.33-6.4-7.57q-2.18-27.54-4.62-55.06c-.72-8.06-1.91-16.09-2.46-24.16-.28-4-2.09-5-5.61-4.72-1.46.13-3,0-4.42,0-32,0-63.92-.1-95.88,0-11.86,0-11.21-2.71-10.48,11,1.44,27.2,3.95,54.33,6.6,81.45,2.5,25.66,5.14,51.29,8.89,76.79,1.66,11.26,1.68,11.32,12.74,14.59,50.61,14.95,101.48,29,152.33,43.15q32.63,9.07,65.28,18c4.49,1.26,7,3.76,5.93,8.85a19.18,19.18,0,0,0,0,4.42c.56,32.38-1.34,64.81,1.42,97.17.52,6.07.6,6.48,6.44,5q31.21-8.13,62.38-16.45c12.73-3.42,25.37-7.17,38.08-10.69,27.07-7.52,54.17-14.94,81.23-22.51q33.16-9.28,66.26-18.84c12.93-3.75,25.76-7.87,38.66-11.72,3.68-1.1,6-3.21,6.42-7.11,1-10.44,2.36-20.87,2.9-31.34.37-7.09,1.34-14.14,2.07-21.16.56-5.33.55-10.73,1.35-16,1-6.74,2.2-13.51,2.48-20.3.28-7.11,1.18-14.17,2-21.17,1.67-14.8,2.08-29.71,4.18-44.44,1-7.07.74-14.19,1.7-21.19,1.93-14,3.24-28.11,4.09-42.24a33.29,33.29,0,0,1,.51-5.84c1.55-6.2,1.74-12.63,2.13-18.87.5-8.06,1.61-16.07,2.14-24.11.41-6.31.66-12.69,1.3-19,1.28-12.61,3.57-25.17,4-37.8.46-13.23,2.91-26.22,3.57-39.43.3-6,.25-12.25,1.48-18.23,1.64-7.94,1.59-16,2.32-24,.72-7.77,1.49-15.59,2.16-23.36.49-5.82.33-11.75,1.37-17.52a176.19,176.19,0,0,0,2.43-25.47c.28-8.34,1.16-16.65,2.06-24.85,1.44-13.09,2.33-26.24,3.76-39.32,1.19-10.9,2-21.87,3-32.8,1.52-15.79,3.29-31.58,4.28-47.39.94-14.88,3.57-29.64,3.3-44.6a34.26,34.26,0,0,1,.45-4.37c.82-7.76,2-15.5,2.36-23.28.36-8.81,1.38-17.56,1.92-26.35.69-11.42,2.65-22.79,2.63-34.3a20.4,20.4,0,0,1,.24-3.67c1.78-10.13,2-20.41,2.57-30.63s.86-9.4-9.58-9.4H1025.61c-1.23,0-2.46,0-3.68,0-5.66.19-5.79.19-5.83,5.88-.09,12.54,0,25.08,0,37.62-15,.77-29.95,0-44.92-.1-36.12-.16-72.25-.53-108.37.47-15.23.42-30.47.34-45.71.64-3.91.07-7.81.79-11.72,1.06-3,.2-4.32,1.68-4.59,4.62-.94,10.26-2.06,20.51-3,30.77-1.62,17.1-3.16,34.2-4.74,51.29q-2.88,31.14-5.77,62.29c-1.23,13.19-2.49,26.37-3.69,39.57q-2.5,27.5-4.93,55c-1.67,19.07-3.24,38.15-4.9,57.22-1.83,21-3.73,42-5.55,63-1.27,14.66-2.27,29.35-3.74,44-1,10.23-1.29,10.21,9.07,10.21q113.92,0,227.84,0c4.9,0,9.82-.48,14.69.56,0,51.13.22,102.27-.15,153.4C1015.81,1324.18,1015.3,1332.36,1013.12,1340.19Z"/><path class="cls-2" d="M1094.66,496.89c-.08-2.85-2.36-4.25-3.89-6-20.8-23.91-42.33-47.15-64.1-70.16-5.4-5.71-8.4-11.37-7.72-19.42s.27-16.21.1-24.31c-.06-3.25,1.17-4.47,4.31-4.17,1.46.14,2.95,0,4.42,0h150a5.65,5.65,0,0,1,1.13,3.9c0,12.53-.11,25.07.07,37.59,0,3.54-1.1,4.59-4.61,4.65-20.63.33-41.26.87-61.88,1.39-2.15.06-4.41-.47-6.47.73-.63,2.5,1.58,3.43,2.79,4.73,22,23.79,44,47.65,66.28,71.16,4.91,5.17,7.39,10.29,6.91,17.51-.58,8.8-.23,17.68-.09,26.52,0,3.19-1.09,4.5-4.28,4.15a40.72,40.72,0,0,0-4.42,0H1028c-2,0-3.93,0-5.9,0-2.19,0-3-1.15-3-3.22q0-19.9,0-39.8c0-2.17.91-3.14,3-3.12,2,0,3.93,0,5.9,0,19.88-.12,39.78.46,59.65-.84C1090,498,1092.61,498.85,1094.66,496.89Z"/><path class="cls-2" d="M850.84,544.88a28.72,28.72,0,0,1-.51-3.74q0-24.67,0-49.37c0-5.11.13-5.2,5.31-5.21,23.33,0,46.67,0,70,0,8.49,0,7.62.86,7.63-7.35q.06-48.94,0-97.89c0-1.72.11-3.44,0-5.15-.14-2.65,1.23-3.41,3.62-3.3,2.21.11,4.42,0,6.63,0h46.89c1.65,2.33,1.09,4.61,1.09,6.76q0,79.22,0,158.43,0,2.21-.06,4.41c-.05,1.74-.88,2.69-2.72,2.64-1.22,0-2.45.06-3.68.06H855.38C853.93,545.15,852.48,545,850.84,544.88Z"/><path class="cls-3" d="M1016.06,742.18c0-12.54,0-25.08,0-37.62,0-5.69.17-5.69,5.83-5.88,1.22,0,2.45,0,3.68,0h352.55c10.44,0,10.12-.8,9.58,9.4s-.79,20.5-2.57,30.63a20.4,20.4,0,0,0-.24,3.67c0,11.51-1.94,22.88-2.63,34.3-.54,8.79-1.56,17.54-1.92,26.35-.32,7.78-1.54,15.52-2.36,23.28a34.26,34.26,0,0,0-.45,4.37c.27,15-2.36,29.72-3.3,44.6-1,15.81-2.76,31.6-4.28,47.39-1,10.93-1.85,21.9-3,32.8-1.43,13.08-2.32,26.23-3.76,39.32-.9,8.2-1.78,16.51-2.06,24.85a176.19,176.19,0,0,1-2.43,25.47c-1,5.77-.88,11.7-1.37,17.52-.67,7.77-1.44,15.59-2.16,23.36-.73,8-.68,16.08-2.32,24-1.23,6-1.18,12.22-1.48,18.23-.66,13.21-3.11,26.2-3.57,39.43-.44,12.63-2.73,25.19-4,37.8-.64,6.32-.89,12.7-1.3,19-.53,8-1.64,16-2.14,24.11-.39,6.24-.58,12.67-2.13,18.87a33.29,33.29,0,0,0-.51,5.84c-.85,14.13-2.16,28.21-4.09,42.24-1,7-.69,14.12-1.7,21.19-2.1,14.73-2.51,29.64-4.18,44.44-.79,7-1.69,14.06-2,21.17-.28,6.79-1.48,13.56-2.48,20.3-.8,5.32-.79,10.72-1.35,16-.73,7-1.7,14.07-2.07,21.16-.54,10.47-1.86,20.9-2.9,31.34-.39,3.9-2.74,6-6.42,7.11-12.9,3.85-25.73,8-38.66,11.72q-33.08,9.59-66.26,18.84c-27.06,7.57-54.16,15-81.23,22.51-12.71,3.52-25.35,7.27-38.08,10.69q-31.15,8.39-62.38,16.45c-5.84,1.52-5.92,1.11-6.44-5-2.76-32.36-.86-64.79-1.42-97.17a19.18,19.18,0,0,1,0-4.42c1.1-5.09-1.44-7.59-5.94-8.85a40.71,40.71,0,0,0,10.09-1.35c12.44-3.35,25-6.29,37.42-9.74,8.87-2.47,18-4.08,26.53-7.75l-.09-.13a25.69,25.69,0,0,0,7.9-1.39c24.24-6.78,48.5-13.46,72.72-20.31,4.89-1.38,10.09-2,14.45-5a2,2,0,0,0,2.07-.32c1.27.12,2.48.08,3.24-1.19l-.11.08c2.21,0,4.42,0,6.16-1.69l.56,0,.49-.27c1.26.15,2.44.11,3.22-1.12l-.11.07c2.16-.12,4.39,0,6.1-1.69l.59,0,.53-.27a2.36,2.36,0,0,0,2.37-1l.53.1c1.74-.06,3.5-.08,4.74-1.61l-.07.1c1.86,0,3.66-.1,5.07-1.54,9.77-1.52,18.75-5.8,28.25-8.16,5.33-1.32,7-4.57,7.47-9.35,2-20,4.21-40.06,6.08-60.11,2.7-28.85,5.12-57.72,7.73-86.57q4.16-45.84,8.45-91.68t8.67-91.66c1.11-11.51,1.13-11.89-10.76-12.44-15.22-.7-30.46-1.24-45.68-1.28q-100.68-.3-201.34-.28c-2.45,0-4.9-.16-7.35-.25l0-178.74c16.45.49,32.9.5,49.35,1.12,18.41.69,36.82,1.35,55.21,2.37,9,.51,18.12,1,27.11,2.47,3.59.6,5.06,2.13,5.44,5.62,1.35,12.43,3.1,24.83,4.32,37.28,2.23,22.71,4.75,45.4,6,68.2.11,2.12.47,3.93,3,4.33a2.92,2.92,0,0,0,3,1,107.51,107.51,0,0,0,19.79,1.52q42.42,0,84.82.05c1.23,0,2.46-.06,3.69,0,3.11.14,4.47-1.11,4.11-4.39-.7-6.35-1.17-12.72-1.73-19.07q-2.49-27.89-5-55.77-2.76-30.81-5.53-61.61c-1.15-13-2.18-25.94-3.35-38.9-1.74-19.3-3.67-38.59-5.29-57.91-1-11.64-.34-9.82-10.51-9.85q-91.08-.27-182.17-.35C1051,742.67,1033.51,742.36,1016.06,742.18Z"/><path class="cls-4" d="M1016.06,742.18c17.45.18,34.89.49,52.34.53q91.08.22,182.17.35c10.17,0,9.54-1.79,10.51,9.85,1.62,19.32,3.55,38.61,5.29,57.91,1.17,13,2.2,25.94,3.35,38.9q2.73,30.81,5.53,61.61,2.51,27.88,5,55.77c.56,6.35,1,12.72,1.73,19.07.36,3.28-1,4.53-4.11,4.39-1.23,0-2.46,0-3.69,0q-42.4,0-84.82-.05a107.51,107.51,0,0,1-19.79-1.52c2.36-2,5.18-1.12,7.8-1.13q46.46-.09,92.92,0c1.72,0,3.44.08,5.16,0,4.27-.25,5.39-1.34,4.49-5.45-2.52-11.5-3-23.28-3.81-34.89-1-13.64-3.36-27.15-3.63-40.9-.13-6.47-.85-13.14-1.6-19.69-.89-7.75-2.16-15.5-2.37-23.27-.21-7.61-1.13-15.18-2.08-22.63-1.14-9-1.05-18-2.23-27-1-7.45-1.53-15.07-2-22.63-.82-11.67-2.61-23.29-2.66-35.05,0-8.19-1.5-10-9.68-10.34-9.53-.43-19.11-1.18-28.58-1.26-66.12-.5-132.25-.29-198.37-.28-6.69,0-6.76.1-6.77,7.16q0,52.73,0,105.45c0,6.77.1,7,7.07,6.82,18.66-.57,37.21,2.55,55.87,1.56a9.59,9.59,0,0,1,2.21.07c14,2.55,28.31,1.3,42.44,2.64,8,.76,16,2.41,24.14,1.85,1.38-.09,2.81,1,4.24,1.07,3.09.18,3.69,2.08,4.54,4.67,1.85,5.58,0,11.39,1.36,16.78,2.3,9.16,1.22,18.51,2.3,27.74,1,8.41,1.82,17,2.22,25.57.26,5.77.81,11.68,1.56,17.49,1.06,8.22,2.77,16.38,2.49,24.74-2.51-.4-2.87-2.21-3-4.33-1.22-22.8-3.74-45.49-6-68.2-1.22-12.45-3-24.85-4.32-37.28-.38-3.49-1.85-5-5.44-5.62-9-1.52-18.08-2-27.11-2.47-18.39-1-36.8-1.68-55.21-2.37-16.45-.62-32.9-.63-49.35-1.12-2.06-2-4.65-1.16-7-1.1-7.11.17-14.22.66-21.34.87q-36.09,1.05-72.19,2c-7.2.19-7.44.17-8.17,7.29-2.28,22-4.39,43.95-6.5,65.93-1.22,12.7-2.3,25.42-3.47,38.12-1.86,20-3.8,40-5.57,60.07-.49,5.53-.08,5.75,5.51,5.92,1.48,0,3,0,4.43,0q51.24,0,102.48,0c2.94,0,5.88.24,8.82.37q0,53,0,106.09c0,6.62.1,6.62,6.43,6.75,1.47,0,2.94,0,4.42,0h123.77c2,0,3.93,0,5.89,0,3-.08,3.49,1,3,4a270.63,270.63,0,0,0-3.24,28.32c-.36,8.07-1.35,16.1-2.1,24.09-.59,6.32,0,12.78-1.42,19-1.59,7.21-1.91,14.58-2.26,21.79-.56,11.75-3.11,23.23-3.64,35-.13,3,.1,6.95-2.79,9.51,0-1-.06-2,0-2.92,1.94-19.76,4.08-39.5,5.81-59.27,2.09-23.92,3.67-47.89,7.26-71.66.48-3.12-.28-4.74-3.67-4.55-1.22.07-2.45,0-3.68,0q-61.85,0-123.68,0c-2.44,0-4.92-.33-7.29.55-4.87-1-9.79-.55-14.69-.56q-113.93-.06-227.84,0c-10.36,0-10.1,0-9.07-10.21,1.47-14.64,2.47-29.33,3.74-44,1.82-21,3.72-42,5.55-63,1.66-19.07,3.23-38.15,4.9-57.22q2.42-27.51,4.93-55c1.2-13.2,2.46-26.38,3.69-39.57q2.89-31.15,5.77-62.29c1.58-17.09,3.12-34.19,4.74-51.29,1-10.26,2.08-20.51,3-30.77.27-2.94,1.61-4.42,4.59-4.62,3.91-.27,7.81-1,11.72-1.06,15.24-.3,30.48-.22,45.71-.64,36.12-1,72.25-.63,108.37-.47C986.11,742.14,1001.08,743,1016.06,742.18Z"/><path class="cls-4" d="M1084.22,1444.27c-8.53,3.67-17.66,5.28-26.53,7.75-12.42,3.45-25,6.39-37.42,9.74a40.71,40.71,0,0,1-10.09,1.35q-32.64-9-65.27-18c-50.85-14.15-101.72-28.2-152.33-43.15-11.06-3.27-11.08-3.33-12.74-14.59-3.75-25.5-6.39-51.13-8.89-76.79-2.65-27.12-5.16-54.25-6.6-81.45-.73-13.75-1.38-11,10.48-11,32-.15,63.92,0,95.88,0,1.47,0,3,.11,4.42,0,3.52-.33,5.33.75,5.61,4.72.55,8.07,1.74,16.1,2.46,24.16q2.43,27.53,4.62,55.06c.34,4.24,2.18,6.43,6.4,7.57,37.46,10.06,74.78,20.59,112.39,30.08a39.32,39.32,0,0,0,13.72.06c8.28-2,16.56-4.1,24.89-5.89,8.09-1.73,15.83-4.94,24.16-5.57-1.94,2.66-5,2.72-7.81,3.46-14.64,3.93-29.26,8-43.95,11.7-3.28.83-4.56,2.45-4.49,5.59,0,1.72,0,3.44,0,5.16.58,32.89-1.32,65.8,1.41,98.66.59,7.1,1.27,8,8.59,6,15.84-4.18,31.63-8.58,47.48-12.71C1075,1444.89,1079.4,1442.67,1084.22,1444.27Z"/><path class="cls-5" d="M1069.39,1328.16c-8.34.63-16.08,3.84-24.17,5.57-8.33,1.79-16.61,3.86-24.89,5.89a15.76,15.76,0,0,1-7.21.57c2.18-7.83,2.69-16,2.74-23.94.37-51.13.17-102.27.15-153.4,2.37-.88,4.85-.55,7.29-.55q61.85,0,123.68,0c1.23,0,2.46.07,3.68,0,3.39-.19,4.15,1.43,3.67,4.55-3.59,23.77-5.17,47.74-7.26,71.66-1.73,19.77-3.87,39.51-5.81,59.27-.09,1,0,2,0,2.92a.63.63,0,0,0,0,.86,3.52,3.52,0,0,0-.86,3.47c-.78,2.78-3.21,3.38-5.49,4.24-3.17,1.19-6.66,1.44-9.62,3.25-1.25-.13-2.44-.1-3.21,1.13l.1-.08c-1.66,0-3.35,0-4.55,1.44l0-.09c-2.1.12-4.25,0-5.89,1.71l.08-.1c-1.66,0-3.36-.06-4.55,1.45l0-.1c-3.67.27-7.37.44-10.37,3l0-.12c-2.13,0-4.28-.11-5.89,1.69l.07-.1c-3.69.22-7.38.44-10.42,2.94v-.12c-2.12,0-4.28-.11-5.88,1.69l.06-.12a5.66,5.66,0,0,0-5.11,1.53Z"/><path class="cls-6" d="M1125.27,1312.5c3-1.81,6.45-2.06,9.62-3.25,2.28-.86,4.71-1.46,5.49-4.24,1.14-1,1.13-2.18.86-3.47a.63.63,0,0,1,0-.86c2.89-2.56,2.66-6.51,2.79-9.51.53-11.73,3.08-23.21,3.64-35,.35-7.21.67-14.58,2.26-21.79,1.37-6.18.83-12.64,1.42-19,.75-8,1.74-16,2.1-24.09a270.63,270.63,0,0,1,3.24-28.32c.46-3,0-4.13-3-4-2,0-3.93,0-5.89,0H1024c-1.48,0-3,0-4.42,0-6.33-.13-6.43-.13-6.43-6.75q0-53,0-106.09l3-.75c2.45.09,4.9.25,7.35.25q100.66.13,201.34.28c15.22,0,30.46.58,45.68,1.28,11.89.55,11.87.93,10.76,12.44q-4.41,45.83-8.67,91.66t-8.45,91.68c-2.61,28.85-5,57.72-7.73,86.57-1.87,20-4.07,40.07-6.08,60.11-.48,4.78-2.14,8-7.47,9.35-9.5,2.36-18.48,6.64-28.25,8.16-1.9-.17-4-.94-5.07,1.54l.07-.1c-1.87-.33-3.72-.58-4.74,1.61l-.53-.1a2.36,2.36,0,0,0-2.37,1l-.53.27-.59,0c-2.17.08-4.67-1.05-6.1,1.69l.11-.07a2.66,2.66,0,0,0-3.22,1.12l-.49.27-.56,0c-2.19.06-4.72-1.11-6.16,1.69l.11-.08a2.6,2.6,0,0,0-3.24,1.19,2,2,0,0,1-2.07.32,14.84,14.84,0,0,0-6.52.32c-26.4,7.82-53,15.08-79.56,22.21-3.12.84-6.84.94-9,4.12l.09.13c-4.82-1.6-9.19.62-13.62,1.77-15.85,4.13-31.64,8.53-47.48,12.71-7.32,1.93-8,1.08-8.59-6-2.73-32.86-.83-65.77-1.41-98.66,0-1.72,0-3.44,0-5.16-.07-3.14,1.21-4.76,4.49-5.59,14.69-3.74,29.31-7.77,43.95-11.7,2.79-.74,5.87-.8,7.81-3.46l.42.12c1.92.21,4,1,5.11-1.53l-.06.12c2.14.07,4.65,1.41,5.88-1.69v.12a10.73,10.73,0,0,0,10.42-2.94l-.06.1c2.14,0,4.63,1.36,5.88-1.69v.12a10.41,10.41,0,0,0,10.36-3l0,.1c1.78.35,3.6.8,4.55-1.45l-.08.1c2.14,0,4.62,1.25,5.89-1.71l0,.1c1.78.35,3.6.82,4.55-1.45l-.1.08A2.64,2.64,0,0,0,1125.27,1312.5Z"/><path class="cls-6" d="M1166.53,988c.28-8.36-1.43-16.52-2.49-24.74-.75-5.81-1.3-11.72-1.56-17.49-.4-8.57-1.23-17.16-2.22-25.57-1.08-9.23,0-18.58-2.3-27.74-1.36-5.39.49-11.2-1.36-16.78-.85-2.59-1.45-4.49-4.54-4.67-1.43-.09-2.86-1.16-4.24-1.07-8.14.56-16.13-1.09-24.14-1.85-14.13-1.34-28.4-.09-42.44-2.64a9.59,9.59,0,0,0-2.21-.07c-18.66,1-37.21-2.13-55.87-1.56-7,.21-7.07-.05-7.07-6.82q0-52.72,0-105.45c0-7.06.08-7.16,6.77-7.16,66.12,0,132.25-.22,198.37.28,9.47.08,19,.83,28.58,1.26,8.18.37,9.65,2.15,9.68,10.34,0,11.76,1.84,23.38,2.66,35.05.52,7.56,1.06,15.18,2,22.63,1.18,9,1.09,18,2.23,27,.95,7.45,1.87,15,2.08,22.63.21,7.77,1.48,15.52,2.37,23.27.75,6.55,1.47,13.22,1.6,19.69.27,13.75,2.61,27.26,3.63,40.9.86,11.61,1.29,23.39,3.81,34.89.9,4.11-.22,5.2-4.49,5.45-1.72.1-3.44,0-5.16,0q-46.47,0-92.92,0c-2.62,0-5.44-.87-7.8,1.13A2.92,2.92,0,0,1,1166.53,988Z"/><path class="cls-1" d="M1016.1,1045.39l-3,.75c-2.94-.13-5.88-.36-8.82-.37q-51.24,0-102.48,0c-1.48,0-3,0-4.43,0-5.59-.17-6-.39-5.51-5.92,1.77-20,3.71-40,5.57-60.07,1.17-12.7,2.25-25.42,3.47-38.12,2.11-22,4.22-44,6.5-65.93.73-7.12,1-7.1,8.17-7.29q36.09-1,72.19-2c7.12-.21,14.23-.7,21.34-.87,2.35-.06,4.94-.94,7,1.1Q1016.12,956,1016.1,1045.39Z"/><path class="cls-4" d="M1084.13,1444.14c2.15-3.18,5.87-3.28,9-4.12,26.6-7.13,53.16-14.39,79.56-22.21a14.84,14.84,0,0,1,6.52-.32c-4.36,3-9.56,3.57-14.45,5-24.22,6.85-48.48,13.53-72.72,20.31A25.69,25.69,0,0,1,1084.13,1444.14Z"/><path class="cls-4" d="M1194.72,1413.08c1.43-2.74,3.93-1.61,6.1-1.69C1199.11,1413.12,1196.88,1413,1194.72,1413.08Z"/><path class="cls-4" d="M1184.4,1416.06c1.44-2.8,4-1.63,6.16-1.69C1188.82,1416.08,1186.61,1416.05,1184.4,1416.06Z"/><path class="cls-4" d="M1209.51,1408.71c1.09-2.48,3.17-1.71,5.07-1.54C1213.17,1408.61,1211.37,1408.75,1209.51,1408.71Z"/><path class="cls-4" d="M1204.84,1410.22c1-2.19,2.87-1.94,4.74-1.61C1208.34,1410.14,1206.58,1410.16,1204.84,1410.22Z"/><path class="cls-4" d="M1191.61,1414.13a2.66,2.66,0,0,1,3.22-1.12C1194.05,1414.24,1192.87,1414.28,1191.61,1414.13Z"/><path class="cls-4" d="M1181.27,1417.17a2.6,2.6,0,0,1,3.24-1.19C1183.75,1417.25,1182.54,1417.29,1181.27,1417.17Z"/><path class="cls-4" d="M1201.94,1411.14a2.36,2.36,0,0,1,2.37-1A2.36,2.36,0,0,1,1201.94,1411.14Z"/><path class="cls-4" d="M1107.32,1317.86a10.41,10.41,0,0,1-10.36,3C1100,1318.3,1103.65,1318.13,1107.32,1317.86Z"/><path class="cls-4" d="M1091.15,1322.36a10.73,10.73,0,0,1-10.42,2.94C1083.77,1322.8,1087.46,1322.58,1091.15,1322.36Z"/><path class="cls-4" d="M1117.65,1314.9c-1.27,3-3.75,1.73-5.89,1.71C1113.4,1314.91,1115.55,1315,1117.65,1314.9Z"/><path class="cls-4" d="M1097,1320.77c-1.25,3-3.74,1.74-5.88,1.69C1092.69,1320.66,1094.84,1320.75,1097,1320.77Z"/><path class="cls-4" d="M1080.73,1325.18c-1.23,3.1-3.74,1.76-5.88,1.69C1076.45,1325.07,1078.61,1325.18,1080.73,1325.18Z"/><path class="cls-4" d="M1122.16,1313.55c-1,2.27-2.77,1.8-4.55,1.45C1118.81,1313.51,1120.5,1313.58,1122.16,1313.55Z"/><path class="cls-4" d="M1111.84,1316.51c-.95,2.25-2.77,1.8-4.55,1.45C1108.48,1316.45,1110.18,1316.54,1111.84,1316.51Z"/><path class="cls-4" d="M1074.91,1326.75c-1.09,2.55-3.19,1.74-5.11,1.53A5.66,5.66,0,0,1,1074.91,1326.75Z"/><path class="cls-4" d="M1141.24,1301.54c.27,1.29.28,2.52-.86,3.47A3.52,3.52,0,0,1,1141.24,1301.54Z"/><path class="cls-4" d="M1125.27,1312.5a2.64,2.64,0,0,1-3.21,1.13C1122.83,1312.4,1124,1312.37,1125.27,1312.5Z"/></svg>