<svg width="1200" height="350" viewBox="0 0 1200 350" fill="none" xmlns="http://www.w3.org/2000/svg">
<path d="M410.699 150.139C410.346 148.668 410.054 147.183 409.708 145.704C407.513 136.436 404.241 127.553 399.878 119.09C397.377 114.236 394.757 109.449 391.378 105.101C389.662 102.883 388.265 100.426 386.47 98.2292C381.581 92.2498 376.301 86.6766 370.448 81.6428C363.172 75.3771 355.304 69.9904 346.751 65.6024C340.08 62.1799 333.156 59.41 325.993 57.206C317.66 54.6425 309.14 53.0578 300.461 52.3852C293.032 51.806 285.603 51.8792 278.174 52.6116C270.884 53.3308 263.714 54.6824 256.698 56.7266C248.823 59.0171 241.221 62.0201 233.939 65.8421C223.144 71.5085 213.367 78.5666 204.681 87.1161C198.383 93.3152 192.803 100.107 187.954 107.524C182.813 115.388 178.603 123.718 175.391 132.534C172.285 141.057 170.183 149.826 169.019 158.842C167.496 170.594 167.656 182.32 169.485 194.012C171.354 205.964 174.992 217.37 180.253 228.283C185.161 238.464 191.413 247.733 198.862 256.189C205.207 263.394 212.383 269.673 220.251 275.219C227.72 280.486 235.661 284.828 244.068 288.323C253.811 292.372 263.941 295.029 274.409 296.394C283.055 297.519 291.715 297.765 300.401 296.999C303.799 296.7 306.2 294.076 306.207 290.661C306.22 286.645 306.2 282.63 306.207 278.615C306.207 277.75 306.061 276.944 305.642 276.172C304.464 274.021 302.569 273.388 300.254 273.488C290.371 273.934 280.594 273.075 270.911 271.058C269.381 270.738 253.412 265.844 252.441 265.445C242.764 261.436 233.726 256.322 225.485 249.837C215.356 241.86 206.869 232.418 199.992 221.485C197.478 217.497 195.869 213.002 192.969 209.247C192.816 209.047 192.703 208.747 192.723 208.501C192.79 207.482 192.371 206.623 191.998 205.711C187.522 194.671 185.001 183.179 184.436 171.28C183.758 156.931 186.032 143.008 191.1 129.591C195.955 116.733 203.152 105.267 212.476 95.1929C220.87 86.1173 230.533 78.6065 241.454 72.8003C254.37 65.9353 268.111 61.6606 282.676 60.1224C292.965 59.0371 303.221 59.2635 313.43 60.9281C325.162 62.8325 336.315 66.508 346.904 71.9347C358.676 77.9673 369.011 85.8643 377.95 95.5991C384.149 102.351 389.389 109.795 393.633 117.932C396.878 124.151 399.539 130.596 401.487 137.341C402.691 141.503 403.715 145.691 404.354 149.979C404.44 150.565 404.48 151.144 405.318 151.138C406.875 151.118 408.438 151.105 409.994 151.144C410.812 151.151 410.845 150.778 410.699 150.139Z" fill="#19212D"/>
<path d="M304.265 70.0304C285.203 67.4602 266.361 70.3366 249.688 77.8674C222.592 90.1058 209.39 110.874 204.954 118.731C196.986 132.867 194.346 146.044 193.361 154.314C194.579 155.659 195.862 157.031 197.212 158.416C198.217 159.441 199.221 160.433 200.205 161.385C201.163 157.297 202.726 151.544 205.3 144.879C208.619 136.276 213.966 122.46 226.157 109.575C235.614 99.5875 247.42 91.7438 261.46 86.1307C300.707 70.4432 345.281 81.2766 372.829 112.305C356.275 88.541 333.562 73.9855 304.265 70.0304Z" fill="#19212D"/>
<path d="M199.56 175.088C198.815 174.303 198.07 173.517 197.312 172.731C195.803 171.16 194.299 169.615 192.803 168.097C192.723 175.788 193.555 187.806 198.636 201.456C203.305 214.001 209.789 223.156 214.578 228.903C210.9 222.777 206.584 214.194 203.518 203.381C200.345 192.174 199.574 182.333 199.56 175.088Z" fill="#19212D"/>
<path d="M298.718 262.888C298.505 262.721 297.175 261.663 297.002 261.529C296.989 261.523 296.63 261.23 296.617 261.223C291.961 261.496 288.549 261.483 287.638 261.43C286.255 261.356 285.031 261.203 285.031 261.203C285.017 261.203 285.017 261.203 285.017 261.203C284.133 261.117 283.042 260.99 281.699 260.804C280.901 260.69 280.096 260.371 279.218 260.564C279.484 260.997 279.856 261.017 280.189 261.13C280.415 261.203 281 261.43 281.885 261.723C288.569 263.953 297.076 264.473 297.076 264.473C297.914 264.499 299.164 264.519 300.694 264.466C300.467 264.273 298.918 263.048 298.718 262.888Z" fill="#19212D"/>
<path d="M388.917 167.072C388.179 161.685 386.829 156.458 385.179 151.304C383.291 151.69 381.475 152.29 379.786 153.255C381.382 159.308 382.472 165.44 382.852 171.706C383.337 179.736 382.872 187.713 381.116 195.544C377.976 209.553 371.858 222.038 362.4 232.758C356.887 239.01 350.635 244.33 343.545 248.592C340.891 250.183 333.668 254.465 323.386 257.568C318.797 258.953 314.793 259.745 311.72 260.231C312.133 260.537 312.552 260.844 312.977 261.15C314.161 262.009 315.332 262.841 316.502 263.654C319.535 263.261 323.552 262.582 328.188 261.31C328.188 261.31 330.868 260.577 333.429 259.692C343.379 256.263 352.351 251.009 360.378 244.137C364.276 240.801 367.781 237.033 371.013 232.991L384.8 208.235C387.866 199.632 389.576 190.736 389.742 181.547C389.828 176.7 389.569 171.872 388.917 167.072Z" fill="#19212D"/>
<path d="M178.084 150.658C178.437 149.187 178.73 147.702 179.075 146.224C181.27 136.955 184.542 128.073 188.905 119.61C191.406 114.756 194.027 109.968 197.405 105.62C199.121 103.403 200.518 100.946 202.314 98.7485C207.202 92.7692 212.483 87.196 218.336 82.1621C225.612 75.8965 233.48 70.5097 242.033 66.1218C248.703 62.6993 255.627 59.9293 262.79 57.7254C271.124 55.1618 279.643 53.5771 288.323 52.9046C295.752 52.3253 303.181 52.3985 310.61 53.131C317.899 53.8501 325.069 55.2018 332.085 57.2459C339.96 59.5365 347.562 62.5395 354.845 66.3615C365.639 72.0279 375.416 79.0859 384.102 87.6355C390.4 93.8345 395.98 100.626 400.829 108.044C405.97 115.908 410.18 124.237 413.392 133.053C416.498 141.576 418.6 150.345 419.764 159.361C421.287 171.113 421.127 182.839 419.298 194.531C417.43 206.483 413.792 217.889 408.531 228.803C403.622 238.984 397.37 248.252 389.922 256.709C383.577 263.913 376.4 270.192 368.532 275.739C361.063 281.006 353.122 285.347 344.715 288.843C334.972 292.891 324.843 295.548 314.374 296.913C305.728 298.038 297.069 298.285 288.383 297.519C284.984 297.219 282.583 294.596 282.576 291.18C282.563 287.165 282.583 283.15 282.576 279.135C282.576 278.269 282.723 277.463 283.142 276.691C284.319 274.54 286.214 273.908 288.529 274.008C298.412 274.454 308.189 273.595 317.873 271.577C319.402 271.258 335.371 266.364 336.342 265.964C346.019 261.956 355.058 256.842 363.298 250.356C373.427 242.38 381.914 232.938 388.791 222.004C391.305 218.016 392.914 213.521 395.814 209.766C395.967 209.566 396.08 209.267 396.06 209.02C395.994 208.002 396.413 207.143 396.785 206.23C401.261 195.191 403.782 183.698 404.347 171.799C405.026 157.45 402.751 143.527 397.683 130.11C392.828 117.253 385.632 105.787 376.307 95.7122C367.9 86.6234 358.243 79.1125 347.316 73.313C334.4 66.448 320.659 62.1733 306.094 60.6351C295.805 59.5498 285.549 59.7762 275.34 61.4408C263.608 63.3452 252.455 67.0207 241.866 72.4474C230.094 78.48 219.759 86.377 210.82 96.1117C204.621 102.863 199.381 110.308 195.137 118.444C191.892 124.663 189.231 131.109 187.283 137.854C186.079 142.016 185.055 146.204 184.416 150.492C184.33 151.078 184.29 151.657 183.452 151.65C181.895 151.631 180.332 151.617 178.776 151.657C177.965 151.67 177.931 151.291 178.084 150.658Z" fill="#19212D"/>
<path d="M290.823 105.873C292.692 105.92 293.517 107.092 294.162 108.497C296.683 113.983 299.19 119.47 301.724 124.95C305.662 133.473 309.619 141.989 313.536 150.525C314.082 151.71 314.9 152.423 316.077 152.916C327.151 157.53 338.218 162.171 349.285 166.812C351.699 167.824 354.093 168.876 356.521 169.842C358.07 170.461 359.288 171.36 359.281 173.158C359.274 174.942 358.064 175.868 356.534 176.5C345.274 181.188 334.014 185.889 322.754 190.583C321.205 191.229 319.708 192.028 318.105 192.494C315.212 193.34 313.656 195.271 312.445 197.961C307.138 209.766 301.658 221.498 296.237 233.251C295.452 234.955 294.681 236.667 293.863 238.358C293.278 239.576 292.366 240.482 290.937 240.482C289.467 240.482 288.682 239.47 288.117 238.245C284.232 229.842 280.342 221.445 276.464 213.042C273.791 207.256 271.124 201.47 268.483 195.67C267.978 194.565 267.239 193.879 266.095 193.406C252.787 187.88 239.499 182.313 226.21 176.733C225.113 176.274 223.889 175.928 223.231 174.802C222.213 173.064 222.965 170.954 225.073 170.048C231.112 167.465 237.191 164.968 243.25 162.437C250.798 159.288 258.334 156.118 265.896 152.996C267.146 152.476 267.998 151.697 268.57 150.452C274.549 137.401 280.561 124.371 286.574 111.333C287.192 109.995 287.837 108.663 288.496 107.345C288.988 106.373 289.859 105.933 290.823 105.873Z" fill="#19212D"/>
<path d="M403.483 276.411C402.758 272.323 402.292 269.353 400.45 263.92C399.279 260.458 397.504 255.777 394.863 250.377C393.905 251.821 392.895 253.293 391.81 254.791C390.992 255.916 390.181 257.008 389.37 258.054C390.673 262.781 393.58 275.479 387.075 282.517C378.648 291.626 359.78 285.32 346.092 281.126C339.914 279.235 315.957 266.903 302.582 257.934C296.111 253.593 289.912 248.832 283.421 244.517C278.832 241.467 275.979 238.864 274.063 237.239C266.761 231.047 239.971 207.476 236.246 203.853C217.365 186.521 199.46 168.284 184.828 147.049C180.299 141.836 155.525 101.459 152.006 84.6724C151.015 79.9515 151.7 75.6768 153.662 72.2077C157.3 65.7822 165.162 64.2108 169.039 63.3918C189.038 59.1903 209.397 73.8723 214.491 77.7343C215.336 77.4679 216.42 77.0351 217.577 76.3226C218.681 75.6435 219.533 74.911 220.145 74.2985C218.143 73.1132 178.896 49.9149 159.675 52.4718C156.004 52.9645 148.535 54.0099 144.69 59.6364C143.307 61.6606 142.456 64.0909 142.216 66.9142C141.797 71.8082 141.93 76.7288 143.121 81.7094C146.925 97.5234 155.079 111.227 163.672 124.577C167.124 129.937 178.198 145.911 181.503 150.359C195.038 165.467 208.572 180.582 222.113 195.69C227.667 200.93 248.238 218.955 250.606 222.231C257.323 227.864 276.724 243.578 279.843 245.989C289.274 253.273 299.017 260.165 308.847 266.903C315.186 271.251 320.526 274.467 322.688 275.639C332.664 281.032 374.146 298.897 385.958 297.965C397.903 297.019 405.578 288.197 403.483 276.411Z" fill="#D4253B"/>
<path d="M540.831 221.795C545.121 221.795 548.631 221.47 551.361 220.82C554.221 220.04 556.496 219.065 558.186 217.895C559.876 216.595 561.046 215.1 561.696 213.41C562.346 211.72 562.671 209.835 562.671 207.755C562.671 203.335 560.591 199.695 556.431 196.835C552.271 193.845 545.121 190.66 534.981 187.28C530.561 185.72 526.141 183.965 521.721 182.015C517.301 179.935 513.336 177.4 509.826 174.41C506.316 171.29 503.456 167.585 501.246 163.295C499.036 158.875 497.931 153.545 497.931 147.305C497.931 141.065 499.101 135.475 501.441 130.535C503.781 125.465 507.096 121.175 511.386 117.665C515.676 114.155 520.876 111.49 526.986 109.67C533.096 107.72 539.986 106.745 547.656 106.745C556.756 106.745 564.621 107.72 571.251 109.67C577.881 111.62 583.341 113.765 587.631 116.105L578.856 140.09C575.086 138.14 570.861 136.45 566.181 135.02C561.631 133.46 556.106 132.68 549.606 132.68C542.326 132.68 537.061 133.72 533.811 135.8C530.691 137.75 529.131 140.805 529.131 144.965C529.131 147.435 529.716 149.515 530.886 151.205C532.056 152.895 533.681 154.455 535.761 155.885C537.971 157.185 540.441 158.42 543.171 159.59C546.031 160.63 549.151 161.735 552.531 162.905C559.551 165.505 565.661 168.105 570.861 170.705C576.061 173.175 580.351 176.1 583.731 179.48C587.241 182.86 589.841 186.825 591.531 191.375C593.221 195.925 594.066 201.45 594.066 207.95C594.066 220.56 589.646 230.375 580.806 237.395C571.966 244.285 558.641 247.73 540.831 247.73C534.851 247.73 529.456 247.34 524.646 246.56C519.836 245.91 515.546 245.065 511.776 244.025C508.136 242.985 504.951 241.88 502.221 240.71C499.621 239.54 497.411 238.435 495.591 237.395L504.171 213.215C508.201 215.425 513.141 217.44 518.991 219.26C524.971 220.95 532.251 221.795 540.831 221.795ZM614.547 116.885L643.602 112.205V142.43H678.507V166.61H643.602V202.685C643.602 208.795 644.642 213.67 646.722 217.31C648.932 220.95 653.287 222.77 659.787 222.77C662.907 222.77 666.092 222.51 669.342 221.99C672.722 221.34 675.777 220.495 678.507 219.455L682.602 242.075C679.092 243.505 675.192 244.74 670.902 245.78C666.612 246.82 661.347 247.34 655.107 247.34C647.177 247.34 640.612 246.3 635.412 244.22C630.212 242.01 626.052 239.02 622.932 235.25C619.812 231.35 617.602 226.67 616.302 221.21C615.132 215.75 614.547 209.705 614.547 203.075V116.885ZM693.484 194.495C693.484 185.395 694.849 177.465 697.579 170.705C700.439 163.815 704.144 158.095 708.694 153.545C713.244 148.995 718.444 145.55 724.294 143.21C730.274 140.87 736.384 139.7 742.624 139.7C757.184 139.7 768.689 144.185 777.139 153.155C785.589 161.995 789.814 175.06 789.814 192.35C789.814 194.04 789.749 195.925 789.619 198.005C789.489 199.955 789.359 201.71 789.229 203.27H723.319C723.969 209.25 726.764 213.995 731.704 217.505C736.644 221.015 743.274 222.77 751.594 222.77C756.924 222.77 762.124 222.315 767.194 221.405C772.394 220.365 776.619 219.13 779.869 217.7L783.769 241.295C782.209 242.075 780.129 242.855 777.529 243.635C774.929 244.415 772.004 245.065 768.754 245.585C765.634 246.235 762.254 246.755 758.614 247.145C754.974 247.535 751.334 247.73 747.694 247.73C738.464 247.73 730.404 246.365 723.514 243.635C716.754 240.905 711.099 237.2 706.549 232.52C702.129 227.71 698.814 222.055 696.604 215.555C694.524 209.055 693.484 202.035 693.484 194.495ZM761.734 183.38C761.604 180.91 761.149 178.505 760.369 176.165C759.719 173.825 758.614 171.745 757.054 169.925C755.624 168.105 753.739 166.61 751.399 165.44C749.189 164.27 746.394 163.685 743.014 163.685C739.764 163.685 736.969 164.27 734.629 165.44C732.289 166.48 730.339 167.91 728.779 169.73C727.219 171.55 725.984 173.695 725.074 176.165C724.294 178.505 723.709 180.91 723.319 183.38H761.734ZM853.186 246.95C844.736 246.82 837.846 245.91 832.516 244.22C827.316 242.53 823.156 240.19 820.036 237.2C817.046 234.08 814.966 230.375 813.796 226.085C812.756 221.665 812.236 216.725 812.236 211.265V98.36L841.291 93.68V205.415C841.291 208.015 841.486 210.355 841.876 212.435C842.266 214.515 842.981 216.27 844.021 217.7C845.191 219.13 846.816 220.3 848.896 221.21C850.976 222.12 853.771 222.705 857.281 222.965L853.186 246.95ZM914.885 246.95C906.435 246.82 899.545 245.91 894.215 244.22C889.015 242.53 884.855 240.19 881.735 237.2C878.745 234.08 876.665 230.375 875.495 226.085C874.455 221.665 873.935 216.725 873.935 211.265V98.36L902.99 93.68V205.415C902.99 208.015 903.185 210.355 903.575 212.435C903.965 214.515 904.68 216.27 905.72 217.7C906.89 219.13 908.515 220.3 910.595 221.21C912.675 222.12 915.47 222.705 918.98 222.965L914.885 246.95ZM977.686 224.72C980.546 224.72 983.276 224.655 985.876 224.525C988.476 224.395 990.556 224.2 992.116 223.94V201.905C990.946 201.645 989.191 201.385 986.851 201.125C984.511 200.865 982.366 200.735 980.416 200.735C977.686 200.735 975.086 200.93 972.616 201.32C970.276 201.58 968.196 202.165 966.376 203.075C964.556 203.985 963.126 205.22 962.086 206.78C961.046 208.34 960.526 210.29 960.526 212.63C960.526 217.18 962.021 220.365 965.011 222.185C968.131 223.875 972.356 224.72 977.686 224.72ZM975.346 139.7C983.926 139.7 991.076 140.675 996.796 142.625C1002.52 144.575 1007.07 147.37 1010.45 151.01C1013.96 154.65 1016.43 159.07 1017.86 164.27C1019.29 169.47 1020 175.255 1020 181.625V242.075C1015.84 242.985 1010.06 244.025 1002.65 245.195C995.236 246.495 986.266 247.145 975.736 247.145C969.106 247.145 963.061 246.56 957.601 245.39C952.271 244.22 947.656 242.335 943.756 239.735C939.856 237.005 936.866 233.495 934.786 229.205C932.706 224.915 931.666 219.65 931.666 213.41C931.666 207.43 932.836 202.36 935.176 198.2C937.646 194.04 940.896 190.725 944.926 188.255C948.956 185.785 953.571 184.03 958.771 182.99C963.971 181.82 969.366 181.235 974.956 181.235C978.726 181.235 982.041 181.43 984.901 181.82C987.891 182.08 990.296 182.47 992.116 182.99V180.26C992.116 175.32 990.621 171.355 987.631 168.365C984.641 165.375 979.441 163.88 972.031 163.88C967.091 163.88 962.216 164.27 957.406 165.05C952.596 165.7 948.436 166.675 944.926 167.975L941.221 144.575C942.911 144.055 944.991 143.535 947.461 143.015C950.061 142.365 952.856 141.845 955.846 141.455C958.836 140.935 961.956 140.545 965.206 140.285C968.586 139.895 971.966 139.7 975.346 139.7Z" fill="#19212D"/>
</svg>
