<svg id="Capa_1" data-name="Capa 1" xmlns="http://www.w3.org/2000/svg" viewBox="0 0 2032 2032"><path d="M953,1004.77a2.64,2.64,0,0,1-1,2.16c-10.19,10.31-15.64,23-18.51,37-1.59,7.74-1.53,7.81-9.2,10.64-13.79,5.1-28,7.43-42.65,5.35-21.18-3-36.8-14.79-48.44-32.23-4.52-6.77-8.89-13.62-14.49-19.58-7.21-7.67-15.33-14.07-25.32-17.8a44.11,44.11,0,0,0-24.93-2,14.57,14.57,0,0,0-2.33.71c-4.24,1.71-5.15,4.13-2.82,8a27.2,27.2,0,0,0,3.36,4.16,32.16,32.16,0,0,0,8.13,6.18c8.83,4.8,15.27,12,21,20a166.83,166.83,0,0,1,19.47,34.83c7.11,17.58,20.3,28.79,37.9,34.89,16.4,5.68,33.36,6.66,50.57,5.22,7.46-.62,14.86-1.67,22.27-2.63,4-.52,4.43-.19,4.49,4,.11,8.78.09,17.57.13,26.35l.12,31.72a24.52,24.52,0,0,1-1,8.68c-1.86,5-5.23,8.58-10.44,10.12a24.71,24.71,0,0,1-15.35-.23A348.64,348.64,0,0,1,726.2,1043.41a342.53,342.53,0,0,1-53.54-137.62,337.67,337.67,0,0,1-4-68.56c2-43.16,11.22-84.69,28.57-124.34a343.42,343.42,0,0,1,68-101.69q73.59-76.19,177-99.15A352.66,352.66,0,0,1,989,505.24a346.75,346.75,0,0,1,165.79,27.67,344.1,344.1,0,0,1,115.47,81.78q64.58,69.46,85.21,162.17a346.87,346.87,0,0,1,7.85,65.27,347.76,347.76,0,0,1-227.14,335.63c-4.87,1.81-9.62,3.85-15,3.88-12,.06-19-6.54-19.06-18.47-.08-12.52.07-25.05.08-37.58,0-20.66.08-41.32,0-62a89.86,89.86,0,0,0-9.94-41.84,64.51,64.51,0,0,0-9.83-13.9c-.83-.91-2.41-1.68-1.79-3.14s2.18-1.21,3.46-1.35a273.77,273.77,0,0,0,42.61-8c20.27-5.53,39.35-13.67,56.13-26.52,21.05-16.1,35.3-37.11,43.75-62.1a198.23,198.23,0,0,0,10.18-56c.34-8.92.86-17.8.31-26.79-1.85-30.31-12.43-57-32.13-80-2.3-2.7-2.76-4.93-1.68-8.31,9-28.11,6.47-55.82-3.33-83.23-1.12-3.14-3-4.11-6.19-4.23a81.51,81.51,0,0,0-26.91,3.9c-16.93,5.18-32.5,13.27-47.59,22.33-3.91,2.35-7.82,4.71-11.5,7.38a9.35,9.35,0,0,1-8.68,1.41,290,290,0,0,0-38.24-7.61,336.72,336.72,0,0,0-45.22-2.88A313.93,313.93,0,0,0,935.52,683a11.78,11.78,0,0,1-10.47-1.75c-15.6-10.43-32-19.46-49.57-26.06-11-4.13-22.26-7.27-34.21-6.92-5.85.18-6,.26-8,5.79-6.22,17.53-9.21,35.56-8.06,54.17.57,9.27,1.92,18.49,5.2,27.22,1.36,3.62.6,5.92-1.78,8.72a131.88,131.88,0,0,0-30.17,64.62,133.34,133.34,0,0,0-1.84,18.92c-.5,22.87,1.23,45.49,7.17,67.68,6.7,25,18.36,47.19,37.37,65.17,14.56,13.77,31.71,23.19,50.4,30,18.28,6.63,37.24,10.38,56.5,12.75C949.79,1003.5,951.68,1003.23,953,1004.77Z"/><path d="M670.77,1428.18c0,23.1-.13,46.21.1,69.3,0,5.09-1.78,8.07-6.18,10.45a162.06,162.06,0,0,1-57.78,18.33,197.55,197.55,0,0,1-72.63-4.17c-21-5.19-39.42-15.06-54.24-31.1a111.36,111.36,0,0,1-22.15-36.49c-6.29-16.53-9.58-33.71-11.19-51.3a326.87,326.87,0,0,1-.67-45.34c1.24-26.31,5.43-52.11,16.66-76.26,15.43-33.16,41.3-53.19,77-60.62a133.9,133.9,0,0,1,29.54-3c12.52.19,25-.38,37.54,1,13.94,1.59,27.7,3.9,40.87,8.93a54.11,54.11,0,0,1,7.91,3.78c3.17,1.85,3.8,3.35,3,6.9q-5,21.63-10.1,43.23c-1.09,4.56-3.41,5.87-8,4.44-7.45-2.35-14.94-4.65-22.7-5.6-19.76-2.43-39.55-3.84-59.14,1.17-18.12,4.64-30.47,16.17-38,33-5.5,12.33-7.82,25.41-9.07,38.77a220.22,220.22,0,0,0,.15,41.4c1.38,14.66,4.29,28.93,11.11,42.19,8.81,17.12,22.73,26.64,41.82,28.94,12.55,1.51,25,.7,37.42-1.13,4.25-.63,4.69-1.15,4.7-5.28q.08-24.16,0-48.32c0-4.13-.36-4.46-4.48-4.49-9.28-.06-18.55,0-27.83,0a33.63,33.63,0,0,1-4.38-.12c-3.3-.43-4.84-2.08-5.18-5.44a39,39,0,0,1-.08-3.9q0-19,0-38.07c0-1.14,0-2.28,0-3.41.29-4.24,1.86-5.84,6-6.11,1.13-.08,2.27,0,3.41,0h86.89c8.51,0,9.58,1.06,9.58,9.53Q670.79,1393.77,670.77,1428.18Z"/><path d="M1159.93,1375.94q0,67.83,0,135.67c0,9.16-1.21,10.38-10.42,10.39h-43.93a33.63,33.63,0,0,1-4.38-.14c-3.58-.48-5.21-2.07-5.64-5.64a49.58,49.58,0,0,1-.17-5.85q0-53.43,0-106.87c0-7.24,0-7.25-7.23-7.25h-68.82c-1.14,0-2.28,0-3.41,0-2.3,0-3.2,1.19-3.17,3.35,0,1.47,0,2.93,0,4.4v107.84c0,1.47.06,2.94-.05,4.39-.28,3.61-1.82,5.19-5.47,5.64a27.76,27.76,0,0,1-3.41.11H957.91a25.35,25.35,0,0,1-3.9-.16,5.46,5.46,0,0,1-5.08-5.09,34.32,34.32,0,0,1-.16-4.87V1239.09c0-9.38.92-10.3,10.34-10.3h44.42a32,32,0,0,1,4.38.13c2.86.39,4.37,1.91,4.7,4.75a41.58,41.58,0,0,1,.11,4.87v89.79c0,1.3,0,2.61,0,3.91.06,5.2.31,5.51,5.55,5.51q36.12,0,72.22,0c4.84,0,4.91,0,4.91-4.9q0-46.11,0-92.23a49.35,49.35,0,0,1,.17-5.84c.51-4.07,2.3-5.72,6.38-5.93,2.6-.12,5.21,0,7.81,0h40.51c1.3,0,2.62-.06,3.91.07,3.47.34,5.25,2.05,5.65,5.57a47.85,47.85,0,0,1,.11,5.36Q1159.94,1307.88,1159.93,1375.94Z"/><path d="M1460.31,1327.4c2.28,0,3.71-1.18,5.3-1.92a102.55,102.55,0,0,1,61.84-8.58c25,4.26,41.31,19.35,50.33,42.64,4.85,12.54,6.9,25.67,8,39a261.17,261.17,0,0,1-.23,39.46c-1.22,17.74-3.88,35.22-11.27,51.65-9.53,21.21-25.93,33.18-48.83,36.47-24.22,3.47-47.29.08-69-11.44-1.87-1-3.64-2.15-5.46-3.23s-3.29-2.61-5.35-3.17c-1.87,2-1.35,4.46-1.83,6.61-1.28,5.71-2.74,7-8.65,7.07-10.41,0-20.82,0-31.23,0a18.5,18.5,0,0,1-3.87-.32,5,5,0,0,1-4.23-4.71c-.13-1.62-.11-3.25-.11-4.87V1238.38c0-8.73.84-9.59,9.37-9.59h45.38c1.14,0,2.28,0,3.42,0,4,.28,5.55,1.81,5.83,5.71.11,1.46,0,2.93,0,4.39q0,41.23,0,82.46C1459.79,1323.31,1459.42,1325.28,1460.31,1327.4Zm-1.61,93.85c0,13.17.15,26.33-.09,39.49-.08,4.25,1.52,6.49,5.26,8.15a68.06,68.06,0,0,0,34.73,5.65c10.29-1,17.09-6.55,20.07-16.52a73,73,0,0,0,2.16-9c2.25-13.53,2.43-27.19,1.72-40.83a67.34,67.34,0,0,0-4.4-21.88c-5.92-14.69-15.61-18.39-28.6-18.16-9,.16-17.6,2.68-25.87,6.37-3.57,1.59-5.16,3.61-5.08,7.71C1458.86,1395.24,1458.7,1408.25,1458.7,1421.25Z"/><path d="M1369.09,1422v89.32c0,1.46.05,2.93,0,4.39-.25,4.19-1.82,6.1-6,6.18-10.9.2-21.81.21-32.71.09-3.72,0-5.05-1.48-6-5.24-.34-1.42-.52-2.88-.8-4.31-.6-3-1.14-3.41-3.86-1.86a144.29,144.29,0,0,1-18.94,9,115,115,0,0,1-47.26,8.12c-9.92-.45-19.75-1.67-29.3-4.7-19.57-6.22-31.37-19.55-36.31-39.24a99.15,99.15,0,0,1-3-24.14q0-64.68,0-129.35c0-6.94,1.65-8.55,8.71-8.56q23.43-.06,46.86,0a22.65,22.65,0,0,1,4.36.37,5.08,5.08,0,0,1,4.4,4.6,49.36,49.36,0,0,1,.3,6.32q0,57.1,0,114.22c0,4.71,0,9.41,1.25,14,1.86,7,6.07,11.39,13.22,12.75,13.74,2.61,26.47-.41,38.55-7a4.52,4.52,0,0,0,2.62-4.31c0-1.62,0-3.25,0-4.88q0-62.22,0-124.46a51.82,51.82,0,0,1,.16-5.85c.42-3.57,2.06-5.19,5.6-5.67a28.14,28.14,0,0,1,3.9-.14h44.91a24.15,24.15,0,0,1,3.9.16c3.22.51,4.85,2.24,5.19,5.51.16,1.61.09,3.25.09,4.87q0,44.91,0,89.81Z"/><path d="M815.76,1424.37q0-21.7,0-43.41c0-5.24-.3-5.51-5.52-5.55-5.69-.05-11.39,0-17.08,0a37.56,37.56,0,0,1-4.38-.15c-4.09-.5-5.87-2.22-5.91-6.35q-.18-16.1,0-32.2c0-4.16,1.29-5.65,5.62-6.8,7.39-2,14.84-3.64,22.25-5.48,5-1.24,5-1.27,5-6.58q0-22,0-43.9c0-1.31,0-2.61,0-3.91.2-4.11,1.11-5,5.37-5.17.64,0,1.3,0,2,0h48.3c1.14,0,2.28,0,3.41.09a3.76,3.76,0,0,1,3.78,3.72c.14,1.45.14,2.92.14,4.38q0,20.49,0,41c0,1.3,0,2.6,0,3.9,0,2.42,1,3.59,3.53,3.54,2.77-.06,5.53,0,8.3,0,8.62,0,17.24,0,25.85,0,5.42,0,7.11,1.57,7.15,6.92q.17,20,0,40c0,4.57-1.53,6.19-6,6.73a61.2,61.2,0,0,1-7.3.25c-8.62,0-17.24,0-25.86,0-5.31,0-5.69.36-5.7,5.42,0,24.39-.08,48.78,0,73.17.05,11.36,5.75,17.79,16.83,19.87a53.64,53.64,0,0,0,17.47.36c.64-.09,1.29-.18,1.93-.24,7.41-.68,9.41,1.1,9.44,8.57q.06,15.62,0,31.22c0,6.29-.79,7.44-6.64,9-22,5.86-44.05,6.43-65.74-1.36-15.62-5.6-26.21-16.56-31.77-32.2a81.16,81.16,0,0,1-4.56-27.78C815.8,1449.09,815.76,1436.73,815.76,1424.37Z"/><path d="M764.35,1420.83q0,44.64,0,89.3c0,10.23-1.65,11.86-11.91,11.87q-20.26,0-40.51,0c-9.94,0-12.1-2.18-12.1-12q0-88.82,0-177.63c0-9.7,1.25-10.92,11-10.93h43.43c1.31,0,2.61,0,3.91,0,4,.29,5.8,2,6.14,6.12.14,1.62.08,3.25.08,4.88Z"/><path d="M732.66,1235.39c15.71-.72,35.23,12.27,35.36,35.39.11,20.13-15.22,35.85-35.43,36-18.24.1-35.09-14-35.35-35.54S714.92,1234.79,732.66,1235.39Z"/></svg>