<svg id="Capa_1" data-name="Capa 1" xmlns="http://www.w3.org/2000/svg" viewBox="0 0 2032 2032"><defs><style>.cls-1{fill:#a079db;}.cls-2{fill:#280068;}.cls-3{fill:#390091;}.cls-4{fill:#411982;}.cls-5{fill:#2e1359;}.cls-6{fill:#fefefe;}.cls-7{fill:#fdfdfd;}.cls-8{fill:#3b0291;}</style></defs><path class="cls-1" d="M1003.81,448.55h23.83a1.81,1.81,0,0,0-.18.21c0,.06-.13.17-.11.2.37.5,1,.5,1.49.58,15.25,2.14,29,8.15,42.24,15.78q130.11,75,260.27,150,69.92,40.29,139.84,80.6c15.28,8.82,28.15,20.2,36.84,35.83-.71.44-1.41.89-2.13,1.3q-47.51,27.38-95,54.73-34.19,19.68-68.4,39.31c-.44-.9-.81-1.85-1.32-2.72A376.76,376.76,0,0,0,1136.8,659.69c-52.85-17.57-107-22.81-162.32-16.49A363.61,363.61,0,0,0,868,672.1q-100.36,44.43-161.6,135.56C669.61,862.51,649.07,923.12,644.3,989a374.67,374.67,0,0,0,46.62,210c.44.78,1.13,1.5,1,2.52-.4.82-1.24,1.08-1.94,1.48q-70.55,40.63-141.09,81.27c-8.55,4.93-17.25,9.59-25.55,14.93a6.52,6.52,0,0,1-1.61-2.52,94,94,0,0,1-9.48-31c-.09-.72.47-2-1-2V768.85l.22.16c.07,0,.19.1.21.08.7-.85.55-1.92.68-2.9a92.94,92.94,0,0,1,12.15-35.93c8.87-14.91,21.44-25.94,36.33-34.52q104-59.9,208-119.78,93.8-54.06,187.5-108.28c14.64-8.49,29.62-15.83,46.6-18.18C1003.34,449.44,1004.27,449.59,1003.81,448.55Z"/><path class="cls-2" d="M523.3,1299.19c8.3-5.34,17-10,25.55-14.93q70.51-40.66,141.09-81.27c.7-.4,1.54-.66,1.94-1.48a10.45,10.45,0,0,1,2.25,3.1,371,371,0,0,0,71.21,88.22q92.22,83.57,216.08,96.52a374.71,374.71,0,0,0,248.77-63.64,375.57,375.57,0,0,0,97.18-96.74c5.68-8.19,10.78-16.75,16.13-25.14a12.32,12.32,0,0,1,3.49,1.62q17.05,10,34.13,20c10.2,5.93,20.45,11.77,30.66,17.68,10.85,6.28,21.67,12.61,32.51,18.9q17.58,10.18,35.18,20.33l29.2,16.87c-.27.58-.5,1.19-.82,1.74-9,15.66-22.18,26.92-37.66,35.79q-41.09,23.55-82.06,47.25-32.87,18.94-65.71,37.9-30.84,17.74-61.7,35.43-37.2,21.4-74.35,42.88-37.66,21.7-75.34,43.37c-16.25,9.33-32.24,19.12-48.81,27.87-10.75,5.67-22.1,9.74-34.3,11-.67.07-1.31.14-1.39,1h-21.61c-.15-1-.95-.94-1.68-1-7.13-.67-13.9-2.76-20.61-5.11-12.82-4.51-24.16-11.85-35.82-18.59-23.89-13.8-47.73-27.69-71.63-41.48q-40.29-23.23-80.64-46.38-35.4-20.36-70.78-40.74-40.2-23.12-80.42-46.2c-25.67-14.78-51.25-29.73-77-44.36-13.19-7.49-25.59-15.86-35.08-27.9C528.2,1307.81,524.82,1304.07,523.3,1299.19Z"/><path class="cls-3" d="M1508.67,1299.2l-29.2-16.87q-17.6-10.17-35.18-20.33c-10.84-6.29-21.66-12.62-32.51-18.9-10.21-5.91-20.46-11.75-30.66-17.68q-17.1-9.93-34.13-20a12.32,12.32,0,0,0-3.49-1.62c-.38-1.11-1.48-1.33-2.33-1.83q-79.25-45.95-158.53-91.87c-.77-.45-1.47-1.19-2.51-.92-2.8-2.47-6.24-3.93-9.4-5.78-15-8.8-30.2-17.38-45.27-26.11-18.65-10.81-37.23-21.75-55.88-32.55-16.35-9.47-32.76-18.83-49.14-28.26-.93-.54-2-1-2.28-2.25.44-.78,1.28-1,2-1.43q76.74-44.22,153.5-88.44c1.81-1,3.83-1.79,5.31-3.37,1.61-.23,2.85-1.27,4.19-2q54.42-31.32,108.82-62.67,25.27-14.58,50.51-29.22,34.2-19.65,68.4-39.31,47.52-27.35,95-54.73c.72-.41,1.42-.86,2.13-1.3a3.08,3.08,0,0,1,.55.6,93.14,93.14,0,0,1,11.26,36.53c.08.81-.42,2,1,2.18v7.76c-.77.75-.55,1.72-.55,2.62q0,57.4,0,114.82c0,1.3,0,2.59,0,3.88q0,174.09,0,348.19c0,2.4,0,4.8.08,7.19l.47.43V1262c-1.51.15-.91,1.37-1,2.14C1518.27,1276.55,1515,1288.36,1508.67,1299.2ZM1255.53,961.14c-8.22,0-16.44,0-24.66,0-1.68,0-2.19.37-2.17,2.12.11,7.29.15,14.59,0,21.88,0,2.28.69,2.71,2.79,2.7,16-.08,32,0,47.93-.09,2.06,0,2.62.5,2.61,2.59-.09,15.89-.12,31.77,0,47.65,0,2.69-.86,3.11-3.24,3.09-15.79-.09-31.58,0-47.37-.1-2.22,0-2.77.61-2.73,2.77q.19,10.66,0,21.33c0,2,.41,2.62,2.54,2.61,16-.1,32,0,47.93-.11,2.32,0,2.87.6,2.86,2.88-.11,15.88,0,31.77-.12,47.65,0,2.38.66,2.87,2.9,2.82,7-.15,14-.14,21,0,2.17,0,2.78-.54,2.77-2.74-.1-15.88,0-31.77-.1-47.65,0-2.22.47-3,2.84-3q23.82.17,47.65,0c2.23,0,2.75.63,2.74,2.78-.09,16,0,32-.1,47.92,0,2,.43,2.69,2.57,2.65q10.8-.21,21.6,0c2.15,0,2.57-.64,2.56-2.65-.09-15.88,0-31.77-.11-47.65,0-2.37.47-3.09,3-3.06,15.88.13,31.77,0,47.65.12,2.26,0,2.73-.68,2.69-2.78-.13-7-.15-14,0-21,.06-2.37-.69-2.89-2.94-2.88-15.89.1-31.77,0-47.65.11-2.21,0-2.75-.61-2.74-2.77q.14-23.82,0-47.65c0-2.25.52-3,2.86-2.93,15.89.11,31.77,0,47.65.1,2.1,0,2.87-.43,2.82-2.71q-.24-10.67,0-21.33c.06-2.3-.73-2.68-2.79-2.67-15.88.08-31.77,0-47.65.1-2.25,0-2.92-.46-2.9-2.82.12-15.89,0-31.77.11-47.65,0-2.11-.44-2.85-2.71-2.8-7,.16-14,.19-21,0-2.58-.08-3,.8-3,3.12.1,15.79,0,31.58.09,47.37,0,2.09-.4,2.81-2.68,2.79q-23.82-.16-47.65,0c-2.28,0-2.91-.54-2.9-2.86.11-15.88,0-31.77.11-47.65,0-2.21-.61-2.8-2.78-2.75-7,.13-14,.15-21,0-2.31,0-2.9.56-2.89,2.87.11,16,0,32,.1,47.92,0,1.88-.37,2.51-2.38,2.48C1271.6,961.06,1263.56,961.14,1255.53,961.14Z"/><path class="cls-4" d="M1520.36,1255.52c0-2.39-.08-4.79-.08-7.19q0-174.1,0-348.19c0-1.29,0-2.58,0-3.88a4.38,4.38,0,0,0,.52,0v359.09A3.62,3.62,0,0,0,1520.36,1255.52Z"/><path class="cls-5" d="M1520.83,896.3a4.38,4.38,0,0,1-.52,0q0-57.4,0-114.82c0-.9-.22-1.87.55-2.62Z"/><path d="M1520.36,1255.52a3.62,3.62,0,0,1,.47-.13v.56Z"/><path class="cls-6" d="M1342.48,827.09q-25.24,14.61-50.51,29.22-54.39,31.35-108.82,62.67c-1.34.77-2.58,1.81-4.19,2,.09-1-.61-1.71-1.09-2.48a180.63,180.63,0,0,0-33-40.06c-41.35-37.31-89.93-53.5-145.25-48.42a177.41,177.41,0,0,0-103.09,44.4c-43.7,38.51-65.34,87.19-64.74,145.59a178.07,178.07,0,0,0,8.64,52.52,162.6,162.6,0,0,0,15.37,34.87c.45.9.85,1.83,1.35,2.69A180.85,180.85,0,0,0,896.11,1157c44.24,37.51,95.26,52.12,152.48,43.28,43-6.64,79.05-27,108.4-59.07a162.06,162.06,0,0,0,23.14-32c1-.27,1.74.47,2.51.92q79.27,45.91,158.53,91.87c.85.5,1.95.72,2.33,1.83-5.35,8.39-10.45,17-16.13,25.14a375.57,375.57,0,0,1-97.18,96.74,374.71,374.71,0,0,1-248.77,63.64q-123.81-12.8-216.08-96.52a371,371,0,0,1-71.21-88.22,10.45,10.45,0,0,0-2.25-3.1c.17-1-.52-1.74-1-2.52A374.67,374.67,0,0,1,644.3,989c4.77-65.85,25.31-126.46,62.09-181.31q61.1-91.1,161.6-135.56a363.61,363.61,0,0,1,106.49-28.9c55.28-6.32,109.47-1.08,162.32,16.49a376.76,376.76,0,0,1,204.36,164.68C1341.67,825.24,1342,826.19,1342.48,827.09Z"/><path class="cls-1" d="M855.84,1107.44a162.6,162.6,0,0,1-15.37-34.87,178.07,178.07,0,0,1-8.64-52.52c-.6-58.4,21-107.08,64.74-145.59a177.41,177.41,0,0,1,103.09-44.4c55.32-5.08,103.9,11.11,145.25,48.42a180.63,180.63,0,0,1,33,40.06c.48.77,1.18,1.45,1.09,2.48-1.48,1.58-3.5,2.33-5.31,3.37q-76.74,44.25-153.5,88.44c-.71.41-1.55.65-2,1.43-5.71,2.63-11,6-16.42,9.17Q928.78,1065.4,855.84,1107.44Z"/><path class="cls-2" d="M855.84,1107.44q72.95-42,145.9-84c5.44-3.12,10.71-6.54,16.42-9.17.26,1.26,1.35,1.71,2.28,2.25,16.38,9.43,32.79,18.79,49.14,28.26,18.65,10.8,37.23,21.74,55.88,32.55,15.07,8.73,30.24,17.31,45.27,26.11,3.16,1.85,6.6,3.31,9.4,5.78a162.06,162.06,0,0,1-23.14,32c-29.35,32.11-65.4,52.43-108.4,59.07-57.22,8.84-108.24-5.77-152.48-43.28a180.85,180.85,0,0,1-38.92-46.83C856.69,1109.27,856.29,1108.34,855.84,1107.44Z"/><path class="cls-7" d="M1255.53,961.14c8,0,16.07-.08,24.1.05,2,0,2.39-.6,2.38-2.48-.07-16,0-32-.1-47.92,0-2.31.58-2.92,2.89-2.87,7,.16,14,.14,21,0,2.17,0,2.79.54,2.78,2.75-.1,15.88,0,31.77-.11,47.65,0,2.32.62,2.88,2.9,2.86q23.82-.15,47.65,0c2.28,0,2.69-.7,2.68-2.79-.08-15.79,0-31.58-.09-47.37,0-2.32.39-3.2,3-3.12,7,.2,14,.17,21,0,2.27,0,2.72.69,2.71,2.8-.09,15.88,0,31.76-.11,47.65,0,2.36.65,2.84,2.9,2.82,15.88-.1,31.77,0,47.65-.1,2.06,0,2.85.37,2.79,2.67q-.24,10.65,0,21.33c.05,2.28-.72,2.72-2.82,2.71-15.88-.08-31.76,0-47.65-.1-2.34,0-2.87.68-2.86,2.93q.15,23.82,0,47.65c0,2.16.53,2.78,2.74,2.77,15.88-.1,31.76,0,47.65-.11,2.25,0,3,.51,2.94,2.88-.16,7-.14,14,0,21,0,2.1-.43,2.8-2.69,2.78-15.88-.11-31.77,0-47.65-.12-2.52,0-3,.69-3,3.06.11,15.88,0,31.77.11,47.65,0,2-.41,2.69-2.56,2.65q-10.8-.23-21.6,0c-2.14,0-2.58-.63-2.57-2.65.09-16,0-32,.1-47.92,0-2.15-.51-2.8-2.74-2.78q-23.82.15-47.65,0c-2.37,0-2.85.73-2.84,3,.09,15.88,0,31.77.1,47.65,0,2.2-.6,2.79-2.77,2.74-7-.13-14-.14-21,0-2.24,0-2.92-.44-2.9-2.82.12-15.88,0-31.77.12-47.65,0-2.28-.54-2.9-2.86-2.88-16,.1-32,0-47.93.11-2.13,0-2.58-.59-2.54-2.61q.19-10.66,0-21.33c0-2.16.51-2.78,2.73-2.77,15.79.1,31.58,0,47.37.1,2.38,0,3.27-.4,3.24-3.09-.14-15.88-.11-31.76,0-47.65,0-2.09-.55-2.6-2.61-2.59-16,.08-32,0-47.93.09-2.1,0-2.84-.42-2.79-2.7.16-7.29.12-14.59,0-21.88,0-1.75.49-2.14,2.17-2.12C1239.09,961.18,1247.31,961.14,1255.53,961.14Zm106.18,53.26c0-8-.07-16.06,0-24.08,0-2.11-.61-2.62-2.66-2.61q-23.94.12-47.87,0c-2,0-2.72.41-2.71,2.57q.15,24.08,0,48.15c0,2.11.62,2.62,2.65,2.61q23.94-.12,47.88,0c2.33,0,2.72-.8,2.69-2.85C1361.65,1030.26,1361.71,1022.33,1361.71,1014.4Z"/><path class="cls-8" d="M1361.71,1014.4c0,7.93-.06,15.86,0,23.8,0,2-.36,2.87-2.69,2.85q-23.94-.16-47.88,0c-2,0-2.66-.5-2.65-2.61q.12-24.08,0-48.15c0-2.16.72-2.58,2.71-2.57q23.93.1,47.87,0c2.05,0,2.69.5,2.66,2.61C1361.64,998.34,1361.71,1006.37,1361.71,1014.4Z"/></svg>