<svg id="Capa_1" data-name="Capa 1" xmlns="http://www.w3.org/2000/svg" viewBox="0 0 2032 2032"><defs><style>.cls-1{fill:#6d409c;}.cls-2{fill:#fbfafc;}.cls-3{fill:#fdfcfd;}.cls-4{fill:#f7f5fa;}.cls-5{fill:#f7f5f9;}.cls-6{fill:#faf8fb;}.cls-7{fill:#f9f8fb;}.cls-8{fill:#f9f7fa;}.cls-9{fill:#70449f;}.cls-10{fill:#744aa1;}</style></defs><path class="cls-1" d="M491.1,1015.29c0-70,.3-140-.1-210-.35-61.92,26-107.42,80-138.26Q754.84,561.81,938,455.32c52.26-30.26,104-30.19,156.26.06q184.45,106.79,369.22,213c52,29.9,77.57,74.63,77.55,134.42q-.09,213.26,0,426.51c0,59.8-25.72,104.46-77.67,134.35q-184.72,106.27-369.21,213c-52.27,30.24-104,30.19-156.26-.07q-184.46-106.78-369.22-213c-51.94-29.9-77.61-74.62-77.55-134.41Q491.18,1122.24,491.1,1015.29ZM803,865.41c34,62.73,75.11,117.89,111.62,176,7.84,12.47,16.21,17.27,30.83,16.6,11.13-.52,13.22-3.93,13.16-14.15-.43-66.57-.12-133.14-.28-199.71-.05-21.77,3.23-18.46-19-19.39-9.21-.39-11.47,2.63-11.35,11.54.56,44.23.27,88.47.68,132.7.13,14.3,1.47,28.59,2.26,42.88-3,.21-3.43-1-4-2.12-30.45-58.42-71-110.36-105.7-166.06-9.53-15.31-20-21-37.23-19.11-8,.88-11,2.24-10.92,10.86.32,70.43.53,140.87-.09,211.3-.14,15.64,10,9.73,17.21,10.71,8.09,1.12,13.51.39,13.23-10.83-.84-32.62-.39-65.28-.42-97.92C803,921.81,803,895,803,865.41Zm210.53,75.65c0,34.76.31,69.53-.22,104.29-.14,9.28,1.84,12.54,11.87,12.36,35.61-.65,71.25-.75,106.86,0,11,.25,11.35-4.68,11.34-13s-.35-13.46-11.37-13.07c-25.29.88-50.64.07-76,.39-7.33.1-11-1.39-10.75-9.82.51-21.45.42-42.92,0-64.37-.14-7.52,2.79-9.45,9.82-9.33,21.46.35,42.94-.38,64.37.34,10,.34,13.39-2.26,13.08-12.67-.28-9.36-1.63-13.67-12.52-13.2-21.42.94-42.91,0-64.36.43-7.69.15-10.65-2-10.41-10.06.5-16.72.65-33.49,0-50.2-.41-9.84,2.29-13.51,12.75-13.18,23.59.76,47.22-.24,70.81.44,11,.32,9.88-6.13,10.1-13.21.24-7.61,0-12.81-10.48-12.61-34.75.64-69.53.49-104.29.06-8.36-.1-10.94,2.25-10.83,10.75C1013.78,870.67,1013.52,905.87,1013.52,941.06Zm247.62,13.78c0-31.33.24-62.66-.16-94-.11-7.79,2-10.58,10-10.28,15.42.58,30.92-.4,46.33.36,10.39.51,9.72-5.74,9.31-12.3-.38-6.13,3.09-14-8.93-13.89q-72.09.68-144.19,0c-9.54-.08-9.37,5.25-8.67,11.43.66,5.84-3.94,14.81,8.32,14.51,14.58-.36,29.21.52,43.76-.28,9.76-.54,12.31,2.7,12.23,12.28-.42,57.93-.2,115.86-.2,173.79,0,21.24,0,20.76,20.92,21.19,9,.18,11.62-2.35,11.46-11.43C1260.79,1015.78,1261.14,985.31,1261.14,954.84ZM908.9,1224.92c6.45.15,12.82-.2,19.08-2.11,4.51-1.37,9.84-1.58,8.18-8.67-1.89-8.1-7-3.64-11.1-2.84-28.19,5.49-49-5.43-55-28.92-9.87-38.67,16.12-66.11,55.14-58.21a17.75,17.75,0,0,1,3.74.89c4.32,1.93,6.29.17,7.25-4.06.87-3.8.65-6.45-3.82-7.89a70.23,70.23,0,0,0-26.67-2.85c-32.7,2.24-53.54,26.54-52.47,60.82C854.27,1204.8,875,1224.81,908.9,1224.92Zm77.81-83.22c-24.16.15-39.78,17.47-39.72,44,0,23,17,39.69,40,39.33,22.46-.35,39.08-17.68,39-40.69C1025.92,1158.2,1010.58,1141.54,986.71,1141.7Zm146.09,44.47c6,0,12-.45,18,.12,7.78.73,10.56-1.91,10.17-10-.82-17-10.27-30.78-24.38-33.88-17.29-3.8-33.55,3.31-40.79,19.19-7.66,16.83-9.33,34.13,3,49.73s29.48,15.49,47,11.92c4.53-.93,11.69-.73,9.29-8.82-2.26-7.6-8-2.43-11.71-1.87-17.91,2.69-28.84-.53-35.19-11.55-2.34-4.06-5.28-8.87-2.84-13.19,2-3.51,7.07-1.44,10.77-1.61C1121.65,1186,1127.23,1186.18,1132.8,1186.17Zm-74.86-32.1c-2.1-5.54-1.13-12.13-9.15-11-7.78,1-5,6.75-5,10.88-.12,20.13.09,40.26,0,60.4,0,5.07,0,9.17,7.14,9.14,6.88,0,7.45-3.64,7.42-9-.06-12.42,0-24.84.46-37.24.49-11.57,6.07-20,18.08-21.4,7.54-.85,6.72-5.24,6.13-9.74-.93-7.2-6.48-4.06-10-3.37C1067,1143.9,1062.92,1148.64,1057.94,1154.07ZM705.75,1024a18.32,18.32,0,0,0-18.08,17.81c-.33,10.65,7.53,18.73,18.17,18.68,9.83-.06,18.07-7.91,18.39-17.51C724.56,1033,715.77,1024,705.75,1024Z"/><path class="cls-2" d="M803,865.41c0,29.55,0,56.4,0,83.26,0,32.64-.42,65.3.42,97.92.28,11.22-5.14,12-13.23,10.83-7.17-1-17.35,4.93-17.21-10.71.62-70.43.41-140.87.09-211.3,0-8.62,3-10,10.92-10.86,17.25-1.9,27.7,3.8,37.23,19.11,34.67,55.7,75.25,107.64,105.7,166.06.58,1.12,1,2.33,4,2.12-.79-14.29-2.13-28.58-2.26-42.88-.41-44.23-.12-88.47-.68-132.7-.12-8.91,2.14-11.93,11.35-11.54,22.22.93,18.94-2.38,19,19.39.16,66.57-.15,133.14.28,199.71.06,10.22-2,13.63-13.16,14.15-14.62.67-23-4.13-30.83-16.6C878.1,983.3,837,928.14,803,865.41Z"/><path class="cls-2" d="M1013.52,941.06c0-35.19.26-70.39-.19-105.57-.11-8.5,2.47-10.85,10.83-10.75,34.76.43,69.54.58,104.29-.06,10.5-.2,10.72,5,10.48,12.61-.22,7.08.9,13.53-10.1,13.21-23.59-.68-47.22.32-70.81-.44-10.46-.33-13.16,3.34-12.75,13.18.7,16.71.55,33.48,0,50.2-.24,8,2.72,10.21,10.41,10.06,21.45-.44,42.94.51,64.36-.43,10.89-.47,12.24,3.84,12.52,13.2.31,10.41-3.13,13-13.08,12.67-21.43-.72-42.91,0-64.37-.34-7-.12-10,1.81-9.82,9.33.38,21.45.47,42.92,0,64.37-.2,8.43,3.42,9.92,10.75,9.82,25.31-.32,50.66.49,76-.39,11-.39,11.37,4.8,11.37,13.07s-.35,13.2-11.34,13c-35.61-.79-71.25-.69-106.86,0-10,.18-12-3.08-11.87-12.36C1013.83,1010.59,1013.52,975.82,1013.52,941.06Z"/><path class="cls-3" d="M1261.14,954.84c0,30.47-.35,60.94.22,91.4.16,9.08-2.44,11.61-11.46,11.43-20.91-.43-20.92,0-20.92-21.19,0-57.93-.22-115.86.2-173.79.08-9.58-2.47-12.82-12.23-12.28-14.55.8-29.18-.08-43.76.28-12.26.3-7.66-8.67-8.32-14.51-.7-6.18-.87-11.51,8.67-11.43q72.09.62,144.19,0c12-.11,8.55,7.76,8.93,13.89.41,6.56,1.08,12.81-9.31,12.3-15.41-.76-30.91.22-46.33-.36-8.08-.3-10.15,2.49-10,10.28C1261.38,892.18,1261.14,923.51,1261.14,954.84Z"/><path class="cls-4" d="M908.9,1224.94c-33.95-.13-54.63-20.14-55.67-53.86-1.07-34.28,19.77-58.58,52.47-60.82a70.23,70.23,0,0,1,26.67,2.85c4.47,1.44,4.69,4.09,3.82,7.89-1,4.23-2.93,6-7.25,4.06a17.75,17.75,0,0,0-3.74-.89c-39-7.9-65,19.54-55.14,58.21,6,23.49,26.81,34.41,55,28.92,4.08-.8,9.21-5.26,11.1,2.84,1.66,7.09-3.67,7.3-8.18,8.67C921.72,1224.72,915.35,1225.07,908.9,1224.94Z"/><path class="cls-5" d="M986.71,1141.7c23.87-.16,39.21,16.5,39.27,42.65.06,23-16.56,40.34-39,40.69-23,.36-39.92-16.33-40-39.33C946.93,1159.17,962.55,1141.85,986.71,1141.7Zm23.9,41.73c0-17.79-10.09-30.72-24-30.75-14.11,0-24.22,12.59-24.38,30.41-.16,17.19,10.46,31,24,31.07S1010.59,1200.57,1010.61,1183.43Z"/><path class="cls-6" d="M1132.8,1186.17c-5.57,0-11.15-.18-16.71.07-3.7.17-8.78-1.9-10.77,1.61-2.44,4.32.5,9.13,2.84,13.19,6.35,11,17.28,14.24,35.19,11.55,3.73-.56,9.45-5.73,11.71,1.87,2.4,8.09-4.76,7.89-9.29,8.82-17.48,3.57-34.58,3.7-47-11.92s-10.69-32.9-3-49.73c7.24-15.88,23.5-23,40.79-19.19,14.11,3.1,23.56,16.86,24.38,33.88.39,8.06-2.39,10.7-10.17,10C1144.83,1185.72,1138.79,1186.17,1132.8,1186.17Zm-7.89-10.5c2.13,0,4.38.44,6.38-.08,5.2-1.36,13.69,3.91,15.2-3.84,1.54-7.93-4.1-14.6-11.89-17.8-9.52-3.91-17.54-.64-24.12,6.58-3.2,3.51-6.33,8.09-4.61,12.63,1.91,5,7.47,1.81,11.38,2.44C1119.74,1176,1122.35,1175.67,1124.91,1175.67Z"/><path class="cls-7" d="M1057.94,1154.07c5-5.43,9-10.17,15.15-11.35,3.53-.69,9.08-3.83,10,3.37.59,4.5,1.41,8.89-6.13,9.74-12,1.35-17.59,9.83-18.08,21.4-.51,12.4-.52,24.82-.46,37.24,0,5.33-.54,8.94-7.42,9-7.17,0-7.14-4.07-7.14-9.14,0-20.14-.17-40.27,0-60.4,0-4.13-2.81-9.84,5-10.88C1056.81,1141.94,1055.84,1148.53,1057.94,1154.07Z"/><path class="cls-8" d="M705.75,1024c10,0,18.81,9,18.48,19-.32,9.6-8.56,17.45-18.39,17.51-10.64,0-18.5-8-18.17-18.68A18.32,18.32,0,0,1,705.75,1024Z"/><path class="cls-9" d="M1010.61,1183.43c0,17.14-10.9,30.85-24.41,30.73s-24.13-13.88-24-31.07c.16-17.82,10.27-30.43,24.38-30.41C1000.52,1152.71,1010.62,1165.64,1010.61,1183.43Z"/><path class="cls-10" d="M1124.91,1175.67c-2.56,0-5.17.33-7.66-.07-3.91-.63-9.47,2.61-11.38-2.44-1.72-4.54,1.41-9.12,4.61-12.63,6.58-7.22,14.6-10.49,24.12-6.58,7.79,3.2,13.43,9.87,11.89,17.8-1.51,7.75-10,2.48-15.2,3.84C1129.29,1176.11,1127,1175.67,1124.91,1175.67Z"/></svg>