<svg id="Capa_1" data-name="Capa 1" xmlns="http://www.w3.org/2000/svg" xmlns:xlink="http://www.w3.org/1999/xlink" viewBox="0 0 2032 2032"><defs><style>.cls-1{fill:url(#Degradado_sin_nombre_4);}.cls-2{fill:url(#Degradado_sin_nombre_2);}.cls-3{fill:url(#Degradado_sin_nombre_3);}.cls-4{fill:#231f1f;}</style><linearGradient id="Degradado_sin_nombre_4" x1="7204.64" y1="2914.25" x2="7204.73" y2="2914.25" gradientTransform="translate(-4810663.57 724943.37) rotate(-30.58) scale(626.08)" gradientUnits="userSpaceOnUse"><stop offset="0" stop-color="#909ca9"/><stop offset="1" stop-color="#ededee"/></linearGradient><linearGradient id="Degradado_sin_nombre_2" x1="7195.65" y1="2929.89" x2="7195.73" y2="2929.89" gradientTransform="translate(-3119876.24 -1270101.46) scale(433.7)" gradientUnits="userSpaceOnUse"><stop offset="0" stop-color="#939fab"/><stop offset="1" stop-color="#dcdee1"/></linearGradient><radialGradient id="Degradado_sin_nombre_3" cx="7228.08" cy="2922.12" r="0.09" gradientTransform="matrix(-552.96, -83.06, 167.99, -1105.92, 3506950.62, 3832788.37)" gradientUnits="userSpaceOnUse"><stop offset="0" stop-color="#ee352c"/><stop offset="1" stop-color="#a91d22"/></radialGradient></defs><path class="cls-1" d="M1198.7,849.5,1065.83,893c-23,9.68-124.82,57.89-148,59.67-8.24,7.91-16.81,15.83-26.37,23.74-28.34,24-61.24,48.25-72.86,81.76-22.08,110.79,200.2,141.1,280.56,145.06,7.25.33,17.15.33,17.48,0,.65-.66,6.59-11.21,12.85-24.72C1181.9,1073.9,1200,976.94,1183.86,863c.33-.33,1.65-.66,18.13-5.28Zm-30.33,17.8c1.15-.86,5.7,41.47,5.27,57.37-7-2.87-53.39-32.33-60.66-38.25-1-.66-1-.66,7.25-3.62C1134.08,877.85,1167.05,867.3,1168.37,867.3Zm-67.92,22.42c20.47,10.73,56.59,33.62,69.89,38.57,3.63,1.65,4,1-4.28,6.93-18.56,13.11-50.82,29.64-78.14,40.88,6.51-25.14,12.21-55.16,12.2-76.16-.66-10.22-.66-10.22.33-10.22ZM1086.6,895c2.12,22-3.78,57.28-12.19,80.11-14.14-9.77-38.75-41.06-42.86-58.68,1.64-1.32,54.72-21.76,55-21.43ZM1021,920.71c8.48,23,27.81,47.63,46.48,62.64-21.41,10.72-66.81,24.35-95.61,34.29,10.75-19.4,31.59-56.66,41.54-84.4,3.14-6.47,2.06-9.88,5.94-12.53.66.33,1.32,0,1.65,0ZM1000.89,929c-10.69,25-31.91,61.35-49.46,89-.66.66-.66.66-2.3-2.64-7.88-15.6-10.89-35.59-6.93-53.41,1.32-6.26,1.32-6.26,4.29-7.58,12.2-6.26,53.74-25.72,54.4-25.39ZM1174,936.21c.11,26.3-2.26,61.29-7.25,87,0,0-3-.66-6.27-1.64-18.91-4.94-56.93-24-69.56-34.29C1118,973,1152,954.56,1174,936.21ZM925.06,965.88c-3.46,22.63-.75,41.68,11.21,63-3.84,1.57-79.51,23.77-100.23,29-.66.33-.66,0-.66-1.65,7.15-40.49,53.55-74.7,89.68-90.33Zm156.6,28c23.67,14.33,56.16,27.05,84.4,33.63-15.4,8.82-79.74,35.41-122,50.11,14-25.68,28.88-60.81,37.59-83.74Zm-15.83,5.28c-9.12,24.5-27.55,60-43.51,86.7-23.17-13.29-47.61-32.62-60.67-51.1a761,761,0,0,0,104.18-35.6Zm99.24,34.61c-2.94,19-17.66,67.55-26,91.66-35.15-6.27-72-17.08-100.88-31.32,44.12-19.48,107.69-49.64,126.93-60.34Zm-229.13,7.92c-3.12,6.22-49.54,69.43-60,86.37-17.57-14.62-42.54-40.61-40.23-63,8.35-1.61,83.16-19.89,100.23-23.4Zm12.86,4.94c15.81,19.13,36.08,33.43,55.71,45.83-2,1.46-100.57,35.56-120,42.2a35,35,0,0,1-3.63-2.64C891.67,1115.41,925.12,1074.94,948.8,1046.65Zm80.11,57.37c29.89,12.14,72.37,22.25,103.52,25,2.31.33,3.3.33,3,.66-34.72,12.31-98.7,30.6-154.62,46.49-7-.16-3.69-1.88,1-7.59C998,1149.61,1016.34,1124,1028.91,1104Zm-17.8.33c-2.94,5.67-35.74,56-42.53,68.9-20.16-5.48-62.82-21.63-77.81-34.62,29.86-8,107.49-28.87,120.34-34.28Zm124.95,29.34c-.46,1.61-16.21,52.16-24.4,64.29-24.38-2.7-100.79-15.26-119.35-19.78C1052.29,1165.31,1086.45,1156.4,1136.06,1133.69Z"/><path class="cls-2" d="M1049.07,539.93c-27.58,9-133.25,43-145.06,73.84l13.52,12.86,32,10.22c40.27,7.3,122.62,21.55,163.19,28.36l1-7.59H1113L1101.49,656C1081,620,1062,583.32,1052,547.18c-1.65-6.92-2-7.25-3-7.25Zm-1.64,4.94c2.16,15.39,5,32.53,10.88,48.46,3.62,11.21,3.62,10.55-.66,9.24-10-3.37-68.92-12.44-99.24-17.15C970.05,576.71,1036.27,548.2,1047.43,544.87ZM950.5,590c25.73,9.16,81.18,19.1,114.73,21.76-14.32,7.53-35.41,18.37-47.15,26-7.5,5-7.61,3.41-15.16,2.31C983.83,621.39,961.3,599.06,950.5,590Zm-4,3c9.09,11.68,28.59,35.51,34.29,43.19-8.59-.7-47.22-9.26-58.68-13.51C921.1,614.41,932.39,603.87,946.54,593Zm120.34,24.07c4.14,7.69,15.15,30.36,18.79,35.28.66,1.32,2.31,1.32-11.87-1-34-5.61-44.84-7.25-44.84-7.58a298.41,298.41,0,0,0,37.92-26.71Z"/><path class="cls-3" d="M782.69,608.83c-3.83,5.4,2.87,14.83,9.56,20.11,153.59,121.74,84.34,251.89-62,368.92,151.11-89.12,384.25-163.94,557.17-190.23-87.24-150.25-303.66-143.37-457.61-177.7C819.41,626.5,786.63,622.87,782.69,608.83Zm26,25.39c10.32,3.78,33,9.55,42.86,12.19,1.19,2.07,14,43.27,16.49,54.4-13.45-23.44-35.22-48.54-59.35-66.59Zm49.46,13.51c115.28,27.32,83.68-5.39,21.1,57.37-3.85-16.69-13.16-40.73-21.1-57.37Zm86.7,16.49c6.94,16.84,10.56,48.08,7.59,66.92-14.89-4.92-48.24-14.07-64-19.12,6.9-10.24,51.18-45.33,56.37-47.8Zm6.93,1c5.73.38,83.67,14.36,95.94,18.13-28.11,13.63-61.37,30-83.74,46.15C964.21,708.05,959.73,684.17,951.82,665.21Zm106.82,21.1c-2.1,22.63-16.59,53.06-32,78.13-14.31-8.64-36.15-18.89-52.75-25.71C976.48,734.53,1049.16,689.46,1058.64,686.31Zm7.58,1.31c29.29,6.79,78.5,23.48,104.18,36.27-176,38.62-120.27,76.29-104.18-36.27Zm-182,41.87c7.9.43,54.6,15.1,57.37,17.15-15.9,13.15-38.47,34.43-55.39,50.44C887.84,779.09,887.15,752.29,884.23,729.49Zm293.42.33c-12.43,22.6-59.16,78.58-79.45,104.18-13.83-20.61-32.8-41.7-53.08-56.37C1076.08,763,1144.08,738.13,1177.65,729.82Zm7.91,2c32.55,16.63,69,46.74,91,72.53-243.19,20.72-161.27,72.8-91-72.53ZM961.71,754.55c4.19,1.11,43.94,21.05,47.8,23.41C987.93,789.17,958.12,805,938,817.52a310.15,310.15,0,0,0,23.74-63Zm-12.86,2.64c-4,21.53-17.82,53.88-31,73.52-7.56-7.32-15.78-14.91-24.4-19.12-2.63-1.32-4.94-2.64-4.94-3C890.43,804.91,942.74,760.06,948.85,757.19Zm79.78,32.64c19.79,12.66,44.32,31.55,60,47.47C882.34,892,944.8,915.07,1028.63,789.83Zm-21.1,5.27c-13.62,21.23-50.48,68.68-70.55,90.67-.33,0-.33-1.32-.33-3.63a82.61,82.61,0,0,0-8.57-36.27c-2.31-4.61-2.64-5.6-2.31-6.26C929.74,836.17,996.74,799,1007.53,795.1Zm-126.92,31c6.7,3,16.85,9.68,22.41,14.18-9.29,8.34-28.92,21.32-38.24,29.34-8.9,6.92-9.23,7.25-8.24,5.6,12.19-17.87,17.2-31,24.07-49.12Zm33.95,26.71c7.89,7.77,14.47,25.4,15.5,36.26-38.26,14.33-71.39,28.42-102.2,43.52,32.94-23.48,64.85-52.5,86.7-79.78Zm-15.49,3.62C879.49,882.58,842,914,812,932.25c.77-1.47,23.65-26.07,28-32.31C851.21,886.14,896.47,858.09,899.07,856.42Z"/><path class="cls-4" d="M623.44,1272.49c-114.56-6.29-126.75,186.52-12.86,196.82,9.18-1.74,35.42,32.11,45.49,43.52h32.64c-8.35-8.51-42.06-41.43-43.52-45.17,0-1,4.62-3,10.22-4.62,88.16-32.29,67.72-199.76-32-190.55Zm28.68,168.79c-73.85,32.82-115.83-49.44-89.35-110.11,13.85-26.38,32.31-38.57,59-38.57,74.69-8.9,86.35,124.51,30.33,148.68Zm564.09-113.74c-17.93-.67-29,10.89-36.93,25.06v-22.42h-23.73V1465h23.73c.34-22.78-2.35-92.65,5.94-97.92,9.62-19,25.77-22.92,41.87-16.48v-23.41Zm-139.13-1.32c-103.58,7.24-76.3,191.45,46.82,131.22v-21.1c-40.93,25.53-82.35,16.09-87.7-31.65h95.61c4.17-40.83-12.91-79.69-54.73-78.47Zm-38.57,59.35c5.92-50.22,67.28-53.54,71.54,0Zm-571.68-24.4c-76.63-40.52-14.28-89.82,38.58-57.69l.33-24.73c-75.56-30.76-149.77,48.43-51.1,101.54,64.78,31,30.94,90.89-32.64,60-7.26-3.63-13.19-6.6-13.52-6.6-1.32,7.91-.66,26.71-.66,26.71,82.25,37.9,158.86-44.72,59-99.24Zm959.39-35c-103.61,7.23-76.29,191.39,47.14,130.89V1436c-41,25.49-82.38,16.15-87.69-31.65H1481C1485.11,1363.59,1468.06,1324.59,1426.22,1326.22Zm-38.9,59c6-50.33,66.86-53.43,71.21,0ZM952.79,1361.5c-76.47-40.66-14.34-89.79,38.57-57.69l.33-24.73c-75.35-30.87-149.61,48.51-51.1,101.54,64.67,31,30,90.8-33,59.68-6.92-3.63-13.18-6.6-13.51-6.6-1.32,7.91-.66,26.71-.66,26.71,81.63,37.83,159.18-44.43,59.34-98.91Zm612.55-34.29c-18.12-.69-29,10.88-36.92,25.06v-22.42h-23.74v134.84h23.74c.32-22.78-2.32-92.39,5.94-97.59,9.64-19.15,25.76-22.62,41.86-16.15v-23.41Zm-801.13,33.63v-86H740.47V1465H841V1442.6H764.54Zm552.88,26.71-19.78,51.1c-10.14-26.64-29.11-81.25-37.91-108.47H1235c15.83,44.84,33,90.66,50.44,134.84,7.59.33,15.17,0,22.75,0,13.47-33.64,40.43-101.45,53.74-135.17h-23.41C1338.19,1330.18,1328,1357.21,1317.09,1387.55ZM819.6,1223c17.54.1,18-27,0-26.7C802.11,1195.9,801.78,1223.83,819.6,1223ZM811,1200.94c11.12-10.69,28.6,5.7,17.14,17.15C816.74,1228.74,799.87,1212.42,811,1200.94Zm5.6,9.89c4-1,5.06,4.36,6.59,7.26h3c-1.09-2-3.21-7.54-5.27-7.92a4.67,4.67,0,0,0,3-7.91c-1.6-1.88-7.3-1.19-9.89-1.32v17.15h2.31Zm0-7.91c1.53-.06,4.75,0,5.61.66.65.33.65,1,.65,2.31.25,3.21-3.83,3.06-6.26,3ZM422,1209.19c0-5.94-.33-10.55-.33-13.19-1.05,2.08,23.72,54.52,25.05,58h4c1.06-2.83,26.36-57.54,25.06-58.35h.33c-1.1,9.81-.55,48.11-.66,58.35h7.91v-67.25h-9.89c-2.6,5.9-23.23,50.41-24.73,55.38h-.33c-.8-4.32-21.66-49.8-23.73-55.05H414.09v67.25h7.58Zm78.13.33h6.93v41.87h-6.93Zm3.3-15.5c6.74.38,6.95-10.23,0-9.89C496.64,1183.83,496.53,1194.43,503.43,1194Zm51.76,58v-7.25c-36.84,22.43-38.09-49.54-.33-29v-8.24C506.48,1190,507.65,1273.76,555.19,1252ZM574.64,1230c-.86-10.57,7.71-22.08,17.48-15.83v-7.91c-7.34-2.63-15.23,2.38-17.15,10.22h-.33v-9.89h-7.58v48.13h7.58Zm44.18,25.38c30.79,2.18,32.78-52.28,1.32-50.44-31.62-2.08-33,51.23-1.32,50.44Zm-10.88-38.9c19.79-15.94,35.47,10.67,23.41,27.36-5,6.72-18.14,6.48-23.41,0C602.33,1237.94,601.72,1222.2,607.94,1216.44Zm68.24,35c5.67-4.54,6.19-13.94,1-18.8-3.89-5.27-18.42-6-18.13-14.17.64-9.1,14.25-7.43,19.45-3.3v-7.58c-20.45-10.9-40.84,15.55-15.49,25.38,22.86,9.46,1.81,23.68-11.87,11.54v8.24c6.46,4.37,19.7,3.66,25-1.31Zm36.6-46.16c-31.87-2-32.91,51.41-1,50.44,31.16,1.74,32.74-52.18,1-50.44ZM728,1230.29c1.7,24.92-33.06,24.28-31.65,0-1.29-24.82,33.41-25.2,31.65,0Zm20.77,24.06h7.58v-41.54h11.21v-6.59H756.3c-.72-10,.61-21.69,12.86-16.16v-6.92c-16.66-3.91-22.33,8.88-20.77,23.74h-8.25v6.59h8.25Zm31.65-13.18c-.91,12.36,10.62,17.25,19.78,12.52v-6.59c-5.85,3.92-13.12.9-12.2-7.25v-27h12.2v-6.59H788V1192c-2.64,1-5.28,1.65-7.58,2.31v11.54h-8.25v6.59h8.25Zm825.86,88.68c-12.9-11.9-31.56,7-19.13,19.45C1600,1361.24,1618.92,1342,1606.23,1329.85Zm-1,18.13c-11.13,10.71-28.31-5.66-17.48-17.14C1598.89,1320.13,1616.07,1336.5,1605.24,1348Zm-6.93-7.91c3.84-.59,5.84-5,3-7.91-1.61-1.89-7.3-1.2-9.89-1.32V1348h2.31v-7.25c3.62-1.17,5.24,4.54,6.59,7.25h3C1602.31,1346.18,1599.89,1340.54,1598.31,1340.07Zm-1.64-1.65H1594v-5.6c1.53-.06,4.74,0,5.6.66C1601.36,1335.13,1599.84,1339,1596.67,1338.42Zm-429.58-134.18h2.3V1187.1H1175v-2.31h-13.52v2.31h5.61Zm12.85-12.86v-4c-.41.35,7,15.86,7.26,16.81h1c.35-.92,7.5-16.51,7.25-16.81v16.81h2.31v-19.45h-2.64c-.84,2-6.43,14.29-6.92,16.15h-.33c-.26-1.24-6.38-14.22-6.93-15.82h-3v19.45h2.3Z"/></svg>