<svg id="Capa_1" data-name="Capa 1" xmlns="http://www.w3.org/2000/svg" viewBox="0 0 2032 2032"><defs><style>.cls-1{fill:#5b849e;}.cls-2{fill:#f4961d;}.cls-3{fill:#5a829c;}.cls-4{fill:#5b859e;}.cls-5{fill:#e0891a;}.cls-6{fill:#e38b1b;}.cls-7{fill:#567d95;}.cls-8{fill:#446377;}</style></defs><path class="cls-1" d="M496,1312.74c5.92-9.69,7.8-19.32,10.84-28.42q31.8-95.29,63-190.77c2.73-8.41,6.52-11.48,15.32-11a377.53,377.53,0,0,0,40.23,0c8.19-.41,11.08,2.16,12,10.45,6.43,55.31,12,110.69,15.83,166.23,2.86,41.76,4.27,83.62,7.22,125.37.83,11.74-3,14.92-13.93,14a197.15,197.15,0,0,0-28,0c-8,.45-11.41-1.63-11.52-10.63-.64-53.25-3.66-106.42-7.46-159.54-1.79-25.1-4.37-50.16-6.7-76.46-4.4,2.75-4.55,6.33-5.54,9.41-24.19,75.35-48.54,150.66-72.35,226.14-2.68,8.52-6.43,11.27-15.22,11.17-28.49-.32-28.51,0-37.26-27.47q-32.87-103.26-65.82-206.5c-1.26-3.93-1-8.91-6.77-12.55-2.37,41.43-5.13,81.79-6.88,122.2q-2.43,56-2.92,112.15c-.11,9.91-3.36,12.85-12.68,12.1a135.75,135.75,0,0,0-24.36,0c-10.11,1-12-3.33-11.69-12.51,3.38-98.35,10.24-196.41,22-294.13.89-7.44,3.84-9.49,10.83-9.3,14.62.39,29.3.77,43.88-.12,9.57-.58,13.31,3.16,16.11,11.85,21.71,67.2,43.89,134.25,65.95,201.34C491.79,1301,493.69,1306.21,496,1312.74Z"/><path class="cls-2" d="M1345.94,1377.57c16.93,8.45,32.62,16.71,48.69,24.12,7.13,3.28,9.34,6.22,4.14,13.17-6,8-8.06,22.11-16.48,24.29s-17.26-8.54-26.17-13.14a118.38,118.38,0,0,1-13.65-8c-19.7-13.73-39.51-21.52-65.2-15.79-21.22,4.74-43.74-.25-64.44-8.47-29-11.54-48-33.15-57.12-62.56-17.37-55.75-18.23-112.15-.34-167.75,19.36-60.1,67.34-90.45,130.08-85,57.2,5,91.45,34.2,104.25,90.56,10,44.14,10.33,88.61,0,132.81C1383,1330.78,1369.8,1356.48,1345.94,1377.57ZM1196.69,1243c.07,13.79.83,32.87,4.42,51.71a138.71,138.71,0,0,0,8.68,29.11c6.64,15.38,16.25,27.93,32.38,34.57,36.94,15.21,75.7.37,89-37.12,19-53.39,16.9-107.77.2-161.48-5.07-16.3-15.66-29.15-32.09-36.31-40.59-17.7-79.62,0-93.93,43.19C1197.74,1189.72,1196.18,1213.62,1196.69,1243Z"/><path class="cls-3" d="M1363.14,972.82c-28.34-20.74-50.64-46.42-64-82.58-4.46,13.08-5.18,23.11-6.73,33-1.72,11-4.23,21.61-17.13,25.59-13.26,4.1-21.93-2.67-29.54-11.74-18-21.52-23.83-47.49-26.32-74.56-2.78-30.19,4.74-58.9,12.9-87.46,1.28-4.45,3.31-8.35-.39-12.38-21.86-23.82-31.79-53.77-40.64-83.63-6-20.3-17.48-36.38-29.91-52.42-6.73-8.68-13.51-17.31-17.89-27.51-5.55-12.93-5.34-25.54,3.64-36.78,8.47-10.59,20.28-13,33.06-10.64a142,142,0,0,1,63.52,29.23c4.81,3.83,9.42,8,16,7.85,46.7-.77,84.23,21.29,119.58,48.36,51.59,39.51,92.15,87.51,116.65,148.65,12.07,30.1,27.27,58.93,41.06,88.34,4.27,9.09,10.17,15.65,20.31,19.46,39,14.64,71.81,39.28,103.5,65.54,4.64,3.85,8.47,8.77,12.25,13.52,11.29,14.17,11.27,14.7-6.9,18.71-21.67,4.78-44.16,5.7-65.74,14.29,4,8.63,11,14.28,18.91,18.31,29.21,15,51.27,38.25,72.81,62.15,3.47,3.84,7.12,7.79,5.27,13.75l.14-.3c-21.24-18.59-45.42-32.33-70.77-44.55-21-10.13-40.23-23.21-52.85-43.72-9.73-15.83-8.86-17.41,8.08-23.72A166.1,166.1,0,0,1,1641.66,977c3.9,0,8,.88,11.47-1.29.69-3.47-1.36-5.16-3.29-6.46-30.12-20.43-57.83-45.24-94.76-53.45-19.7-4.37-33.08-15.33-41.31-34q-22.39-50.67-46-100.79c-36.62-78.11-93.86-135.67-175.17-167.33-12.57-4.89-26.47-3.87-39.79-4.62-8.27-.46-14.81-3-20.78-8.4-15.06-13.76-33.8-20.75-52.55-27.4-6.37-2.26-14.27-4-19.29,2.42-4.77,6.11-2.56,13.22,1.14,19.45,3.11,5.22,6.09,10.66,10,15.23,21,24.46,35.13,52.29,43.83,83.36,6.14,21.93,14.49,43.09,31.79,59.41,8.45,8,6.2,18,2.46,27.28-10.46,26.06-15.24,52.92-13,81,1.43,18,5.62,35.24,13.64,51.46a48.35,48.35,0,0,0,5,8.35c2.73,3.49,5.87,8.06,10.66,6.85,5-1.27,2.85-6.94,3.3-10.55,3-23.87,5.22-47.81,23.29-66.5,4.12-4.26,6-6.29,8.69.92,15.61,42.67,38.58,81.33,64.94,118.11Z"/><path class="cls-2" d="M1028.64,1079c20.56-1,43.45,6.64,65.54,17.69,6.45,3.21,9.93,6.6,5.09,13.74a23.83,23.83,0,0,0-3.56,7.71c-2.38,10.19-7.39,10.46-16.51,6.9-22.27-8.71-45.64-12.73-69.17-6.14-32.56,9.13-41.63,43-18.91,68,7.18,7.93,16,13.77,25.18,19q28.47,16.4,57.29,32.2c35.19,19.31,50.93,46.06,47.14,80.64-4.18,38.08-29.22,68.19-65.41,78.09-44.4,12.15-85.94,5.1-125-18.88-5.58-3.42-6.95-6-3.88-12.36,9.5-19.64,9.17-19.8,28.87-11.74,24.27,9.94,49.06,14.13,74.9,6.75,37.91-10.83,47.7-49,19.64-76.46-15.06-14.76-34.81-22.16-52.28-33.15-12.69-8-26.34-14.51-38.63-23-26.81-18.63-35.76-45.59-31.51-76.84s23-51.9,51.44-64.43C993.36,1080.42,1008.6,1079,1028.64,1079Z"/><path class="cls-4" d="M793.43,1358.7c13.42-36,22.81-69.9,30.67-104.26q9-39.21,14-79.14c1-7.57,3.12-10.61,11-10.13,10.53.64,21.14.35,31.7.08,6-.14,8.73.74,7.27,8-16.82,83.82-35.81,166.9-80.53,241.35-13.76,22.91-30.82,42.88-54.58,56.22-20.33,11.41-41.47,13.37-63.4,5.5-6.51-2.34-11.49-26-6-29.44,2.69-1.65,7.09-.74,10.7-.61,19.16.7,37.49-.62,51.09-17,9.36-11.25,14-23.56,11-38.28-8.34-41.13-23.77-80.12-36-120.07q-14.82-48.32-30.93-96.24c-2.61-7.81-1.28-10,6.94-9.57,13.77.71,30.89-4.24,40.41,2.27,8.8,6,9.88,23.79,13.64,36.61,12.43,42.46,27.6,84.11,37.75,127.23C790.16,1339.19,791.31,1347.24,793.43,1358.7Z"/><path class="cls-2" d="M1443.06,1241.07c0-49.14.17-98.29-.16-147.42-.06-8.23,1.81-11.78,10.69-11.05a153.93,153.93,0,0,0,28,0c10-1,11.86,3.08,11.83,12.19-.32,83.66.07,167.32-.48,251-.08,12,3.3,15,14.92,14.63,25.14-.9,50.35-.08,75.52-.4,7-.09,9.76,1.21,9.8,9.21.15,29.18.52,29.18-28.93,29.18-36.14,0-72.29-.36-108.43.24-9.89.16-13.11-2.16-13-12.56C1443.38,1337.73,1443.07,1289.39,1443.06,1241.07Z"/><path class="cls-5" d="M1679.13,1385.11c2.93-7.82,5.12-13,6.84-18.41,1.55-4.85,4-7.2,9.58-6.82,6.82.46,4.86,5.23,5,8.82.23,6.88.21,13.79,0,20.68-.1,3.37,1.24,8.42-4,8.71-6.1.34-3.5-5.13-3.8-8.19-.43-4.26-.11-8.59-.11-13.4-5,2-4.18,6.5-6.09,9.34-2.74,4.07-1.19,12.31-7.91,12-6.13-.29-5.08-8.21-7.63-12.51-1.37-2.3-1.34-5.43-4.8-7.46-2.27,4.19-1,8.56-1.41,12.65-.28,3,.89,7.32-3.81,7.53s-4.12-4-4.15-7.14c-.08-7.7,0-15.41,0-23.12,0-3.76-.33-7.4,5.06-7.76,4.56-.31,7.65.66,9.23,5.61C1673,1371.34,1675.65,1376.77,1679.13,1385.11Z"/><path class="cls-6" d="M1633.78,1360c2.85,0,5.7-.14,8.54,0,2.27.14,5.42-.61,6,2.63s-2.13,4-4.7,4.07c-5.75,0-6.37,3.65-6.23,8.18.16,5.28.11,10.57,0,15.86-.08,3.11.65,7.18-4,7.45-5.18.3-4-4-4.15-7-.18-4.88-.12-9.76,0-14.64s.79-10.17-6.84-9.9c-2.65.09-5.07-1.13-4.48-4.25.45-2.38,3-2.34,5-2.38C1626.46,1360,1630.12,1360,1633.78,1360Z"/><path class="cls-7" d="M1261.52,645.8c10.3-.27,21.31,11,20.32,20.61-.53,5.21-1.59,12-6.93,13.2-5.08,1.15-5.29-5.88-7.22-9.47a75.56,75.56,0,0,0-10.22-15c-1.72-1.92-5-3.87-3-7.1C1256.1,645.32,1259.56,646.37,1261.52,645.8Z"/><path class="cls-8" d="M1363.14,972.82l2.79-2.73q9.51,10,19,20.08C1375.48,986.91,1369.49,979.65,1363.14,972.82Z"/><path class="cls-3" d="M1697.45,1099.87l1.48-.22c-.15.16-.38.49-.46.46a5.76,5.76,0,0,1-.87-.55S1697.45,1099.87,1697.45,1099.87Z"/></svg>