<svg id="Capa_1" data-name="Capa 1" xmlns="http://www.w3.org/2000/svg" viewBox="0 0 2032 2032"><defs><style>.cls-1{fill:#253858;}.cls-2{fill:#2683fe;}.cls-3{fill:#1f6cd1;}.cls-4{fill:#207cf6;}.cls-5{fill:#237ffa;}.cls-6{fill:#1c77f1;}.cls-7{fill:#207bf6;}.cls-8{fill:#1067e1;}.cls-9{fill:#1d77f2;}.cls-10{fill:#1973ed;}.cls-11{fill:#1a74ee;}.cls-12{fill:#146ce6;}.cls-13{fill:#0c62db;}.cls-14{fill:#1770ea;}.cls-15{fill:#1168e2;}.cls-16{fill:#095dd7;}.cls-17{fill:#176fea;}.cls-18{fill:#0f66e0;}.cls-19{fill:#0052cb;}.cls-20{fill:#095ed7;}.cls-21{fill:#166ee8;}.cls-22{fill:#0659d3;}.cls-23{fill:#065ad3;}.cls-24{fill:#0356cf;}.cls-25{fill:#fff;}</style></defs><path class="cls-1" d="M1728.83,1218.1c-12.16,0-24.31,0-36.47-.14-4.51,0-9,.59-13.54-.41-1.2-4.56-.45-9.19-.51-13.78-.13-10.86,0-21.72,0-32.57v-3l-.62-.24c-.63,1.06-1.26,2.11-1.87,3.19-15.86,28.11-40.13,44.37-71.53,50.21-21.48,4-42.86,3.46-63.8-3.38-23.93-7.8-42.15-22.93-55.57-44-12.9-20.27-19.51-42.73-22.8-66.32a231.1,231.1,0,0,1-2.16-40c1-28.14,6.21-55.29,19.55-80.4,17.56-33.07,44.26-54.13,81.5-60.69,21.14-3.73,42.15-2.8,62.63,4.23,23.08,7.93,40.23,22.89,51.9,44.24.67,1.22,1.3,2.45,2,3.67.06.12.3.13.5.21.56-.93.27-2,.28-2.94q0-20.46,0-40.92c0-4.76,0-4.76,4.63-4.76h42.32c1.2,0,2.41-.09,3.61-.13Z"/><path class="cls-2" d="M303.17,1007.06l39.54,0a21.07,21.07,0,0,1,5.58,4.54c6.93,7,13.76,14,20.86,20.82,24.34,23.23,47.68,47.47,71.6,71.13,1.2,1.19,3.29,2.35,2.44,4.27s-3,.78-4.53.79c-10.84.08-21.69,0-32.54,0a8.1,8.1,0,0,1-3-.24,87,87,0,0,1-30.93-5.85c-30.92-11.54-52.48-32.6-63.72-63.84a98.31,98.31,0,0,1-4.67-20.54c-.08-.59.2-1.34-.61-1.68v-3.34a7.54,7.54,0,0,0,0-4.46Z"/><path class="cls-3" d="M303.17,1008.73a4.33,4.33,0,0,1,0,4.46Z"/><path class="cls-2" d="M651.22,781.57q56.94,0,113.86,0c9.79,0,17.21,5.07,19.94,13.48a20.86,20.86,0,0,1,1,6.57q0,110.51,0,221c0,1.69,0,2.67-2.29,2.55-40.88-2.05-71.73-20.46-91.52-56.47-7.92-14.4-11.2-30.12-11.09-46.56.08-11.88,0-23.76.07-35.63,0-2.34-.41-3.15-3-3.13-14.1.14-28.21.19-42.31,0A104.84,104.84,0,0,1,540,817.75a99.72,99.72,0,0,1-6.86-33.33c-.09-2.3.46-2.92,2.82-2.91Q593.6,781.63,651.22,781.57Z"/><path class="cls-1" d="M1032.75,978.34V844.43c0-4,0-4,4-4,15.31,0,30.63.06,45.94-.05,2.71,0,3.45.83,3.45,3.48q-.09,129.32-.1,258.63c0,17.4-1.8,34.64-7.17,51.33-7.16,22.22-19.49,40.54-39.93,52.66-13.17,7.81-27.58,11.89-42.73,13.18a199.69,199.69,0,0,1-71.65-6.63C917,1211,917,1211,917,1203.35q0-19.63,0-39.26c0-3.62,0-3.64,3.29-2.47a150.66,150.66,0,0,0,56.91,8.45c12.89-.45,25.22-3.26,35.71-11.45s15.58-19.57,18.09-32.29a107.46,107.46,0,0,0,1.75-21Q1032.71,1041.83,1032.75,978.34Z"/><path class="cls-1" d="M1334.65,979.49c4.11-6.19,7.9-12.32,12.38-18,14.41-18.34,33.33-29.06,56.07-33.47,11.27-2.18,22.64-2.51,34.07-2.24,1.9,0,2.6.68,2.59,2.61,0,14.38-.07,28.77,0,43.15,0,2.35-.91,2.78-3,2.57-16.5-1.67-33-1.73-49.27,1.83-18.43,4-33.84,12.6-43.39,29.63-5.79,10.32-8.24,21.61-9,33.29-1,15.1-.43,30.23-.45,45.35q-.11,64.86,0,129.71c0,4.09,0,4.09-4.13,4.09-14,0-28-.07-42,.07-2.84,0-3.57-.81-3.57-3.62q.11-140.28,0-280.56c0-2.86.81-3.61,3.6-3.59q21.29.19,42.59,0c2.83,0,3.62.82,3.6,3.63-.14,14.19-.06,28.39-.06,42.58Z"/><path class="cls-2" d="M670.78,1137.82c-5.76.7-11.47-.07-17.1-1.08-32.22-5.75-57.13-22.37-74-50.51-9.32-15.54-13.56-32.58-13.59-50.67,0-12.34-.06-24.68,0-37,0-2.22-.61-2.75-2.76-2.73-13.09.1-26.18.23-39.26,0-38.2-.63-68.6-16.19-90-48.12-10.34-15.44-15.45-32.74-15.87-51.37,0-1.4-.16-2.43,1.89-2.42,16.52.12,33,.12,49.55.16,2.77,1.25,4.77,3.53,6.95,5.48,4,3.58,7.8,7.39,11.69,11.1,11.34,10.79,22.83,21.42,34.12,32.27,6,5.78,12.11,11.45,18.19,17.16,10.2,9.57,20.43,19.1,30.54,28.76,5.89,5.63,11.85,11.19,17.82,16.73,11,10.21,21.73,20.7,32.84,30.78,3.3,3,6.45,6.13,9.66,9.2,5.08,4.87,10.25,9.66,15.35,14.51q10.88,10.34,21.84,20.57c1.12,1,2.39,2.1,2.31,3.91q0,25.14,0,50.26A7.51,7.51,0,0,1,670.78,1137.82Z"/><path class="cls-1" d="M1208.23,1074.44v139.47c0,4.08,0,4.08-4.13,4.08-14.39,0-28.77-.06-43.16.06-2.74,0-3.66-.67-3.66-3.56q.1-140.31,0-280.61c0-2.86.87-3.61,3.64-3.59,14.48.13,28.95.06,43.43.06,3.87,0,3.87,0,3.87,4.07Q1208.24,1004.43,1208.23,1074.44Z"/><path class="cls-2" d="M555.92,1219.77c0,9.64,0,19.29.13,28.93,0,2.21-1.3,1.77-2.53,1.73-24.36-.63-46.15-8.48-65-23.93-20.22-16.61-32.48-37.93-36.43-63.9-1-6.54-1-13.12-.95-19.71q.06-13.07.14-26.13a2.32,2.32,0,0,1,3,.45c1,.85,1.89,1.79,2.8,2.71q47.3,47.38,94.69,94.65A19.68,19.68,0,0,1,555.92,1219.77Z"/><path class="cls-1" d="M1147.91,854.7c-.27-23.52,17.69-36.22,39.39-34.39a41.47,41.47,0,0,1,12.42,2.84,29.43,29.43,0,0,1,17.4,18.74,40.18,40.18,0,0,1,.71,23c-3.48,13.53-14.7,22.82-28.79,24.07-6.81.61-13.54.36-20-2C1155.13,881.87,1147.91,870.77,1147.91,854.7Z"/><path class="cls-4" d="M357.19,1007.09h16.15a25.38,25.38,0,0,1,5.76,4.72q86.49,86.61,173.11,173.08a16,16,0,0,1,3.71,4.81v15.59c-1.15,1-2.07.33-2.94-.43s-1.74-1.66-2.59-2.52q-73.83-73.9-147.77-147.68c-14.58-14.53-29.38-28.83-43.88-43.44C357.68,1010.15,355.78,1009.18,357.19,1007.09Z"/><path class="cls-5" d="M357.19,1007.09c.22,1.3,1.24,2,2.08,2.88,10.75,10.76,21.42,21.63,32.3,32.27,54.21,53,107.3,107.12,161.1,160.54,1,1,1.77,2.19,3.25,2.51v14.48c-1.48-.33-2.28-1.55-3.25-2.51l-97.46-97.43a11.93,11.93,0,0,0-3.91-3.07c0-.65-.13-1.29-.14-1.93-.06-6-.06-6-6.16-6-11.76,0-23.52,0-35.29,0-2.2,0-4.44.22-6.61-.41,12,0,24.11,0,36.17-.08,1,0,2.51.65,3-.62.38-1-.87-1.72-1.58-2.43-22.75-22.76-45.34-45.68-68.34-68.18-9-8.82-17.87-17.78-26.94-26.54a10.73,10.73,0,0,1-2.69-3.5Z"/><path class="cls-6" d="M555.92,1189.7a11.58,11.58,0,0,1-3.29-2.53L375.42,1010c-.85-.85-1.86-1.58-2.08-2.88h16.71a25.59,25.59,0,0,1,5.76,4.72q77.83,78,155.81,155.79a20.05,20.05,0,0,1,4.3,5.4Z"/><path class="cls-5" d="M670.57,1083.36a13.42,13.42,0,0,1-4.06-2.87c-8.47-8-16.82-16.19-25.35-24.16q-15-14-29.93-28.2c-9.35-8.85-18.81-17.57-28.1-26.49q-14.75-14.13-29.72-28c-9.51-8.81-18.9-17.75-28.33-26.64q-14.87-14-29.72-28c-6.18-5.87-12.55-11.53-18.58-17.55-2.41-2.4-5.56-4.09-7.09-7.34h13.37a15.5,15.5,0,0,1,5.4,3.78c11.26,11,22.93,21.58,34.27,32.51,5.86,5.65,11.84,11.19,17.81,16.74,10.92,10.15,21.57,20.58,32.63,30.59,3.37,3,6.58,6.25,9.86,9.38,5.16,4.93,10.39,9.78,15.55,14.71,10.11,9.65,20.38,19.15,30.5,28.8q8.74,8.33,17.62,16.54c7.4,6.86,14.61,13.94,22.06,20.75,1,1,2.21,2,2.24,3.66,0,3.28,0,6.55,0,9.82C671,1082,671.32,1082.82,670.57,1083.36Z"/><path class="cls-7" d="M670.56,1070.55a13.54,13.54,0,0,1-4.06-2.87c-8.46-8-16.87-16.14-25.33-24.18-9.95-9.43-19.88-18.88-29.93-28.2q-9.16-8.5-18.23-17.11c-10.09-9.56-20.28-19-30.32-28.61-5.89-5.63-11.91-11.12-17.81-16.75q-19.9-19-40-37.77c-7.38-6.89-15-13.51-21.81-21h13.35a29.92,29.92,0,0,1,7.16,5.66c8.27,8.13,16.86,15.9,25.23,23.91,9.9,9.49,20,18.79,29.9,28.26,6,5.7,12,11.29,18,17q15,14.1,29.94,28.21,9.29,8.81,18.63,17.52c9.92,9.34,19.79,18.73,29.76,28,4.07,3.78,7.82,7.92,12.21,11.36a9.43,9.43,0,0,1,3.73,5.32c0,3.1,0,6.19,0,9.27C671,1069.22,671.32,1070,670.56,1070.55Z"/><path class="cls-8" d="M555.92,1112.3v18.38c-1,.88-1.89.43-2.73-.25a24.4,24.4,0,0,1-2-1.92Q493,1070.36,434.88,1012.24a32.77,32.77,0,0,1-2.3-2.42c-.7-.85-1.09-1.75-.21-2.73h18.38a25.42,25.42,0,0,1,5.77,4.73q47.87,48,95.88,95.86A15.42,15.42,0,0,1,555.92,1112.3Z"/><path class="cls-9" d="M670.56,1058.3c-2.71-1.35-4.62-3.7-6.77-5.68-8.59-7.91-16.87-16.15-25.4-24.12q-15-14-29.94-28.2c-9.35-8.86-18.77-17.63-28.12-26.48-9.89-9.37-19.85-18.66-29.73-28-9.48-9-19.09-17.83-28.51-26.88-7.75-7.44-15.72-14.64-23.58-22a5.43,5.43,0,0,1-2.1-2.87h13.37c4,2,6.76,5.49,9.88,8.46,8.39,8,16.89,15.86,25.25,23.88,9.89,9.5,20,18.8,29.92,28.25,6.24,5.94,12.55,11.81,18.83,17.71q14.88,14,29.74,28c6.32,6,12.64,12,19,17.92,8.55,7.95,17,16,25.51,24,1.37,1.29,3.06,2.51,3.07,4.75C670.72,1050.81,671.57,1054.59,670.56,1058.3Z"/><path class="cls-10" d="M555.92,1173a5.36,5.36,0,0,1-2.66-1.92L391.93,1009.77a5.05,5.05,0,0,1-1.88-2.68h12.81a18,18,0,0,1,4.59,3.55c9.89,9.93,19.83,19.81,29.7,29.75,37.91,38.2,76.61,75.6,114.47,113.84a20.41,20.41,0,0,1,4.3,5.4Z"/><path class="cls-11" d="M670.56,1046.05c-3.69-2.24-6.39-5.62-9.53-8.47-8.71-7.9-17.06-16.2-25.59-24.3-9.87-9.37-19.74-18.75-29.72-28q-9.37-8.68-18.62-17.51-14.8-14.25-29.9-28.21c-6.6-6.1-13.11-12.28-19.6-18.49-8.5-8.13-17.15-16.08-25.73-24.13-.86-.82-1.86-1.57-2.09-2.87H522.6a15.63,15.63,0,0,1,5.4,3.78c10.93,10.56,22.13,20.83,33.1,31.35,6.08,5.83,12.26,11.58,18.4,17.35,10,9.41,20,18.77,29.94,28.22,6.1,5.81,12.29,11.54,18.42,17.32,9.78,9.21,19.53,18.47,29.37,27.61,3.93,3.65,7.56,7.64,11.73,11.06a4.4,4.4,0,0,1,2,3.46c0,3.28,0,6.56,0,9.83C671,1044.72,671.33,1045.52,670.56,1046.05Z"/><path class="cls-12" d="M432.37,1007.09a5.16,5.16,0,0,0,1.88,2.68q59.49,59.51,119,119a5.36,5.36,0,0,0,2.66,1.92v14.48c-1,.88-1.89.43-2.73-.25a26.08,26.08,0,0,1-2-1.92q-65.46-65.49-131-131a29.32,29.32,0,0,1-2.1-2.22c-.69-.86-1.09-1.75-.21-2.73Z"/><path class="cls-13" d="M555.92,1112.3a11.58,11.58,0,0,1-3.29-2.53l-99.8-99.8c-.85-.85-1.86-1.58-2.08-2.88H468a25.38,25.38,0,0,1,5.76,4.72q38.87,39,77.86,77.84a20.32,20.32,0,0,1,4.29,5.39Z"/><path class="cls-14" d="M670.55,1033.25a13.84,13.84,0,0,1-4-2.88c-8.52-8.09-17-16.26-25.51-24.35-9.87-9.36-19.73-18.73-29.7-28q-9.37-8.68-18.6-17.5-14.84-14.22-29.89-28.19c-6.6-6.1-13.07-12.31-19.61-18.46-6.26-5.9-12.68-11.64-18.75-17.75-.65-.65-1.23-1.38-1.84-2.07h12.8c3.22,1.58,5.61,4.27,8.1,6.67,4.67,4.5,9.47,8.85,14.14,13.35,10.45,10.09,21.17,19.91,31.66,30,6.07,5.83,12.27,11.54,18.41,17.31q14.76,13.88,29.5,27.79c9.43,8.89,19,17.68,28.27,26.7,1.65,1.6,3.7,2.78,4.89,4.86a2.93,2.93,0,0,1,.63,1.78C670.75,1026.09,671.54,1029.7,670.55,1033.25Z"/><path class="cls-12" d="M670.55,1021.55a18.8,18.8,0,0,1-5-3.89c-8.39-7.84-16.62-15.83-24.95-23.72-13.31-12.6-26.59-25.22-40-37.71-6-5.61-12-11.23-18-16.92q-19.89-18.94-40-37.71c-2.54-2.39-5.57-4.29-7.22-7.53h12.25c3.23,1.58,5.62,4.27,8.11,6.68,4.8,4.64,9.7,9.17,14.56,13.75,11.13,10.47,22.12,21.11,33.43,31.4,3.36,3.05,6.58,6.26,9.87,9.39q7.64,7.29,15.36,14.51c11,10.24,21.7,20.75,32.85,30.8,3,2.73,5.79,5.74,8.65,8.65a1.9,1.9,0,0,1,.52,1.53C670.75,1014.37,671.54,1018,670.55,1021.55Z"/><path class="cls-15" d="M670.55,1009.86a3.56,3.56,0,0,1-2.42-1.21c-3.68-3.52-7.38-7-11.07-10.52-11.55-11-23-22-34.65-32.91q-14.11-13.17-28.13-26.45c-9.95-9.42-20-18.68-29.89-28.23-4.85-4.7-9.9-9.19-14.85-13.8a4.93,4.93,0,0,1-1.89-2.67h11.14c4.59,2.44,7.66,6.65,11.42,10,4.73,4.27,9.35,8.7,13.95,13.13,10.59,10.23,21.44,20.17,32.07,30.35,5.74,5.51,11.59,10.91,17.42,16.32,10.91,10.14,21.55,20.57,32.61,30.56,2,1.77,4,3.52,4.74,6.28C670.76,1003.79,671.52,1006.87,670.55,1009.86Z"/><path class="cls-16" d="M555.92,1095a5.34,5.34,0,0,1-2.66-1.91l-83.37-83.36a5.16,5.16,0,0,1-1.88-2.68h15a25.16,25.16,0,0,1,5.76,4.73q31.33,31.47,62.81,62.79a20.05,20.05,0,0,1,4.3,5.4Z"/><path class="cls-17" d="M555.92,1159.63c-1.39-.29-2.15-1.41-3.06-2.31-21.26-21.25-42.29-42.75-63.84-63.71-28-27.22-55.28-55.18-83.07-82.62a12.19,12.19,0,0,1-3.09-3.9h7.79c3.56,2.06,6.46,5,9.32,7.82q66.52,66.45,133,132.9a23.3,23.3,0,0,1,2.91,4Z"/><path class="cls-13" d="M569.92,894.07h13.37c3.27,1.67,5.8,4.24,8.41,6.76,10.78,10.45,21.88,20.57,32.69,31,5.93,5.73,12,11.34,18.05,16.93,7.63,7,15,14.38,22.74,21.26,2.31,2,4.84,4,5.82,7.22v10.66c0,1.55-1.07,1.54-2.14,1.23a6.32,6.32,0,0,1-2.54-1.65c-3.19-3.09-6.46-6.1-9.65-9.19-8.37-8.12-17-16-25.4-24.06-9.76-9.34-19.68-18.53-29.49-27.82-9.48-9-19.15-17.73-28.46-26.88-.79-.78-1.73-1.39-2.55-2.13S568.82,895.53,569.92,894.07Z"/><path class="cls-18" d="M569.92,894.07c.4,2,2.29,2.57,3.53,3.76q12.45,11.91,24.93,23.8c10.14,9.62,20.26,19.27,30.51,28.79,6.11,5.67,12.23,11.32,18.22,17.12,6.65,6.44,13.44,12.74,20.19,19.08a9.32,9.32,0,0,0,3.26,2.08,28.56,28.56,0,0,1,0,11.13c-2.88-1.43-4.76-4.06-7.15-6.08-4.37-3.7-8.36-7.85-12.52-11.81C640,971.56,629.08,961.1,618,950.83q-9.87-9.18-19.59-18.48c-12.4-11.81-24.92-23.48-37.37-35.22-.93-.87-2-1.67-2.29-3.06Z"/><path class="cls-19" d="M670.56,999.83V988.7q0-6.12,0-12.26c-1.31-1.74-1.17-3.8-1.17-5.8,0-2.29-.07-4.58,0-6.86.22-3.85-.19-7.7,0-11.54s-.07-7.39-.07-11.09c0-2.14-1.81-3.15-3.15-4.35-8.3-7.39-16.15-15.25-24.32-22.78-5.51-5.08-10.85-10.34-16.42-15.37-1.26-1.14-3.25-2.22-2.07-4.58,9.84,0,19.68-.3,29.5,0,9.28.33,17.09,8.28,18,17.53.14,1.57.18,3.15.18,4.73q.08,109,.1,217.94c0,1.17.38,2.41-.35,3.51q-.06-18.33-.13-36.68,0-8.9-.08-17.78,0-6.4,0-12.81v-37.3q0-5.85,0-11.7v-11.69C670.55,1006.52,670.56,1003.18,670.56,999.83Z"/><path class="cls-20" d="M670.58,963.64q0,6.4,0,12.8c-3.57-2.2-6.31-5.4-9.33-8.21-11.73-10.89-23.24-22-34.86-33.05-9.47-9-18.86-18-28.56-26.77-4.33-3.9-8.12-8.38-12.82-11.88a4,4,0,0,1-1.71-2.46h13.37a24.6,24.6,0,0,1,6.62,5c11.1,10.92,22.67,21.35,33.87,32.16q9.11,8.79,18.48,17.28c4.26,3.85,8,8.25,12.61,11.73C669.42,961.11,669.8,962.5,670.58,963.64Z"/><path class="cls-19" d="M510.9,1007.09c9,0,18-.3,27,0,9.46.36,17.73,8.68,18,18,.29,9,0,18,0,27-1.31.82-2.29.15-3.22-.71-1.09-1-2.13-2.07-3.18-3.12q-18.51-18.48-37-37C511.41,1010.18,509.78,1009.14,510.9,1007.09Z"/><path class="cls-21" d="M555.92,1151.84c-1.48-.33-2.28-1.55-3.25-2.52Q486.46,1083.16,420.25,1017c-2.49-2.48-5.15-4.78-7.72-7.19a5,5,0,0,1-1.88-2.68h7.24a5.16,5.16,0,0,0,1.88,2.68l133.48,133.47a5.38,5.38,0,0,0,2.67,1.92Z"/><path class="cls-22" d="M555.92,1080a5.4,5.4,0,0,1-2.66-1.92l-68.34-68.32a5.09,5.09,0,0,1-1.87-2.68H497a25.06,25.06,0,0,1,5.75,4.72q24.39,24.51,48.91,48.89a20.17,20.17,0,0,1,4.29,5.39Z"/><path class="cls-23" d="M670.58,963.64c-2-.85-3.47-2.47-5-3.88-4.4-4-8.6-8.15-12.9-12.24q-16.51-15.69-33.06-31.35c-7.14-6.72-14.39-13.34-21.55-20a10.85,10.85,0,0,1-1.39-2.07H610a28,28,0,0,1,6.93,5.48c4.59,4.58,9.44,8.89,14.11,13.38,10.59,10.22,21.52,20.07,32.09,30.32,2.65,2.57,5.81,4.62,7.45,8.1Q670.59,957.49,670.58,963.64Z"/><path class="cls-24" d="M555.92,1066.09a5.36,5.36,0,0,1-2.66-1.92l-54.41-54.4a5.16,5.16,0,0,1-1.88-2.68H510.9a10.66,10.66,0,0,0,2.48,3.3l39.25,39.25a11.2,11.2,0,0,0,3.29,2.51Z"/><path class="cls-24" d="M670.6,951.35c-3.33-1.78-5.66-4.76-8.38-7.23-8.55-7.79-16.76-16-25.17-23.88-7.67-7.23-15.47-14.34-23.14-21.56-1.46-1.37-3.26-2.52-3.89-4.61h13.37c1.07,2.53,3.44,3.81,5.31,5.58,8.54,8.1,17,16.28,25.54,24.37q7.28,6.87,14.76,13.5a4.23,4.23,0,0,1,1.72,3.53C670.63,944.48,670.63,947.92,670.6,951.35Z"/><path class="cls-25" d="M1677.61,1075.57c.28,12.69-.08,26.53-3.27,40.23-7.76,33.28-33.71,56.78-67.76,61.17-14.26,1.84-28.34,1.47-42.14-2.71-21.37-6.48-35.42-20.94-43.91-41.18-5.86-14-8.51-28.74-9.56-43.82-1.14-16.44-.84-32.81,2.36-49,3.17-16.06,8.87-31,19.74-43.6,12.78-14.77,29.43-22.11,48.47-24.66,13.66-1.82,27.23-1.47,40.51,2.44,24.87,7.31,40.91,23.85,49.42,48a114.44,114.44,0,0,1,6.12,36C1677.7,1063.75,1677.61,1069,1677.61,1075.57Z"/></svg>