<?xml version="1.0" encoding="utf-8"?>
<!-- Generator: Adobe Illustrator 26.0.0, SVG Export Plug-In . SVG Version: 6.00 Build 0)  -->
<svg version="1.1" id="Capa_1" xmlns="http://www.w3.org/2000/svg" xmlns:xlink="http://www.w3.org/1999/xlink" x="0px" y="0px"
	 viewBox="0 0 218 252" style="enable-background:new 0 0 218 252;" xml:space="preserve">
<style type="text/css">
	.st0{fill:#FFFFFF;}
	.st1{fill:#D12539;}
	.st2{fill:#E06335;}
	.st3{fill:#8A2A3E;}
	.st4{fill:#DC3545;}
</style>
<g>
	<path class="st0" d="M91.3,236.4c-0.8-0.8-22.8-28.8-26-34.3c-2.9-4.8-5.6-9.8-8-14.9c-2.4-5.4-8.3-25.1-8.8-29.4
		c-0.8-6.2-0.6-12.4,0.7-18.5c0.9-3.4,2-6.7,3.3-9.9c2.1-5.6,4.8-11,7.9-16.1c3.7-6.6,8-12.9,12.2-19.2c4.3-6.5,8.6-13.1,12.3-20.1
		c3.1-5.6,5.5-11.6,7.2-17.7c1.5-6,2.1-12.3,1.8-18.5c-0.1-4.3-0.4-8.6-0.9-12.9c-0.4-3.9-0.9-7.2-1.3-9.6c2.4,1.8,4.5,3.8,6.3,6.2
		c1.2,1.6,2.2,3.3,3.2,5.1c2.9,4.5,5.4,9.2,7.7,14c3,6.7,5.5,13.7,7.5,20.8c2.1,7.4,3.4,15.1,4,22.8c0.5,6.7,0.4,13.4-0.4,20.1
		c-0.6,4.7-1.5,9.4-2.8,14c-0.1,0.3-0.1,0.5-0.1,0.8l0.3,0.2l15.1-19.1c0.3,2.4-1.4,19.8-2,23.6c-0.8,4.9-1.8,9.8-3.1,14.6
		c-1.5,5.7-3.4,11.2-5.8,16.6c-1.9,4.3-4.3,8.3-7.1,12c-3.7,4.7-8.2,8.9-12,13.6c-3.3,4.1-6.2,8.4-8.8,12.9
		c-1.2,2.3-2.3,4.8-3.1,7.3c-1.4,3.7-2.1,7.7-2,11.6c0.2,4.3,0.6,8.6,1.4,12.8C90,226.5,91.3,235.6,91.3,236.4z M103.5,58.8
		c-0.1,0.4-4.4,12.2-4.5,12.5C94.7,81.1,89,90,83.2,99c-3.7,5.7-7.6,11.2-11,17.1c-3,4.9-5.6,10-8.1,15.2c-2.5,5.1-4,10.6-4.5,16.3
		c-0.3,5.7,0.3,11.3,1.7,16.8c2.3,8.9,5.7,17.5,10.2,25.5c1.7,3.1,3.5,6.2,5.4,9.2c0.3,0.5,0.5,1.4,1.2,1.3c0.7-0.1,0.5-1,0.6-1.5
		c1.6-5.2,3.8-10.2,6.7-14.8c4.3-6.9,9.3-13.3,14.9-19.1c9-9.3,9.2-12,9.8-13.1c3.3-6.3,5.1-13.3,5.2-20.4c-6,4.1-12.4,8.2-19,12.2
		c-1.8,1.1-3.6,2.2-5.4,3.2c0.3-0.8,4-7.7,4.4-8.5c1.8-3.2,3.7-6.2,5.2-9.5c3.4-7.3,5-15,6.2-22.9c1.2-7.5,1.6-15,1.4-22.6
		c-0.1-2.5-0.2-5-0.5-7.5c-0.5-3.9-1.3-7.8-2.4-11.6C104.6,62,104,60.2,103.5,58.8z"/>
	<path class="st0" d="M99.2,222.7c-0.9-6.6-0.9-8.3-0.9-10.4c0.1-4,0.8-7.9,2-11.6c0.9-2.5,1.9-4.9,3.1-7.3
		c2.6-4.6,5.5-8.9,8.8-12.9c3.8-4.7,8.3-8.8,12-13.6c2.8-3.7,5.2-7.7,7.1-12c0.9-1.9,1.8-3.8,2.5-5.8c3.5-9.7,5.7-21.9,6.7-28.4
		c2.8-17.3,4.2-26.1,4.3-32.3c0.3-6.1,0.2-12.2-0.4-18.4c-0.8-6.6-2.3-13.1-4.5-19.3c1.1,1.3,9.1,11.2,12.2,18.8
		c0.7,1.8,1.3,3.5,1.3,3.5c1,3.2,1.8,6.4,2.3,9.8c1.8,9.6,2.4,19.5,2,29.3c-0.2,5.2-0.8,10.4-1.7,15.5c-1.2,8.3-3.5,16.4-6.7,24.1
		c-3.4,8-7.9,15.5-13.3,22.2c6.3-3.7,12.9-7.8,19.6-12.2c5-3.3,9.7-6.6,14.2-9.9c-1.2,2.6-2.4,5.3-3.6,7.9
		c-3,6.1-6.5,11.9-10.4,17.5c-3.9,5.8-8.7,10.8-14.3,15c-3.2,2.3-6.7,4-10,6.1c-7.8,5-15.2,10.5-21.2,17.7
		c-4.3,6.4-7.4,13.4-9.3,20.8C100.3,231,99.6,226.2,99.2,222.7z"/>
</g>
<rect x="-401.4" y="-607.7" class="st1" width="296" height="119"/>
<rect x="-35.4" y="-598.7" class="st2" width="533" height="160"/>
<rect x="-484.3" y="-422.9" class="st3" width="395" height="148"/>
<rect x="621.7" y="-880.2" class="st4" width="591.2" height="318.3"/>
</svg>
