<svg width="1200" height="476" viewBox="0 0 1200 476" fill="none" xmlns="http://www.w3.org/2000/svg">
<path fill-rule="evenodd" clip-rule="evenodd" d="M585.852 0C707.356 0.0313371 823.874 48.4012 909.788 134.474C995.701 220.548 1043.98 337.278 1044 459H128C128 205.579 332.857 0 585.823 0H585.852Z" fill="#000035"/>
<path fill-rule="evenodd" clip-rule="evenodd" d="M220.808 238C249.835 237.965 278.585 243.655 305.414 254.745C332.243 265.834 356.625 282.106 377.167 302.63C397.709 323.154 414.008 347.528 425.132 374.359C436.257 401.19 441.988 429.951 442 459H9.6946e-05C-0.0270934 429.973 5.6655 401.225 16.7521 374.402C27.8388 347.578 44.1019 323.206 64.6108 302.679C85.1198 282.153 109.472 265.874 136.274 254.776C163.076 243.677 191.802 237.977 220.808 238Z" fill="#000035"/>
<path fill-rule="evenodd" clip-rule="evenodd" d="M978.808 238C1007.84 237.965 1036.59 243.655 1063.41 254.745C1090.24 265.834 1114.63 282.106 1135.17 302.63C1155.71 323.154 1172.01 347.528 1183.13 374.359C1194.26 401.19 1199.99 429.951 1200 459H758C758 400.392 781.263 344.185 822.671 302.74C864.08 261.295 920.243 238.008 978.808 238Z" fill="#000035"/>
<path fill-rule="evenodd" clip-rule="evenodd" d="M775 75C776.584 75 778.132 75.47 779.448 76.3504C780.764 77.2308 781.789 78.4821 782.394 79.9457C782.999 81.4093 783.155 83.0194 782.844 84.5721C782.533 86.1247 781.768 87.5502 780.646 88.6678C779.524 89.7853 778.096 90.5448 776.542 90.85C774.988 91.1552 773.378 90.9924 771.917 90.3822C770.456 89.772 769.209 88.7418 768.333 87.4221C767.458 86.1025 766.994 84.5528 767 82.9692C767.024 80.8578 767.876 78.8402 769.372 77.35C770.868 75.8597 772.889 75.016 775 75Z" fill="white"/>
<path fill-rule="evenodd" clip-rule="evenodd" d="M919.969 200C921.553 199.994 923.103 200.429 924.422 201.25C925.742 202.071 926.772 203.24 927.382 204.61C927.992 205.98 928.155 207.489 927.85 208.945C927.545 210.402 926.785 211.741 925.668 212.793C924.55 213.845 923.125 214.562 921.572 214.854C920.019 215.145 918.409 214.999 916.946 214.432C915.482 213.865 914.231 212.904 913.35 211.67C912.47 210.436 912 208.985 912 207.5C912.024 205.523 912.87 203.632 914.359 202.232C915.847 200.831 917.86 200.03 919.969 200Z" fill="white"/>
<path fill-rule="evenodd" clip-rule="evenodd" d="M751 224C753.117 224.015 755.142 224.81 756.639 226.213C758.136 227.617 758.984 229.516 759 231.5C759 233.489 758.157 235.397 756.657 236.803C755.157 238.21 753.122 239 751 239C748.878 239 746.843 238.21 745.343 236.803C743.843 235.397 743 233.489 743 231.5C743.024 229.518 743.875 227.623 745.37 226.222C746.865 224.82 748.886 224.022 751 224Z" fill="white"/>
<path fill-rule="evenodd" clip-rule="evenodd" d="M401 63.0014C402.056 62.9818 403.106 63.1624 404.085 63.5324C405.065 63.9023 405.955 64.4539 406.702 65.1543C407.449 65.8546 408.038 66.6891 408.432 67.6078C408.827 68.5265 409.019 69.5105 408.998 70.5007C408.998 72.4897 408.156 74.3971 406.656 75.8035C405.156 77.2099 403.121 78 401 78C398.879 78 396.844 77.2099 395.344 75.8035C393.844 74.3971 393.002 72.4897 393.002 70.5007C392.981 69.5105 393.173 68.5265 393.568 67.6078C393.962 66.6891 394.551 65.8546 395.298 65.1543C396.045 64.4539 396.935 63.9023 397.915 63.5324C398.894 63.1624 399.944 62.9818 401 63.0014Z" fill="white"/>
<path fill-rule="evenodd" clip-rule="evenodd" d="M240.679 324.003C242.16 324.038 243.598 324.512 244.811 325.363C246.023 326.215 246.957 327.407 247.492 328.788C248.028 330.17 248.143 331.679 247.822 333.126C247.5 334.573 246.758 335.892 245.687 336.917C244.617 337.942 243.267 338.627 241.808 338.885C240.349 339.143 238.846 338.964 237.488 338.369C236.131 337.774 234.981 336.79 234.182 335.542C233.383 334.293 232.973 332.836 233.001 331.355C233.017 330.366 233.228 329.39 233.623 328.484C234.019 327.578 234.59 326.759 235.304 326.075C236.018 325.391 236.861 324.856 237.783 324.5C238.706 324.144 239.69 323.975 240.679 324.003Z" fill="white"/>
<path fill-rule="evenodd" clip-rule="evenodd" d="M1136.84 343.012C1137.9 342.954 1138.96 343.104 1139.95 343.452C1140.95 343.799 1141.86 344.337 1142.62 345.031C1143.39 345.726 1143.99 346.563 1144.4 347.489C1144.81 348.416 1145.01 349.412 1145 350.416C1145 352.428 1144.16 354.357 1142.66 355.779C1141.16 357.201 1139.12 358 1137 358C1134.88 358 1132.84 357.201 1131.34 355.779C1129.84 354.357 1129 352.428 1129 350.416C1128.98 349.436 1129.17 348.461 1129.56 347.552C1129.94 346.642 1130.52 345.816 1131.25 345.124C1131.99 344.432 1132.86 343.888 1133.82 343.525C1134.78 343.162 1135.81 342.988 1136.84 343.012Z" fill="white"/>
<path fill-rule="evenodd" clip-rule="evenodd" d="M1102 319C1102.79 319 1103.56 319.235 1104.22 319.674C1104.88 320.114 1105.39 320.738 1105.7 321.469C1106 322.2 1106.08 323.004 1105.92 323.78C1105.77 324.556 1105.39 325.269 1104.83 325.828C1104.27 326.388 1103.56 326.769 1102.78 326.923C1102 327.077 1101.2 326.998 1100.47 326.695C1099.74 326.393 1099.11 325.88 1098.67 325.222C1098.23 324.564 1098 323.791 1098 323C1098.01 321.942 1098.43 320.929 1099.18 320.18C1099.93 319.432 1100.94 319.008 1102 319Z" fill="white"/>
<path fill-rule="evenodd" clip-rule="evenodd" d="M1098 403C1098.79 403 1099.56 403.205 1100.22 403.59C1100.88 403.974 1101.39 404.521 1101.7 405.161C1102 405.8 1102.08 406.504 1101.92 407.183C1101.77 407.862 1101.39 408.485 1100.83 408.975C1100.27 409.464 1099.56 409.798 1098.78 409.933C1098 410.068 1097.2 409.998 1096.47 409.734C1095.74 409.469 1095.11 409.02 1094.67 408.444C1094.23 407.869 1094 407.192 1094 406.5C1094.01 405.574 1094.43 404.688 1095.18 404.033C1095.93 403.378 1096.94 403.007 1098 403Z" fill="white"/>
<path fill-rule="evenodd" clip-rule="evenodd" d="M1173.5 401C1174.19 401 1174.87 401.235 1175.44 401.674C1176.02 402.114 1176.47 402.738 1176.73 403.469C1177 404.2 1177.07 405.004 1176.93 405.78C1176.8 406.556 1176.46 407.269 1175.97 407.828C1175.49 408.388 1174.86 408.769 1174.18 408.923C1173.5 409.077 1172.8 408.998 1172.16 408.696C1171.52 408.393 1170.97 407.88 1170.59 407.222C1170.21 406.565 1170 405.791 1170 405C1170.01 403.942 1170.38 402.929 1171.03 402.18C1171.69 401.432 1172.57 401.008 1173.5 401Z" fill="white"/>
<path fill-rule="evenodd" clip-rule="evenodd" d="M885.5 245C886.192 245 886.869 245.205 887.445 245.59C888.02 245.974 888.469 246.521 888.734 247.161C888.998 247.8 889.068 248.504 888.933 249.183C888.798 249.862 888.464 250.485 887.975 250.975C887.485 251.464 886.862 251.798 886.183 251.933C885.504 252.068 884.8 251.998 884.161 251.734C883.521 251.469 882.974 251.02 882.59 250.444C882.205 249.869 882 249.192 882 248.5C882.007 247.574 882.378 246.688 883.033 246.033C883.688 245.378 884.574 245.007 885.5 245Z" fill="white"/>
<path fill-rule="evenodd" clip-rule="evenodd" d="M882 168C882.791 168 883.565 168.235 884.222 168.674C884.88 169.114 885.393 169.738 885.696 170.469C885.998 171.2 886.077 172.004 885.923 172.78C885.769 173.556 885.388 174.269 884.828 174.828C884.269 175.388 883.556 175.769 882.78 175.923C882.004 176.077 881.2 175.998 880.469 175.695C879.738 175.393 879.114 174.88 878.674 174.222C878.235 173.564 878 172.791 878 172C878.008 170.942 878.432 169.929 879.18 169.18C879.929 168.432 880.942 168.008 882 168Z" fill="white"/>
<path fill-rule="evenodd" clip-rule="evenodd" d="M700.5 59.0053C700.965 58.9756 701.43 59.0715 701.865 59.287C702.299 59.5025 702.694 59.8328 703.023 60.2565C703.353 60.6802 703.609 61.1879 703.777 61.747C703.944 62.3062 704.019 62.9042 703.996 63.5027C703.996 64.6954 703.628 65.8394 702.972 66.6828C702.316 67.5262 701.427 68 700.5 68C699.573 68 698.684 67.5262 698.028 66.6828C697.372 65.8394 697.004 64.6954 697.004 63.5027C696.981 62.9042 697.056 62.3062 697.223 61.747C697.391 61.1879 697.647 60.6802 697.977 60.2565C698.306 59.8328 698.701 59.5025 699.135 59.287C699.57 59.0715 700.035 58.9756 700.5 59.0053Z" fill="white"/>
<path fill-rule="evenodd" clip-rule="evenodd" d="M395.5 192C396.192 192 396.869 192.205 397.444 192.59C398.02 192.974 398.469 193.521 398.734 194.161C398.998 194.8 399.068 195.504 398.933 196.183C398.798 196.862 398.464 197.485 397.975 197.975C397.485 198.464 396.862 198.798 396.183 198.933C395.504 199.068 394.8 198.998 394.161 198.734C393.521 198.469 392.974 198.02 392.59 197.445C392.205 196.869 392 196.192 392 195.5C392.007 194.574 392.378 193.688 393.033 193.033C393.688 192.378 394.574 192.007 395.5 192Z" fill="white"/>
<path fill-rule="evenodd" clip-rule="evenodd" d="M348.5 116C349.192 116 349.869 116.235 350.444 116.674C351.02 117.114 351.469 117.738 351.734 118.469C351.998 119.2 352.068 120.004 351.933 120.78C351.798 121.556 351.464 122.269 350.975 122.828C350.485 123.388 349.862 123.769 349.183 123.923C348.504 124.077 347.8 123.998 347.161 123.696C346.521 123.393 345.974 122.88 345.59 122.222C345.205 121.564 345 120.791 345 120C345.007 118.942 345.378 117.929 346.033 117.18C346.688 116.432 347.574 116.008 348.5 116Z" fill="white"/>
<path fill-rule="evenodd" clip-rule="evenodd" d="M103.969 323C104.762 322.994 105.538 323.223 106.2 323.659C106.862 324.095 107.379 324.718 107.687 325.448C107.994 326.178 108.078 326.983 107.927 327.761C107.776 328.539 107.397 329.255 106.839 329.817C106.281 330.38 105.568 330.764 104.792 330.921C104.015 331.078 103.209 331 102.476 330.698C101.744 330.397 101.117 329.884 100.676 329.226C100.235 328.567 100 327.793 100 327C100.008 325.947 100.428 324.939 101.169 324.191C101.911 323.444 102.916 323.016 103.969 323Z" fill="white"/>
<path fill-rule="evenodd" clip-rule="evenodd" d="M262.5 402C263.192 402 263.869 402.235 264.444 402.674C265.02 403.114 265.469 403.738 265.734 404.469C265.998 405.2 266.068 406.004 265.933 406.78C265.798 407.556 265.464 408.269 264.975 408.828C264.485 409.388 263.862 409.769 263.183 409.923C262.504 410.078 261.8 409.998 261.161 409.695C260.521 409.393 259.974 408.88 259.59 408.222C259.205 407.564 259 406.791 259 406C259.007 404.942 259.378 403.929 260.033 403.181C260.688 402.432 261.574 402.008 262.5 402Z" fill="white"/>
<path fill-rule="evenodd" clip-rule="evenodd" d="M305.815 353.017C306.375 352.965 306.941 353.032 307.472 353.214C308.002 353.396 308.484 353.688 308.883 354.069C309.281 354.451 309.586 354.912 309.776 355.42C309.967 355.928 310.037 356.469 309.982 357.006C310.009 357.537 309.921 358.068 309.721 358.563C309.521 359.059 309.215 359.51 308.823 359.886C308.43 360.261 307.959 360.554 307.441 360.745C306.923 360.937 306.369 361.022 305.815 360.995C305.288 360.984 304.769 360.871 304.29 360.661C303.811 360.452 303.382 360.152 303.028 359.779C302.674 359.406 302.403 358.967 302.232 358.491C302.061 358.014 301.992 357.509 302.032 357.006C301.962 356.498 302.008 355.981 302.168 355.492C302.327 355.002 302.597 354.552 302.957 354.172C303.317 353.792 303.759 353.492 304.253 353.293C304.746 353.094 305.279 352.999 305.815 353.017Z" fill="white"/>
<path d="M595.612 284.154L647.488 327.405L699.836 371.04C707.813 377.745 713.543 386.743 716.251 396.818C718.959 406.893 718.514 417.559 714.977 427.372C711.44 437.186 704.982 445.674 696.475 451.688C687.968 457.702 677.823 460.952 667.413 460.999H458.141C447.241 461.057 436.61 457.603 427.816 451.148C419.021 444.693 412.528 435.577 409.293 425.143C406.057 414.71 406.251 403.51 409.845 393.196C413.439 382.881 420.244 373.996 429.256 367.85L478.008 327.346L530.178 283.74C539.392 276.092 550.996 271.936 562.96 272.001C574.923 272.066 586.482 276.347 595.612 284.095V284.154Z" fill="#666666"/>
<path fill-rule="evenodd" clip-rule="evenodd" d="M663.412 340L700 371H425L429.19 367.84L462.296 340H663.412Z" fill="#333333"/>
<path fill-rule="evenodd" clip-rule="evenodd" d="M618.802 294.968L611.12 304.397L592.268 288.672L599.95 279.242L618.802 294.968ZM593.332 274.276L587.038 284.74H586.683V284.415H586.329L586.004 284.06H585.649L585.353 283.735L584.999 283.381H584.644L584.319 283.026H583.965L583.61 282.671H582.901V282.346H582.221V281.991H581.867L581.512 281.637H580.803L580.478 281.282H579.769V280.927H579.06L578.735 280.602H578.025V280.247H576.991L576.637 279.893H575.927L575.573 279.538H574.539V279.183H573.15V278.858H571.732L571.407 278.503H569.309V278.149H566.856L567.624 266H570.402L570.756 266.355H572.5L572.854 266.709H574.598L574.952 267.064H575.987L576.341 267.419H577.375L577.73 267.774H578.794L579.119 268.099H579.828L580.182 268.453H581.217V268.808H581.926L582.28 269.163H582.96L583.315 269.518H584.024L584.378 269.843H584.703L585.058 270.197H585.767L586.122 270.552H586.447L586.801 270.907H587.156L587.511 271.261H587.865L588.19 271.587H588.899V271.912H589.254L589.608 272.266H589.963L590.288 272.621H590.643L590.997 272.976H591.263L591.618 273.331L591.943 273.656H592.297L592.652 274.01H593.007L593.361 274.365L593.332 274.276ZM553.884 266.236L555.982 278.474H554.918V278.829H553.53L553.175 279.154H551.786V279.508H550.398V279.863H549.334L549.009 280.218H548.3V280.779H547.59L547.236 281.105H546.556V281.459H545.847L545.492 281.814H545.167L544.813 282.169H543.985L543.631 282.523H543.306L542.951 282.849H542.597V283.203H541.888V283.558H541.208V283.735H541.031L540.676 284.09H540.321L539.967 284.445H539.642V284.77H539.287L538.933 285.125H538.578V285.479H538.076L537.751 285.834H537.396V286.189H537.042L536.687 286.514H536.332V286.869L529.211 277.144L529.566 276.819L529.92 276.464L530.275 276.109H530.63V275.754H530.955L531.309 275.4H531.664V275.075H532.018L532.166 274.868H532.491L532.846 274.513L533.2 274.158H533.555L533.909 273.804L534.234 273.478H535.121L535.475 273.124L535.83 272.769H536.185L536.51 272.414H536.864L537.219 272.06H537.573L537.928 271.705H538.076V271.38H538.785L539.14 271.025H539.819V270.67H540.174L540.528 270.316H541.237L541.562 269.961H541.917L542.272 269.636H542.981L543.335 269.281H543.985L544.34 268.926H545.049V268.572H546.083L546.438 268.217H547.118L547.472 267.892H548.536L548.891 267.537H549.925L550.279 267.182H551.314L551.668 266.828H553.411L553.766 266.473L553.884 266.236ZM519.342 285.095L526.995 294.524L508.173 310.338L500.49 300.909L519.342 285.095ZM491.064 308.506L498.747 317.905L481.934 331.975L479.836 333.719L472.153 324.29L474.251 322.546L491.064 308.506ZM462.786 331.887L470.469 341.316L451.971 357.012L443.934 347.582L462.786 331.887ZM434.508 355.534L442.545 364.963L433.119 372.648H432.765V373.003H432.41L432.085 373.358H431.701V373.683H431.346V374.037H430.992L430.637 374.392H430.283V374.747H429.958V375.368H429.603V375.693H429.248L428.894 376.048H428.539V376.402H428.214V376.757H427.86V377.112H427.505V377.437H427.15V377.791H426.796V378.146H426.471V378.324H426.116V378.678H425.791V379.033H425.437V379.358H425.082V379.713H424.727V380.067H424.402L415.331 372.027L415.656 371.702L416.011 371.348L416.365 370.993L416.72 370.638V370.284H417.074V369.929H417.399L417.754 369.604V369.456H418.109V369.101H418.463L418.818 368.746V368.392H419.172L419.497 368.067L419.852 367.712L420.207 367.357H420.561V367.003L420.916 366.648H421.241V366.323H421.595L421.95 365.968L422.305 365.613H422.659V365.258H422.984V364.904H423.339V364.549H423.693L424.048 364.224H424.402V363.869H424.727V363.544H425.082L425.437 363.189L434.508 355.534ZM407.648 383.112L418.463 389.024L418.109 389.378V389.733H417.754V390.088V390.413H417.399V390.768V391.122L417.074 391.477V391.832L416.72 392.157V392.512V393.103H416.365V393.458V393.812L416.011 394.138V394.492V394.847L415.656 395.202V395.556V395.911H415.331V396.236V396.591V396.946L414.976 397.3V397.655V397.98L414.622 398.335V398.69V399.015V399.369L414.267 399.695V400.049V400.404V400.759V401.113L413.913 401.468V401.793V402.148V402.503V402.857L413.588 403.212V403.537V403.892V404.247V404.601V404.926V405.252V405.606L413.233 405.961V406.316V406.67V407.025V407.35V408.06V408.414V408.769V409.094V409.449V409.804H401V409.449V408.769V408.06V407.882V407.202V406.493V405.784V404.926H401.355V404.217V403.862V403.183V402.473V402.118L401.709 401.764V401.439V400.729V400.02L402.064 399.665V399.015V398.305L402.418 397.951V397.271V396.916V396.561L402.743 396.207V395.881V395.172H403.098V394.463V394.108L403.453 393.783V393.428V393.103L403.807 392.748V392.394V392.068V391.714H404.162V391.004L404.487 390.65V389.97L404.841 389.615V389.26L405.196 388.906V388.551V388.226L405.55 387.871V387.191H405.905V386.836V386.511H406.23V385.802L406.585 385.447V385.093H406.939V384.767V384.235L407.294 383.881V383.526L407.648 383.112ZM402.418 423.282L414.238 420.474H414.592V421.539L414.947 421.864V422.662L415.301 423.016V423.696V424.051L415.627 424.406V424.76V425.115L415.981 425.47V425.795L416.336 426.15V426.859L416.69 427.214V427.539L417.045 427.894V428.574H417.37V429.253H417.724V429.963L418.079 430.317V430.672L418.434 431.027V431.529L418.788 431.884L419.143 432.239V432.593L419.468 432.948V433.273H419.882V433.983H420.236V434.338L420.591 434.692L420.945 435.017V435.372L421.27 435.727V436.081H421.625V436.436H421.979V436.791L422.334 437.116V437.441L422.689 437.796L423.014 438.151L423.368 438.505V438.83H423.723V439.185H424.077V439.54L415.006 447.58L414.651 447.225V446.87H414.297L413.942 446.516V446.161L413.617 445.836H413.263V445.481L412.908 445.126V444.772L412.553 444.417H412.199V444.092L411.844 443.737V443.353H411.519V442.998L411.165 442.644L410.81 442.318V441.964L410.456 441.609L410.101 441.254V440.9L409.776 440.545V440.22L409.421 439.865L409.067 439.51V439.156L408.712 438.801V438.476L408.358 438.121L408.033 437.766V437.441L407.678 437.086V436.761L407.323 436.407V436.052L406.969 435.697L406.614 435.343V434.663L406.26 434.308V433.953L405.935 433.599V432.919L405.58 432.564V432.209H405.107V431.529L404.753 431.204V430.495L404.398 430.14V429.785L404.073 429.431V428.574L403.718 428.219V427.184L403.364 426.83V426.12L403.009 425.765V425.086L402.655 424.731V423.667L402.418 423.282ZM425.082 456.447L432.085 446.664H432.41V447.018H433.119V447.373H433.474L433.828 447.728L434.153 448.053H434.656L435.01 448.407H435.365V448.762H436.045V449.265H436.754V449.619H437.108L437.463 449.945H437.611L437.936 450.299H438.29L438.645 450.654H438.999L439.354 451.009H439.679L440.034 451.363H440.743V451.689H441.422L441.777 452.043H442.486V452.398H443.52V452.753H444.584V453.107H445.618V453.433H447.007V453.787H448.425L448.78 454.142H450.169L450.523 454.497H451.912L450.169 466.704H449.43L449.076 466.379H447.332L446.978 466.025H445.589L445.234 465.67H444.2L443.845 465.315H442.811L442.457 464.96H441.747L441.393 464.606H440.713L440.359 464.281H439.324L438.97 463.926H438.261L437.906 463.571H437.611V463.216H436.901L436.547 462.862H435.838L435.513 462.537H435.158L434.804 462.182H434.094L433.769 461.827L433.415 461.473H433.06L432.706 461.118H432.026L431.671 460.793H431.317L430.962 460.438L430.608 460.083H430.253L429.928 459.729H429.573L429.219 459.374H428.864V459.019H428.51L428.185 458.694H427.83L427.476 458.339H427.121V458.132H426.766L426.441 457.778H426.087L425.732 457.423L425.378 457.098L425.082 456.447ZM463.495 466.911V454.881H487.843V467L463.495 466.911ZM500.135 466.911V454.881H524.572V467L500.135 466.911ZM536.776 466.911V454.881H561.212V467L536.776 466.911ZM573.416 466.911V454.881H598.207V467L573.416 466.911ZM610.411 466.911V454.881H634.847V467L610.411 466.911ZM647.08 466.911V454.881H668.089V467H668.444L671.606 463.867L674.383 460.911V466.823H647.169L647.08 466.911ZM662.18 454.881H670.897L671.606 460.793M674.383 460.793V461.088ZM674.383 460.763H668.089ZM685.198 464.251L681.711 452.723H682.066V452.368H683.1V452.221H684.164V451.866H684.844V451.541H685.553L685.907 451.186H686.587V450.831H687.296L687.651 450.477H688.005V450.122H688.685V449.797H689.394V449.265H690.103V448.91H690.428L690.783 448.555H691.137L691.492 448.201H691.728V447.875H692.408V447.521H692.763V447.166H693.472V446.811H693.826V446.457H694.151L694.506 446.102H694.86V445.777H695.215V445.422H695.57L695.895 445.067L696.249 444.713H696.604V444.358H696.958V444.033H697.313L697.638 443.678L697.993 443.323L698.347 442.969H698.702V442.614H699.056V442.289H699.381V441.934H699.736V441.579L708.6 450.299L708.246 450.654H707.891V451.009L707.537 451.363H707.182V451.689H706.857V452.221H706.503V452.575H706.148V452.93H705.793V453.285H705.439L705.084 453.61L704.759 453.965L704.405 454.319H704.05V454.674H703.548L703.193 455.029V455.176H702.868L702.514 455.502H702.159V455.856H701.804L701.45 456.211L701.125 456.566H700.77V456.92H700.593L700.238 457.246H699.884L699.529 457.6L699.204 457.955H698.85V458.31H698.14V458.664H697.638L697.313 458.99H696.958V459.344H696.249V459.699H695.57V460.054H695.215V460.408H694.683V460.763H694.004V461.088H693.294V461.443H692.585V461.798H691.728L691.374 462.152H691.019L690.665 462.507H689.985L689.63 462.832H688.921V463.187H688.242L687.887 463.542H687.178V464.044H686.144V464.399H685.08L685.198 464.251ZM716.963 439.451L706.503 433.214L706.857 432.889V432.534L707.182 432.18V431.825L707.537 431.47V431.145L707.891 430.79V430.436L708.246 430.081L708.6 429.726V429.046H708.926V428.337H709.28V427.628L709.635 427.303V426.593L709.989 426.238V425.884L710.344 425.559V424.849L710.669 424.494V423.785L711.024 423.46V422.396H711.378V421.361L711.733 421.006V420.297V419.972L712.087 419.617V419.263V418.198L712.442 417.873V416.75V415.715H712.767V414.651V413.262V412.907L725 413.617V416.395L724.645 416.75V418.849L724.291 419.203V420.947L723.936 421.302V422.337L723.611 422.691V423.726L723.257 424.081V425.145L722.902 425.499V426.534L722.547 426.889V427.569L722.193 427.923V428.574L721.838 428.928V429.253L721.513 429.608V430.317L721.159 430.672V431.529L720.804 431.884V432.239L720.45 432.593V433.273L720.095 433.628V433.983H719.77V434.692L719.415 435.017V435.372L719.061 435.727V436.081L718.706 436.436V436.791L718.352 437.116V437.441H718.026V437.796L717.672 438.151V438.505L717.317 438.83V439.185L716.963 439.54V439.451ZM724.232 400.049L712.028 402.148V401.113V400.759L711.674 400.404V400.049V399.015H711.319V397.951L710.964 397.625V396.916L710.61 396.561V395.881V395.527L710.285 395.172V394.817L709.93 394.463V394.108V393.783L709.576 393.428V393.103L709.221 392.748V392.394V392.068L708.866 391.714V391.359L708.541 391.004V390.65L708.187 390.324V389.97L707.832 389.615V389.26L707.478 388.906V388.551L707.123 388.226V387.871L706.798 387.516L706.503 387.191V386.836L706.148 386.511V386.157H705.793V385.802L705.439 385.447V385.093L705.084 384.767L704.759 384.413V384.058H704.405V383.703L704.05 383.349L703.695 382.994V382.669L713.121 375.338H713.476V375.663L713.831 376.018L714.185 376.373L714.51 376.727V377.082L714.865 377.407L715.219 377.762V378.117H715.367V378.324L715.722 378.678V379.033L716.047 379.358V379.713H716.401V380.067L716.756 380.422L717.11 380.777V381.279L717.465 381.634V381.989H717.82V382.698L718.145 383.023V383.378L718.499 383.733V384.088L718.854 384.442L719.208 384.797V385.122L719.563 385.477V386.186L719.888 386.541V386.866L720.243 387.221V387.575L720.597 387.93V388.285L720.952 388.61V389.319L721.306 389.674V390.383L721.631 390.709V391.418H721.986V392.128L722.341 392.453V393.517L722.695 393.871V394.551L723.05 394.906V395.97L723.404 396.295V397.359L723.729 397.714V398.749L724.084 399.103V400.138L724.232 400.049ZM703.548 365.495L695.865 374.924L677.043 359.199L684.696 349.77L703.548 365.495ZM675.27 342.084L667.617 351.514L648.765 335.818L656.447 326.389L675.27 342.084ZM647.021 318.437L639.339 327.867L620.487 312.496L628.169 303.096L647.021 318.437Z" fill="#CCCCCC"/>
<path d="M452.255 340H469.349L470.058 341.073L451.576 356.901L443.546 347.392L452.255 340ZM653.843 340H673.004L674.746 341.759L667.099 351.267L653.843 340ZM698.483 371H690.452L676.517 359.077L684.164 349.568L703 365.426L698.483 371ZM434.836 371H416L416.354 370.642V370.285H416.709V369.927H417.033L417.388 369.599V369.361H417.742V369.003H418.096L418.45 368.645V368.288H418.805L419.13 367.96L419.484 367.602L419.838 367.244H420.192V366.887L420.547 366.529H420.871V366.201H421.226L421.58 365.843L421.934 365.486H422.289V365.128H422.613V364.77H422.968V364.413H423.322L423.676 364.085H424.03V363.727H424.355V363.399H424.709L425.064 363.041L434.128 355.649L442.158 365.158L434.836 371Z" fill="#666666"/>
<path fill-rule="evenodd" clip-rule="evenodd" d="M650.217 443.993H667.651C674.53 443.995 681.242 441.85 686.865 437.852C692.489 433.854 696.748 428.199 699.061 421.662C701.373 415.125 701.624 408.026 699.78 401.339C697.936 394.653 694.087 388.705 688.76 384.312L584.919 297.075C578.923 291.924 571.322 289.066 563.447 289.001C555.573 288.936 547.927 291.668 541.848 296.719L440.447 381.85L439.77 382.562C433.794 386.594 429.273 392.471 426.886 399.312C424.499 406.154 424.374 413.592 426.53 420.512C428.686 427.431 433.007 433.46 438.844 437.693C444.682 441.927 451.722 444.137 458.91 443.993H650.217Z" fill="#333333"/>
<path fill-rule="evenodd" clip-rule="evenodd" d="M673 371L636.456 340H489.897L453 371H673Z" fill="black"/>
<path fill-rule="evenodd" clip-rule="evenodd" d="M562.941 289.001C555.186 288.943 547.666 291.68 541.732 296.719L440.276 381.921L439.599 382.634C433.674 386.688 429.202 392.564 426.849 399.387C424.495 406.211 424.386 413.619 426.537 420.51C428.687 427.402 432.983 433.409 438.787 437.64C444.59 441.872 451.591 444.101 458.749 443.997H563L562.941 289.001Z" fill="#1A1A1A"/>
<path fill-rule="evenodd" clip-rule="evenodd" d="M489.893 340L453 371H563V340H489.893Z" fill="black"/>
<path fill-rule="evenodd" clip-rule="evenodd" d="M662.039 377.015C666.189 376.886 670.322 377.592 674.194 379.092C678.066 380.591 681.597 382.852 684.578 385.742C687.559 388.632 689.929 392.092 691.547 395.915C693.166 399.738 694 403.848 694 408C694 412.152 693.166 416.261 691.547 420.085C689.929 423.908 687.559 427.368 684.578 430.258C681.597 433.148 678.066 435.409 674.194 436.908C670.322 438.408 666.189 439.114 662.039 438.985C653.987 438.735 646.349 435.361 640.743 429.578C635.136 423.794 632 416.055 632 408C632 399.945 635.136 392.206 640.743 386.422C646.349 380.639 653.987 377.265 662.039 377.015Z" fill="#999999"/>
<path fill-rule="evenodd" clip-rule="evenodd" d="M463.5 377C469.532 377 475.429 378.818 480.445 382.224C485.461 385.631 489.37 390.472 491.678 396.137C493.987 401.801 494.591 408.034 493.414 414.048C492.237 420.061 489.332 425.585 485.067 429.92C480.801 434.256 475.367 437.208 469.45 438.404C463.534 439.6 457.401 438.987 451.828 436.64C446.255 434.294 441.492 430.321 438.14 425.223C434.789 420.125 433 414.131 433 408C432.992 403.927 433.776 399.892 435.306 396.128C436.836 392.363 439.082 388.942 441.916 386.062C444.75 383.182 448.115 380.899 451.819 379.344C455.523 377.789 459.493 376.992 463.5 377Z" fill="#999999"/>
<path fill-rule="evenodd" clip-rule="evenodd" d="M662.308 377C670.443 377.016 678.241 380.249 683.993 385.993C689.746 391.737 692.984 399.523 693 407.646V408H632V407.646C631.984 399.58 635.16 391.833 640.836 386.094C646.513 380.354 654.23 377.085 662.308 377Z" fill="#CCCCCC"/>
<path fill-rule="evenodd" clip-rule="evenodd" d="M463.189 377C471.134 377.085 478.725 380.354 484.309 386.094C489.892 391.833 493.016 399.58 493 407.646V408H433V407.646C433.015 399.523 436.201 391.737 441.859 385.993C447.517 380.249 455.187 377.016 463.189 377Z" fill="#CCCCCC"/>
<path fill-rule="evenodd" clip-rule="evenodd" d="M562.736 295C568.766 295.048 574.646 296.911 579.635 300.354C584.623 303.797 588.495 308.665 590.762 314.344C593.029 320.023 593.589 326.258 592.371 332.26C591.154 338.263 588.213 343.764 583.92 348.068C579.628 352.372 574.177 355.287 568.255 356.443C562.334 357.6 556.208 356.946 550.652 354.565C545.096 352.184 540.358 348.183 537.039 343.067C533.719 337.951 531.966 331.949 532.001 325.821C532.078 317.614 535.342 309.771 541.082 303.998C546.822 298.226 554.573 294.992 562.648 295H562.736Z" fill="#CCCCCC"/>
<path fill-rule="evenodd" clip-rule="evenodd" d="M562.985 34C593.998 34.0547 623.725 46.4074 645.656 68.3529C667.588 90.2985 679.937 120.048 680 151.088V322H446V151.088C446.062 120.053 458.408 90.308 480.333 68.3634C502.259 46.4187 531.978 34.0626 562.985 34Z" fill="#2C4B9B"/>
<path fill-rule="evenodd" clip-rule="evenodd" d="M663.882 322H446V151.26C446.078 122.592 456.642 94.9427 475.7 73.5264C494.758 52.1101 520.993 38.4066 549.458 35C580.02 35.7464 609.087 48.3849 630.477 70.2283C651.867 92.0717 663.894 121.397 664 151.97L663.882 322Z" fill="#2380C6"/>
<path fill-rule="evenodd" clip-rule="evenodd" d="M489 235C517.147 179 608.853 179 637 235H489Z" fill="#6B4898"/>
<path fill-rule="evenodd" clip-rule="evenodd" d="M437.803 246H687.197C694.265 245.984 701.051 248.769 706.073 253.746C711.096 258.723 713.945 265.487 714 272.561V332.174C713.938 339.27 711.095 346.057 706.082 351.075C701.068 356.092 694.287 358.938 687.197 359H437.803C430.713 358.938 423.932 356.092 418.918 351.075C413.905 346.057 411.062 339.27 411 332.174V272.561C411.055 265.487 413.904 258.723 418.927 253.746C423.949 248.769 430.735 245.984 437.803 246Z" fill="#B3B3B3"/>
<path fill-rule="evenodd" clip-rule="evenodd" d="M436.999 246.059H687.119C694.207 246.043 701.013 248.818 706.05 253.777C711.087 258.737 713.945 265.477 714 272.525V305.873C710.607 309.493 706.481 312.356 701.893 314.272C697.305 316.188 692.36 317.114 687.385 316.989H436.615C431.64 317.112 426.696 316.186 422.108 314.269C417.521 312.353 413.394 309.492 410 305.873V272.466C410.055 265.418 412.913 258.678 417.95 253.719C422.987 248.759 429.793 245.984 436.881 246L436.999 246.059Z" fill="#CCCCCC"/>
<path d="M407.811 270H425.83C427.989 270.023 430.053 270.889 431.58 272.411C433.107 273.932 433.975 275.99 433.999 278.142V325.857C434.019 326.931 433.822 327.999 433.418 328.996C433.015 329.993 432.414 330.899 431.651 331.659C430.889 332.419 429.98 333.018 428.98 333.42C427.98 333.822 426.908 334.019 425.83 333.999H407.811C406.761 333.979 405.725 333.753 404.763 333.332C403.8 332.912 402.931 332.306 402.206 331.549C401.48 330.792 400.911 329.899 400.533 328.922C400.155 327.945 399.975 326.903 400.003 325.857V278.142C400.008 276.046 400.822 274.031 402.275 272.516C403.728 271.001 405.71 270.1 407.811 270Z" fill="#666666"/>
<path fill-rule="evenodd" clip-rule="evenodd" d="M403.673 270H411.993C413.05 270.015 414.06 270.468 414.808 271.262C415.556 272.056 415.983 273.128 415.997 274.251V329.747C416.017 330.31 415.927 330.873 415.733 331.398C415.539 331.923 415.244 332.4 414.868 332.799C414.492 333.198 414.043 333.51 413.548 333.716C413.053 333.923 412.524 334.018 411.993 333.997H403.673C403.167 333.982 402.669 333.859 402.208 333.636C401.747 333.412 401.334 333.093 400.992 332.696C400.65 332.3 400.386 331.834 400.217 331.328C400.048 330.821 399.976 330.283 400.007 329.747V274.4C400.003 273.332 400.378 272.302 401.058 271.515C401.737 270.727 402.671 270.24 403.673 270.15V270Z" fill="#333333"/>
<path d="M398.907 311H405.093C405.849 311.04 406.563 311.333 407.099 311.821C407.635 312.309 407.956 312.96 408 313.65V324.643C407.937 325.299 407.6 325.907 407.059 326.343C406.518 326.778 405.814 327.007 405.093 326.983H398.907C398.544 327.023 398.175 326.992 397.825 326.893C397.476 326.794 397.153 326.628 396.879 326.407C396.604 326.186 396.384 325.915 396.232 325.611C396.081 325.307 396.002 324.977 396 324.643V313.65C395.996 313.301 396.068 312.955 396.213 312.631C396.358 312.308 396.572 312.015 396.842 311.768C397.113 311.521 397.435 311.326 397.79 311.194C398.145 311.062 398.524 310.996 398.907 311Z" fill="#666666"/>
<path d="M398.917 277.017H405.096C405.816 276.993 406.519 277.222 407.06 277.657C407.6 278.092 407.937 278.7 408 279.355V290.341C408.004 290.689 407.932 291.035 407.787 291.358C407.643 291.681 407.429 291.975 407.158 292.221C406.888 292.468 406.566 292.663 406.212 292.794C405.858 292.926 405.478 292.992 405.096 292.988H398.917C398.526 293.023 398.131 292.979 397.762 292.858C397.392 292.738 397.056 292.544 396.778 292.29C396.5 292.037 396.288 291.731 396.155 291.394C396.023 291.057 395.974 290.697 396.013 290.341V279.355C396.014 279.021 396.094 278.692 396.245 278.388C396.396 278.084 396.616 277.813 396.89 277.592C397.164 277.372 397.487 277.206 397.836 277.107C398.185 277.008 398.554 276.977 398.917 277.017Z" fill="#666666"/>
<path fill-rule="evenodd" clip-rule="evenodd" d="M444.443 235H681.557C682.191 235.044 682.789 235.33 683.238 235.804C683.688 236.279 683.958 236.909 684 237.579V243.451C684.004 243.79 683.943 244.126 683.822 244.439C683.7 244.752 683.52 245.036 683.291 245.274C683.063 245.511 682.792 245.698 682.494 245.823C682.196 245.948 681.877 246.008 681.557 245.999H444.443C444.123 246.008 443.804 245.948 443.506 245.823C443.208 245.698 442.937 245.511 442.709 245.274C442.48 245.036 442.3 244.752 442.178 244.439C442.057 244.126 441.996 243.79 442 243.451V237.579C442.042 236.909 442.312 236.279 442.762 235.804C443.211 235.33 443.809 235.044 444.443 235Z" fill="#B3B3B3"/>
<path fill-rule="evenodd" clip-rule="evenodd" d="M485.005 114.981C480.506 139.701 480.506 181.804 488.827 191.881C516.615 226.706 609.387 226.706 637.498 191.881C645.467 181.804 645.467 139.701 640.968 114.981C635.087 84.3395 491.003 84.3395 485.122 114.981H485.005Z" fill="#6A4998"/>
<path fill-rule="evenodd" clip-rule="evenodd" d="M484.999 114.984C480.509 139.707 480.509 181.815 488.814 191.892C502.694 209.307 532.833 218 563 218V92C525.555 92 488.109 99.6614 484.999 114.984Z" fill="#8765B6"/>
<path fill-rule="evenodd" clip-rule="evenodd" d="M537.987 146.015C539.888 146.13 541.67 146.916 542.973 148.214C544.275 149.511 545 151.222 545 153C545 154.778 544.275 156.489 542.973 157.786C541.67 159.084 539.888 159.87 537.987 159.985C536.963 160.047 535.937 159.913 534.971 159.59C534.005 159.267 533.12 158.763 532.372 158.108C531.623 157.453 531.026 156.662 530.618 155.783C530.21 154.905 530 153.958 530 153C530 152.042 530.21 151.095 530.618 150.217C531.026 149.338 531.623 148.547 532.372 147.892C533.12 147.237 534.005 146.733 534.971 146.41C535.937 146.087 536.963 145.953 537.987 146.015Z" fill="black"/>
<path fill-rule="evenodd" clip-rule="evenodd" d="M588.5 146C590.262 146.116 591.914 146.903 593.121 148.204C594.328 149.504 595 151.218 595 153C595 154.782 594.328 156.496 593.121 157.797C591.914 159.097 590.262 159.884 588.5 160C586.738 159.884 585.086 159.097 583.879 157.797C582.672 156.496 582 154.782 582 153C582 151.218 582.672 149.504 583.879 148.204C585.086 146.903 586.738 146.116 588.5 146Z" fill="black"/>
<path fill-rule="evenodd" clip-rule="evenodd" d="M501.172 169.015C505.163 169.194 508.933 170.956 511.695 173.934C514.458 176.912 516 180.877 516 185C516 189.123 514.458 193.088 511.695 196.066C508.933 199.044 505.163 200.806 501.172 200.985C499.082 201.079 496.995 200.734 495.037 199.973C493.079 199.212 491.291 198.05 489.78 196.556C488.269 195.063 487.067 193.269 486.245 191.283C485.424 189.297 485 187.16 485 185C485 182.84 485.424 180.703 486.245 178.717C487.067 176.731 488.269 174.937 489.78 173.444C491.291 171.95 493.079 170.788 495.037 170.027C496.995 169.266 499.082 168.921 501.172 169.015Z" fill="#FF8B95"/>
<path fill-rule="evenodd" clip-rule="evenodd" d="M624.172 169.015C628.163 169.194 631.932 170.956 634.695 173.934C637.458 176.912 639 180.877 639 185C639 189.123 637.458 193.088 634.695 196.066C631.932 199.044 628.163 200.806 624.172 200.985C622.082 201.079 619.995 200.734 618.037 199.973C616.079 199.212 614.291 198.05 612.78 196.556C611.269 195.063 610.067 193.269 609.245 191.283C608.424 189.297 608 187.16 608 185C608 182.84 608.424 180.703 609.245 178.717C610.067 176.731 611.269 174.937 612.78 173.444C614.291 171.95 616.079 170.788 618.037 170.027C619.995 169.266 622.082 168.921 624.172 169.015Z" fill="#FF8B95"/>
<path fill-rule="evenodd" clip-rule="evenodd" d="M570.855 177C572.976 176.996 575.077 177.458 577.038 178.361C578.998 179.265 580.78 180.59 582.28 182.263C583.78 183.935 584.969 185.921 585.779 188.107C586.589 190.292 587.004 192.635 587 195H555C554.977 190.285 556.622 185.75 559.58 182.38C562.537 179.01 566.568 177.077 570.796 177H570.855Z" fill="black"/>
<path fill-rule="evenodd" clip-rule="evenodd" d="M529.056 65C529.992 65.0151 530.915 65.2259 531.773 65.6199C532.63 66.014 533.405 66.5834 534.051 67.2952C534.697 68.0069 535.201 68.8467 535.536 69.7656C535.87 70.6844 536.026 71.6639 535.996 72.6471C535.996 74.5972 535.259 76.4674 533.947 77.8464C532.635 79.2253 530.856 80 529 80C527.144 80 525.365 79.2253 524.053 77.8464C522.741 76.4674 522.004 74.5972 522.004 72.6471C521.974 71.6639 522.13 70.6844 522.465 69.7656C522.799 68.8467 523.303 68.0069 523.949 67.2952C524.595 66.5834 525.37 66.014 526.227 65.6199C527.085 65.2259 528.008 65.0151 528.944 65H529.056Z" fill="#8765B6"/>
<path fill-rule="evenodd" clip-rule="evenodd" d="M527.324 74H528.986H530.648L532 108H528.986H526L527.324 74Z" fill="#8765B6"/>
<path fill-rule="evenodd" clip-rule="evenodd" d="M596.678 65C598.146 65.0351 599.571 65.5002 600.777 66.3378C601.983 67.1753 602.917 68.3483 603.463 69.7114C604.008 71.0746 604.142 72.5679 603.847 74.0062C603.552 75.4446 602.841 76.7647 601.803 77.803C600.765 78.8412 599.445 79.5519 598.006 79.847C596.568 80.142 595.075 80.0085 593.711 79.4628C592.348 78.9172 591.175 77.9835 590.338 76.7775C589.5 75.5714 589.035 74.1462 589 72.6783C589 70.6419 589.809 68.6889 591.249 67.2489C592.689 65.809 594.642 65 596.678 65Z" fill="#8765B6"/>
<path fill-rule="evenodd" clip-rule="evenodd" d="M594.836 74H596.671H598.133L600 108H596.671H593L594.836 74Z" fill="#8765B6"/>
<path fill-rule="evenodd" clip-rule="evenodd" d="M487.183 204C488.971 204.059 490.67 204.769 491.936 205.988C493.202 207.207 493.939 208.843 494 210.565V224.428C494 226.17 493.282 227.839 492.003 229.071C490.725 230.302 488.991 230.994 487.183 230.994C486.259 231.033 485.337 230.893 484.471 230.581C483.605 230.27 482.813 229.793 482.143 229.181C481.472 228.568 480.937 227.831 480.569 227.015C480.201 226.198 480.007 225.318 480 224.428V210.565C480.079 208.788 480.872 207.109 482.212 205.884C483.553 204.659 485.335 203.983 487.183 204Z" fill="#A43737"/>
<path fill-rule="evenodd" clip-rule="evenodd" d="M637.655 204C639.317 204.051 640.899 204.759 642.077 205.978C643.256 207.198 643.943 208.838 644 210.565V224.428C644 225.293 643.836 226.149 643.517 226.948C643.197 227.746 642.729 228.471 642.14 229.081C641.55 229.691 640.851 230.174 640.081 230.502C639.311 230.83 638.487 230.997 637.655 230.994C636.799 231.033 635.945 230.893 635.143 230.581C634.34 230.27 633.607 229.793 632.985 229.181C632.364 228.568 631.868 227.831 631.527 227.015C631.186 226.198 631.007 225.318 631 224.428V210.565C631.073 208.788 631.808 207.109 633.05 205.884C634.292 204.659 635.943 203.983 637.655 204Z" fill="#A43737"/>
<path fill-rule="evenodd" clip-rule="evenodd" d="M487.016 211C491.243 211.054 495.282 212.759 498.269 215.751C501.256 218.744 502.954 222.786 503 227.014C503.004 229.114 502.593 231.194 501.791 233.135C500.989 235.076 499.812 236.84 498.327 238.325C496.842 239.81 495.078 240.987 493.137 241.789C491.196 242.591 489.116 243.002 487.016 242.998C484.905 243.033 482.809 242.645 480.852 241.854C478.895 241.064 477.117 239.889 475.623 238.398C474.129 236.907 472.95 235.13 472.156 233.175C471.363 231.219 470.97 229.124 471.002 227.014C470.998 224.91 471.409 222.825 472.213 220.881C473.016 218.936 474.196 217.169 475.683 215.682C477.171 214.194 478.938 213.014 480.883 212.211C482.827 211.408 484.912 210.996 487.016 211Z" fill="#8765B6"/>
<path fill-rule="evenodd" clip-rule="evenodd" d="M637.986 211C642.219 211.046 646.266 212.748 649.259 215.741C652.252 218.734 653.954 222.781 654 227.014C654.004 229.116 653.592 231.199 652.788 233.142C651.985 235.085 650.805 236.85 649.317 238.335C647.828 239.821 646.061 240.997 644.117 241.797C642.172 242.598 640.089 243.005 637.986 242.998C635.877 243.034 633.783 242.645 631.827 241.854C629.872 241.063 628.096 239.887 626.604 238.396C625.113 236.904 623.937 235.128 623.146 233.173C622.355 231.217 621.966 229.123 622.002 227.014C621.995 224.911 622.402 222.828 623.203 220.883C624.003 218.939 625.179 217.172 626.665 215.683C628.15 214.195 629.915 213.015 631.858 212.212C633.801 211.408 635.884 210.996 637.986 211Z" fill="#8765B6"/>
<path fill-rule="evenodd" clip-rule="evenodd" d="M637.485 74C640.841 74.0624 644.037 75.4592 646.38 77.8872C648.723 80.3153 650.023 83.5787 650 86.9694C649.844 90.2127 648.459 93.2711 646.132 95.5109C643.805 97.7506 640.714 99 637.5 99C634.286 99 631.195 97.7506 628.868 95.5109C626.541 93.2711 625.156 90.2127 625 86.9694C624.976 83.5837 626.273 80.3247 628.61 77.8975C630.946 75.4702 634.135 74.0701 637.485 74Z" fill="white"/>
<path d="M468 391H459V426H468V391Z" fill="#E6E6E6"/>
<path d="M680 403H645V412H680V403Z" fill="#E6E6E6"/>
<path fill-rule="evenodd" clip-rule="evenodd" d="M688.272 258H692.728C694.908 258.029 696.99 258.879 698.534 260.369C700.078 261.86 700.962 263.874 701 265.986C700.97 268.102 700.089 270.124 698.544 271.62C696.999 273.117 694.913 273.971 692.728 274H688.272C686.087 273.971 684.001 273.117 682.456 271.62C680.911 270.124 680.03 268.102 680 265.986C680.038 263.874 680.922 261.86 682.466 260.369C684.01 258.879 686.092 258.029 688.272 258Z" fill="white"/>
<path fill-rule="evenodd" clip-rule="evenodd" d="M596.27 258H647.701C649.888 258.029 651.977 258.879 653.526 260.369C655.075 261.86 655.962 263.874 656 265.986C655.97 268.102 655.086 270.124 653.536 271.62C651.986 273.117 649.893 273.971 647.701 274H596.27C594.083 273.964 591.997 273.107 590.454 271.611C588.91 270.115 588.03 268.097 588 265.986C588.03 263.877 588.911 261.863 590.456 260.371C592 258.88 594.086 258.029 596.27 258Z" fill="white"/>
<path d="M674 455H658V467H674V455Z" fill="#CCCCCC"/>
<path d="M1091 443H81V476H1091V443Z" fill="#BC3252"/>
<path d="M1091 443H81V459H1091V443Z" fill="#E83E65"/>
<path fill-rule="evenodd" clip-rule="evenodd" d="M979.579 408.06C971.601 417.067 953.084 436.431 930.563 442.105C902.39 448.83 990.383 451.832 990.383 454.834C990.383 456.245 997.331 456.245 1005.66 455.525C1014.02 456.245 1020.62 456.245 1020.62 454.834C1020.62 451.622 1108.61 448.83 1080.44 442.045C1058.18 436.371 1039.4 416.886 1031.74 408L979.579 408.06Z" fill="#E83E65"/>
<path fill-rule="evenodd" clip-rule="evenodd" d="M885.124 424C882.326 429.799 874.942 442.845 866.129 446.614C855.232 451.079 889.709 453.109 889.709 455.167C889.709 456.211 892.151 456.211 895.336 455.515C898.849 456.211 901.291 456.211 901.291 455.167C901.291 453.109 935.768 451.079 924.871 446.614C916.088 442.845 908.674 429.828 905.876 424H885.124Z" fill="#E83E65"/>
<path fill-rule="evenodd" clip-rule="evenodd" d="M309.218 424C306.035 429.799 299.014 442.845 290.239 446.614C278.994 451.079 313.769 453.109 313.769 455.167C313.769 456.211 316.238 456.211 319.391 455.515C322.901 456.211 325.341 456.211 325.341 455.167C325.341 453.109 359.759 451.079 348.871 446.614C340.096 442.845 332.718 429.828 329.565 424H309.218Z" fill="#E83E65"/>
<path fill-rule="evenodd" clip-rule="evenodd" d="M168.02 407.059C163.444 416.133 152.569 436.054 139.227 441.64C122.735 448.616 174.825 451.394 174.825 454.852C174.825 456.241 178.688 456.241 183.74 455.532C188.643 456.241 192.654 456.241 192.654 454.852C192.654 451.335 244.239 448.557 227.747 441.581C214.762 435.995 203.975 416.074 199.31 407L168.02 407.059Z" fill="#E83E65"/>
<path fill-rule="evenodd" clip-rule="evenodd" d="M135.95 84.9614C151.681 69.2249 171.726 58.5073 193.548 54.164C215.371 49.8206 237.991 52.0467 258.549 60.5606C279.106 69.0746 296.677 83.4939 309.039 101.995C321.402 120.496 328 142.248 328 164.5C328 186.752 321.402 208.504 309.039 227.005C296.677 245.506 279.106 259.925 258.549 268.439C237.991 276.953 215.371 279.179 193.548 274.836C171.726 270.493 151.681 259.775 135.95 244.039C125.504 233.594 117.217 221.194 111.564 207.547C105.91 193.9 103 179.272 103 164.5C103 149.728 105.91 135.1 111.564 121.453C117.217 107.806 125.504 95.4056 135.95 84.9614Z" fill="#C7C2C2"/>
<path fill-rule="evenodd" clip-rule="evenodd" d="M135 85.1627C156.24 64.4228 184.851 52.8644 214.612 53.0012C244.373 53.138 272.876 64.9591 293.922 85.8934C314.968 106.828 326.856 135.182 326.999 164.79C327.142 194.398 315.529 222.865 294.686 244L135 85.1627Z" fill="#EBEBEB"/>
<path fill-rule="evenodd" clip-rule="evenodd" d="M188.569 85.3237C193.202 80.8622 199.098 77.8283 205.512 76.6048C211.926 75.3813 218.571 76.0231 224.609 78.4492C230.646 80.8752 235.805 84.9768 239.434 90.2362C243.063 95.4955 245 101.677 245 108C245 114.323 243.063 120.504 239.434 125.764C235.805 131.023 230.646 135.125 224.609 137.551C218.571 139.977 211.926 140.619 205.512 139.395C199.098 138.172 193.202 135.138 188.569 130.676C182.435 124.619 179 116.478 179 108C179 99.5215 182.435 91.3807 188.569 85.3237Z" fill="#1D1D3F"/>
<path fill-rule="evenodd" clip-rule="evenodd" d="M165.868 237.657C167.682 235.91 169.993 234.721 172.508 234.239C175.023 233.758 177.629 234.006 179.998 234.953C182.367 235.899 184.391 237.501 185.816 239.557C187.24 241.612 188 244.028 188 246.5C188 248.972 187.24 251.388 185.816 253.443C184.391 255.499 182.367 257.101 179.998 258.047C177.629 258.994 175.023 259.242 172.508 258.761C169.993 258.279 167.682 257.09 165.868 255.343C164.644 254.192 163.671 252.817 163.007 251.298C162.342 249.78 162 248.148 162 246.5C162 244.852 162.342 243.22 163.007 241.702C163.671 240.183 164.644 238.808 165.868 237.657Z" fill="#1D1D3F"/>
<path fill-rule="evenodd" clip-rule="evenodd" d="M156.338 82.3554C157.996 80.8402 160.163 80 162.411 80C164.659 80 166.825 80.8402 168.484 82.3554C170.095 83.9642 171 86.1462 171 88.4214C171 90.6966 170.095 92.8785 168.484 94.4873C166.874 96.0962 164.689 97 162.411 97C160.133 97 157.948 96.0962 156.338 94.4873C154.833 92.8243 154 90.6628 154 88.4214C154 86.18 154.833 84.0184 156.338 82.3554Z" fill="#1D1D3F"/>
<path fill-rule="evenodd" clip-rule="evenodd" d="M273.594 120.477C275.356 118.742 277.458 117.365 279.777 116.425C282.096 115.484 284.585 115 287.1 115C289.614 115 292.104 115.484 294.422 116.425C296.741 117.365 298.843 118.742 300.605 120.477C304.069 123.999 306 128.674 306 133.534C306 138.394 304.069 143.069 300.605 146.591C297.023 150.054 292.165 152 287.1 152C282.034 152 277.176 150.054 273.594 146.591C270.012 143.128 268 138.432 268 133.534C268 128.637 270.012 123.94 273.594 120.477Z" fill="#1D1D3F"/>
<path d="M851 365H833V443H851V365Z" fill="#3F3F25"/>
<path d="M1006 365H987V443H1006V365Z" fill="#3F3F25"/>
<path fill-rule="evenodd" clip-rule="evenodd" d="M789.138 261H1048.89C1051.57 261 1054.14 262.065 1056.04 263.962C1057.94 265.859 1059 268.431 1059 271.113V403.857C1059 406.542 1057.94 409.117 1056.04 411.019C1054.15 412.92 1051.58 413.992 1048.89 414H789.138C786.452 413.992 783.878 412.921 781.978 411.021C780.078 409.12 779.008 406.545 779 403.857V271.113C779.008 268.428 780.079 265.856 781.98 263.96C783.88 262.065 786.455 261 789.138 261Z" fill="#00CCFF"/>
<path fill-rule="evenodd" clip-rule="evenodd" d="M803.063 267H1036.29C1040.71 267.054 1044.92 268.832 1048.05 271.956C1051.17 275.08 1052.95 279.301 1053 283.719V390.281C1052.94 394.696 1051.16 398.913 1048.04 402.036C1044.92 405.158 1040.7 406.939 1036.29 407H803.063C798.596 407.009 794.304 405.261 791.113 402.134C787.921 399.007 786.085 394.75 786 390.281V283.719C786.077 279.248 787.911 274.987 791.104 271.858C794.298 268.729 798.594 266.984 803.063 267Z" fill="#2F9DD6"/>
<path d="M832.482 341.745L838.077 331.768C839.824 328.325 841.215 324.883 842.962 321.09H843.317C842.962 325.233 842.607 331.067 842.607 335.21V341.745H832.482ZM863.95 341.745H857.645V308.342H837.722L817 342.795V353.822H842.518V366.92H857.556V353.822H863.861L863.95 341.745ZM891.57 368C904.862 368 913.95 357.673 913.95 337.34C913.95 317.006 904.862 307 891.57 307C878.278 307 869.545 317.356 869.545 337.34C869.545 357.323 878.278 368 891.57 368ZM891.57 355.952C887.722 355.952 884.584 352.83 884.584 337.34C884.584 321.849 887.722 319.428 891.57 319.428C895.418 319.428 898.556 321.82 898.556 337.34C898.556 352.859 895.418 355.952 891.57 355.952ZM934.228 341.803L939.468 331.826C941.308 328.365 942.939 324.8 944.352 321.149H944.707C944.707 325.291 944.352 331.126 944.352 335.268V341.803H934.228ZM965.696 341.803H959.39V308.342H939.112L918.834 342.795V353.822H944.352V366.92H959.39V353.822H965.696V341.803ZM973.392 358.694C973.456 360.519 974.064 362.286 975.14 363.774C976.216 365.261 977.712 366.404 979.442 367.059C981.172 367.715 983.06 367.854 984.87 367.459C986.68 367.065 988.332 366.154 989.62 364.841C990.908 363.528 991.776 361.869 992.115 360.074C992.453 358.278 992.248 356.423 991.525 354.741C990.802 353.06 989.592 351.625 988.047 350.616C986.502 349.607 984.689 349.068 982.836 349.067C981.558 349.032 980.287 349.26 979.104 349.736C977.92 350.211 976.851 350.925 975.962 351.83C975.074 352.736 974.387 353.814 973.944 354.996C973.502 356.177 973.314 357.437 973.392 358.694ZM1003.47 358.694C1003.46 359.918 1003.7 361.132 1004.17 362.264C1004.64 363.397 1005.34 364.426 1006.22 365.291C1007.1 366.157 1008.14 366.842 1009.29 367.307C1010.44 367.772 1011.67 368.008 1012.91 368C1015.37 367.865 1017.68 366.81 1019.37 365.049C1021.06 363.288 1022 360.957 1022 358.533C1022 356.11 1021.06 353.778 1019.37 352.018C1017.68 350.257 1015.37 349.201 1012.91 349.067C1011.64 349.066 1010.39 349.317 1009.22 349.805C1008.05 350.292 1007 351.007 1006.12 351.905C1005.24 352.803 1004.55 353.868 1004.09 355.034C1003.64 356.2 1003.43 357.445 1003.47 358.694Z" fill="white"/>
</svg>
